<svg width="24" height="26" viewBox="0 0 24 26" fill="none" xmlns="http://www.w3.org/2000/svg">
<g clip-path="url(#clip0_190_9961)">
<path d="M21.2155 19.181C22.916 18.9889 23.7976 21.3892 22.4643 22.5912C22.1636 22.8625 21.8526 23.1195 21.5321 23.3621L19.3607 21.8482L21.2155 19.181Z" fill="#BDA41C"/>
<path d="M3.03 0.727608C4.09843 -0.772316 6.23205 0.219492 6.06125 2.13181C6.01453 2.64932 5.99088 3.17399 5.99088 3.70516L3.75041 3.9026L2.07486 2.24698C2.36655 1.71865 2.68581 1.21125 3.03 0.727608Z" fill="#BDA41C"/>
<path d="M21.2155 19.1812L21.5322 23.3621C19.3301 25.0283 16.6789 26 13.8261 26C6.16873 26 6.10352e-05 19.0602 6.10352e-05 10.4456C6.10352e-05 7.4364 0.759477 4.62723 2.07482 2.24707L5.99084 3.70525C5.99084 12.2896 12.1864 19.2603 19.8176 19.2596C20.2897 19.2596 20.7562 19.233 21.2155 19.1812Z" fill="#FFE500"/>
<path d="M2.97484 10.4456C2.97484 7.81995 3.55312 5.3467 4.57429 3.17774L2.07482 2.24707C0.759476 4.62718 6.10352e-05 7.4364 6.10352e-05 10.4456C6.10352e-05 19.0602 6.16873 26 13.8261 26C14.3279 26 14.8233 25.9693 15.3113 25.9106C8.35918 25.0793 2.97484 18.4938 2.97484 10.4456Z" fill="#D2B82F"/>
<path d="M16.5753 23.2672C12.7866 23.2672 9.23144 21.6149 6.56468 18.6147C3.89793 15.6145 2.42929 11.6148 2.42929 7.35225C2.42929 6.72307 2.46229 6.08851 2.52742 5.46624C2.5481 5.2688 2.70739 5.12773 2.88248 5.15094C3.05798 5.17419 3.18343 5.35304 3.16275 5.55038C3.10051 6.14488 3.06895 6.7511 3.06895 7.35225C3.06895 11.4225 4.47106 15.2416 7.01698 18.1058C9.56289 20.97 12.9574 22.5474 16.5751 22.5474C16.9431 22.5474 17.3175 22.5301 17.6878 22.4961C17.8638 22.4801 18.0183 22.6273 18.0327 22.8254C18.0471 23.0235 17.9161 23.1972 17.74 23.2134C17.3525 23.2491 16.9606 23.2672 16.5753 23.2672Z" fill="#74640E"/>
</g>
<defs>
<clipPath id="clip0_190_9961">
<rect width="23.1111" height="26" fill="white"/>
</clipPath>
</defs>
</svg>
