<svg width="289" height="289" viewBox="0 0 289 289" fill="none" xmlns="http://www.w3.org/2000/svg">
<g clip-path="url(#clip0_592_11143)">
<mask id="mask0_592_11143" style="mask-type:alpha" maskUnits="userSpaceOnUse" x="9" y="21" width="250" height="250">
<circle cx="134" cy="146" r="125" fill="#D9D9D9"/>
</mask>
<g mask="url(#mask0_592_11143)">
<path d="M123.857 53.3185C125.122 50.0388 127.154 46.9888 130.001 44.9267C132.848 42.8646 136.559 41.8791 139.976 42.7045C140.175 42.7526 140.41 42.846 140.438 43.0486C141.766 41.7533 143.534 41.393 145.338 40.9588C150.266 39.7741 155.636 39.8666 160.21 42.0516C164.783 44.2366 168.393 48.7306 168.736 53.7879C171.323 52.9673 174.136 53.8723 175.955 55.8886C177.773 57.9045 178.562 60.6895 178.606 63.404C178.678 67.8322 176.673 72.4348 172.891 74.739C170.536 76.173 168.269 77.3849 165.513 77.331C157.069 77.1652 148.767 74.4464 141.545 70.0697C134.323 65.6929 128.922 60.0757 123.857 53.3185Z" fill="#040308"/>
<path d="M201.483 259.392C201.488 259.584 199.712 261.212 199.43 261.492C198.5 262.418 197.381 263.215 196.323 263.987C194.252 265.497 192.054 266.826 189.792 268.03C171.709 277.647 150.836 305.293 130.576 302.218C128.962 301.973 127.353 301.686 125.754 301.357C125.104 301.224 121.214 300.446 121.214 300.446L120.501 300.87C111.417 297.851 102.751 301.518 94.9198 296.008C92.964 318.631 91.0602 317.18 89.2173 291.655C87.3887 290.142 85.3681 289.036 85.2242 286.585C84.9039 281.117 84.6037 219.649 84.2934 214.181C84.2934 207.25 83.4995 200.205 83.1059 193.282C82.7279 186.642 82.35 180.002 81.9721 173.362C81.8125 170.557 81.6009 167.75 81.4932 164.942C82.9195 163.165 84.3768 161.47 85.8756 159.857C85.9271 159.805 85.9686 159.774 85.9995 159.733C102.568 141.81 121.751 134.627 121.751 134.627L156.232 136.26C156.232 136.26 167.219 142.028 177.545 149.997C183.41 154.513 189.251 159.516 192.895 166.073C196.098 171.837 196.488 179.2 197.332 185.623C197.484 186.78 197.63 187.939 197.772 189.097C199.478 202.999 200.976 245.025 201.483 259.392Z" fill="#E2209E"/>
<path d="M112.587 67.9441C111.124 73.8082 112.175 79.9954 113.653 85.8552C115.131 91.7155 117.043 97.5381 117.309 103.576C117.434 106.427 117.205 109.386 118.269 112.035C119.61 115.371 122.827 117.646 126.222 118.829C127.087 117.116 127.236 115.142 127.24 113.223C127.257 105.08 126.892 96.859 124.816 88.9853C122.739 81.1115 118.733 73.2859 112.587 67.9441Z" fill="#040308"/>
<path d="M156.619 121.84L156.589 122.911L156.445 128.396L154.039 130.373L156.344 132.224L156.236 136.262C156.236 136.262 153.23 142.412 141.313 143.532C129.406 144.662 121.753 134.632 121.753 134.632C121.753 134.632 123.001 127.862 123.129 121.712C123.256 115.572 121.125 108.548 121.125 108.548L156.619 121.84Z" fill="#EF8E4D"/>
<path d="M156.589 122.911L156.344 132.224C151.118 133.983 145.213 133.668 140.144 131.448C134.239 128.864 129.514 123.825 127.028 117.871C137.078 119.62 146.962 119.807 156.589 122.911Z" fill="black"/>
<path d="M163.672 125.216C149.303 134.012 127.329 129.883 121.889 111.589C119.534 103.655 118.165 97.3943 117.369 92.8565C116.904 90.2115 116.646 88.1485 116.486 86.6802C116.058 84.6906 115.812 82.6399 115.809 80.5402C115.785 64.653 128.716 51.7563 144.688 51.732C151.254 51.722 157.301 53.8851 162.161 57.5432C166.339 60.6871 169.634 64.9442 171.588 69.797C173.829 75.3595 173.635 81.1916 173.701 87.0619C173.751 91.4544 173.773 95.8254 173.425 100.214C172.813 107.922 171.666 117.746 165.857 123.487C165.193 124.142 164.467 124.729 163.672 125.216Z" fill="#EF8E4D"/>
<path d="M112.277 89.5467C109.996 89.7111 107.91 91.1665 106.733 93.1266C105.557 95.0867 105.236 97.49 105.584 99.7494C106.37 104.864 110.74 109.219 115.858 109.987C117.149 110.18 118.521 110.154 119.69 109.573C121.257 108.795 122.227 107.108 122.517 105.383C122.807 103.658 122.505 101.888 122.076 100.192C120.854 95.3717 118.467 89.1006 112.277 89.5467Z" fill="#EF8E4D"/>
<path d="M116.543 102.471C116.566 102.464 116.59 102.455 116.612 102.443C116.763 102.359 116.818 102.168 116.734 102.016C116.101 100.874 115.445 99.6922 114.591 98.6514C113.613 97.46 112.52 96.6432 111.341 96.2233C111.178 96.1657 110.998 96.251 110.94 96.4144C110.882 96.5779 110.967 96.7571 111.131 96.8152C112.2 97.1951 113.201 97.9475 114.106 99.0498C114.923 100.046 115.565 101.202 116.185 102.321C116.256 102.451 116.407 102.509 116.543 102.471Z" fill="#040308"/>
<path d="M158.811 107.196C158.802 107.196 158.792 107.195 158.782 107.195C157.591 107.176 155.221 106.477 154.741 105.152C154.695 105.025 154.761 104.884 154.889 104.837C155.014 104.792 155.157 104.856 155.204 104.985C155.595 106.065 157.777 106.687 158.79 106.704C159.114 106.702 159.379 106.596 159.586 106.36C160.598 105.203 160.056 101.58 159.851 100.216L159.796 99.8353C159.303 96.2267 158.354 93.2763 156.892 90.8154C156.822 90.6991 156.861 90.548 156.978 90.4794C157.096 90.4108 157.246 90.4479 157.314 90.5652C158.81 93.0824 159.78 96.0933 160.282 99.7685L160.337 100.143C160.571 101.702 161.118 105.355 159.955 106.684C159.658 107.024 159.273 107.196 158.811 107.196Z" fill="black"/>
<path d="M145.688 93.1387C145.688 94.4325 144.778 95.481 143.657 95.481C142.536 95.481 141.627 94.4321 141.627 93.1387C141.627 91.8448 142.536 90.7959 143.657 90.7959C144.778 90.7964 145.688 91.8448 145.688 93.1387Z" fill="black"/>
<path d="M166.274 93.1387C166.274 94.4325 165.364 95.481 164.243 95.481C163.123 95.481 162.213 94.4321 162.213 93.1387C162.213 91.8448 163.123 90.7959 164.243 90.7959C165.364 90.7959 166.274 91.8448 166.274 93.1387Z" fill="black"/>
<path d="M139.401 86.6234C139.324 86.8231 139.277 87.0385 139.298 87.2515C139.35 87.7786 139.809 88.1942 140.313 88.3557C140.818 88.5173 141.362 88.4744 141.888 88.4205C143.213 88.2857 144.565 88.0808 145.729 87.4355C146.137 87.2096 146.526 86.9222 146.772 86.5257C147.018 86.1297 147.098 85.6084 146.887 85.1928C146.55 84.5299 145.678 84.3912 144.935 84.3564C143.076 84.2697 140.196 84.5761 139.401 86.6234Z" fill="black"/>
<path d="M169.303 85.893C169.388 86.0888 169.444 86.3023 169.432 86.5163C169.403 87.0448 168.962 87.4799 168.465 87.6624C167.968 87.845 167.423 87.8259 166.895 87.7944C165.566 87.7163 164.206 87.569 163.015 86.9743C162.598 86.766 162.197 86.4953 161.935 86.1098C161.672 85.7243 161.57 85.2072 161.763 84.783C162.072 84.1063 162.937 83.9309 163.678 83.8642C165.53 83.6984 168.421 83.8814 169.303 85.893Z" fill="black"/>
<path d="M156.658 111.48C156.37 111.48 156.083 111.457 155.8 111.409C154.325 111.163 152.96 110.267 152.149 109.012C152.08 108.907 152.111 108.765 152.216 108.696C152.322 108.629 152.464 108.658 152.532 108.764C153.275 109.914 154.525 110.734 155.875 110.96C157.225 111.186 158.673 110.813 159.749 109.967C159.85 109.892 159.992 109.907 160.07 110.006C160.148 110.104 160.13 110.249 160.032 110.327C159.082 111.072 157.868 111.48 156.658 111.48Z" fill="black"/>
<path d="M86.1744 159.59C86.1744 159.59 59.4188 182.332 50.3889 220.793L96.4167 222.8L86.1744 159.59Z" fill="#E2209E"/>
<path d="M113.796 91.2099C114.945 92.6887 116.392 94.1732 118.043 94.7246C118.813 94.9814 119.673 94.6717 120.34 94.229C122.627 92.7097 123.381 89.9022 123.972 87.3345C127.95 87.0405 131.227 84.0567 132.524 80.5211C133.821 76.9855 132.676 72.776 129.731 70.2531C132.549 69.1089 135.346 67.4633 136.905 64.9852C139.276 61.2165 137.76 55.7642 133.728 53.5577C130.973 52.0503 127.508 52.0413 124.449 52.891C112.114 56.3184 107.879 71.1548 109.73 81.9499C110.197 84.6686 111.053 87.264 112.637 89.5992C112.979 90.1029 113.367 90.6562 113.796 91.2099Z" fill="#FFE500"/>
<path d="M132.457 52.385C133.817 54.5872 135.367 56.7093 137.357 58.3644C139.347 60.0195 141.822 61.1856 144.409 61.2547C145.286 61.2781 146.189 61.1685 146.959 60.7486C147.728 60.3288 148.343 59.5548 148.396 58.6799C151.352 63.0495 156.701 65.4609 161.977 65.4728C164.464 65.4785 167.332 64.5883 168.183 62.2527C168.85 60.4227 168.017 58.3939 166.976 56.7474C162.291 49.3369 153.26 45.3723 144.492 45.35C142.189 45.3442 139.852 45.5873 137.715 46.447C135.58 47.3067 133.459 50.311 132.457 52.385Z" fill="#FFE500"/>
<path d="M216.332 240.905C215.475 241.701 214.606 242.466 213.717 243.22C210.937 245.608 208.012 247.82 204.953 249.836C204.798 249.95 204.632 250.052 204.477 250.156C200.828 252.564 197.004 254.735 193.025 256.595C190.017 258.022 186.927 259.303 183.753 260.409L191.577 200.337L195.567 169.702C195.567 169.702 195.856 170.001 196.352 170.549C196.466 170.683 196.601 170.828 196.745 170.994C200.249 174.931 210.544 187.273 213.179 198.776C213.303 199.303 213.417 199.872 213.521 200.482C215.247 209.743 216.002 227.892 216.332 240.905Z" fill="#E2209E"/>
<path d="M147.438 229.822C146.399 230.017 141.688 217.359 138.808 209.325C137.465 205.6 136.523 202.871 136.523 202.871L147.99 198.172C147.99 198.172 148.315 198.789 148.867 199.839C151.704 205.243 160.529 222.08 161.005 223.466C161.58 225.133 148.965 229.552 147.438 229.822Z" fill="#FCF2E9"/>
<g opacity="0.38">
<path d="M148.867 199.839C145.76 203.25 142.392 206.423 138.808 209.324C137.465 205.6 136.523 202.871 136.523 202.871L147.99 198.171C147.99 198.171 148.315 198.789 148.867 199.839Z" fill="#B8B9FD"/>
</g>
<path d="M210.132 191.513C206.483 189.932 199.283 187.983 185.358 189.781C170.199 191.751 154.531 197.794 141.136 202.98C141.055 203.013 140.618 202.702 140.541 202.733C140.442 202.771 140.703 203.15 140.606 203.186C138.776 203.901 136.978 204.594 135.246 205.254C135.163 205.285 134.867 204.983 134.783 205.014C134.693 205.048 134.816 205.415 134.726 205.449C133.026 206.098 131.369 206.715 129.778 207.289L108.978 196.988L121.234 178.693C122.534 178.314 123.876 177.924 125.241 177.502C125.337 177.477 125.418 177.836 125.519 177.805C125.6 177.781 125.701 177.368 125.782 177.339C127.255 176.895 128.76 176.419 130.254 175.92C130.347 175.893 130.438 176.624 130.527 176.595C130.614 176.567 130.699 175.779 130.785 175.747C135.149 174.307 139.501 172.694 143.345 170.983C158.634 164.161 164.557 161.746 172.462 155.131C180.042 148.785 185.358 138.521 189.018 133.756C190.252 132.154 208.27 144.799 211.215 163.975C214.16 183.141 212.005 192.325 210.132 191.513Z" fill="white"/>
<path d="M129.778 207.289C121.862 210.126 115.355 211.913 111.089 211.165C108.425 210.689 102.914 199.58 103.098 190.04C103.173 186.11 105.859 182.71 109.681 181.779C112.669 181.042 116.73 179.981 121.234 178.693C120.476 188.827 123.606 199.222 129.778 207.289Z" fill="white"/>
<path opacity="0.5" d="M213.38 193.105C212.947 193.04 212.005 192.325 210.132 191.513C210.944 176.733 207.88 161.747 201.253 148.515C198.373 142.744 194.432 136.994 189.018 133.757C190.252 132.154 191.291 131.18 192.179 131.18C195.688 131.18 212.092 145.916 215.037 165.093C217.982 184.258 215.957 193.473 213.38 193.105Z" fill="black"/>
<path d="M141.136 202.98C140.952 203.056 140.779 203.121 140.606 203.186C134.661 195.335 130.991 185.742 130.255 175.921C130.439 175.866 130.612 175.813 130.785 175.748C131.488 185.557 135.159 195.162 141.136 202.98Z" fill="black"/>
<path d="M135.246 205.254C135.073 205.319 134.899 205.384 134.726 205.449C129.031 197.252 125.685 187.485 125.241 177.502C125.414 177.458 125.599 177.404 125.783 177.339C126.205 187.312 129.54 197.089 135.246 205.254Z" fill="black"/>
<path d="M118.237 226.361C118.237 226.361 139.435 203.289 141.008 204.236C142.581 205.183 136.192 220.371 136.192 220.371C136.192 220.371 155.708 204.271 157.897 205.88C160.086 207.489 146.877 220.525 146.877 220.525C146.877 220.525 153.291 212.771 153.969 213.014C154.647 213.257 157.994 215.839 157.195 218.34C156.537 220.397 155.561 221.667 155.561 221.667C155.561 221.667 159.602 224.264 158.309 227.214C157.015 230.163 155.349 231.773 155.349 231.773C155.349 231.773 157.44 233.082 156.271 235.193C155.102 237.304 127.228 247.17 127.228 247.17L118.237 226.361Z" fill="#EF8E4D"/>
<path d="M128.532 246.803L128.512 246.823C128.243 247.04 125.556 249.273 121.277 252.322C121.028 252.498 120.77 252.684 120.501 252.869C109.535 260.58 89.2974 272.797 72.336 271.732C41.3075 269.768 50.3932 220.797 50.3932 220.797L55.4786 205.51L62.8067 207.526L84.2534 213.438L86.9098 214.172L95.3955 216.508L117.917 222.72L120.171 223.33L120.222 223.351L120.449 223.981L128.501 246.72L128.532 246.803Z" fill="#E2209E"/>
<path d="M84.8 229.82C84.7838 229.82 84.7676 229.818 84.7505 229.816C84.5546 229.789 84.4174 229.608 84.4445 229.411L89.3307 193.983C89.3569 193.788 89.5304 193.65 89.7353 193.678C89.9312 193.705 90.0684 193.885 90.0413 194.082L85.1551 229.51C85.1308 229.689 84.9764 229.82 84.8 229.82Z" fill="black"/>
<path d="M120.716 252.785C120.605 252.785 120.495 252.733 120.425 252.635C120.31 252.474 120.346 252.25 120.507 252.134L128.106 246.672L119.518 222.578L112.275 224.913L76.5584 231.523C76.3596 231.558 76.1757 231.429 76.1395 231.235C76.1042 231.04 76.2324 230.852 76.4273 230.816L112.099 224.219L119.629 221.788C119.811 221.728 120.012 221.826 120.077 222.01L128.873 246.686C128.926 246.837 128.873 247.004 128.743 247.098L120.925 252.717C120.862 252.764 120.789 252.785 120.716 252.785Z" fill="black"/>
<path d="M36.5533 130.969C28.8464 115.055 35.4996 95.906 51.414 88.199C67.3283 80.492 86.4771 87.1453 94.184 103.06C101.433 118.027 95.9764 135.853 82.0622 144.333L95.2167 157.238L74.9528 147.563C60.0502 152.259 43.5655 145.449 36.5533 130.969Z" fill="#07CBF5"/>
<path d="M81.253 106.068C75.0991 97.6278 65.3806 108.172 63.9228 109.844C62.4645 108.172 52.7464 97.6283 46.5926 106.068C40.1171 114.949 63.1112 135.327 64.4322 136.486C64.4327 136.514 64.4332 136.542 64.4332 136.542C64.4332 136.542 64.4546 136.522 64.4642 136.514C64.4742 136.522 64.4966 136.542 64.4966 136.542C64.4966 136.542 64.4956 136.514 64.4951 136.485C65.7666 135.318 87.7271 114.947 81.253 106.068Z" fill="black"/>
<path d="M232.872 128.093C233.115 127.822 233.361 127.554 233.612 127.289C234.218 126.65 234.871 126.018 235.686 125.685C238.121 124.691 239.624 127.366 238.806 129.428C238.484 130.239 237.938 130.939 237.363 131.595C235.582 133.628 233.506 135.378 231.372 137.027C229.225 138.687 227.097 140.378 224.933 142.016C224.209 142.564 223.473 143.099 222.718 143.603C222.329 143.862 221.936 144.115 221.536 144.356C221.268 144.519 220.61 144.737 220.435 144.985C222.509 142.038 224.421 139.023 226.596 136.152C228.649 133.441 230.6 130.63 232.872 128.093Z" fill="#07CBF5"/>
<path d="M243.207 141.675C243.551 141.556 243.897 141.442 244.245 141.333C245.086 141.07 245.963 140.835 246.838 140.942C249.449 141.259 249.461 144.327 247.741 145.73C247.066 146.282 246.247 146.627 245.426 146.92C242.881 147.829 240.215 148.347 237.548 148.75C234.865 149.154 232.183 149.596 229.495 149.973C228.596 150.099 227.693 150.208 226.787 150.281C226.321 150.319 225.855 150.347 225.389 150.363C225.075 150.374 224.394 150.245 224.121 150.377C227.367 148.813 230.505 147.109 233.802 145.66C236.916 144.291 239.988 142.785 243.207 141.675Z" fill="#07CBF5"/>
<path d="M248.545 158.287C248.909 158.278 249.273 158.273 249.638 158.274C250.519 158.277 251.426 158.318 252.228 158.683C254.622 159.774 253.707 162.702 251.644 163.521C250.834 163.843 249.949 163.925 249.078 163.957C246.377 164.056 243.679 163.746 241.015 163.325C238.335 162.901 235.645 162.513 232.969 162.062C232.073 161.911 231.18 161.742 230.294 161.539C229.838 161.434 229.385 161.321 228.935 161.196C228.633 161.111 228.023 160.783 227.723 160.826C231.29 160.313 234.795 159.636 238.376 159.249C241.758 158.883 245.141 158.374 248.545 158.287Z" fill="#07CBF5"/>
<path d="M87.7838 57.7427L95.6512 60.485C96.1104 60.6452 96.1181 61.2913 95.663 61.4622L87.7719 64.4299C87.6317 64.4827 87.5212 64.593 87.4683 64.7331L84.4783 72.6632C84.309 73.1123 83.6733 73.1123 83.504 72.6632L80.514 64.7331C80.4612 64.593 80.3507 64.4827 80.2105 64.4299L72.3371 61.4687C71.8797 61.2966 71.8904 60.647 72.3532 60.4897L80.4487 57.7433C80.602 57.6911 80.722 57.5713 80.7742 57.4182L83.5177 49.3528C83.6757 48.8883 84.3304 48.8806 84.4991 49.341L87.4677 57.4301C87.52 57.5766 87.6364 57.6917 87.7838 57.7427Z" fill="#FFE500"/>
<path d="M241.784 186.743L249.651 189.485C250.11 189.645 250.118 190.291 249.663 190.462L241.772 193.43C241.632 193.483 241.521 193.593 241.468 193.733L238.478 201.663C238.309 202.112 237.673 202.112 237.504 201.663L234.514 193.733C234.461 193.593 234.351 193.483 234.21 193.43L226.337 190.469C225.88 190.297 225.89 189.647 226.353 189.49L234.449 186.743C234.602 186.691 234.722 186.571 234.774 186.418L237.518 178.353C237.676 177.888 238.33 177.881 238.5 178.341L241.468 186.43C241.521 186.577 241.637 186.691 241.784 186.743Z" fill="#FFE500"/>
<path d="M207.784 107.742L215.651 110.484C216.11 110.645 216.118 111.291 215.663 111.462L207.772 114.43C207.632 114.483 207.521 114.593 207.468 114.733L204.478 122.663C204.309 123.112 203.673 123.112 203.504 122.663L200.514 114.733C200.461 114.593 200.351 114.483 200.21 114.43L192.337 111.469C191.88 111.297 191.89 110.647 192.353 110.49L200.449 107.743C200.602 107.691 200.722 107.571 200.774 107.418L203.518 99.3528C203.676 98.8883 204.33 98.8806 204.5 99.341L207.468 107.429C207.52 107.577 207.636 107.691 207.784 107.742Z" fill="#FFE500"/>
<path d="M59.7842 199.743L67.6512 202.485C68.1104 202.645 68.1181 203.291 67.6631 203.462L59.7723 206.43C59.6321 206.483 59.5216 206.593 59.4687 206.733L56.4789 214.663C56.3096 215.112 55.674 215.112 55.5047 214.663L52.5148 206.733C52.4619 206.593 52.3514 206.483 52.2112 206.43L44.3371 203.468C43.8797 203.296 43.8904 202.647 44.3532 202.489L52.4483 199.743C52.6015 199.691 52.7215 199.571 52.7738 199.418L55.5171 191.353C55.6751 190.888 56.3298 190.881 56.4991 191.341L59.467 199.43C59.5204 199.576 59.6369 199.691 59.7842 199.743Z" fill="#FFE500"/>
</g>
</g>
<path d="M192.497 288.855C216.52 288.855 235.995 268.293 235.995 242.928C235.995 217.562 216.52 197 192.497 197C168.474 197 149 217.562 149 242.928C149 268.293 168.474 288.855 192.497 288.855Z" fill="#411580"/>
<path d="M195.74 288.855C219.763 288.855 239.237 268.293 239.237 242.928C239.237 217.562 219.763 197 195.74 197C171.717 197 152.242 217.562 152.242 242.928C152.242 268.293 171.717 288.855 195.74 288.855Z" fill="#5E1DBB"/>
<path d="M195.74 280.002C215.132 280.002 230.852 263.403 230.852 242.927C230.852 222.452 215.132 205.853 195.74 205.853C176.348 205.853 160.627 222.452 160.627 242.927C160.627 263.403 176.348 280.002 195.74 280.002Z" fill="black"/>
<path d="M195.74 268.935C209.343 268.935 220.371 257.291 220.371 242.927C220.371 228.564 209.343 216.92 195.74 216.92C182.136 216.92 171.108 228.564 171.108 242.927C171.108 257.291 182.136 268.935 195.74 268.935Z" fill="#5E1DBB"/>
<path d="M195.74 256.318C202.744 256.318 208.422 250.323 208.422 242.928C208.422 235.532 202.744 229.537 195.74 229.537C188.735 229.537 183.057 235.532 183.057 242.928C183.057 250.323 188.735 256.318 195.74 256.318Z" fill="black"/>
<path d="M222.937 241.984L226.539 236.761L240.048 236.04L233.384 242.164L237.886 248.828L226.359 248.108L222.937 241.984Z" fill="white"/>
<path d="M235.996 242.782H197.361C197.069 242.782 196.832 242.545 196.832 242.253C196.832 241.961 197.069 241.724 197.361 241.724H235.996C236.287 241.724 236.525 241.961 236.525 242.253C236.525 242.545 236.287 242.782 235.996 242.782Z" fill="white"/>
<defs>
<clipPath id="clip0_592_11143">
<rect width="244" height="237" fill="white" transform="translate(23 34)"/>
</clipPath>
</defs>
</svg>
