<svg width="289" height="289" viewBox="0 0 289 289" fill="none" xmlns="http://www.w3.org/2000/svg">
<path d="M235.98 247.621C234.815 248.705 233.638 249.766 232.434 250.811C221.507 260.315 209.085 268.096 195.574 273.737C194.977 273.992 194.376 274.237 193.773 274.481C193.763 274.487 193.751 274.492 193.735 274.498C188.979 276.404 184.093 278.044 179.091 279.411C169.417 282.045 170.138 266.204 159.741 266.615C159.38 266.627 148.232 268.023 147.865 268.034C146.437 268.079 142.738 257.25 141.298 257.25C136.735 257.25 134.444 283.924 129.995 283.479C125.316 283.012 120.709 282.306 116.178 281.372C116.08 281.356 115.975 281.334 115.872 281.311V262.354C115.735 262.393 115.603 262.432 115.467 262.466C85.7421 270.558 64.0609 236.961 57.0843 224.301C55.5027 221.439 54.6763 219.65 54.6763 219.65L97.6002 222.373C97.8355 218.483 98.0709 214.659 98.3006 211.174V211.169C98.711 204.949 99.0943 199.803 99.3844 197.23C100.507 187.298 102.739 172.254 117.552 156.364C123.867 149.589 131.851 144.932 138.937 141.814C141.52 140.675 143.403 141.931 144.771 144.365C144.952 144.687 145.127 145.027 145.285 145.388C145.384 145.599 145.477 145.816 145.564 146.038V146.044C145.75 146.5 145.925 146.972 146.084 147.472C148.448 154.758 148.426 166.013 148.426 166.013L154.73 166.852L155.818 166.997L170.779 168.992C170.779 168.992 176.153 160.205 182.38 152.391C182.698 151.991 183.021 151.591 183.349 151.196C184.038 150.351 184.734 149.529 185.434 148.734C185.686 148.451 185.938 148.173 186.189 147.895C188.132 145.755 190.075 143.882 191.88 142.565C192.849 141.854 193.773 141.303 194.649 140.959L194.655 140.953C195.197 140.73 195.706 140.592 196.198 140.536H196.204C196.948 140.453 197.627 140.564 198.229 140.903C198.387 140.992 198.546 141.081 198.705 141.17C207.011 145.888 216.834 152.513 222.055 159.772C235.975 179.122 237.945 223.184 235.98 247.621Z" fill="#E2209E"/>
<path d="M118.651 193.839C118.651 193.839 118.29 205.505 117.857 219.916C117.792 221.983 117.726 224.106 117.66 226.263C117.66 226.268 117.66 226.268 117.66 226.268C117.633 227.252 117.6 228.241 117.567 229.23C117.561 229.547 117.551 229.864 117.54 230.181C117.54 230.303 117.534 230.425 117.529 230.542C117.103 244.664 116.659 259.315 116.418 267.339C116.26 272.702 116.194 277.399 116.177 281.373C116.079 281.356 115.975 281.334 115.871 281.312C115.608 281.257 115.345 281.201 115.083 281.145C115.099 277.211 115.165 272.581 115.323 267.307C115.367 265.889 115.417 264.261 115.466 262.466C115.723 253.946 116.095 241.647 116.456 229.803C116.462 229.648 116.467 229.492 116.473 229.342C116.478 229.036 116.489 228.737 116.5 228.436C116.522 227.702 116.544 226.969 116.566 226.241C116.566 226.241 116.566 226.235 116.566 226.23C116.637 224.018 116.702 221.834 116.768 219.716C117.201 205.383 117.556 193.806 117.556 193.806L118.651 193.839Z" fill="black"/>
<path d="M175.857 228.002C175.277 241.263 176.273 255.696 177.685 268.285C177.717 268.557 177.745 268.835 177.778 269.107C177.794 269.246 177.811 269.385 177.827 269.523C178.227 272.991 178.659 276.309 179.091 279.41C169.417 282.045 159.32 283.634 148.923 284.046C148.751 284.051 148.422 281.597 148.249 281.603C148.057 281.61 148.021 284.078 147.829 284.084C146.401 284.129 144.961 284.151 143.522 284.151C138.958 284.151 134.444 283.923 129.995 283.478C129.946 272.202 129.913 257.035 129.984 241.401C129.984 241.212 129.99 241.023 129.99 240.835C129.99 240.585 129.99 240.334 129.995 240.084C130.001 238.584 130.006 237.083 130.017 235.577C130.017 235.193 130.023 234.81 130.023 234.433C130.039 231.837 130.061 229.247 130.083 226.668V226.569C130.1 225.107 130.116 223.645 130.127 222.195C130.133 222.033 130.133 221.872 130.133 221.711C130.139 221.367 130.144 221.027 130.149 220.682C130.149 220.555 130.149 220.432 130.155 220.299V220.294C130.171 218.676 130.193 217.076 130.21 215.486C130.407 201.653 130.73 189.021 131.244 180.2C132.377 160.771 136.048 148.605 138.938 141.814C140.049 141.324 141.143 140.874 142.199 140.458C148.892 137.824 154.298 136.629 155.901 136.306C156.147 136.256 156.301 136.228 156.361 136.218C156.377 136.212 156.388 136.212 156.388 136.212L184.197 133.955L184.334 133.944C184.334 133.944 184.438 133.989 184.63 134.072C185.948 134.645 191.557 137.146 198.228 140.903C198.151 141.097 198.08 141.297 198.004 141.503C192.072 157.209 180.11 191.083 176.788 216.809C176.372 220.038 176.088 223.406 175.913 226.863C175.891 227.213 175.875 227.564 175.864 227.919C175.858 227.941 175.858 227.969 175.858 227.997V228.002H175.857Z" fill="#E2209E"/>
<path d="M198.461 140.398L184.845 133.817C184.573 133.686 184.246 133.803 184.116 134.08C183.986 134.357 184.101 134.689 184.375 134.821L196.429 140.648L178.51 143.751C178.28 143.792 178.101 143.974 178.062 144.208C178.024 144.441 178.135 144.673 178.339 144.787L189.459 150.981C183.213 151.05 165.195 151.77 157.287 157.582C157.286 157.58 157.285 157.578 157.284 157.577C153.962 150.546 148.922 147.406 145.563 146.044V146.039C145.136 145.866 144.737 145.722 144.37 145.599L145.284 145.388L152.595 143.705C152.836 143.649 153.011 143.438 153.022 143.188C153.032 142.938 152.874 142.709 152.638 142.637L143.921 139.847C148.282 138.275 155.007 137.063 155.834 136.918C155.888 136.907 155.916 136.902 155.921 136.902C156.216 136.852 156.419 136.563 156.37 136.263C156.37 136.246 156.364 136.235 156.359 136.218C156.31 136.013 156.157 135.863 155.965 135.812C155.894 135.796 155.812 135.79 155.735 135.807C155.363 135.868 146.537 137.402 142.055 139.392C141.847 139.486 141.716 139.698 141.732 139.931C141.743 140.164 141.896 140.364 142.11 140.431L142.197 140.458L150.378 143.076L144.769 144.365L141.875 145.032C141.617 145.093 141.437 145.338 141.448 145.605C141.464 145.877 141.673 146.099 141.935 146.127C141.979 146.133 143.714 146.355 146.083 147.472C149.328 149.001 153.761 152.208 156.65 158.821C156.453 159.583 155.692 162.59 154.729 166.852C153 174.489 150.619 186.16 149.695 196.18C149.323 200.226 149.011 208.412 148.759 218.466C148.704 220.761 148.649 223.157 148.595 225.625C148.595 225.719 148.589 225.814 148.589 225.903C148.583 226.275 148.573 226.642 148.567 227.014C148.567 227.097 148.561 227.181 148.561 227.264C148.452 232.555 148.359 238.135 148.271 243.754C148.271 244.126 148.265 244.498 148.255 244.871C148.228 246.955 148.2 249.045 148.173 251.118C148.009 263.411 147.899 275.316 147.828 284.086C148.195 284.074 148.561 284.058 148.922 284.047C148.994 275.354 149.103 263.589 149.262 251.429C149.289 249.161 149.322 246.877 149.355 244.598C149.361 244.365 149.366 244.132 149.366 243.898C149.453 238.246 149.546 232.627 149.656 227.303C149.666 226.808 149.672 226.319 149.688 225.83C149.738 223.368 149.792 220.978 149.847 218.683C150.099 208.574 150.405 200.337 150.783 196.286C151.713 186.271 154.093 174.599 155.817 166.997C156.906 162.178 157.732 158.999 157.754 158.916C157.782 158.817 157.776 158.712 157.744 158.613C166.748 151.754 191.341 152.088 191.586 152.093C191.831 152.086 192.06 151.926 192.124 151.679C192.188 151.432 192.078 151.173 191.858 151.05L180.242 144.58L198.317 141.449C198.552 141.408 198.734 141.218 198.767 140.977C198.8 140.736 198.676 140.502 198.461 140.398Z" fill="black"/>
<path d="M100.518 216.696L72.5582 146.995H11.9218L36.2322 223.621L159.297 227.611L129.706 220.454L100.518 216.696Z" fill="#5E1DBB"/>
<path d="M172.408 229.769C172.408 229.769 165.516 227.499 162.535 224.85C159.554 222.201 153.22 219.363 153.22 219.363C153.22 219.363 127.885 214.066 127.327 215.768C126.768 217.471 129.375 221.633 135.337 223.147C141.298 224.66 145.396 225.985 145.396 225.985C145.396 225.985 139.505 226.86 133.544 226.671C127.583 226.481 113.635 226.174 113.635 226.174C113.635 226.174 116.335 231.093 124.532 233.552C124.532 233.552 126.768 241.31 135.151 243.012C135.151 243.012 133.102 246.796 142.975 249.634C152.848 252.472 173.712 258.337 173.712 258.337L172.408 229.769Z" fill="#EF8E4D"/>
<path d="M148.564 227.014C148.535 227.014 148.505 227.012 148.474 227.007C148.383 226.992 139.322 225.461 133.201 223.294C126.752 221.012 126.775 215.971 126.779 215.758C126.785 215.451 127.031 215.22 127.337 215.213C127.638 215.219 127.878 215.472 127.873 215.778C127.871 215.964 127.894 220.239 133.561 222.245C139.592 224.379 148.562 225.895 148.652 225.911C148.95 225.961 149.152 226.246 149.103 226.55C149.059 226.821 148.827 227.014 148.564 227.014Z" fill="black"/>
<path d="M146.887 238.083C146.881 238.083 146.875 238.083 146.868 238.082C146.757 238.078 135.589 237.662 125.57 234.27C115.413 230.831 113.233 226.602 113.145 226.423C113.01 226.149 113.119 225.815 113.39 225.678C113.659 225.542 113.987 225.651 114.123 225.923C114.15 225.976 116.279 229.953 125.917 233.216C135.787 236.557 146.796 236.968 146.906 236.972C147.208 236.982 147.445 237.239 147.435 237.545C147.424 237.845 147.181 238.083 146.887 238.083Z" fill="black"/>
<path d="M145.952 244.96C143.407 244.96 139.435 244.675 134.636 243.361C126.156 241.038 124.095 234.838 124.011 234.576C123.918 234.284 124.076 233.97 124.364 233.876C124.653 233.781 124.959 233.941 125.052 234.232C125.077 234.308 127.052 240.132 134.92 242.287C142.99 244.497 148.801 243.702 148.858 243.692C149.16 243.65 149.434 243.861 149.477 244.165C149.519 244.468 149.311 244.749 149.013 244.793C148.91 244.808 147.812 244.96 145.952 244.96Z" fill="black"/>
<path d="M233.791 241.502C233.791 241.502 233.6 245.515 232.434 250.811C221.507 260.315 209.085 268.096 195.574 273.736C194.977 273.992 194.376 274.236 193.773 274.481C193.763 274.486 193.751 274.492 193.735 274.498C193.335 274.392 192.936 274.292 192.537 274.187C187.36 272.797 182.249 270.941 177.778 269.106C169.291 265.622 163.096 262.215 163.096 262.215L163.167 261.67L163.949 255.585L167.523 227.83L167.775 225.879L167.846 225.323L175.863 227.918L177.176 228.346L200.258 235.821L200.389 234.432L200.488 233.37C200.493 233.37 200.493 233.37 200.488 233.364L200.493 233.314L201.681 220.681L205.008 185.307L229.32 194.388L233.791 241.502Z" fill="#E2209E"/>
<path d="M210.175 235.853L200.502 233.316C200.506 233.302 200.515 233.29 200.517 233.276L207.596 194.112C207.651 193.81 207.454 193.52 207.157 193.465C206.858 193.406 206.575 193.609 206.52 193.911L199.447 233.039L167.981 224.786C167.687 224.705 167.39 224.888 167.315 225.185C167.239 225.482 167.415 225.785 167.707 225.861L209.901 236.929C209.947 236.942 209.993 236.947 210.039 236.947C210.282 236.947 210.504 236.781 210.568 236.531C210.644 236.233 210.468 235.93 210.175 235.853Z" fill="black"/>
<path d="M177.685 268.285C182.9 270.319 189.11 272.386 195.573 273.737C194.977 273.992 194.375 274.237 193.773 274.481C193.357 274.381 192.946 274.286 192.536 274.186C187.25 272.902 182.204 271.213 177.827 269.524C169.066 266.145 162.964 262.777 162.833 262.704C162.565 262.554 162.467 262.221 162.614 261.949C162.724 261.743 162.948 261.638 163.167 261.671C163.233 261.676 163.293 261.699 163.358 261.732C163.484 261.804 169.296 265.006 177.685 268.285Z" fill="black"/>
<path d="M173.852 57.7406C173.852 57.7406 152.755 44.686 143.953 52.4907C135.151 60.2948 141.019 69.5185 141.019 69.5185C141.019 69.5185 131.938 70.228 131.239 79.0256C130.54 87.8232 148.005 92.6481 148.005 92.6481L176.367 66.2549L173.852 57.7406Z" fill="#FFE500"/>
<path d="M192.854 106.65C190.993 107.928 188.536 108.251 186.468 108.234L184.612 134.316L157.366 158.203L155.829 136.872L157.268 125.718L160.905 122.588L157.924 120.6C152.704 120.217 148.266 119.032 146.465 116.865C141.957 111.44 141.683 93.8448 141.699 88.6597C141.622 87.826 141.579 86.976 141.579 86.1197C141.579 71.8311 152.983 60.2485 167.052 60.2485C181.121 60.2485 192.525 71.8306 192.525 86.1197C192.525 87.4591 192.422 88.7709 192.23 90.0545C192.876 90.1544 193.554 90.4157 194.249 90.8995C200.4 95.1566 196.767 103.955 192.854 106.65Z" fill="#EF8E4D"/>
<path d="M173.712 120.883L157.268 125.718L157.925 120.6L173.712 120.883Z" fill="black"/>
<path d="M173.852 57.7407L156.527 61.1466C156.527 61.1466 156.032 70.3167 162.255 76.4715C167.565 81.7221 174.411 81.4382 174.411 81.4382C174.411 81.4382 167.425 89.8101 184.331 93.7833L185.029 102.865C185.029 102.865 188.522 90.0229 192.853 91.0164C192.853 91.0164 199.001 92.2226 196.766 100.736C196.766 100.736 210.597 73.9174 201.237 67.2484C191.875 60.5788 173.852 57.7407 173.852 57.7407Z" fill="#FFE500"/>
<path d="M194.862 94.0922C195.096 93.8986 195.131 93.5481 194.941 93.3105C194.75 93.0723 194.405 93.0356 194.171 93.2297C191.065 95.7957 188.882 99.397 188.025 103.368C187.96 103.668 188.147 103.965 188.442 104.031C188.482 104.04 188.521 104.044 188.56 104.044C188.811 104.044 189.038 103.866 189.094 103.607C189.375 102.307 189.815 101.054 190.382 99.8649C190.467 99.8813 190.555 99.8841 190.644 99.8559C191.707 99.5194 192.875 99.5245 193.935 99.8711C193.991 99.8897 194.048 99.8982 194.103 99.8982C194.334 99.8982 194.549 99.748 194.624 99.5127C194.717 99.2208 194.559 98.9076 194.271 98.8133C193.235 98.4735 192.113 98.4114 191.043 98.6163C192.041 96.9015 193.327 95.36 194.862 94.0922Z" fill="black"/>
<path d="M150.544 93.1445C150.544 95.0377 149.475 96.5724 148.157 96.5724C146.838 96.5724 145.769 95.0377 145.769 93.1445C145.769 91.2513 146.838 89.7166 148.157 89.7166C149.475 89.7171 150.544 91.2513 150.544 93.1445Z" fill="black"/>
<path d="M169.114 93.1445C169.114 95.0377 168.044 96.5724 166.726 96.5724C165.408 96.5724 164.339 95.0377 164.339 93.1445C164.339 91.2513 165.408 89.7166 166.726 89.7166C168.044 89.7171 169.114 91.2513 169.114 93.1445Z" fill="black"/>
<path d="M159.314 106.185C158.947 106.185 158.581 106.141 158.224 106.05C156.696 105.657 155.411 104.415 154.95 102.885C154.862 102.591 155.024 102.28 155.313 102.191C155.602 102.102 155.908 102.266 155.996 102.56C156.347 103.726 157.327 104.673 158.492 104.971C159.654 105.269 160.961 104.909 161.816 104.053C162.52 103.345 162.922 102.374 163.308 101.132C163.399 100.839 163.708 100.677 163.995 100.77C164.284 100.862 164.443 101.174 164.352 101.467C163.975 102.678 163.501 103.925 162.585 104.843C161.725 105.705 160.519 106.185 159.314 106.185Z" fill="black"/>
<path d="M144.011 86.5471C143.868 86.5471 143.725 86.4907 143.617 86.3772C143.407 86.1565 143.413 85.8043 143.631 85.5915C144.902 84.3463 146.57 83.5628 148.328 83.3862C148.632 83.3551 148.896 83.5792 148.926 83.8846C148.956 84.19 148.736 84.4626 148.435 84.4925C146.922 84.6449 145.486 85.3189 144.392 86.3913C144.285 86.4952 144.148 86.5471 144.011 86.5471Z" fill="black"/>
<path d="M169.638 85.7382C169.536 85.7382 169.432 85.7095 169.34 85.6485C168.024 84.7781 166.432 84.2949 164.861 84.2882C164.559 84.287 164.315 84.037 164.316 83.7299C164.317 83.4229 164.573 83.1959 164.866 83.1768C166.645 83.1847 168.446 83.7316 169.938 84.7166C170.191 84.8842 170.263 85.2285 170.098 85.4859C169.993 85.6491 169.817 85.7382 169.638 85.7382Z" fill="black"/>
<path d="M62.9698 191.685H45.6146C45.3922 191.685 45.2093 191.555 45.1472 191.354L41.0408 177.938C40.9878 177.765 41.0329 177.564 41.1599 177.406C41.2875 177.248 41.4613 177.155 41.6696 177.155L59.5182 177.281C59.7445 177.283 59.9291 177.419 59.9856 177.627L63.5992 190.916C63.646 191.088 63.5981 191.284 63.4722 191.439C63.3457 191.593 63.1572 191.685 62.9698 191.685ZM46.1373 190.57H62.2891L58.978 178.394L42.3741 178.276L46.1373 190.57Z" fill="white"/>
<path d="M102.106 148.478L110.727 151.534C111.23 151.712 111.238 152.432 110.739 152.623L102.093 155.93C101.94 155.988 101.818 156.111 101.76 156.268L98.4841 165.104C98.2984 165.604 97.6018 165.604 97.4161 165.104L94.1401 156.268C94.0825 156.112 93.9611 155.988 93.807 155.93L85.1805 152.63C84.6793 152.438 84.6911 151.715 85.198 151.54L94.0678 148.48C94.2354 148.422 94.3675 148.288 94.4245 148.118L97.4302 139.13C97.6035 138.613 98.321 138.604 98.5061 139.117L101.758 148.13C101.817 148.293 101.945 148.421 102.106 148.478Z" fill="#FFE500"/>
<path d="M195.017 38.6486L203.637 41.7045C204.141 41.8829 204.149 42.6026 203.65 42.7934L195.004 46.0999C194.85 46.1586 194.729 46.2817 194.671 46.438L191.395 55.2746C191.209 55.7747 190.513 55.7747 190.327 55.2746L187.051 46.438C186.993 46.2823 186.872 46.1586 186.718 46.0999L178.091 42.8007C177.59 42.6088 177.602 41.8852 178.109 41.7102L186.979 38.6503C187.146 38.5921 187.278 38.4584 187.335 38.2879L190.341 29.3012C190.514 28.7836 191.232 28.7752 191.417 29.2883L194.669 38.3009C194.728 38.4635 194.856 38.591 195.017 38.6486Z" fill="#FFE500"/>
<path d="M241.542 204.67L250.163 207.725C250.666 207.904 250.675 208.623 250.176 208.815L241.529 212.121C241.376 212.18 241.255 212.303 241.196 212.46L237.92 221.296C237.735 221.796 237.038 221.796 236.852 221.296L233.576 212.46C233.518 212.304 233.397 212.18 233.243 212.121L224.617 208.822C224.116 208.63 224.127 207.907 224.634 207.732L233.504 204.672C233.672 204.614 233.804 204.48 233.861 204.309L236.867 195.323C237.04 194.805 237.757 194.797 237.942 195.31L241.195 204.322C241.253 204.485 241.381 204.612 241.542 204.67Z" fill="#FFE500"/>
<path d="M259.985 132.302L268.605 135.357C269.109 135.535 269.117 136.255 268.618 136.446L259.972 139.753C259.818 139.812 259.697 139.935 259.639 140.091L256.363 148.927C256.177 149.428 255.481 149.428 255.295 148.927L252.019 140.091C251.961 139.935 251.84 139.812 251.686 139.753L243.06 136.454C242.558 136.262 242.57 135.538 243.077 135.363L251.947 132.303C252.115 132.245 252.247 132.111 252.304 131.941L255.309 122.954C255.483 122.436 256.2 122.428 256.385 122.941L259.638 131.953C259.696 132.116 259.823 132.244 259.985 132.302Z" fill="#FFE500"/>
<path d="M146.069 99.1052C144.646 99.1052 143.103 98.9513 141.602 98.5981C137.145 97.5496 136.675 87.0129 137.145 83.9581C137.612 80.9265 143.622 80.9619 152.717 81.0122C153.93 81.0194 155.192 81.0265 156.495 81.0265C168.951 81.0265 181.835 83.2835 181.963 83.3063C182.149 83.3395 182.276 83.5135 182.25 83.7006C182.196 84.0931 180.92 93.3353 180.085 96.2C179.162 99.3634 174.272 99.1509 164.53 98.727C160.358 98.5456 159.296 96.394 158.443 94.6648C157.834 93.4306 157.353 92.4557 155.924 92.3218C153.764 92.1186 153.116 93.7774 152.491 95.9658C152.231 96.8789 152.025 97.5999 151.594 97.9353C150.698 98.632 148.567 99.1052 146.069 99.1052ZM149.585 81.7032C143.019 81.7032 138.165 81.9561 137.841 84.0645C137.363 87.1696 137.993 97.0264 141.763 97.9135C145.907 98.8881 150.031 98.2595 151.162 97.3796C151.411 97.1857 151.617 96.4668 151.815 95.7722C152.318 94.0106 153.076 91.3536 155.989 91.6211C157.81 91.7921 158.452 93.0938 159.074 94.3527C159.925 96.0772 160.805 97.8606 164.561 98.0238C173.64 98.4181 178.642 98.6359 179.41 96.0026C180.143 93.4899 181.264 85.6644 181.506 83.9413C179.405 83.5892 167.771 81.7293 156.495 81.7293C155.19 81.7293 153.927 81.7222 152.714 81.7154C151.638 81.7093 150.591 81.7032 149.585 81.7032Z" fill="white"/>
<path d="M187.648 89.7196C187.558 89.7196 187.469 89.6853 187.4 89.6175L181.654 83.9018C181.517 83.7647 181.516 83.5422 181.653 83.4043C181.79 83.2669 182.013 83.2661 182.15 83.4029L187.896 89.1186C188.034 89.2557 188.035 89.4782 187.897 89.616C187.829 89.6853 187.738 89.7196 187.648 89.7196Z" fill="white"/>
<path d="M185.224 92.8619C185.137 92.8619 185.049 92.8298 184.981 92.7648L181.031 88.994C180.89 88.8601 180.885 88.6376 181.019 88.4969C181.153 88.3558 181.376 88.3508 181.516 88.4855L185.466 92.2563C185.607 92.3902 185.612 92.6127 185.478 92.7534C185.409 92.8259 185.317 92.8619 185.224 92.8619Z" fill="white"/>
<path d="M175.907 86.5497C175.491 87.621 175.489 88.9013 176.12 89.8616C176.329 90.1801 176.63 90.4708 177.007 90.5276C177.324 90.5751 177.644 90.448 177.911 90.2708C178.633 89.7916 179.057 88.9567 179.225 88.1071C179.387 87.2882 179.68 85.1148 178.711 84.6238C177.521 84.0199 176.264 85.6308 175.907 86.5497Z" fill="white"/>
<path d="M177.773 93.5876C177.773 94.3479 177.197 94.9643 176.486 94.9643C175.775 94.9643 175.199 94.3479 175.199 93.5876C175.199 92.8273 175.775 92.2109 176.486 92.2109C177.197 92.2109 177.773 92.8273 177.773 93.5876Z" fill="white"/>
<path d="M33 66.5517C33 85.6323 50.4584 101.099 71.9997 101.099C76.6911 101.099 81.1932 100.364 85.3608 99.0178C86.1395 98.7658 86.9031 98.4939 87.6519 98.2014L92.8526 104.481L93.2819 105L91.1908 96.629C92.7779 95.8326 94.3004 94.9408 95.7377 93.9581C101.238 90.2187 105.575 85.2091 108.2 79.4235C108.465 78.8489 108.709 78.2592 108.939 77.6696C109.578 75.9911 110.082 74.2528 110.431 72.4687C110.805 70.5484 111 68.5678 111 66.5522C111 47.4668 93.5362 32 72.0003 32C60.3062 32 49.8153 36.5557 42.6681 43.778C40.9429 45.5174 38.7798 46.761 37.4754 48.7852C36.123 50.8837 35.6457 53.7731 34.8073 56.1204C33.6341 59.4101 33 62.9131 33 66.5517Z" fill="#07CBF5"/>
<path d="M84.7874 53.111C80.7906 45.4383 70.8047 42.7317 62.483 47.0665C54.1613 51.4008 50.6548 61.1349 54.6515 68.8076C57.617 74.501 63.8802 77.4591 70.3145 76.8364C70.4187 76.8261 70.5163 76.8885 70.5495 76.9882L71.4717 79.751C72.1793 81.871 74.5221 82.961 76.5994 82.1372C78.5484 81.364 79.5349 79.1861 78.8306 77.2109L77.8797 74.5449C77.844 74.4444 77.8846 74.3333 77.9761 74.2779C85.5569 69.7035 88.6159 60.4621 84.7874 53.111Z" fill="black"/>
<path d="M77.337 78.8511C77.1512 78.8712 76.9613 78.5643 76.8362 78.2653C76.812 78.2087 76.7919 78.1561 76.7673 78.0995C75.6363 75.3933 74.5537 72.6227 73.5483 69.8681C72.9707 68.2888 72.4255 66.7299 72.0781 65.1264C73.2939 64.0602 74.2916 62.5937 74.9418 60.8856C75.4062 59.6619 75.2609 58.6478 74.55 58.1752C74.2391 57.9693 73.8674 57.9004 73.4716 57.9812C72.894 58.1022 72.3004 58.5387 71.9246 59.1245C71.1087 60.3847 70.8745 62.0407 71.2137 64.1894C71.2502 64.4155 71.2863 64.6419 71.3311 64.868C70.8343 65.2638 70.3051 65.5871 69.7517 65.8332C69.6307 65.8816 69.5093 65.93 69.3883 65.9743C68.8714 65.2433 68.318 64.5365 67.724 63.858C66.8839 62.8928 65.5753 61.6121 63.9475 61.6445C63.2448 61.6564 62.6512 61.9353 62.3198 62.4079C61.7098 63.2722 62.1422 64.4315 62.8408 65.199C64.3069 66.8025 66.8273 67.4043 69.1175 66.7701C71.6297 70.474 73.1565 74.8079 73.5081 79.283C73.5323 79.5296 73.5487 79.7757 73.5606 80.0222C73.5729 80.204 73.7222 80.3455 73.8998 80.3455H73.9158C74.1058 80.3373 74.2469 80.1761 74.2391 79.9898C74.2227 79.6707 74.2026 79.3556 74.1743 79.0406C73.7866 74.5774 72.2639 70.2635 69.7837 66.5519C69.8645 66.5195 69.9412 66.4871 70.022 66.451C70.5311 66.2291 71.0238 65.9423 71.4882 65.5985C71.8475 67.1254 72.3648 68.6038 72.9141 70.1023C73.9199 72.8569 75.0021 75.6239 76.1294 78.3342C76.1577 78.3986 76.1819 78.4634 76.2102 78.5278C76.59 79.4327 77.0827 79.5698 77.4261 79.5214C77.6119 79.4971 77.7411 79.3273 77.7169 79.1419C77.6923 78.9561 77.5188 78.8269 77.337 78.8511ZM63.3416 64.7428C62.8408 64.1936 62.4814 63.3534 62.8732 62.7959C63.075 62.5092 63.4832 62.3316 63.9639 62.3234H64.0041C65.3328 62.3234 66.472 63.4502 67.2153 64.3027C67.7404 64.9045 68.2372 65.5305 68.7057 66.1806C66.7181 66.645 64.5895 66.1117 63.3416 64.7428ZM71.8803 64.084C71.5694 62.1088 71.7712 60.6066 72.4903 59.4916C72.7652 59.0675 73.2131 58.7282 73.609 58.6433C73.6738 58.631 73.7341 58.6269 73.7907 58.6269C73.9359 58.6269 74.0615 58.6634 74.1743 58.7401C74.6793 59.0753 74.5742 59.9437 74.3076 60.6423C73.7501 62.1125 72.9264 63.3809 71.9246 64.3503C71.9086 64.2621 71.8963 64.173 71.8803 64.084Z" fill="white"/>
<path d="M70.6685 80.0201L79.8085 76.708L80.3467 78.3591C80.3467 78.3591 82.5414 83.6546 77.7525 85.5855C73.0133 87.4963 71.3109 82.1803 71.3109 82.1803L70.6685 80.0201Z" fill="black"/>
</svg>
