<svg width="289" height="289" viewBox="0 0 289 289" fill="none" xmlns="http://www.w3.org/2000/svg">
<path d="M22 152.26L48.5785 225.742L111.742 259.513L178.345 223.866L130.503 201.04L112.68 137.251L22 152.26Z" fill="#5E1DBB"/>
<path d="M166.384 221.609L160.909 218.988L160.217 218.658L155.478 216.386L154.767 216.049L150.009 213.772L149.281 213.423L144.505 211.139L143.763 210.783L138.975 208.493L138.203 208.12L133.396 205.824L132.606 205.444L127.616 203.056C127.542 203.025 127.462 203.019 127.389 203.044L119.808 205.468L118.987 205.732L108.883 208.959L108.057 209.222H108.051L97.9589 212.449L97.1261 212.719L87.0406 215.94L86.2015 216.215H86.1953L76.116 219.436L75.2649 219.706L65.1857 222.933L64.3284 223.203L55.6759 225.971C55.5596 226.013 55.4736 226.118 55.4616 226.24C55.4553 226.363 55.5231 226.485 55.6331 226.54L61.9097 229.706L62.669 230.086L69.6929 233.619L70.4402 233.998L77.5188 237.568H77.5251L78.2478 237.93L85.3937 241.531L86.1103 241.892L92.1605 244.942L93.3302 245.529L94.016 245.878L95.4792 246.613L101.542 249.663V249.681L101.958 249.889C101.964 249.889 101.97 249.889 101.976 249.883H101.982L111.914 254.892C111.957 254.91 112.006 254.922 112.055 254.922C112.11 254.922 112.165 254.904 112.214 254.88L120.855 249.663L121.486 249.283L128.442 245.083L129.066 244.703L136.035 240.496H136.041L136.666 240.116L143.653 235.891L144.271 235.518L151.295 231.28L151.914 230.907L158.962 226.651L159.568 226.284L166.414 222.15C166.506 222.089 166.567 221.985 166.561 221.875C166.555 221.757 166.488 221.658 166.384 221.609ZM159.544 219.013L152.618 222.644L147.75 220.097L154.768 216.729L159.544 219.013ZM117.359 222.112L126.269 218.511L131.572 221.217L123.072 224.959H123.066L117.359 222.112ZM122.344 225.277L113.863 229.006L107.721 226.012L116.606 222.417L122.344 225.277ZM116.636 221.75L110.948 218.921L120.261 215.449H120.267L125.546 218.144L116.636 221.75ZM115.877 222.056L106.986 225.657H106.98L100.862 222.675L110.164 219.209L115.877 222.056ZM106.215 225.963L97.3295 229.557L90.7713 226.429L100.073 222.968L106.215 225.963ZM106.955 226.324L113.127 229.331L104.658 233.054L98.0695 229.913L106.955 226.324ZM113.85 229.686H113.856L120.053 232.705L112.013 236.563L105.394 233.403L113.85 229.686ZM114.591 229.362L123.06 225.633L128.816 228.499L120.758 232.369L114.591 229.362ZM123.783 225.314L132.276 221.579L137.591 224.291L129.514 228.168L123.783 225.314ZM132.998 221.26L141.504 217.513L146.39 220.072L138.289 223.955L132.998 221.26ZM132.294 220.899L127.022 218.211L135.938 214.604L140.806 217.152L132.294 220.899ZM126.299 217.843L121.046 215.161L130.378 211.689L135.234 214.23L126.299 217.843ZM120.305 214.782L115.069 212.112L124.799 208.774L129.643 211.31L120.305 214.782ZM119.527 215.076L110.201 218.548H110.194L104.536 215.725L114.261 212.388L119.527 215.076ZM109.411 218.835L100.103 222.301L94.0102 219.337L103.722 216L109.411 218.835ZM99.3007 222.595L89.999 226.061L83.4773 222.95L93.1894 219.619L99.3007 222.595ZM89.2032 226.355L79.9077 229.821H79.9015L72.9449 226.563L82.6507 223.232L89.2032 226.355ZM89.9745 226.728H89.9807L96.5572 229.87L87.6784 233.458L80.6853 230.182L89.9745 226.728ZM97.3044 230.225L103.918 233.378L95.4615 237.102L88.4376 233.813L97.3044 230.225ZM104.653 233.728L111.303 236.906L103.269 240.757L96.2083 237.451L104.653 233.728ZM112.013 237.243L118.688 240.433L111.095 244.413H111.088L103.991 241.088L112.013 237.243ZM112.717 236.9L120.751 233.048L126.985 236.079L119.368 240.078L112.717 236.9ZM121.462 232.705L129.508 228.847L135.295 231.725L127.659 235.73L121.462 232.705ZM130.206 228.51L138.277 224.64L143.617 227.359L135.963 231.376L130.206 228.51ZM138.975 224.303L147.064 220.421L151.963 222.987L144.284 227.016H144.278L138.975 224.303ZM154.057 216.392L147.076 219.742L142.22 217.2L149.275 214.096L154.057 216.392ZM148.54 213.747L141.522 216.833L136.684 214.303L143.733 211.45L148.54 213.747ZM142.992 211.095L135.975 213.931L131.149 211.401L138.173 208.787L142.992 211.095ZM137.401 208.419L130.415 211.022L125.595 208.499L132.57 206.105L137.401 208.419ZM127.457 203.662L131.78 205.731L124.848 208.107L120.568 205.866L127.457 203.662ZM119.747 206.129L124.052 208.383L114.31 211.726L109.656 209.35L119.747 206.129ZM108.829 209.62L113.501 212.002L103.765 215.339L98.7437 212.841L108.829 209.62ZM97.9109 213.11H97.9172L102.957 215.62L93.2327 218.958L87.8442 216.33L97.9109 213.11ZM86.9926 216.6L92.4119 219.239L82.6878 222.571L76.9191 219.821L86.9926 216.6ZM76.0743 220.091L81.8669 222.859L72.1491 226.19L66.0013 223.312L76.0743 220.091ZM56.577 226.324L65.144 223.587H65.1502L71.3168 226.477L62.7253 229.422L56.577 226.324ZM63.4846 229.803L72.1126 226.845L79.0994 230.114L70.4777 233.329L63.4846 229.803ZM78.2791 237.261L71.225 233.703L79.8837 230.482L86.9076 233.77L78.2859 237.261H78.2791ZM79.0076 237.622L87.6601 234.126H87.6664L94.7205 237.426L86.1233 241.21L79.0076 237.622ZM86.8393 241.572L95.461 237.775L102.564 241.094L94.028 245.191L86.8393 241.572ZM101.977 249.195L94.7205 245.54L103.275 241.431L110.415 244.769L101.977 249.195ZM112.044 254.266L102.65 249.532L111.107 245.099L120.188 249.349L112.044 254.266ZM120.819 248.969L111.787 244.744L119.386 240.758L127.775 244.763L120.819 248.969ZM128.406 244.389L120.059 240.403L127.671 236.416L135.381 240.17L128.406 244.389ZM136.005 239.796L128.345 236.061L135.968 232.062L143.004 235.571L136.005 239.796ZM143.623 235.191L136.636 231.713L144.284 227.702L150.652 230.948L143.623 235.191ZM151.271 230.58L144.951 227.353L152.618 223.336L158.325 226.318L151.271 230.58ZM158.931 225.951L153.28 222.987L160.236 219.344L165.612 221.916L158.931 225.951Z" fill="white"/>
<path d="M27.9413 155.387L52.0182 221.052L124.562 198.538L108.615 141.316L27.9413 155.387Z" fill="black"/>
<path d="M92.161 244.934L93.3302 245.528L92.161 244.94V244.934Z" fill="#B5E1E8"/>
<path d="M114.467 252.092C114.467 252.092 98.386 245.799 91.9186 242.304C85.4511 238.808 77.7603 229.543 77.7603 229.543C77.7603 229.543 70.9434 225.173 71.4675 223.775C71.9921 222.377 77.061 224.649 77.061 224.649C77.061 224.649 78.1097 221.503 81.6057 221.678C81.6057 221.678 82.1303 218.356 85.8005 218.532C85.8005 218.532 87.7232 215.386 90.52 216.26C93.3167 217.134 110.622 230.942 110.622 230.942L126.179 233.914L114.467 252.092Z" fill="#EF8E4D"/>
<path d="M90.3984 220.035C90.3103 219.962 88.2098 218.246 85.5189 217.689C82.9636 217.162 81.6432 219.24 81.3022 220.414C81.2558 220.573 81.2652 220.735 81.3163 220.88C79.1385 220.767 77.4969 222.654 76.7825 223.663C75.1132 222.904 71.8039 221.681 70.8026 223.384C69.9881 224.769 72.5877 227.668 78.5289 232C78.6656 232.1 78.8246 232.148 78.9821 232.148C79.2199 232.148 79.4546 232.039 79.6053 231.832C79.8561 231.488 79.7805 231.006 79.4368 230.756C75.6905 228.024 72.4515 225.045 72.1892 224.107C72.609 223.842 74.6673 224.32 76.6923 225.326L83.4799 229.416C83.604 229.491 83.7412 229.527 83.8767 229.527C84.138 229.527 84.3925 229.394 84.5369 229.154C84.7565 228.789 84.6392 228.316 84.2746 228.097L78.1514 224.407C78.7803 223.567 80.0438 222.199 81.4784 222.437C83.8934 222.839 86.3006 224.48 86.3246 224.496C86.6756 224.737 87.1543 224.649 87.3952 224.298C87.6361 223.948 87.5485 223.469 87.1986 223.228C87.1011 223.161 85.0339 221.751 82.6361 221.116C82.6998 221.038 82.7498 220.948 82.7801 220.846C82.8426 220.639 83.4382 218.831 85.2065 219.197C87.5136 219.674 89.3987 221.207 89.4165 221.221C89.5599 221.34 89.7341 221.398 89.9067 221.398C90.1283 221.398 90.3489 221.302 90.5006 221.118C90.7729 220.792 90.7264 220.306 90.3984 220.035Z" fill="black"/>
<path d="M217.66 110.743L222.666 144.77L188.757 151.06L188.439 131.964C182.467 132.581 177.153 132.344 175.119 132.005C172.83 131.625 170.745 125.048 169.112 117.752C169.062 117.523 171.534 115.786 171.483 115.555C171.423 115.283 168.841 116.517 168.783 116.242C167.289 109.208 166.236 101.871 165.846 99.0006C165.399 96.9674 165.158 94.8517 165.158 92.6797C165.158 76.4595 178.302 63.3149 194.523 63.3149C210.743 63.3149 223.888 76.4595 223.888 92.6797C223.888 99.4981 221.557 105.762 217.66 110.743Z" fill="#EF8E4D"/>
<path d="M250.285 63.5762C250.285 75.1599 241.71 84.7359 230.568 86.3275C229.665 99.436 225.51 113.551 225.285 114.003C224.936 114.701 220.042 128.863 220.042 128.863C220.042 128.863 201.352 122.208 194.733 115.385C195.462 115.205 196.166 114.907 196.761 114.45C197.742 113.69 198.374 112.556 198.8 111.39C199.914 108.376 199.852 104.987 198.836 101.937C198.333 100.417 197.521 98.8974 196.14 98.0859C193.871 96.7614 190.878 97.8445 188.947 99.6316C187.222 101.223 185.558 103.965 185.142 106.635L182.637 94.9487C182.637 94.9487 180.891 95.2976 173.025 88.8332C165.158 82.3637 163.936 71.0058 163.936 71.0058C163.936 71.0058 181.589 62.6156 191.899 60.3414C195.514 59.5456 200.089 58.8166 204.834 58.7034C207.067 48.352 216.273 40.5886 227.297 40.5886C239.99 40.5886 250.285 50.8786 250.285 63.5762Z" fill="#FFE500"/>
<path d="M174.043 102.954C174.361 104.809 173.722 106.467 172.616 106.656C171.51 106.846 170.355 105.496 170.037 103.64C169.719 101.785 170.358 100.127 171.465 99.9376C172.57 99.7483 173.725 101.098 174.043 102.954Z" fill="black"/>
<path d="M174.776 113.074C174.026 114.08 173.138 115.23 172.003 116.17C171.089 116.93 170.108 117.469 169.112 117.752C169.004 117.254 168.892 116.75 168.784 116.242C169.708 115.959 170.483 115.43 171.017 114.989C171.921 114.239 172.676 113.315 173.539 112.155C173.79 111.811 174.273 111.744 174.612 111.996C174.955 112.247 175.027 112.73 174.776 113.074Z" fill="black"/>
<path d="M168.398 95.2053C168.167 95.2053 167.939 95.1015 167.787 94.9043C167.528 94.5669 167.592 94.0835 167.929 93.8244C169.734 92.4372 172.379 92.4044 174.219 93.7461C174.563 93.997 174.639 94.4783 174.388 94.8225C174.137 95.1661 173.656 95.2418 173.312 94.9909C172.034 94.0585 170.123 94.082 168.867 95.0462C168.727 95.1531 168.562 95.2053 168.398 95.2053Z" fill="black"/>
<path d="M189.774 112.537C189.715 112.537 189.655 112.53 189.596 112.516C189.182 112.418 188.926 112.003 189.024 111.589C189.478 109.676 189.947 107.697 190.853 105.859C191.587 104.369 192.93 102.374 195.163 101.326C195.547 101.145 196.006 101.312 196.187 101.697C196.368 102.081 196.202 102.54 195.817 102.721C193.988 103.579 192.859 105.271 192.234 106.539C191.405 108.221 190.957 110.114 190.522 111.944C190.438 112.298 190.123 112.537 189.774 112.537Z" fill="black"/>
<path d="M267.311 210.554C262.28 221.882 255.661 232.34 247.733 241.649C247.507 241.918 246.994 234.621 246.765 234.885C246.481 235.214 246.48 243.102 246.193 243.426C225.511 266.855 196.403 282.67 163.613 286.141L167.053 258.923L168.479 255.588L169.09 253.927C169.09 253.927 168.046 255.034 167.517 256.375C166.074 260.03 161.759 266.984 154.278 267.559C144.456 268.319 113.602 257.47 111.168 256.607C111.065 256.571 111.014 256.551 111.014 256.551L112.488 251.314L117.838 232.321L118.881 228.624L137.273 230.128L138.151 230.2C138.151 230.2 138.213 229.939 138.336 229.456C139.763 223.699 149.452 186.196 162.145 172.78C175.906 158.228 183.772 157.047 183.772 157.047L187.705 148.79C187.705 148.79 188.054 148.4 188.701 147.753C191.664 144.785 200.824 136.385 210.518 135.415C215.14 134.953 218.852 136.241 221.665 137.977C226.035 140.678 228.217 144.462 228.217 144.462C228.217 144.462 240.407 153.899 251.811 168.846C259.281 178.638 264.56 198.211 267.311 210.554Z" fill="#E2209E"/>
<path d="M141.036 246.744C140.711 246.744 140.409 246.537 140.303 246.212C138.73 241.371 137.948 235.769 137.607 232.652C136.684 234.456 135.472 237.38 134.982 241.008C134.925 241.429 134.536 241.725 134.116 241.668C133.694 241.611 133.399 241.223 133.456 240.802C134.346 234.218 137.397 229.928 137.526 229.749C137.716 229.486 138.049 229.369 138.362 229.459C138.674 229.547 138.897 229.822 138.919 230.146C138.926 230.233 139.553 238.917 141.769 245.735C141.9 246.14 141.679 246.574 141.274 246.706C141.195 246.732 141.114 246.744 141.036 246.744Z" fill="black"/>
<path d="M152.109 268.27C137.257 268.27 112.915 257.815 111.627 257.256C111.236 257.087 111.057 256.633 111.226 256.243C111.395 255.853 111.849 255.674 112.239 255.843C112.628 256.011 151.224 272.596 160.189 264.626C169.399 256.439 182.679 227.676 182.812 227.386C182.989 227 183.446 226.831 183.833 227.008C184.22 227.186 184.389 227.643 184.211 228.03C183.663 229.224 170.664 257.377 161.213 265.778C159.207 267.56 155.98 268.27 152.109 268.27Z" fill="black"/>
<path d="M247.733 211.715V241.65C247.225 242.251 246.712 242.841 246.193 243.427V211.715C246.193 211.289 246.537 210.945 246.963 210.945C247.389 210.945 247.733 211.289 247.733 211.715Z" fill="black"/>
<path d="M152.268 122.569H81.6051V155.624H96.5654L92.3842 161.373L103.403 155.624H152.268V122.569Z" fill="#07CBF5"/>
<path d="M106.756 138.085C106.756 139.254 105.809 140.201 104.64 140.201C103.471 140.201 102.524 139.254 102.524 138.085C102.524 136.917 103.471 135.97 104.64 135.97C105.808 135.97 106.756 136.917 106.756 138.085Z" fill="black"/>
<path d="M120.055 138.085C120.055 139.254 119.108 140.201 117.939 140.201C116.77 140.201 115.823 139.254 115.823 138.085C115.823 136.917 116.77 135.97 117.939 135.97C119.108 135.97 120.055 136.917 120.055 138.085Z" fill="black"/>
<path d="M133.354 138.085C133.354 139.254 132.407 140.201 131.238 140.201C130.069 140.201 129.122 139.254 129.122 138.085C129.122 136.917 130.069 135.97 131.238 135.97C132.407 135.97 133.354 136.917 133.354 138.085Z" fill="black"/>
<path d="M96.0257 146.308C95.8578 146.308 95.6894 146.245 95.56 146.118L88.3057 139.015C88.1779 138.89 88.1054 138.718 88.1054 138.539C88.1054 138.36 88.1774 138.189 88.3051 138.063L95.8614 130.658C96.1238 130.401 96.5456 130.405 96.8032 130.667C97.0609 130.93 97.0567 131.352 96.7939 131.609L89.7231 138.538L96.4914 145.166C96.7542 145.423 96.7584 145.845 96.5013 146.108C96.3715 146.241 96.1988 146.308 96.0257 146.308Z" fill="black"/>
<path d="M139.248 146.308C139.075 146.308 138.903 146.241 138.772 146.107C138.515 145.844 138.519 145.423 138.782 145.165L145.551 138.538L138.48 131.609C138.217 131.351 138.213 130.93 138.47 130.667C138.728 130.404 139.149 130.4 139.412 130.658L146.968 138.063C147.096 138.188 147.168 138.36 147.168 138.539C147.168 138.718 147.096 138.889 146.968 139.015L139.714 146.118C139.584 146.244 139.416 146.308 139.248 146.308Z" fill="black"/>
<path d="M37.972 171.773H106.581C107.148 171.773 107.607 172.233 107.607 172.8V203.802C107.607 204.369 107.147 204.829 106.581 204.829H92.6475L96.8283 210.577L85.8098 204.829H37.972C37.4046 204.829 36.9452 204.369 36.9452 203.802V172.8C36.9452 172.233 37.4046 171.773 37.972 171.773Z" fill="#07CBF5"/>
<path d="M50.4501 195.709C50.2822 195.709 50.1137 195.646 49.9844 195.519L42.73 188.416C42.6023 188.291 42.5298 188.119 42.5298 187.94C42.5298 187.761 42.6018 187.59 42.7295 187.464L50.2858 180.059C50.5481 179.802 50.97 179.806 51.2276 180.068C51.4852 180.331 51.4811 180.753 51.2182 181.01L44.1474 187.94L50.9158 194.567C51.1786 194.825 51.1828 195.246 50.9257 195.509C50.7953 195.642 50.6227 195.709 50.4501 195.709Z" fill="black"/>
<path d="M91.6103 195.709C91.4377 195.709 91.2651 195.642 91.1347 195.508C90.8776 195.246 90.8818 194.824 91.1446 194.567L97.913 187.939L90.8422 181.01C90.5793 180.752 90.5752 180.331 90.8328 180.068C91.0899 179.805 91.5117 179.801 91.7746 180.058L99.3309 187.463C99.4587 187.589 99.5306 187.76 99.5306 187.94C99.5306 188.118 99.4586 188.29 99.3304 188.415L92.0765 195.518C91.9467 195.646 91.7787 195.709 91.6103 195.709Z" fill="black"/>
<path d="M55.3917 190.595V184.641C55.3917 183.021 56.2558 182.064 57.7983 182.064C59.3409 182.064 60.205 183.021 60.205 184.641V185.751H59.0634V184.563C59.0634 183.653 58.5852 183.16 57.8291 183.16C57.0729 183.16 56.5952 183.653 56.5952 184.563V190.672C56.5952 191.583 57.0735 192.076 57.8291 192.076C58.5852 192.076 59.0634 191.582 59.0634 190.672V189.16H60.205V190.595C60.205 192.215 59.3409 193.171 57.7983 193.171C56.2714 193.172 55.3917 192.215 55.3917 190.595Z" fill="black"/>
<path d="M64.3987 190.503V184.718C64.3987 183.005 65.2785 182.064 66.8669 182.064C68.471 182.064 69.3508 183.005 69.3508 184.718V190.503C69.3508 192.215 68.471 193.172 66.8669 193.172C65.278 193.172 64.3987 192.215 64.3987 190.503ZM68.1472 190.58V184.641C68.1472 183.653 67.7154 183.16 66.8669 183.16C66.0185 183.16 65.6023 183.653 65.6023 184.641V190.58C65.6023 191.583 66.019 192.076 66.8669 192.076C67.7154 192.076 68.1472 191.583 68.1472 190.58Z" fill="black"/>
<path d="M73.7761 193.017V182.218H76.2448C77.8645 182.218 78.6822 183.097 78.6822 184.841V190.395C78.6822 192.138 77.8645 193.017 76.2448 193.017H73.7761ZM74.9791 191.922H76.213C77.0771 191.922 77.4781 191.49 77.4781 190.441V184.779C77.4781 183.73 77.0771 183.313 76.213 183.313H74.9791V191.922Z" fill="black"/>
<path d="M83.1221 193.017V182.218H87.5495V183.314H84.3252V186.831H86.9477V187.926H84.3252V191.922H87.5495V193.017H83.1221V193.017Z" fill="black"/>
<path d="M125.153 57.6339L132.059 60.0442C132.462 60.185 132.469 60.7529 132.069 60.9031L125.142 63.5115C125.019 63.558 124.922 63.655 124.876 63.778L122.251 70.7482C122.103 71.1429 121.545 71.1429 121.396 70.7482L118.771 63.778C118.725 63.655 118.628 63.558 118.505 63.5115L111.594 60.9088C111.192 60.7576 111.202 60.1866 111.608 60.0484L118.714 57.6344C118.849 57.5885 118.954 57.4832 119 57.3486L121.408 50.2596C121.547 49.8513 122.121 49.8445 122.27 50.2492L124.875 57.3591C124.921 57.4879 125.023 57.589 125.153 57.6339Z" fill="#FFE500"/>
<path d="M144.444 172.779L151.35 175.189C151.753 175.33 151.76 175.898 151.36 176.048L144.434 178.656C144.311 178.703 144.214 178.8 144.167 178.923L141.543 185.893C141.394 186.288 140.836 186.288 140.687 185.893L138.063 178.923C138.016 178.8 137.919 178.703 137.796 178.656L130.885 176.054C130.483 175.902 130.493 175.331 130.899 175.193L138.005 172.779C138.14 172.733 138.245 172.628 138.291 172.493L140.699 165.404C140.838 164.996 141.413 164.989 141.561 165.394L144.167 172.504C144.213 172.633 144.315 172.733 144.444 172.779Z" fill="#FFE500"/>
<path d="M251.749 127.27L258.655 129.68C259.058 129.821 259.065 130.389 258.665 130.54L251.738 133.148C251.615 133.194 251.518 133.291 251.472 133.414L248.847 140.385C248.699 140.779 248.141 140.779 247.992 140.385L245.367 133.414C245.321 133.291 245.224 133.194 245.101 133.148L238.19 130.545C237.788 130.394 237.798 129.823 238.204 129.685L245.31 127.271C245.445 127.225 245.55 127.12 245.596 126.985L248.004 119.896C248.143 119.488 248.717 119.481 248.866 119.886L251.471 126.995C251.517 127.124 251.62 127.225 251.749 127.27Z" fill="#FFE500"/>
<path d="M50.3844 141.036L57.2904 143.446C57.6935 143.587 57.7003 144.155 57.3009 144.305L50.374 146.914C50.2509 146.96 50.1539 147.057 50.1075 147.18L47.4829 154.15C47.3343 154.545 46.7763 154.545 46.6276 154.15L44.003 147.18C43.9566 147.057 43.8596 146.96 43.7365 146.914L36.8243 144.31C36.4227 144.159 36.4321 143.588 36.8383 143.45L43.9446 141.036C44.0792 140.99 44.1845 140.885 44.2304 140.75L46.6386 133.661C46.7773 133.253 47.352 133.246 47.5006 133.651L50.1059 140.761C50.1529 140.889 50.2551 140.99 50.3844 141.036Z" fill="#FFE500"/>
</svg>
