<svg width="101" height="114" viewBox="0 0 101 114" fill="none" xmlns="http://www.w3.org/2000/svg">
<g clip-path="url(#clip0_508_9693)">
<path d="M92.7156 84.1005C100.147 83.2579 104 93.7824 98.1731 99.0527C96.859 100.242 95.5002 101.369 94.0994 102.433L84.61 95.795L92.7156 84.1005Z" fill="#BDA41C"/>
<path d="M13.2416 3.1893C17.9109 -3.38728 27.2352 0.961409 26.4888 9.34619C26.2846 11.6153 26.1813 13.9158 26.1813 16.2447L16.39 17.1104L9.0675 9.85117C10.3422 7.53466 11.7375 5.30988 13.2416 3.1893Z" fill="#BDA41C"/>
<path d="M92.7157 84.101L94.0998 102.433C84.4762 109.739 72.89 113.999 60.4228 113.999C26.9585 113.999 0.000244141 83.5707 0.000244141 45.7991C0.000244141 32.6048 3.31904 20.2877 9.06735 9.85156L26.1811 16.2451C26.1811 53.8842 53.2568 84.4482 86.6066 84.4448C88.67 84.445 90.7084 84.3284 92.7157 84.101Z" fill="#FFE500"/>
<path d="M13.0006 45.7991C13.0006 34.2865 15.5278 23.4423 19.9905 13.9322L9.06734 9.85156C3.31903 20.2874 0.000244141 32.6048 0.000244141 45.7991C0.000244141 83.5707 26.9585 113.999 60.4228 113.999C62.6156 113.999 64.7806 113.864 66.9132 113.607C36.5312 109.962 13.0006 81.0872 13.0006 45.7991Z" fill="#D2B82F"/>
<path d="M72.437 102.016C55.8799 102.016 40.3431 94.7712 28.6889 81.6166C17.0346 68.4621 10.6164 50.9246 10.6164 32.2351C10.6164 29.4764 10.7606 26.6941 11.0452 23.9657C11.1356 23.1 11.8317 22.4815 12.5969 22.5832C13.3639 22.6852 13.9121 23.4694 13.8218 24.3346C13.5497 26.9413 13.4118 29.5993 13.4118 32.2351C13.4118 50.0817 19.5393 66.8267 30.6655 79.3854C41.7916 91.9439 56.6262 98.86 72.4362 98.86C74.0445 98.86 75.6806 98.7843 77.2992 98.6349C78.0683 98.5648 78.7435 99.2105 78.8065 100.079C78.8694 100.948 78.2967 101.709 77.527 101.78C75.8337 101.937 74.1208 102.016 72.437 102.016Z" fill="#74640E"/>
</g>
<defs>
<clipPath id="clip0_508_9693">
<rect width="101" height="114" fill="white" transform="translate(0 -0.000976562)"/>
</clipPath>
</defs>
</svg>
