<svg width="236" height="81" viewBox="0 0 236 81" fill="none" xmlns="http://www.w3.org/2000/svg">
<rect x="26.1554" y="12.561" width="39.0244" height="39.0244" rx="5" transform="rotate(45 26.1554 12.561)" fill="#282B34"/>
<mask id="path-2-outside-1_190_1882" maskUnits="userSpaceOnUse" x="3.91437" y="17.48" width="45" height="45" fill="black">
<rect fill="white" x="3.91437" y="17.48" width="45" height="45"/>
<path fill-rule="evenodd" clip-rule="evenodd" d="M46.656 24.0894L42.3741 20.48C41.9354 21.0166 41.4653 21.5369 40.964 22.0381C32.8628 30.1407 19.7067 30.14 11.6055 22.0388L6.0718 24.8203C6.92152 28.463 8.76632 31.9203 11.6062 34.7601C14.2831 37.437 17.4986 39.2325 20.8981 40.1465C17.4987 41.0606 14.2832 42.856 11.6064 45.5328C8.57764 48.5616 6.67989 52.2932 5.91437 56.2036L10.1962 59.813C10.635 59.2764 11.1051 58.7561 11.6064 58.2549C19.7076 50.1522 32.8637 50.153 40.9649 58.2542L46.4985 55.4727C45.6488 51.83 43.804 48.3727 40.9641 45.5328C38.2873 42.856 35.0717 41.0605 31.6722 40.1465C35.0717 39.2324 38.2871 37.437 40.964 34.7601C43.9927 31.7314 45.8905 27.9997 46.656 24.0894Z"/>
</mask>
<path fill-rule="evenodd" clip-rule="evenodd" d="M46.656 24.0894L42.3741 20.48C41.9354 21.0166 41.4653 21.5369 40.964 22.0381C32.8628 30.1407 19.7067 30.14 11.6055 22.0388L6.0718 24.8203C6.92152 28.463 8.76632 31.9203 11.6062 34.7601C14.2831 37.437 17.4986 39.2325 20.8981 40.1465C17.4987 41.0606 14.2832 42.856 11.6064 45.5328C8.57764 48.5616 6.67989 52.2932 5.91437 56.2036L10.1962 59.813C10.635 59.2764 11.1051 58.7561 11.6064 58.2549C19.7076 50.1522 32.8637 50.153 40.9649 58.2542L46.4985 55.4727C45.6488 51.83 43.804 48.3727 40.9641 45.5328C38.2873 42.856 35.0717 41.0605 31.6722 40.1465C35.0717 39.2324 38.2871 37.437 40.964 34.7601C43.9927 31.7314 45.8905 27.9997 46.656 24.0894Z" fill="#FFE500"/>
<path d="M42.3741 20.48L43.3409 19.3331L42.1767 18.3517L41.2128 19.5305L42.3741 20.48ZM46.656 24.0894L48.128 24.3776L48.2976 23.5114L47.6227 22.9425L46.656 24.0894ZM40.964 22.0381L39.9034 20.9773L39.9032 20.9775L40.964 22.0381ZM11.6055 22.0388L12.6661 20.9782L11.9 20.212L10.9318 20.6986L11.6055 22.0388ZM6.0718 24.8203L5.39815 23.4801L4.34266 24.0106L4.61102 25.161L6.0718 24.8203ZM11.6062 34.7601L10.5455 35.8208H10.5455L11.6062 34.7601ZM20.8981 40.1465L21.2876 41.5951L26.6749 40.1465L21.2876 38.698L20.8981 40.1465ZM11.6064 45.5328L12.667 46.5935L11.6064 45.5328ZM5.91437 56.2036L4.44231 55.9154L4.27274 56.7816L4.94759 57.3505L5.91437 56.2036ZM10.1962 59.813L9.22947 60.9599L10.3937 61.9413L11.3575 60.7625L10.1962 59.813ZM11.6064 58.2549L12.6669 59.3156L12.6671 59.3154L11.6064 58.2549ZM40.9649 58.2542L39.9042 59.3148L40.6704 60.081L41.6385 59.5944L40.9649 58.2542ZM46.4985 55.4727L47.1722 56.8129L48.2277 56.2824L47.9593 55.1319L46.4985 55.4727ZM40.9641 45.5328L39.9035 46.5935L40.9641 45.5328ZM31.6722 40.1465L31.2827 38.6979L25.8954 40.1465L31.2828 41.595L31.6722 40.1465ZM40.964 34.7601L39.9033 33.6995V33.6995L40.964 34.7601ZM41.4073 21.6269L45.6892 25.2363L47.6227 22.9425L43.3409 19.3331L41.4073 21.6269ZM42.0245 23.0989C42.5614 22.5621 43.065 22.0047 43.5354 21.4295L41.2128 19.5305C40.8057 20.0285 40.3692 20.5116 39.9034 20.9773L42.0245 23.0989ZM10.5448 23.0995C19.2318 31.7864 33.3377 31.7873 42.0247 23.0987L39.9032 20.9775C32.3879 28.4942 20.1816 28.4936 12.6661 20.9782L10.5448 23.0995ZM6.74545 26.1605L12.2791 23.379L10.9318 20.6986L5.39815 23.4801L6.74545 26.1605ZM12.6669 33.6995C10.0305 31.0631 8.32054 27.8574 7.53258 24.4795L4.61102 25.161C5.52251 29.0685 7.50214 32.7774 10.5455 35.8208L12.6669 33.6995ZM21.2876 38.698C18.1363 37.8507 15.1538 36.1864 12.6669 33.6995L10.5455 35.8208C13.4123 38.6876 16.8609 40.6143 20.5086 41.5951L21.2876 38.698ZM12.667 46.5935C15.1539 44.1066 18.1364 42.4424 21.2876 41.5951L20.5086 38.698C16.861 39.6788 13.4125 41.6054 10.5457 44.4722L12.667 46.5935ZM7.38642 56.4918C8.09642 52.8651 9.85558 49.405 12.667 46.5935L10.5457 44.4722C7.2997 47.7182 5.26336 51.7214 4.44231 55.9154L7.38642 56.4918ZM11.163 58.6661L6.88114 55.0567L4.94759 57.3505L9.22947 60.9599L11.163 58.6661ZM10.5458 57.1941C10.009 57.7308 9.50532 58.2883 9.03499 58.8635L11.3575 60.7625C11.7646 60.2645 12.2011 59.7814 12.6669 59.3156L10.5458 57.1941ZM42.0255 57.1935C33.3386 48.5066 19.2327 48.5057 10.5456 57.1943L12.6671 59.3154C20.1825 51.7988 32.3887 51.7993 39.9042 59.3148L42.0255 57.1935ZM45.8249 54.1325L40.2912 56.9139L41.6385 59.5944L47.1722 56.8129L45.8249 54.1325ZM39.9035 46.5935C42.5398 49.2298 44.2498 52.4356 45.0378 55.8135L47.9593 55.1319C47.0478 51.2245 45.0682 47.5156 42.0248 44.4722L39.9035 46.5935ZM31.2828 41.595C34.434 42.4423 37.4166 44.1066 39.9035 46.5935L42.0248 44.4722C39.158 41.6054 35.7094 39.6787 32.0617 38.6979L31.2828 41.595ZM39.9033 33.6995C37.4164 36.1864 34.4339 37.8506 31.2827 38.6979L32.0617 41.595C35.7094 40.6142 39.1579 38.6876 42.0246 35.8208L39.9033 33.6995ZM45.1839 23.8012C44.4739 27.4279 42.7148 30.888 39.9033 33.6995L42.0246 35.8208C45.2706 32.5748 47.307 28.5716 48.128 24.3776L45.1839 23.8012Z" fill="black" mask="url(#path-2-outside-1_190_1882)"/>
<path d="M10.1915 59.8129C8.56745 61.7997 5.36624 60.4704 5.64745 57.9205C5.71066 57.3452 5.79826 56.7726 5.90964 56.2034L8.02429 58L10.1915 59.8129Z" fill="#BDA41C"/>
<path d="M37.9559 48.8381C40.4572 51.3394 42.5423 53.8496 43.5243 57L46.5243 55.5C45.6534 51.8362 43.9808 48.5465 41.1142 45.6799C32.9078 37.4735 19.7477 37.4117 11.618 45.5414C11.0853 46.0741 10.5885 46.6293 10.1263 47.2033C18.2992 40.6143 30.2891 41.1713 37.9559 48.8381Z" fill="#D2B82F"/>
<path d="M46.9135 57.9206C47.1947 60.4704 43.9935 61.7996 42.3701 59.8136C41.9313 59.2756 41.4613 58.7554 40.96 58.2541L43.5243 56.9L46.4937 55.4726C46.6826 56.2809 46.8225 57.0987 46.9135 57.9206Z" fill="#BDA41C"/>
<path d="M14.7599 31.6019C12.282 29.124 10.5619 26.176 9.59917 23.0449L6.06724 24.8203C6.91691 28.4629 8.76176 31.9203 11.6016 34.7602C19.7314 42.8899 32.8297 42.8899 40.9594 34.7602C41.4921 34.2275 41.9891 33.6726 42.4519 33.0991C34.2864 39.6955 22.3551 39.1971 14.7599 31.6019Z" fill="#D2B82F"/>
<path d="M41.299 29.2623C37.2767 33.2846 31.9429 35.4998 26.2803 35.4997C20.6178 35.4997 15.2839 33.2842 11.2613 29.2616C10.6675 28.6679 10.1037 28.034 9.58562 27.3776C9.42124 27.1693 9.45723 26.8671 9.66502 26.7031C9.8733 26.5387 10.1753 26.5743 10.3395 26.7825C10.8345 27.4096 11.3731 28.0152 11.9404 28.5825C15.7816 32.4237 20.8743 34.5392 26.2803 34.5393C31.6863 34.5394 36.7787 32.4241 40.6195 28.5832C41.0103 28.1925 41.3914 27.7787 41.7525 27.3534C41.9242 27.1514 42.2273 27.1264 42.4295 27.298C42.6317 27.4697 42.6566 27.7728 42.4848 27.975C42.1071 28.4201 41.7081 28.8532 41.299 29.2623Z" fill="#74640E"/>
<path d="M42.3694 20.4799C43.9935 18.4932 47.1947 19.8224 46.9135 22.3723C46.8503 22.9476 46.7627 23.5202 46.6513 24.0895L44.5244 22.3724L42.3694 20.4799Z" fill="#BDA41C"/>
<path d="M5.64739 22.3723C5.36623 19.8225 8.56744 18.4932 10.1908 20.4793C10.6296 21.0172 11.0996 21.5375 11.6009 22.0388L10.0243 23L6.0672 24.8202C5.87829 24.012 5.7384 23.1941 5.64739 22.3723Z" fill="#BDA41C"/>
<g clip-path="url(#clip0_190_1882)">
<path d="M11.0425 51.1767C15.0648 47.1544 20.3986 44.9392 26.0611 44.9393C31.7237 44.9393 37.0576 47.1548 41.0802 51.1774C41.6739 51.7712 42.2377 52.405 42.7558 53.0614C42.9202 53.2697 42.8842 53.572 42.6764 53.736C42.4682 53.9003 42.1662 53.8647 42.0019 53.6566C41.507 53.0294 40.9684 52.4238 40.401 51.8565C36.5599 48.0153 31.4672 45.8998 26.0612 45.8997C20.6552 45.8997 15.5628 48.015 11.7219 51.8558C11.3312 52.2465 10.95 52.6603 10.589 53.0856C10.4172 53.2876 10.1142 53.3127 9.91196 53.141C9.70973 52.9693 9.6849 52.6663 9.85661 52.464C10.2343 52.019 10.6334 51.5858 11.0425 51.1767Z" fill="#74640E"/>
</g>
<path d="M68.2255 27.1761C68.2255 26.9474 68.2763 26.7696 68.3779 26.6425C68.4922 26.5028 68.6574 26.4329 68.8733 26.4329H74.9328C75.9236 26.4329 76.8319 26.5981 77.6576 26.9284C78.4833 27.2586 79.1884 27.7223 79.7727 28.3194C80.3698 28.9037 80.8271 29.6024 81.1447 30.4154C81.475 31.2157 81.6401 32.0922 81.6401 33.045V34.9314C81.6401 35.4649 81.5512 35.9731 81.3733 36.4558C81.1955 36.9258 80.9668 37.3514 80.6874 37.7325C80.4206 38.1009 80.1221 38.4057 79.7918 38.6471C79.4615 38.8885 79.1439 39.0409 78.839 39.1044C79.1058 39.1806 79.4234 39.3331 79.7918 39.5617C80.1602 39.7904 80.5159 40.108 80.8588 40.5145C81.2018 40.921 81.4877 41.4291 81.7163 42.0389C81.9577 42.6359 82.0784 43.3473 82.0784 44.173V46.5358C82.0784 47.4632 81.8942 48.3143 81.5258 49.0892C81.1701 49.8514 80.6874 50.5119 80.0776 51.0709C79.4678 51.6171 78.7692 52.0427 77.9816 52.3476C77.194 52.6524 76.3746 52.8049 75.5235 52.8049H68.8733C68.4414 52.8049 68.2255 52.5635 68.2255 52.0808V27.1761ZM72.932 41.3338V48.2127H74.9137C75.2567 48.2127 75.5552 48.1491 75.8093 48.0221C76.0634 47.8951 76.2793 47.7299 76.4572 47.5267C76.635 47.3107 76.7684 47.0757 76.8573 46.8216C76.9462 46.5549 76.9907 46.2945 76.9907 46.0404V43.7157C76.9907 43.3092 76.9272 42.9599 76.8002 42.6677C76.6858 42.3628 76.527 42.1151 76.3238 41.9245C76.1332 41.7213 75.9046 41.5752 75.6378 41.4863C75.371 41.3847 75.0979 41.3338 74.8185 41.3338H72.932ZM72.932 31.0633V37.237H74.6088C74.8121 37.237 75.0408 37.2116 75.2948 37.1608C75.5616 37.0973 75.803 36.9893 76.0189 36.8369C76.2476 36.6845 76.4381 36.4748 76.5906 36.2081C76.743 35.9413 76.8192 35.6047 76.8192 35.1982V33.3308C76.8192 32.5305 76.616 31.9525 76.2095 31.5968C75.803 31.2411 75.2885 31.0633 74.666 31.0633H72.932Z" fill="white"/>
<path d="M98.1561 52.8049C97.9656 52.8049 97.8131 52.7287 97.6988 52.5762C97.5972 52.4238 97.5463 52.2459 97.5463 52.0427V46.5168H93.4877V52.0617C93.4877 52.2777 93.4495 52.4555 93.3733 52.5953C93.2971 52.735 93.1447 52.8049 92.916 52.8049H88.8954C88.7557 52.8049 88.635 52.735 88.5334 52.5953C88.4445 52.4428 88.4 52.265 88.4 52.0617V32.6258C88.4 31.7111 88.5906 30.8537 88.9717 30.0534C89.3527 29.253 89.8672 28.5544 90.5151 27.9573C91.1757 27.3476 91.9315 26.8712 92.7826 26.5282C93.6464 26.1852 94.5547 26.0137 95.5075 26.0137C96.4602 26.0137 97.3685 26.1852 98.2323 26.5282C99.0961 26.8712 99.852 27.3476 100.5 27.9573C101.148 28.5544 101.662 29.253 102.043 30.0534C102.437 30.8537 102.634 31.7111 102.634 32.6258V52.0427C102.634 52.2332 102.583 52.4111 102.482 52.5762C102.393 52.7287 102.24 52.8049 102.024 52.8049H98.1561ZM93.4877 42.077H97.5463V32.9116C97.5463 32.6067 97.5019 32.3209 97.413 32.0541C97.324 31.7746 97.1907 31.5333 97.0128 31.33C96.8477 31.1141 96.6381 30.9426 96.384 30.8155C96.1299 30.6885 95.8441 30.625 95.5265 30.625C95.1962 30.625 94.9041 30.6885 94.65 30.8155C94.4086 30.9426 94.199 31.1141 94.0212 31.33C93.8433 31.5333 93.71 31.7746 93.621 32.0541C93.5321 32.3209 93.4877 32.6067 93.4877 32.9116V42.077Z" fill="white"/>
<path d="M114.825 52.0617C114.825 52.2777 114.78 52.4555 114.691 52.5953C114.615 52.735 114.469 52.8049 114.253 52.8049H110.232C110.093 52.8049 109.972 52.735 109.87 52.5953C109.781 52.4428 109.737 52.265 109.737 52.0617V32.6258C109.737 31.7111 109.927 30.8537 110.309 30.0534C110.69 29.253 111.204 28.5544 111.852 27.9573C112.513 27.3476 113.268 26.8712 114.12 26.5282C114.983 26.1852 115.892 26.0137 116.844 26.0137C117.797 26.0137 118.705 26.1852 119.569 26.5282C120.433 26.8712 121.189 27.3476 121.837 27.9573C122.485 28.5544 122.999 29.253 123.38 30.0534C123.774 30.8537 123.971 31.7111 123.971 32.6258V52.0427C123.971 52.2332 123.92 52.4111 123.818 52.5762C123.73 52.7287 123.577 52.8049 123.361 52.8049H119.493C119.302 52.8049 119.15 52.7287 119.036 52.5762C118.934 52.4238 118.883 52.2459 118.883 52.0427V32.9116C118.883 32.6067 118.839 32.3209 118.75 32.0541C118.661 31.7746 118.528 31.5333 118.35 31.33C118.185 31.1141 117.975 30.9426 117.721 30.8155C117.467 30.6885 117.181 30.625 116.863 30.625C116.533 30.625 116.241 30.6885 115.987 30.8155C115.746 30.9426 115.536 31.1141 115.358 31.33C115.18 31.5333 115.047 31.7746 114.958 32.0541C114.869 32.3209 114.825 32.6067 114.825 32.9116V52.0617Z" fill="white"/>
<path d="M140.83 52.8049C140.639 52.8049 140.487 52.7287 140.373 52.5762C140.271 52.4238 140.22 52.2459 140.22 52.0427V46.5168H136.161V52.0617C136.161 52.2777 136.123 52.4555 136.047 52.5953C135.971 52.735 135.818 52.8049 135.59 52.8049H131.569C131.429 52.8049 131.309 52.735 131.207 52.5953C131.118 52.4428 131.074 52.265 131.074 52.0617V32.6258C131.074 31.7111 131.264 30.8537 131.645 30.0534C132.027 29.253 132.541 28.5544 133.189 27.9573C133.849 27.3476 134.605 26.8712 135.456 26.5282C136.32 26.1852 137.229 26.0137 138.181 26.0137C139.134 26.0137 140.042 26.1852 140.906 26.5282C141.77 26.8712 142.526 27.3476 143.174 27.9573C143.821 28.5544 144.336 29.253 144.717 30.0534C145.111 30.8537 145.308 31.7111 145.308 32.6258V52.0427C145.308 52.2332 145.257 52.4111 145.155 52.5762C145.066 52.7287 144.914 52.8049 144.698 52.8049H140.83ZM136.161 42.077H140.22V32.9116C140.22 32.6067 140.176 32.3209 140.087 32.0541C139.998 31.7746 139.864 31.5333 139.687 31.33C139.521 31.1141 139.312 30.9426 139.058 30.8155C138.804 30.6885 138.518 30.625 138.2 30.625C137.87 30.625 137.578 30.6885 137.324 30.8155C137.082 30.9426 136.873 31.1141 136.695 31.33C136.517 31.5333 136.384 31.7746 136.295 32.0541C136.206 32.3209 136.161 32.6067 136.161 32.9116V42.077Z" fill="white"/>
<path d="M157.498 52.0617C157.498 52.2777 157.454 52.4555 157.365 52.5953C157.289 52.735 157.143 52.8049 156.927 52.8049H152.906C152.766 52.8049 152.646 52.735 152.544 52.5953C152.455 52.4428 152.411 52.265 152.411 52.0617V32.6258C152.411 31.7111 152.601 30.8537 152.982 30.0534C153.363 29.253 153.878 28.5544 154.526 27.9573C155.186 27.3476 155.942 26.8712 156.793 26.5282C157.657 26.1852 158.565 26.0137 159.518 26.0137C160.471 26.0137 161.379 26.1852 162.243 26.5282C163.107 26.8712 163.863 27.3476 164.511 27.9573C165.158 28.5544 165.673 29.253 166.054 30.0534C166.448 30.8537 166.645 31.7111 166.645 32.6258V52.0427C166.645 52.2332 166.594 52.4111 166.492 52.5762C166.403 52.7287 166.251 52.8049 166.035 52.8049H162.167C161.976 52.8049 161.824 52.7287 161.709 52.5762C161.608 52.4238 161.557 52.2459 161.557 52.0427V32.9116C161.557 32.6067 161.513 32.3209 161.424 32.0541C161.335 31.7746 161.201 31.5333 161.023 31.33C160.858 31.1141 160.649 30.9426 160.395 30.8155C160.141 30.6885 159.855 30.625 159.537 30.625C159.207 30.625 158.915 30.6885 158.661 30.8155C158.419 30.9426 158.21 31.1141 158.032 31.33C157.854 31.5333 157.721 31.7746 157.632 32.0541C157.543 32.3209 157.498 32.6067 157.498 32.9116V52.0617Z" fill="white"/>
<path d="M171.846 49.013C171.846 48.7716 171.903 48.5937 172.018 48.4794C172.132 48.3651 172.259 48.3079 172.399 48.3079H175.924C176.165 48.3079 176.324 48.3905 176.4 48.5556C176.476 48.7208 176.514 48.8732 176.514 49.013V52.138C176.514 52.392 176.438 52.5699 176.286 52.6715C176.133 52.7604 176.013 52.8049 175.924 52.8049H172.418C172.329 52.8049 172.208 52.7604 172.056 52.6715C171.916 52.5826 171.846 52.4047 171.846 52.138V49.013Z" fill="white"/>
<path d="M181.64 27.1761C181.64 26.9474 181.697 26.7696 181.812 26.6425C181.926 26.5028 182.085 26.4329 182.288 26.4329H188.9C189.891 26.4456 190.806 26.5981 191.644 26.8902C192.495 27.1824 193.232 27.6143 193.854 28.186C194.477 28.7576 194.966 29.4626 195.322 30.3011C195.677 31.1395 195.855 32.1049 195.855 33.1974V46.0404C195.855 47.1329 195.677 48.0983 195.322 48.9367C194.966 49.7751 194.477 50.4802 193.854 51.0518C193.232 51.6235 192.495 52.0554 191.644 52.3476C190.806 52.6397 189.904 52.7922 188.938 52.8049H182.288C181.856 52.8049 181.64 52.5635 181.64 52.0808V27.1761ZM186.709 31.0633V48.2126H188.691C189.008 48.1999 189.294 48.1364 189.548 48.0221C189.815 47.8951 190.037 47.7299 190.215 47.5267C190.393 47.3107 190.533 47.0694 190.634 46.8026C190.736 46.5231 190.787 46.2182 190.787 45.888V33.407C190.787 32.6067 190.583 32.016 190.177 31.6349C189.77 31.2538 189.243 31.0633 188.595 31.0633H186.709Z" fill="#FFE500"/>
<path d="M202.863 27.1761C202.863 26.9474 202.92 26.7696 203.034 26.6425C203.149 26.5028 203.307 26.4329 203.511 26.4329H214.905C215.261 26.4329 215.439 26.6679 215.439 27.138V30.3773C215.439 30.8346 215.261 31.0633 214.905 31.0633H207.931V37.1799H213.495C213.661 37.1799 213.8 37.2307 213.915 37.3323C214.042 37.4339 214.105 37.6054 214.105 37.8468V41.1052C214.105 41.3338 214.048 41.499 213.934 41.6006C213.819 41.7022 213.673 41.753 213.495 41.753H207.931V48.2126H215.001C215.153 48.2126 215.28 48.2698 215.382 48.3841C215.496 48.4858 215.553 48.6446 215.553 48.8605V52.138C215.553 52.3666 215.496 52.5381 215.382 52.6524C215.28 52.7541 215.153 52.8049 215.001 52.8049H203.511C203.079 52.8049 202.863 52.5635 202.863 52.0808V27.1761Z" fill="#FFE500"/>
<path d="M230.564 52.138C230.45 52.5826 230.208 52.8049 229.84 52.8049H226.81C226.429 52.8049 226.181 52.5826 226.067 52.138L220.77 27.1761C220.719 26.9474 220.719 26.7696 220.77 26.6425C220.833 26.5028 220.954 26.4329 221.132 26.4329H224.962C225.152 26.4329 225.318 26.4837 225.457 26.5854C225.61 26.687 225.699 26.8458 225.724 27.0617L228.125 42.3628L228.316 44.5922L228.525 42.3628L230.907 27.0617C230.932 26.8458 231.021 26.687 231.174 26.5854C231.326 26.4837 231.491 26.4329 231.669 26.4329H235.499C235.677 26.4329 235.791 26.4964 235.842 26.6235C235.906 26.7505 235.912 26.922 235.861 27.138L230.564 52.138Z" fill="#FFE500"/>
<defs>
<clipPath id="clip0_190_1882">
<rect width="34.7001" height="34.7001" fill="white" transform="translate(50.5977 55.5366) rotate(135)"/>
</clipPath>
</defs>
</svg>
