<svg width="30" height="30" viewBox="0 0 30 30" fill="none" xmlns="http://www.w3.org/2000/svg">
<g clip-path="url(#clip0_913_959)">
<path d="M11.7069 13.3526C12.8775 15.411 14.589 17.1225 16.6474 18.293L17.753 16.7451C18.1206 16.2306 18.8145 16.0716 19.3695 16.3748C21.128 17.3354 23.0714 17.9191 25.0986 18.0796C25.7487 18.1311 26.25 18.6736 26.25 19.3258V24.9043C26.25 25.5451 25.7652 26.0821 25.1278 26.1476C24.4654 26.2157 23.7971 26.25 23.125 26.25C12.4245 26.25 3.75 17.5755 3.75 6.875C3.75 6.20284 3.78428 5.53464 3.85236 4.8722C3.91788 4.23469 4.45493 3.75 5.09581 3.75H10.6743C11.3264 3.75 11.8689 4.2513 11.9204 4.90136C12.0808 6.9286 12.6646 8.87205 13.6252 10.6306C13.9284 11.1855 13.7694 11.8794 13.2549 12.247L11.7069 13.3526ZM8.55531 12.5315L10.9302 10.8351C10.2568 9.38142 9.79535 7.83979 9.55909 6.25H6.26134C6.25379 6.4579 6.25 6.66625 6.25 6.875C6.25 16.1947 13.8053 23.75 23.125 23.75C23.3337 23.75 23.5421 23.7463 23.75 23.7386V20.4409C22.1602 20.2046 20.6186 19.7431 19.1649 19.0697L17.4685 21.4447C16.7823 21.1781 16.1195 20.8644 15.4842 20.5076L15.4116 20.4662C12.9621 19.0734 10.9267 17.0379 9.53375 14.5884L9.49242 14.5158C9.13561 13.8805 8.82193 13.2177 8.55531 12.5315Z" fill="#FFE500"/>
</g>
<defs>
<clipPath id="clip0_913_959">
<rect width="30" height="30" fill="white"/>
</clipPath>
</defs>
</svg>
