<svg width="32" height="38" viewBox="0 0 32 38" fill="none" xmlns="http://www.w3.org/2000/svg">
<path d="M26.4495 20.0147C26.4327 16.9114 27.8265 14.5692 30.6476 12.8442C29.0691 10.5696 26.6846 9.3182 23.536 9.07299C20.5554 8.83623 17.2977 10.8233 16.1055 10.8233C14.846 10.8233 11.9578 9.15754 9.69081 9.15754C5.00576 9.23365 0.0268555 12.9203 0.0268555 20.4206C0.0268555 22.636 0.42987 24.9246 1.2359 27.2866C2.3106 30.3899 6.18962 38 10.2366 37.8732C12.3524 37.8224 13.8469 36.3596 16.6008 36.3596C19.2708 36.3596 20.6562 37.8732 23.0155 37.8732C27.096 37.814 30.6056 30.8972 31.6299 27.7855C26.1556 25.1896 26.4495 20.1753 26.4495 20.0147ZM21.6973 6.1304C23.9894 3.39074 23.7795 0.896306 23.7123 0C21.6889 0.11838 19.3464 1.38674 18.0114 2.95105C16.542 4.62528 15.6772 6.69693 15.862 9.03071C18.0534 9.19982 20.0516 8.06676 21.6973 6.1304Z" fill="#9364ED"/>
</svg>
