<svg width="328" height="281" viewBox="0 0 328 281" fill="none" xmlns="http://www.w3.org/2000/svg">
<path d="M17.1087 20.1441H13.2814V12.3374H6.10843V20.1441H2.28113V2.04679H6.10843V9.14377H13.2814V2.04679H17.1087V20.1441Z" fill="#E2209E"/>
<path d="M28.5817 6.05151C29.8659 6.05151 30.9643 6.29653 31.8767 6.78656C32.8061 7.27659 33.5243 7.98629 34.0312 8.91565C34.5381 9.84502 34.7916 10.9856 34.7916 12.3374V14.1623H25.8697C25.9035 15.2269 26.2161 16.0633 26.8075 16.6716C27.4158 17.2799 28.2522 17.5841 29.3168 17.5841C30.2123 17.5841 31.0234 17.4996 31.75 17.3306C32.4766 17.1448 33.2285 16.866 34.0058 16.4942V19.409C33.3299 19.747 32.6118 19.992 31.8514 20.1441C31.1079 20.3131 30.2039 20.3975 29.1393 20.3975C27.7537 20.3975 26.5287 20.1441 25.4641 19.6372C24.3996 19.1133 23.5631 18.3276 22.9548 17.2799C22.3465 16.2323 22.0424 14.9143 22.0424 13.3259C22.0424 11.7037 22.3127 10.3604 22.8534 9.29585C23.4111 8.2144 24.1799 7.40332 25.16 6.8626C26.14 6.32187 27.2806 6.05151 28.5817 6.05151ZM28.6071 8.73823C27.8805 8.73823 27.2722 8.97479 26.7821 9.44792C26.309 9.92106 26.0302 10.6561 25.9457 11.6531H31.2431C31.2431 11.0954 31.1417 10.597 30.9389 10.1576C30.7531 9.71828 30.4658 9.37189 30.0772 9.11842C29.6885 8.86496 29.1985 8.73823 28.6071 8.73823Z" fill="#E2209E"/>
<path d="M45.0523 6.02617C46.911 6.02617 48.3304 6.43171 49.3105 7.24279C50.3074 8.03698 50.8059 9.26205 50.8059 10.918V20.1441H48.1699L47.4348 18.2685H47.3335C46.9448 18.7585 46.5393 19.164 46.1168 19.4851C45.7113 19.8061 45.2382 20.0342 44.6974 20.1694C44.1736 20.3215 43.5231 20.3975 42.7458 20.3975C41.9347 20.3975 41.1996 20.2455 40.5406 19.9413C39.8985 19.6203 39.3916 19.1387 39.0199 18.4966C38.6481 17.8376 38.4622 17.0096 38.4622 16.0126C38.4622 14.5425 38.9776 13.4611 40.0084 12.7683C41.0391 12.0586 42.5852 11.67 44.6467 11.6024L47.0546 11.5263V10.918C47.0546 10.1914 46.8603 9.65914 46.4717 9.32119C46.0999 8.98324 45.5761 8.81427 44.9002 8.81427C44.2243 8.81427 43.5653 8.91565 42.9232 9.11842C42.2811 9.30429 41.639 9.54086 40.9969 9.82812L39.7549 7.26814C40.4984 6.87949 41.3179 6.57534 42.2135 6.35567C43.126 6.136 44.0722 6.02617 45.0523 6.02617ZM45.5846 13.7821C44.3679 13.8159 43.5231 14.0356 43.0499 14.4412C42.5768 14.8467 42.3402 15.379 42.3402 16.038C42.3402 16.6125 42.5092 17.0265 42.8472 17.2799C43.1851 17.5165 43.6244 17.6348 44.1652 17.6348C44.9762 17.6348 45.6606 17.3982 46.2182 16.9251C46.7758 16.4351 47.0546 15.7507 47.0546 14.872V13.7315L45.5846 13.7821Z" fill="#E2209E"/>
<path d="M60.5773 20.3975C59.0396 20.3975 57.7808 19.7977 56.8007 18.598C55.8376 17.3813 55.356 15.5986 55.356 13.2499C55.356 10.8842 55.846 9.09307 56.8261 7.87645C57.8061 6.65983 59.0903 6.05151 60.6787 6.05151C61.3377 6.05151 61.9207 6.14445 62.4276 6.33032C62.9345 6.4993 63.3654 6.73586 63.7203 7.04002C64.092 7.34418 64.4046 7.69058 64.6581 8.07922H64.7848C64.7341 7.80886 64.675 7.42022 64.6074 6.91329C64.5398 6.38947 64.506 5.85719 64.506 5.31647V0.880859H68.2826V20.1441H65.3931L64.6581 18.3445H64.506C64.2694 18.7162 63.9653 19.0626 63.5935 19.3837C63.2387 19.6878 62.8162 19.9329 62.3262 20.1187C61.8362 20.3046 61.2532 20.3975 60.5773 20.3975ZM61.8953 17.3813C62.943 17.3813 63.678 17.0772 64.1005 16.4689C64.5229 15.8437 64.7426 14.9143 64.7595 13.6808V13.2752C64.7595 11.9234 64.5482 10.8927 64.1258 10.183C63.7203 9.47327 62.9599 9.11842 61.8446 9.11842C61.0167 9.11842 60.3661 9.48172 59.893 10.2083C59.4198 10.918 59.1833 11.9488 59.1833 13.3006C59.1833 14.6524 59.4198 15.6747 59.893 16.3675C60.3661 17.0434 61.0335 17.3813 61.8953 17.3813Z" fill="#E2209E"/>
<path d="M77.5293 20.1441H73.7527V0.880859H77.5293V20.1441Z" fill="#E2209E"/>
<path d="M86.7728 6.30498V20.1441H82.9961V6.30498H86.7728ZM84.8971 0.880859C85.4547 0.880859 85.9363 1.01604 86.3419 1.2864C86.7474 1.53986 86.9502 2.02145 86.9502 2.73114C86.9502 3.42394 86.7474 3.90552 86.3419 4.17588C85.9363 4.44625 85.4547 4.58143 84.8971 4.58143C84.3226 4.58143 83.8326 4.44625 83.427 4.17588C83.0384 3.90552 82.8441 3.42394 82.8441 2.73114C82.8441 2.02145 83.0384 1.53986 83.427 1.2864C83.8326 1.01604 84.3226 0.880859 84.8971 0.880859Z" fill="#E2209E"/>
<path d="M100.097 6.05151C101.584 6.05151 102.775 6.45706 103.671 7.26814C104.566 8.06232 105.014 9.34654 105.014 11.1208V20.1441H101.238V12.0586C101.238 11.0616 101.06 10.3181 100.705 9.82812C100.35 9.32119 99.7844 9.06773 99.0071 9.06773C97.8581 9.06773 97.0723 9.46482 96.6499 10.259C96.2275 11.0363 96.0162 12.16 96.0162 13.6301V20.1441H92.2396V6.30498H95.1291L95.636 8.07922H95.8388C96.143 7.60609 96.5147 7.22589 96.9541 6.93864C97.3934 6.63448 97.8834 6.41481 98.4241 6.27963C98.9649 6.12755 99.5225 6.05151 100.097 6.05151Z" fill="#E2209E"/>
<path d="M116.122 6.05151C117.406 6.05151 118.504 6.29653 119.417 6.78656C120.346 7.27659 121.064 7.98629 121.571 8.91565C122.078 9.84502 122.331 10.9856 122.331 12.3374V14.1623H113.41C113.443 15.2269 113.756 16.0633 114.347 16.6716C114.956 17.2799 115.792 17.5841 116.857 17.5841C117.752 17.5841 118.563 17.4996 119.29 17.3306C120.017 17.1448 120.768 16.866 121.546 16.4942V19.409C120.87 19.747 120.152 19.992 119.391 20.1441C118.648 20.3131 117.744 20.3975 116.679 20.3975C115.294 20.3975 114.069 20.1441 113.004 19.6372C111.939 19.1133 111.103 18.3276 110.495 17.2799C109.886 16.2323 109.582 14.9143 109.582 13.3259C109.582 11.7037 109.853 10.3604 110.393 9.29585C110.951 8.2144 111.72 7.40332 112.7 6.8626C113.68 6.32187 114.821 6.05151 116.122 6.05151ZM116.147 8.73823C115.42 8.73823 114.812 8.97479 114.322 9.44792C113.849 9.92106 113.57 10.6561 113.486 11.6531H118.783C118.783 11.0954 118.682 10.597 118.479 10.1576C118.293 9.71828 118.006 9.37189 117.617 9.11842C117.228 8.86496 116.738 8.73823 116.147 8.73823Z" fill="#E2209E"/>
<path d="M143.511 20.1441H139.683V9.67604C139.683 9.38878 139.683 9.03393 139.683 8.6115C139.7 8.18906 139.717 7.74972 139.734 7.29348C139.751 6.83725 139.768 6.43171 139.785 6.07686C139.7 6.17825 139.514 6.36412 139.227 6.63448C138.957 6.88794 138.703 7.11606 138.467 7.31883L136.388 8.99169L134.538 6.68517L140.368 2.04679H143.511V20.1441Z" fill="#E2209E"/>
<path d="M12.8316 66.0841H9.96117V60.2291H4.58141V66.0841H1.71094V52.5112H4.58141V57.8339H9.96117V52.5112H12.8316V66.0841Z" fill="#E2209E"/>
<path d="M21.4364 55.5147C22.3995 55.5147 23.2233 55.6985 23.9076 56.066C24.6047 56.4335 25.1433 56.9658 25.5235 57.6628C25.9037 58.3598 26.0938 59.2153 26.0938 60.2291V61.5978H19.4023C19.4277 62.3962 19.6621 63.0236 20.1057 63.4798C20.5619 63.936 21.1893 64.1641 21.9877 64.1641C22.6593 64.1641 23.2677 64.1008 23.8126 63.9741C24.3575 63.8346 24.9215 63.6255 25.5045 63.3467V65.5329C24.9975 65.7863 24.4589 65.9701 23.8886 66.0841C23.331 66.2109 22.653 66.2742 21.8546 66.2742C20.8154 66.2742 19.8966 66.0841 19.0982 65.7039C18.2998 65.3111 17.6725 64.7218 17.2162 63.936C16.76 63.1503 16.5319 62.1618 16.5319 60.9705C16.5319 59.7539 16.7346 58.7464 17.1402 57.948C17.5584 57.1369 18.135 56.5286 18.8701 56.123C19.6051 55.7175 20.4605 55.5147 21.4364 55.5147ZM21.4554 57.5297C20.9104 57.5297 20.4542 57.7072 20.0867 58.062C19.7318 58.4169 19.5227 58.9681 19.4594 59.7159H23.4324C23.4324 59.2977 23.3564 58.9238 23.2043 58.5943C23.0649 58.2648 22.8494 58.005 22.558 57.8149C22.2665 57.6248 21.899 57.5297 21.4554 57.5297Z" fill="#E2209E"/>
<path d="M33.7893 55.4957C35.1834 55.4957 36.2479 55.7999 36.9829 56.4082C37.7307 57.0038 38.1045 57.9226 38.1045 59.1646V66.0841H36.1275L35.5762 64.6774H35.5002C35.2087 65.0449 34.9045 65.3491 34.5877 65.5899C34.2836 65.8307 33.9287 66.0018 33.5232 66.1031C33.1303 66.2172 32.6424 66.2742 32.0594 66.2742C31.4511 66.2742 30.8998 66.1602 30.4056 65.9321C29.924 65.6913 29.5438 65.3301 29.265 64.8485C28.9862 64.3542 28.8468 63.7333 28.8468 62.9855C28.8468 61.883 29.2333 61.0719 30.0064 60.5523C30.7794 60.02 31.939 59.7285 33.4852 59.6778L35.2911 59.6208V59.1646C35.2911 58.6196 35.1453 58.2204 34.8539 57.967C34.575 57.7135 34.1822 57.5868 33.6752 57.5868C33.1683 57.5868 32.6741 57.6628 32.1925 57.8149C31.7109 57.9543 31.2293 58.1317 30.7477 58.3472L29.8163 56.4272C30.3739 56.1357 30.9885 55.9076 31.6602 55.7428C32.3446 55.5781 33.0543 55.4957 33.7893 55.4957ZM34.1885 61.3127C33.276 61.338 32.6424 61.5028 32.2875 61.8069C31.9327 62.1111 31.7553 62.5103 31.7553 63.0046C31.7553 63.4354 31.882 63.7459 32.1355 63.936C32.3889 64.1135 32.7184 64.2022 33.124 64.2022C33.7323 64.2022 34.2455 64.0247 34.6638 63.6699C35.082 63.3024 35.2911 62.7891 35.2911 62.1301V61.2747L34.1885 61.3127Z" fill="#E2209E"/>
<path d="M45.4331 66.2742C44.2798 66.2742 43.3357 65.8243 42.6006 64.9245C41.8783 64.0121 41.5171 62.6751 41.5171 60.9135C41.5171 59.1392 41.8846 57.7959 42.6196 56.8834C43.3547 55.9709 44.3178 55.5147 45.5091 55.5147C46.0034 55.5147 46.4406 55.5844 46.8208 55.7238C47.201 55.8505 47.5242 56.028 47.7903 56.2561C48.0691 56.4842 48.3036 56.744 48.4937 57.0355H48.5887C48.5507 56.8327 48.5063 56.5412 48.4556 56.161C48.4049 55.7682 48.3796 55.369 48.3796 54.9634V51.6367H51.2121V66.0841H49.0449L48.4937 64.7344H48.3796C48.2022 65.0133 47.9741 65.2731 47.6952 65.5138C47.4291 65.742 47.1123 65.9257 46.7448 66.0651C46.3772 66.2045 45.94 66.2742 45.4331 66.2742ZM46.4216 64.0121C47.2073 64.0121 47.7586 63.784 48.0754 63.3277C48.3923 62.8588 48.557 62.1618 48.5697 61.2366V60.9325C48.5697 59.9186 48.4113 59.1456 48.0945 58.6133C47.7903 58.081 47.22 57.8149 46.3836 57.8149C45.7626 57.8149 45.2747 58.0874 44.9198 58.6323C44.565 59.1646 44.3875 59.9376 44.3875 60.9515C44.3875 61.9654 44.565 62.7321 44.9198 63.2517C45.2747 63.7586 45.7753 64.0121 46.4216 64.0121Z" fill="#E2209E"/>
<path d="M58.147 66.0841H55.3146V51.6367H58.147V66.0841Z" fill="#E2209E"/>
<path d="M65.0797 55.7048V66.0841H62.2472V55.7048H65.0797ZM63.6729 51.6367C64.0912 51.6367 64.4523 51.7381 64.7565 51.9409C65.0607 52.131 65.2127 52.4922 65.2127 53.0244C65.2127 53.544 65.0607 53.9052 64.7565 54.108C64.4523 54.3108 64.0912 54.4121 63.6729 54.4121C63.2421 54.4121 62.8745 54.3108 62.5704 54.108C62.2789 53.9052 62.1332 53.544 62.1332 53.0244C62.1332 52.4922 62.2789 52.131 62.5704 51.9409C62.8745 51.7381 63.2421 51.6367 63.6729 51.6367Z" fill="#E2209E"/>
<path d="M75.0729 55.5147C76.1881 55.5147 77.0816 55.8189 77.7532 56.4272C78.4249 57.0228 78.7607 57.986 78.7607 59.3167V66.0841H75.9283V60.02C75.9283 59.2723 75.7952 58.7147 75.5291 58.3472C75.263 57.967 74.8384 57.7769 74.2554 57.7769C73.3937 57.7769 72.8044 58.0747 72.4875 58.6703C72.1707 59.2533 72.0123 60.0961 72.0123 61.1986V66.0841H69.1798V55.7048H71.3469L71.7271 57.0355H71.8792C72.1073 56.6806 72.3861 56.3955 72.7156 56.1801C73.0452 55.9519 73.4127 55.7872 73.8182 55.6858C74.2238 55.5717 74.642 55.5147 75.0729 55.5147Z" fill="#E2209E"/>
<path d="M87.0913 55.5147C88.0545 55.5147 88.8782 55.6985 89.5626 56.066C90.2596 56.4335 90.7982 56.9658 91.1784 57.6628C91.5586 58.3598 91.7487 59.2153 91.7487 60.2291V61.5978H85.0573C85.0826 62.3962 85.3171 63.0236 85.7606 63.4798C86.2169 63.936 86.8442 64.1641 87.6426 64.1641C88.3143 64.1641 88.9226 64.1008 89.4675 63.9741C90.0125 63.8346 90.5764 63.6255 91.1594 63.3467V65.5329C90.6525 65.7863 90.1139 65.9701 89.5436 66.0841C88.986 66.2109 88.3079 66.2742 87.5095 66.2742C86.4703 66.2742 85.5515 66.0841 84.7531 65.7039C83.9547 65.3111 83.3274 64.7218 82.8712 63.936C82.4149 63.1503 82.1868 62.1618 82.1868 60.9705C82.1868 59.7539 82.3896 58.7464 82.7951 57.948C83.2133 57.1369 83.79 56.5286 84.525 56.123C85.2601 55.7175 86.1155 55.5147 87.0913 55.5147ZM87.1103 57.5297C86.5654 57.5297 86.1092 57.7072 85.7416 58.062C85.3868 58.4169 85.1777 58.9681 85.1143 59.7159H89.0873C89.0873 59.2977 89.0113 58.9238 88.8592 58.5943C88.7198 58.2648 88.5044 58.005 88.2129 57.8149C87.9214 57.6248 87.5539 57.5297 87.1103 57.5297Z" fill="#E2209E"/>
<path d="M110.028 66.0841H100.542V64.0881L103.945 60.6473C104.629 59.9376 105.181 59.3483 105.599 58.8794C106.017 58.3979 106.321 57.967 106.511 57.5868C106.702 57.1939 106.797 56.7757 106.797 56.3321C106.797 55.7872 106.645 55.3816 106.34 55.1155C106.049 54.8494 105.65 54.7163 105.143 54.7163C104.623 54.7163 104.116 54.8367 103.622 55.0775C103.128 55.3183 102.608 55.6605 102.063 56.104L100.504 54.2601C100.897 53.9179 101.309 53.6011 101.74 53.3096C102.184 53.0181 102.69 52.7836 103.261 52.6062C103.844 52.4161 104.541 52.3211 105.352 52.3211C106.239 52.3211 106.999 52.4858 107.633 52.8153C108.279 53.1322 108.774 53.5694 109.116 54.127C109.471 54.6719 109.648 55.2929 109.648 55.99C109.648 56.5602 109.559 57.0862 109.382 57.5678C109.217 58.0493 108.97 58.5183 108.641 58.9745C108.324 59.418 107.931 59.8806 107.462 60.3622C106.993 60.8311 106.461 61.3444 105.865 61.902L104.116 63.5368V63.6699H110.028V66.0841Z" fill="#E2209E"/>
<path d="M3.07012 133.675H2.21468V127.639H0.0950928V126.889H5.1802V127.639H3.07012V133.675Z" fill="#E2209E"/>
<path d="M7.95897 128.485C8.39619 128.485 8.77005 128.58 9.08055 128.77C9.39737 128.961 9.63816 129.23 9.80292 129.578C9.974 129.921 10.0595 130.323 10.0595 130.786V131.289H6.57126C6.58393 131.866 6.72967 132.306 7.00848 132.61C7.29363 132.908 7.68966 133.057 8.19659 133.057C8.51976 133.057 8.8049 133.029 9.05203 132.972C9.30549 132.908 9.56529 132.82 9.83143 132.705V133.437C9.57163 133.551 9.315 133.634 9.06153 133.684C8.80807 133.742 8.50708 133.77 8.15857 133.77C7.67699 133.77 7.24927 133.672 6.87541 133.475C6.50789 133.279 6.21958 132.987 6.01047 132.601C5.8077 132.208 5.70631 131.73 5.70631 131.166C5.70631 130.608 5.79819 130.13 5.98195 129.73C6.17205 129.331 6.43502 129.024 6.77086 128.808C7.11303 128.593 7.50907 128.485 7.95897 128.485ZM7.94946 129.17C7.55026 129.17 7.23343 129.3 6.99898 129.559C6.77086 129.813 6.63462 130.168 6.59027 130.624H9.1851C9.1851 130.332 9.14074 130.079 9.05203 129.864C8.96332 129.648 8.82708 129.48 8.64332 129.36C8.4659 129.233 8.23461 129.17 7.94946 129.17Z" fill="#E2209E"/>
<path d="M12.9483 131.071L11.1899 128.58H12.1404L13.452 130.5L14.7542 128.58H15.6952L13.9368 131.071L15.7902 133.675H14.8398L13.452 131.641L12.0453 133.675H11.1043L12.9483 131.071Z" fill="#E2209E"/>
<path d="M19.0437 133.086C19.1705 133.086 19.3004 133.076 19.4334 133.057C19.5665 133.032 19.6742 133.006 19.7566 132.981V133.618C19.6679 133.662 19.5412 133.697 19.3764 133.723C19.2117 133.754 19.0532 133.77 18.9012 133.77C18.635 133.77 18.3879 133.726 18.1598 133.637C17.938 133.542 17.7574 133.38 17.618 133.152C17.4786 132.924 17.4089 132.604 17.4089 132.192V129.227H16.6865V128.828L17.4184 128.495L17.7511 127.411H18.2453V128.58H19.7186V129.227H18.2453V132.173C18.2453 132.484 18.3182 132.715 18.4639 132.867C18.616 133.013 18.8093 133.086 19.0437 133.086Z" fill="#E2209E"/>
<path d="M26.9527 133.675H26.1353V128.932C26.1353 128.748 26.1353 128.593 26.1353 128.466C26.1416 128.34 26.1479 128.222 26.1543 128.115C26.1606 128.001 26.167 127.883 26.1733 127.763C26.0719 127.864 25.98 127.95 25.8976 128.02C25.8153 128.089 25.7107 128.178 25.584 128.286L24.8616 128.875L24.4244 128.314L26.2588 126.889H26.9527V133.675Z" fill="#E2209E"/>
<path d="M32.297 126.793C32.6962 126.793 33.0478 126.857 33.352 126.984C33.6562 127.104 33.8938 127.285 34.0649 127.525C34.2423 127.766 34.331 128.064 34.331 128.419C34.331 128.691 34.2708 128.929 34.1504 129.132C34.0363 129.334 33.8811 129.515 33.6847 129.673C33.4882 129.826 33.2728 129.962 33.0383 130.082C33.3171 130.215 33.5706 130.367 33.7987 130.538C34.0268 130.703 34.2074 130.896 34.3405 131.118C34.4799 131.34 34.5496 131.606 34.5496 131.917C34.5496 132.297 34.4577 132.626 34.274 132.905C34.0902 133.178 33.8304 133.39 33.4946 133.542C33.1651 133.694 32.7754 133.77 32.3255 133.77C31.8376 133.77 31.4225 133.697 31.0803 133.551C30.7445 133.406 30.4879 133.2 30.3104 132.934C30.1393 132.661 30.0538 132.332 30.0538 131.945C30.0538 131.635 30.1172 131.365 30.2439 131.137C30.377 130.909 30.5512 130.713 30.7667 130.548C30.9821 130.383 31.2134 130.244 31.4605 130.13C31.2387 130.003 31.036 129.86 30.8522 129.702C30.6748 129.537 30.5322 129.35 30.4245 129.141C30.3231 128.932 30.2724 128.688 30.2724 128.409C30.2724 128.061 30.3611 127.769 30.5385 127.535C30.716 127.294 30.9568 127.11 31.2609 126.984C31.5651 126.857 31.9104 126.793 32.297 126.793ZM30.8712 131.955C30.8712 132.284 30.9884 132.56 31.2229 132.782C31.4574 132.997 31.8185 133.105 32.3065 133.105C32.617 133.105 32.8768 133.054 33.0859 132.953C33.295 132.851 33.4534 132.712 33.5611 132.534C33.6752 132.357 33.7322 132.154 33.7322 131.926C33.7322 131.704 33.672 131.511 33.5516 131.346C33.4375 131.175 33.2728 131.023 33.0573 130.89C32.8482 130.757 32.5979 130.637 32.3065 130.529L32.1544 130.472C31.8756 130.592 31.6411 130.722 31.451 130.862C31.2609 131.001 31.1152 131.159 31.0138 131.337C30.9187 131.514 30.8712 131.72 30.8712 131.955ZM32.2874 127.468C31.9389 127.468 31.6506 127.554 31.4225 127.725C31.2007 127.89 31.0898 128.13 31.0898 128.447C31.0898 128.682 31.1437 128.878 31.2514 129.037C31.3655 129.195 31.5176 129.331 31.7077 129.445C31.8977 129.553 32.1069 129.658 32.335 129.759C32.5568 129.664 32.7532 129.559 32.9243 129.445C33.1017 129.331 33.2411 129.195 33.3425 129.037C33.4502 128.872 33.5041 128.675 33.5041 128.447C33.5041 128.13 33.3932 127.89 33.1714 127.725C32.9496 127.554 32.655 127.468 32.2874 127.468Z" fill="#E2209E"/>
<path d="M38.3921 126.889C38.9561 126.889 39.4186 126.961 39.7798 127.107C40.1473 127.247 40.4198 127.459 40.5972 127.744C40.7747 128.029 40.8634 128.387 40.8634 128.818C40.8634 129.179 40.7968 129.48 40.6638 129.721C40.5307 129.962 40.3596 130.155 40.1505 130.301C39.9477 130.44 39.7323 130.551 39.5042 130.633L41.3671 133.675H40.3691L38.7248 130.871H37.3751V133.675H36.5196V126.889H38.3921ZM38.3446 127.63H37.3751V130.149H38.3921C38.7596 130.149 39.0606 130.101 39.2951 130.006C39.5295 129.905 39.7006 129.759 39.8083 129.569C39.9224 129.379 39.9794 129.141 39.9794 128.856C39.9794 128.558 39.9192 128.321 39.7988 128.143C39.6848 127.966 39.5073 127.836 39.2666 127.753C39.0258 127.671 38.7184 127.63 38.3446 127.63Z" fill="#E2209E"/>
<path d="M2.72894 192.816H1.96855V187.451H0.0844727V186.784H4.60457V187.451H2.72894V192.816Z" fill="#E2209E"/>
<path d="M7.07458 188.203C7.46323 188.203 7.79555 188.288 8.07154 188.457C8.35317 188.626 8.5672 188.865 8.71365 189.175C8.86573 189.479 8.94176 189.837 8.94176 190.248V190.695H5.84106C5.85233 191.208 5.98187 191.6 6.22971 191.87C6.48317 192.135 6.8352 192.267 7.2858 192.267C7.57306 192.267 7.82653 192.242 8.04619 192.191C8.27149 192.135 8.50243 192.056 8.73899 191.954V192.605C8.50806 192.706 8.27994 192.78 8.05464 192.825C7.82934 192.875 7.5618 192.901 7.25201 192.901C6.82394 192.901 6.44374 192.813 6.11142 192.639C5.78474 192.464 5.52846 192.205 5.34258 191.861C5.16234 191.512 5.07222 191.087 5.07222 190.586C5.07222 190.09 5.15389 189.665 5.31724 189.31C5.48621 188.955 5.71996 188.682 6.01849 188.49C6.32264 188.299 6.67467 188.203 7.07458 188.203ZM7.06614 188.811C6.71129 188.811 6.42966 188.927 6.22126 189.158C6.01849 189.383 5.89739 189.699 5.85796 190.104H8.16448C8.16448 189.845 8.12505 189.62 8.04619 189.428C7.96734 189.237 7.84624 189.087 7.6829 188.98C7.52519 188.868 7.3196 188.811 7.06614 188.811Z" fill="#E2209E"/>
<path d="M11.5095 190.501L9.94651 188.288H10.7914L11.9573 189.994L13.1148 188.288H13.9512L12.3882 190.501L14.0357 192.816H13.1908L11.9573 191.008L10.7069 192.816H9.87047L11.5095 190.501Z" fill="#E2209E"/>
<path d="M16.9277 192.292C17.0404 192.292 17.1558 192.284 17.2741 192.267C17.3924 192.244 17.4881 192.222 17.5614 192.199V192.765C17.4825 192.805 17.3699 192.836 17.2234 192.858C17.077 192.887 16.9362 192.901 16.801 192.901C16.5644 192.901 16.3447 192.861 16.142 192.782C15.9448 192.698 15.7843 192.554 15.6604 192.351C15.5365 192.149 15.4745 191.864 15.4745 191.498V188.862H14.8324V188.507L15.483 188.212L15.7787 187.248H16.218V188.288H17.5276V188.862H16.218V191.481C16.218 191.757 16.2828 191.963 16.4123 192.098C16.5475 192.228 16.7193 192.292 16.9277 192.292Z" fill="#E2209E"/>
<path d="M23.9579 192.816H23.2313V188.6C23.2313 188.437 23.2313 188.299 23.2313 188.186C23.2369 188.074 23.2426 187.969 23.2482 187.874C23.2538 187.772 23.2595 187.668 23.2651 187.561C23.175 187.651 23.0933 187.727 23.0201 187.789C22.9468 187.851 22.8539 187.93 22.7413 188.026L22.0992 188.55L21.7105 188.051L23.3411 186.784H23.9579V192.816Z" fill="#E2209E"/>
<path d="M26.7651 190.239C26.7651 189.89 26.7877 189.546 26.8327 189.209C26.8834 188.871 26.9679 188.552 27.0862 188.254C27.2045 187.95 27.3678 187.682 27.5762 187.451C27.7846 187.215 28.0465 187.032 28.3619 186.902C28.683 186.767 29.0716 186.699 29.5279 186.699C29.6462 186.699 29.7757 186.705 29.9165 186.716C30.063 186.727 30.1812 186.747 30.2714 186.775V187.409C30.17 187.375 30.0545 187.35 29.925 187.333C29.8011 187.316 29.6743 187.308 29.5448 187.308C29.1561 187.308 28.8323 187.372 28.5732 187.502C28.3141 187.631 28.1085 187.809 27.9564 188.034C27.81 188.259 27.7029 188.519 27.6353 188.811C27.5678 189.104 27.5255 189.417 27.5086 189.749H27.5593C27.6438 189.614 27.7508 189.493 27.8804 189.386C28.0099 189.279 28.1648 189.194 28.345 189.132C28.5309 189.071 28.745 189.04 28.9872 189.04C29.3364 189.04 29.6405 189.113 29.8996 189.259C30.1644 189.4 30.3699 189.608 30.5164 189.884C30.6628 190.155 30.7361 190.484 30.7361 190.873C30.7361 191.29 30.6572 191.65 30.4995 191.954C30.3418 192.259 30.1193 192.492 29.832 192.656C29.5504 192.819 29.2125 192.901 28.8182 192.901C28.5309 192.901 28.2634 192.847 28.0155 192.74C27.7677 192.633 27.548 192.47 27.3565 192.25C27.1707 192.03 27.0242 191.754 26.9172 191.422C26.8158 191.084 26.7651 190.69 26.7651 190.239ZM28.8097 192.275C29.1646 192.275 29.4518 192.163 29.6715 191.937C29.8912 191.707 30.001 191.352 30.001 190.873C30.001 190.49 29.9024 190.186 29.7053 189.96C29.5138 189.735 29.2237 189.622 28.8351 189.622C28.5703 189.622 28.3394 189.679 28.1423 189.791C27.9451 189.898 27.7902 190.036 27.6776 190.205C27.5706 190.374 27.5171 190.549 27.5171 190.729C27.5171 190.915 27.5424 191.098 27.5931 191.278C27.6494 191.459 27.7311 191.625 27.8381 191.777C27.9508 191.929 28.086 192.05 28.2437 192.14C28.407 192.23 28.5957 192.275 28.8097 192.275Z" fill="#E2209E"/>
<path d="M34.1263 186.784C34.6276 186.784 35.0387 186.848 35.3598 186.978C35.6865 187.102 35.9287 187.291 36.0864 187.544C36.2441 187.798 36.3229 188.116 36.3229 188.499C36.3229 188.82 36.2638 189.087 36.1455 189.301C36.0272 189.515 35.8752 189.687 35.6893 189.817C35.509 189.941 35.3175 190.039 35.1148 190.113L36.7707 192.816H35.8836L34.422 190.324H33.2222V192.816H32.4618V186.784H34.1263ZM34.084 187.443H33.2222V189.682H34.1263C34.4529 189.682 34.7205 189.639 34.9289 189.555C35.1373 189.465 35.2894 189.335 35.3851 189.166C35.4865 188.997 35.5372 188.786 35.5372 188.533C35.5372 188.268 35.4837 188.057 35.3767 187.899C35.2753 187.741 35.1176 187.626 34.9035 187.553C34.6895 187.479 34.4163 187.443 34.084 187.443Z" fill="#E2209E"/>
<path d="M2.38776 223.443H1.72242V218.748H0.0738525V218.164H4.02894V218.748H2.38776V223.443Z" fill="#E2209E"/>
<path d="M6.1902 219.406C6.53026 219.406 6.82104 219.48 7.06254 219.628C7.30896 219.776 7.49624 219.985 7.62438 220.256C7.75745 220.523 7.82398 220.836 7.82398 221.195V221.587H5.11087C5.12073 222.036 5.23408 222.378 5.45093 222.615C5.67271 222.846 5.98074 222.962 6.37502 222.962C6.62637 222.962 6.84815 222.94 7.04036 222.896C7.2375 222.846 7.43956 222.777 7.64656 222.689V223.258C7.44449 223.347 7.24489 223.411 7.04775 223.45C6.85061 223.494 6.61651 223.517 6.34545 223.517C5.97088 223.517 5.63821 223.44 5.34743 223.287C5.06158 223.135 4.83734 222.908 4.6747 222.607C4.51699 222.302 4.43813 221.93 4.43813 221.491C4.43813 221.057 4.5096 220.685 4.65252 220.375C4.80038 220.064 5.00491 219.825 5.26612 219.658C5.53225 219.49 5.84028 219.406 6.1902 219.406ZM6.18281 219.939C5.87232 219.939 5.62589 220.04 5.44354 220.242C5.26612 220.439 5.16015 220.715 5.12565 221.07H7.14386C7.14386 220.843 7.10936 220.646 7.04036 220.478C6.97136 220.311 6.8654 220.18 6.72247 220.086C6.58448 219.988 6.40459 219.939 6.18281 219.939Z" fill="#E2209E"/>
<path d="M10.0708 221.417L8.70314 219.48H9.4424L10.4626 220.974L11.4754 219.48H12.2073L10.8396 221.417L12.2812 223.443H11.5419L10.4626 221.861L9.36848 223.443H8.6366L10.0708 221.417Z" fill="#E2209E"/>
<path d="M14.8117 222.984C14.9103 222.984 15.0113 222.977 15.1148 222.962C15.2183 222.942 15.3021 222.923 15.3661 222.903V223.398C15.2971 223.433 15.1986 223.46 15.0704 223.48C14.9423 223.504 14.8191 223.517 14.7008 223.517C14.4938 223.517 14.3016 223.482 14.1242 223.413C13.9517 223.339 13.8112 223.214 13.7028 223.036C13.5944 222.859 13.5401 222.61 13.5401 222.289V219.983H12.9783V219.672L13.5475 219.414L13.8063 218.571H14.1907V219.48H15.3366V219.983H14.1907V222.275C14.1907 222.516 14.2474 222.696 14.3607 222.814C14.479 222.928 14.6293 222.984 14.8117 222.984Z" fill="#E2209E"/>
<path d="M20.9631 223.443H20.3273V219.754C20.3273 219.611 20.3273 219.49 20.3273 219.392C20.3323 219.293 20.3372 219.202 20.3421 219.118C20.347 219.029 20.352 218.938 20.3569 218.844C20.278 218.923 20.2066 218.99 20.1425 219.044C20.0784 219.098 19.9971 219.167 19.8985 219.251L19.3367 219.709L18.9966 219.273L20.4234 218.164H20.9631V223.443Z" fill="#E2209E"/>
<path d="M27.0936 222.245H26.3248V223.443H25.6964V222.245H23.1681V221.691L25.652 218.135H26.3248V221.661H27.0936V222.245ZM25.6964 219.998C25.6964 219.87 25.6964 219.754 25.6964 219.65C25.7013 219.542 25.7062 219.441 25.7112 219.347C25.7161 219.254 25.7186 219.165 25.7186 219.081C25.7235 218.992 25.7284 218.909 25.7333 218.83H25.7038C25.6643 218.923 25.6151 219.024 25.5559 219.133C25.4968 219.241 25.4401 219.332 25.3859 219.406L23.8038 221.661H25.6964V219.998Z" fill="#E2209E"/>
<path d="M29.8604 218.164C30.2991 218.164 30.6588 218.221 30.9398 218.334C31.2256 218.443 31.4375 218.608 31.5755 218.83C31.7135 219.051 31.7825 219.33 31.7825 219.665C31.7825 219.946 31.7308 220.18 31.6273 220.367C31.5238 220.555 31.3907 220.705 31.2281 220.818C31.0704 220.927 30.9028 221.013 30.7254 221.077L32.1743 223.443H31.3981L30.1192 221.262H29.0694V223.443H28.4041V218.164H29.8604ZM29.8235 218.741H29.0694V220.7H29.8604C30.1463 220.7 30.3804 220.663 30.5627 220.589C30.7451 220.51 30.8781 220.397 30.9619 220.249C31.0506 220.101 31.095 219.916 31.095 219.695C31.095 219.463 31.0482 219.278 30.9545 219.14C30.8658 219.002 30.7278 218.901 30.5405 218.837C30.3533 218.773 30.1142 218.741 29.8235 218.741Z" fill="#E2209E"/>
<path d="M2.31308 245.621H1.35625V241.895H0.126953V241.097H3.54237V241.895H2.31308V245.621Z" fill="#E2209E"/>
<path d="M5.52439 242.098C5.84544 242.098 6.12003 242.159 6.34814 242.282C6.58048 242.404 6.76002 242.581 6.88675 242.814C7.01348 243.046 7.07685 243.331 7.07685 243.669V244.125H4.84637C4.85482 244.392 4.93297 244.601 5.08083 244.753C5.2329 244.905 5.44201 244.981 5.70815 244.981C5.93204 244.981 6.13481 244.96 6.31646 244.918C6.49811 244.871 6.68609 244.801 6.88042 244.708V245.437C6.71144 245.522 6.5319 245.583 6.34181 245.621C6.15593 245.663 5.92993 245.684 5.66379 245.684C5.31739 245.684 5.01112 245.621 4.74499 245.494C4.47885 245.363 4.26974 245.167 4.11767 244.905C3.96559 244.643 3.88955 244.313 3.88955 243.916C3.88955 243.511 3.95714 243.175 4.09232 242.909C4.23172 242.638 4.42393 242.436 4.66895 242.301C4.91396 242.165 5.19911 242.098 5.52439 242.098ZM5.53072 242.769C5.34907 242.769 5.197 242.829 5.07449 242.947C4.95621 243.065 4.8865 243.249 4.86538 243.498H6.18973C6.18973 243.359 6.16438 243.234 6.11369 243.124C6.06722 243.014 5.99541 242.928 5.89825 242.864C5.80108 242.801 5.67858 242.769 5.53072 242.769Z" fill="#E2209E"/>
<path d="M8.80857 243.853L7.69333 242.161H8.76421L9.43589 243.264L10.1139 242.161H11.1848L10.0569 243.853L11.2355 245.621H10.1646L9.43589 244.436L8.70718 245.621H7.6363L8.80857 243.853Z" fill="#E2209E"/>
<path d="M13.5998 244.93C13.7054 244.93 13.8068 244.92 13.904 244.899C14.0011 244.877 14.0983 244.852 14.1955 244.822V245.526C14.0941 245.568 13.9673 245.604 13.8153 245.634C13.6674 245.667 13.5048 245.684 13.3273 245.684C13.1204 245.684 12.9345 245.65 12.7697 245.583C12.6092 245.515 12.4804 245.399 12.3832 245.234C12.2903 245.065 12.2438 244.833 12.2438 244.537V242.871H11.7939V242.472L12.3135 242.155L12.586 241.426H13.1879V242.161H14.1574V242.871H13.1879V244.537C13.1879 244.668 13.226 244.768 13.302 244.835C13.378 244.899 13.4773 244.93 13.5998 244.93Z" fill="#E2209E"/>
<path d="M19.4191 245.621H18.4623V243.004C18.4623 242.932 18.4623 242.843 18.4623 242.738C18.4665 242.632 18.4707 242.522 18.4749 242.408C18.4792 242.294 18.4834 242.193 18.4876 242.104C18.4665 242.129 18.42 242.176 18.3482 242.243C18.2806 242.307 18.2172 242.364 18.1581 242.415L17.6385 242.833L17.1759 242.256L18.6333 241.097H19.4191V245.621Z" fill="#E2209E"/>
<path d="M24.2239 245.621H21.0619V244.956L22.1962 243.809C22.4243 243.572 22.6081 243.376 22.7475 243.219C22.8869 243.059 22.9883 242.915 23.0516 242.788C23.115 242.657 23.1467 242.518 23.1467 242.37C23.1467 242.189 23.096 242.053 22.9946 241.965C22.8974 241.876 22.7644 241.832 22.5954 241.832C22.4222 241.832 22.2532 241.872 22.0885 241.952C21.9237 242.032 21.7505 242.146 21.5689 242.294L21.0493 241.68C21.1802 241.565 21.3175 241.46 21.4611 241.363C21.609 241.266 21.778 241.187 21.9681 241.128C22.1624 241.065 22.3947 241.033 22.6651 241.033C22.9608 241.033 23.2143 241.088 23.4255 241.198C23.6409 241.304 23.8057 241.449 23.9197 241.635C24.038 241.817 24.0972 242.024 24.0972 242.256C24.0972 242.446 24.0676 242.622 24.0085 242.782C23.9535 242.943 23.8712 243.099 23.7613 243.251C23.6557 243.399 23.5248 243.553 23.3685 243.714C23.2122 243.87 23.0347 244.041 22.8362 244.227L22.2532 244.772V244.816H24.2239V245.621Z" fill="#E2209E"/>
<path d="M26.7919 241.097C27.1932 241.097 27.5291 241.135 27.7994 241.211C28.074 241.282 28.2789 241.403 28.4141 241.572C28.5535 241.737 28.6232 241.96 28.6232 242.243C28.6232 242.412 28.5957 242.567 28.5408 242.706C28.4859 242.845 28.4056 242.96 28.3 243.048C28.1986 243.137 28.074 243.194 27.9261 243.219V243.251C28.0782 243.281 28.2155 243.333 28.338 243.409C28.4605 243.485 28.5577 243.595 28.6295 243.739C28.7013 243.883 28.7372 244.073 28.7372 244.309C28.7372 244.584 28.6696 244.82 28.5345 245.019C28.4035 245.213 28.2134 245.363 27.9642 245.469C27.7149 245.57 27.4192 245.621 27.077 245.621H25.3852V241.097H26.7919ZM26.8996 242.89C27.1784 242.89 27.3706 242.845 27.4762 242.757C27.5861 242.668 27.641 242.539 27.641 242.37C27.641 242.197 27.5776 242.072 27.4509 241.996C27.3242 241.92 27.1235 241.882 26.8489 241.882H26.342V242.89H26.8996ZM26.342 243.65V244.829H26.9693C27.2566 244.829 27.4572 244.774 27.5713 244.664C27.6854 244.55 27.7424 244.4 27.7424 244.214C27.7424 244.1 27.717 244.001 27.6663 243.916C27.6199 243.832 27.5375 243.766 27.4192 243.72C27.3009 243.673 27.1404 243.65 26.9376 243.65H26.342Z" fill="#E2209E"/>
<path d="M2.04658 270.439H1.47629V266.416H0.0632324V265.915H3.45331V266.416H2.04658V270.439Z" fill="#E2209E"/>
<path d="M5.30582 266.979C5.5973 266.979 5.84654 267.043 6.05353 267.17C6.26475 267.296 6.42528 267.476 6.53511 267.708C6.64917 267.936 6.7062 268.205 6.7062 268.513V268.849H4.38068C4.38912 269.233 4.48628 269.527 4.67216 269.73C4.86226 269.928 5.12628 270.027 5.46423 270.027C5.67968 270.027 5.86977 270.008 6.03452 269.97C6.2035 269.928 6.3767 269.869 6.55412 269.793V270.281C6.38092 270.357 6.20984 270.412 6.04086 270.446C5.87189 270.484 5.67123 270.503 5.43889 270.503C5.11783 270.503 4.83268 270.437 4.58345 270.306C4.33843 270.175 4.14622 269.981 4.00682 269.723C3.87164 269.461 3.80405 269.142 3.80405 268.766C3.80405 268.395 3.8653 268.076 3.98781 267.81C4.11454 267.543 4.28985 267.339 4.51374 267.195C4.74186 267.051 5.00589 266.979 5.30582 266.979ZM5.29948 267.436C5.03334 267.436 4.82212 267.522 4.66582 267.696C4.51374 267.864 4.42292 268.101 4.39335 268.405H6.12324C6.12324 268.211 6.09367 268.042 6.03452 267.898C5.97538 267.755 5.88456 267.643 5.76205 267.562C5.64377 267.478 5.48958 267.436 5.29948 267.436Z" fill="#E2209E"/>
<path d="M8.63203 268.703L7.45976 267.043H8.09342L8.96787 268.323L9.83598 267.043H10.4633L9.29103 268.703L10.5267 270.439H9.89301L8.96787 269.083L8.03005 270.439H7.40273L8.63203 268.703Z" fill="#E2209E"/>
<path d="M12.6957 270.046C12.7801 270.046 12.8667 270.04 12.9555 270.027C13.0442 270.01 13.116 269.994 13.1709 269.977V270.401C13.1118 270.431 13.0273 270.454 12.9174 270.471C12.8076 270.492 12.702 270.503 12.6006 270.503C12.4232 270.503 12.2584 270.473 12.1064 270.414C11.9585 270.351 11.8381 270.243 11.7452 270.091C11.6522 269.939 11.6058 269.725 11.6058 269.451V267.474H11.1242V267.208L11.6121 266.986L11.8339 266.263H12.1634V267.043H13.1456V267.474H12.1634V269.438C12.1634 269.645 12.212 269.799 12.3091 269.901C12.4105 269.998 12.5394 270.046 12.6957 270.046Z" fill="#E2209E"/>
<path d="M17.9683 270.439H17.4233V267.277C17.4233 267.155 17.4233 267.051 17.4233 266.967C17.4276 266.882 17.4318 266.804 17.436 266.732C17.4402 266.656 17.4445 266.578 17.4487 266.498C17.3811 266.565 17.3199 266.623 17.2649 266.669C17.21 266.715 17.1403 266.775 17.0558 266.846L16.5742 267.239L16.2828 266.865L17.5057 265.915H17.9683V270.439Z" fill="#E2209E"/>
<path d="M23.0202 270.439H20.0294V269.977L21.2143 268.779C21.4424 268.551 21.6346 268.348 21.7909 268.171C21.9472 267.993 22.0655 267.82 22.1458 267.651C22.2261 267.478 22.2662 267.29 22.2662 267.087C22.2662 266.838 22.1923 266.65 22.0444 266.523C21.8966 266.392 21.7043 266.327 21.4678 266.327C21.2481 266.327 21.0538 266.365 20.8848 266.441C20.7201 266.517 20.5511 266.623 20.3779 266.758L20.0801 266.384C20.1983 266.282 20.3272 266.192 20.4666 266.111C20.6102 266.031 20.7644 265.968 20.9292 265.921C21.0981 265.875 21.2777 265.852 21.4678 265.852C21.7508 265.852 21.9937 265.9 22.1965 265.997C22.3993 266.094 22.5556 266.234 22.6654 266.416C22.7794 266.593 22.8365 266.806 22.8365 267.056C22.8365 267.233 22.809 267.402 22.7541 267.562C22.6992 267.719 22.621 267.873 22.5196 268.025C22.4183 268.177 22.2958 268.331 22.1521 268.488C22.0085 268.644 21.8501 268.807 21.6769 268.975L20.7327 269.907V269.932H23.0202V270.439Z" fill="#E2209E"/>
<path d="M25.5946 265.915C25.9705 265.915 26.2789 265.964 26.5197 266.061C26.7647 266.154 26.9464 266.295 27.0647 266.485C27.1829 266.675 27.2421 266.914 27.2421 267.201C27.2421 267.442 27.1977 267.643 27.109 267.803C27.0203 267.964 26.9062 268.093 26.7668 268.19C26.6317 268.283 26.488 268.357 26.336 268.412L27.5779 270.439H26.9126L25.8164 268.57H24.9166V270.439H24.3463V265.915H25.5946ZM25.5629 266.409H24.9166V268.088H25.5946C25.8396 268.088 26.0402 268.057 26.1966 267.993C26.3529 267.926 26.4669 267.829 26.5387 267.702C26.6148 267.575 26.6528 267.417 26.6528 267.227C26.6528 267.028 26.6127 266.87 26.5324 266.751C26.4564 266.633 26.3381 266.546 26.1775 266.492C26.017 266.437 25.8121 266.409 25.5629 266.409Z" fill="#E2209E"/>
<path d="M2.54301 158.269C3.0443 158.269 3.46393 158.316 3.80188 158.412C4.14546 158.508 4.40174 158.666 4.57072 158.885C4.74533 159.105 4.83263 159.398 4.83263 159.764C4.83263 160.001 4.78757 160.212 4.69745 160.398C4.61296 160.578 4.48341 160.73 4.30881 160.854C4.13983 160.972 3.93143 161.054 3.6836 161.099V161.141C3.93706 161.181 4.16518 161.254 4.36795 161.361C4.57635 161.468 4.73969 161.62 4.85798 161.817C4.97626 162.014 5.0354 162.27 5.0354 162.586C5.0354 162.952 4.95091 163.265 4.78194 163.524C4.61296 163.777 4.37076 163.971 4.05534 164.107C3.74555 164.236 3.37381 164.301 2.9401 164.301H0.819458V158.269H2.54301ZM2.69509 160.837C3.21328 160.837 3.56813 160.755 3.75963 160.592C3.95114 160.423 4.04689 160.175 4.04689 159.848C4.04689 159.516 3.92861 159.28 3.69204 159.139C3.46111 158.992 3.08936 158.919 2.5768 158.919H1.57985V160.837H2.69509ZM1.57985 161.471V163.659H2.79647C3.33156 163.659 3.70331 163.555 3.91171 163.346C4.12012 163.138 4.22432 162.865 4.22432 162.527C4.22432 162.313 4.17644 162.127 4.08069 161.969C3.99057 161.811 3.83567 161.69 3.61601 161.606C3.40197 161.516 3.10908 161.471 2.73733 161.471H1.57985Z" fill="#E2209E"/>
<path d="M10.5051 159.772V164.301H9.89675L9.78692 163.701H9.75312C9.65737 163.859 9.53345 163.988 9.38137 164.09C9.2293 164.191 9.06314 164.264 8.8829 164.309C8.70266 164.36 8.51397 164.385 8.31683 164.385C7.95635 164.385 7.65219 164.329 7.40436 164.216C7.16216 164.098 6.9791 163.918 6.85519 163.676C6.73127 163.434 6.66932 163.121 6.66932 162.738V159.772H7.42126V162.687C7.42126 163.048 7.50293 163.318 7.66627 163.498C7.82962 163.679 8.08308 163.769 8.42666 163.769C8.76461 163.769 9.02934 163.707 9.22085 163.583C9.41799 163.453 9.55598 163.267 9.63484 163.025C9.71933 162.777 9.76157 162.479 9.76157 162.13V159.772H10.5051Z" fill="#E2209E"/>
<path d="M13.962 163.777C14.0747 163.777 14.1901 163.769 14.3084 163.752C14.4267 163.729 14.5224 163.707 14.5957 163.684V164.25C14.5168 164.29 14.4042 164.321 14.2577 164.343C14.1113 164.371 13.9704 164.385 13.8353 164.385C13.5987 164.385 13.379 164.346 13.1763 164.267C12.9791 164.183 12.8186 164.039 12.6947 163.836C12.5708 163.634 12.5088 163.349 12.5088 162.983V160.347H11.8667V159.992L12.5173 159.696L12.813 158.733H13.2523V159.772H14.5619V160.347H13.2523V162.966C13.2523 163.242 13.3171 163.448 13.4466 163.583C13.5818 163.712 13.7536 163.777 13.962 163.777Z" fill="#E2209E"/>
<path d="M17.5217 163.777C17.6344 163.777 17.7498 163.769 17.8681 163.752C17.9864 163.729 18.0821 163.707 18.1554 163.684V164.25C18.0765 164.29 17.9639 164.321 17.8174 164.343C17.671 164.371 17.5302 164.385 17.395 164.385C17.1584 164.385 16.9387 164.346 16.736 164.267C16.5388 164.183 16.3783 164.039 16.2544 163.836C16.1305 163.634 16.0685 163.349 16.0685 162.983V160.347H15.4264V159.992L16.077 159.696L16.3727 158.733H16.812V159.772H18.1216V160.347H16.812V162.966C16.812 163.242 16.8768 163.448 17.0063 163.583C17.1415 163.712 17.3133 163.777 17.5217 163.777Z" fill="#E2209E"/>
<path d="M23.5062 162.028C23.5062 162.406 23.4555 162.741 23.3541 163.034C23.2584 163.321 23.1176 163.566 22.9317 163.769C22.7515 163.971 22.529 164.126 22.2642 164.233C22.0052 164.335 21.7151 164.385 21.394 164.385C21.0955 164.385 20.8195 164.335 20.566 164.233C20.3126 164.126 20.0929 163.971 19.907 163.769C19.7212 163.566 19.5747 163.321 19.4677 163.034C19.3663 162.741 19.3156 162.406 19.3156 162.028C19.3156 161.527 19.4001 161.105 19.5691 160.761C19.7381 160.412 19.9803 160.147 20.2957 159.967C20.6111 159.781 20.9857 159.688 21.4194 159.688C21.8305 159.688 22.191 159.781 22.5008 159.967C22.8162 160.147 23.0613 160.412 23.2359 160.761C23.4161 161.105 23.5062 161.527 23.5062 162.028ZM20.0845 162.028C20.0845 162.383 20.1295 162.693 20.2196 162.958C20.3154 163.217 20.4618 163.417 20.659 163.557C20.8561 163.698 21.1068 163.769 21.4109 163.769C21.7151 163.769 21.9657 163.698 22.1629 163.557C22.36 163.417 22.5036 163.217 22.5938 162.958C22.6895 162.693 22.7374 162.383 22.7374 162.028C22.7374 161.668 22.6895 161.361 22.5938 161.107C22.498 160.854 22.3516 160.66 22.1544 160.524C21.9629 160.384 21.7123 160.313 21.4025 160.313C20.9406 160.313 20.6055 160.465 20.3971 160.769C20.1887 161.074 20.0845 161.493 20.0845 162.028Z" fill="#E2209E"/>
<path d="M27.3713 159.688C27.912 159.688 28.3204 159.82 28.5963 160.085C28.8723 160.344 29.0103 160.767 29.0103 161.352V164.301H28.2753V161.403C28.2753 161.037 28.1936 160.764 28.0303 160.584C27.8669 160.403 27.6107 160.313 27.2614 160.313C26.7601 160.313 26.4137 160.454 26.2222 160.736C26.0307 161.017 25.935 161.423 25.935 161.952V164.301H25.1915V159.772H25.7913L25.9012 160.389H25.9434C26.0448 160.231 26.1687 160.102 26.3152 160.001C26.4673 159.894 26.6334 159.815 26.8137 159.764C26.9939 159.713 27.1798 159.688 27.3713 159.688Z" fill="#E2209E"/>
<path d="M304.971 136.842H304.153V132.1C304.153 131.916 304.153 131.761 304.153 131.634C304.16 131.507 304.166 131.39 304.172 131.282C304.179 131.168 304.185 131.051 304.191 130.93C304.09 131.032 303.998 131.117 303.916 131.187C303.833 131.257 303.729 131.345 303.602 131.453L302.88 132.043L302.443 131.482L304.277 130.056H304.971V136.842Z" fill="#848484"/>
<path d="M310.315 129.961C310.714 129.961 311.066 130.024 311.37 130.151C311.674 130.271 311.912 130.452 312.083 130.693C312.26 130.934 312.349 131.231 312.349 131.586C312.349 131.859 312.289 132.096 312.169 132.299C312.054 132.502 311.899 132.683 311.703 132.841C311.506 132.993 311.291 133.129 311.056 133.25C311.335 133.383 311.589 133.535 311.817 133.706C312.045 133.871 312.226 134.064 312.359 134.286C312.498 134.507 312.568 134.774 312.568 135.084C312.568 135.464 312.476 135.794 312.292 136.073C312.108 136.345 311.849 136.557 311.513 136.709C311.183 136.861 310.793 136.938 310.344 136.938C309.856 136.938 309.441 136.865 309.098 136.719C308.763 136.573 308.506 136.367 308.329 136.101C308.157 135.829 308.072 135.499 308.072 135.113C308.072 134.802 308.135 134.533 308.262 134.305C308.395 134.077 308.569 133.88 308.785 133.715C309 133.551 309.232 133.411 309.479 133.297C309.257 133.17 309.054 133.028 308.87 132.869C308.693 132.705 308.55 132.518 308.443 132.309C308.341 132.1 308.291 131.856 308.291 131.577C308.291 131.228 308.379 130.937 308.557 130.702C308.734 130.462 308.975 130.278 309.279 130.151C309.583 130.024 309.929 129.961 310.315 129.961ZM308.889 135.122C308.889 135.452 309.007 135.727 309.241 135.949C309.475 136.164 309.837 136.272 310.325 136.272C310.635 136.272 310.895 136.221 311.104 136.12C311.313 136.019 311.471 135.879 311.579 135.702C311.693 135.524 311.75 135.322 311.75 135.094C311.75 134.872 311.69 134.679 311.57 134.514C311.456 134.343 311.291 134.191 311.075 134.058C310.866 133.924 310.616 133.804 310.325 133.696L310.172 133.639C309.894 133.76 309.659 133.89 309.469 134.029C309.279 134.168 309.133 134.327 309.032 134.504C308.937 134.682 308.889 134.888 308.889 135.122ZM310.306 130.636C309.957 130.636 309.669 130.721 309.441 130.892C309.219 131.057 309.108 131.298 309.108 131.615C309.108 131.849 309.162 132.046 309.27 132.204C309.384 132.363 309.536 132.499 309.726 132.613C309.916 132.721 310.125 132.825 310.353 132.926C310.575 132.831 310.771 132.727 310.942 132.613C311.12 132.499 311.259 132.363 311.361 132.204C311.468 132.039 311.522 131.843 311.522 131.615C311.522 131.298 311.411 131.057 311.19 130.892C310.968 130.721 310.673 130.636 310.306 130.636Z" fill="#848484"/>
<path d="M319.887 131.653C320.514 131.653 321.018 131.871 321.398 132.309C321.785 132.746 321.978 133.405 321.978 134.286C321.978 134.862 321.889 135.35 321.712 135.749C321.541 136.142 321.297 136.44 320.98 136.643C320.669 136.839 320.302 136.938 319.877 136.938C319.617 136.938 319.386 136.903 319.183 136.833C318.981 136.763 318.806 136.675 318.661 136.567C318.521 136.453 318.401 136.329 318.299 136.196H318.242C318.255 136.304 318.268 136.44 318.28 136.605C318.293 136.77 318.299 136.912 318.299 137.033V139.124H317.463V131.748H318.147L318.261 132.442H318.299C318.401 132.296 318.521 132.163 318.661 132.043C318.806 131.922 318.977 131.827 319.174 131.757C319.377 131.688 319.614 131.653 319.887 131.653ZM319.735 132.356C319.393 132.356 319.117 132.423 318.908 132.556C318.699 132.683 318.547 132.876 318.452 133.136C318.356 133.395 318.306 133.725 318.299 134.124V134.286C318.299 134.704 318.344 135.059 318.433 135.35C318.521 135.642 318.67 135.863 318.879 136.016C319.095 136.168 319.386 136.244 319.754 136.244C320.064 136.244 320.318 136.158 320.514 135.987C320.717 135.816 320.866 135.585 320.961 135.293C321.062 134.995 321.113 134.656 321.113 134.276C321.113 133.693 320.999 133.227 320.771 132.879C320.549 132.53 320.204 132.356 319.735 132.356Z" fill="#848484"/>
<path d="M324.903 134.238L323.144 131.748H324.095L325.406 133.668L326.708 131.748H327.649L325.891 134.238L327.744 136.842H326.794L325.406 134.808L324 136.842H323.059L324.903 134.238Z" fill="#848484"/>
<path d="M307.521 192.816H306.794V188.6C306.794 188.437 306.794 188.299 306.794 188.186C306.8 188.074 306.805 187.969 306.811 187.874C306.816 187.772 306.822 187.668 306.828 187.561C306.738 187.651 306.656 187.727 306.583 187.789C306.509 187.851 306.417 187.93 306.304 188.026L305.662 188.55L305.273 188.051L306.904 186.784H307.521V192.816Z" fill="#848484"/>
<path d="M310.328 190.239C310.328 189.89 310.35 189.546 310.395 189.209C310.446 188.871 310.531 188.552 310.649 188.254C310.767 187.95 310.93 187.682 311.139 187.451C311.347 187.215 311.609 187.032 311.925 186.902C312.246 186.767 312.634 186.699 313.09 186.699C313.209 186.699 313.338 186.705 313.479 186.716C313.626 186.727 313.744 186.747 313.834 186.775V187.409C313.733 187.375 313.617 187.35 313.488 187.333C313.364 187.316 313.237 187.308 313.107 187.308C312.719 187.308 312.395 187.372 312.136 187.502C311.877 187.631 311.671 187.809 311.519 188.034C311.373 188.259 311.266 188.519 311.198 188.811C311.13 189.104 311.088 189.417 311.071 189.749H311.122C311.206 189.614 311.313 189.493 311.443 189.386C311.573 189.279 311.727 189.194 311.908 189.132C312.094 189.071 312.308 189.04 312.55 189.04C312.899 189.04 313.203 189.113 313.462 189.259C313.727 189.4 313.933 189.608 314.079 189.884C314.225 190.155 314.299 190.484 314.299 190.873C314.299 191.29 314.22 191.65 314.062 191.954C313.904 192.259 313.682 192.492 313.395 192.656C313.113 192.819 312.775 192.901 312.381 192.901C312.094 192.901 311.826 192.847 311.578 192.74C311.33 192.633 311.111 192.47 310.919 192.25C310.733 192.03 310.587 191.754 310.48 191.422C310.378 191.084 310.328 190.69 310.328 190.239ZM312.372 192.275C312.727 192.275 313.014 192.163 313.234 191.937C313.454 191.707 313.564 191.352 313.564 190.873C313.564 190.49 313.465 190.186 313.268 189.96C313.076 189.735 312.786 189.622 312.398 189.622C312.133 189.622 311.902 189.679 311.705 189.791C311.508 189.898 311.353 190.036 311.24 190.205C311.133 190.374 311.08 190.549 311.08 190.729C311.08 190.915 311.105 191.098 311.156 191.278C311.212 191.459 311.294 191.625 311.401 191.777C311.513 191.929 311.649 192.05 311.806 192.14C311.97 192.23 312.158 192.275 312.372 192.275Z" fill="#848484"/>
<path d="M320.779 188.203C321.337 188.203 321.785 188.397 322.123 188.786C322.466 189.175 322.638 189.76 322.638 190.543C322.638 191.056 322.559 191.49 322.401 191.845C322.249 192.194 322.032 192.458 321.751 192.639C321.475 192.813 321.148 192.901 320.771 192.901C320.54 192.901 320.334 192.87 320.154 192.808C319.974 192.746 319.819 192.667 319.689 192.571C319.565 192.47 319.458 192.36 319.368 192.242H319.318C319.329 192.337 319.34 192.458 319.351 192.605C319.363 192.751 319.368 192.878 319.368 192.985V194.844H318.625V188.288H319.233L319.334 188.904H319.368C319.458 188.775 319.565 188.657 319.689 188.55C319.819 188.442 319.971 188.358 320.145 188.296C320.326 188.234 320.537 188.203 320.779 188.203ZM320.644 188.828C320.34 188.828 320.095 188.887 319.909 189.006C319.723 189.118 319.588 189.29 319.503 189.521C319.419 189.752 319.374 190.045 319.368 190.4V190.543C319.368 190.915 319.408 191.231 319.486 191.49C319.565 191.749 319.698 191.946 319.884 192.081C320.075 192.216 320.334 192.284 320.661 192.284C320.937 192.284 321.162 192.208 321.337 192.056C321.517 191.904 321.649 191.698 321.734 191.439C321.824 191.174 321.869 190.873 321.869 190.535C321.869 190.017 321.768 189.603 321.565 189.293C321.368 188.983 321.061 188.828 320.644 188.828Z" fill="#848484"/>
<path d="M325.238 190.501L323.675 188.288H324.519L325.685 189.994L326.843 188.288H327.679L326.116 190.501L327.764 192.816H326.919L325.685 191.008L324.435 192.816H323.599L325.238 190.501Z" fill="#848484"/>
<path d="M310.07 220.803H309.434V217.114C309.434 216.971 309.434 216.85 309.434 216.751C309.439 216.653 309.444 216.562 309.449 216.478C309.454 216.389 309.459 216.298 309.464 216.204C309.385 216.283 309.314 216.35 309.25 216.404C309.186 216.458 309.104 216.527 309.006 216.611L308.444 217.069L308.104 216.633L309.531 215.524H310.07V220.803Z" fill="#848484"/>
<path d="M316.201 219.605H315.432V220.803H314.803V219.605H312.275V219.051L314.759 215.495H315.432V219.021H316.201V219.605ZM314.803 217.358C314.803 217.229 314.803 217.114 314.803 217.01C314.808 216.902 314.813 216.801 314.818 216.707C314.823 216.613 314.826 216.525 314.826 216.441C314.831 216.352 314.836 216.268 314.84 216.19H314.811C314.771 216.283 314.722 216.384 314.663 216.493C314.604 216.601 314.547 216.692 314.493 216.766L312.911 219.021H314.803V217.358Z" fill="#848484"/>
<path d="M321.672 216.766C322.159 216.766 322.551 216.936 322.847 217.276C323.148 217.616 323.298 218.129 323.298 218.814C323.298 219.262 323.229 219.642 323.091 219.952C322.958 220.258 322.768 220.49 322.522 220.647C322.28 220.8 321.994 220.877 321.664 220.877C321.462 220.877 321.282 220.849 321.124 220.795C320.967 220.741 320.831 220.672 320.718 220.588C320.609 220.499 320.516 220.403 320.437 220.3H320.393C320.402 220.384 320.412 220.49 320.422 220.618C320.432 220.746 320.437 220.857 320.437 220.95V222.577H319.786V216.84H320.319L320.407 217.38H320.437C320.516 217.266 320.609 217.163 320.718 217.069C320.831 216.976 320.964 216.902 321.117 216.847C321.275 216.793 321.46 216.766 321.672 216.766ZM321.553 217.313C321.287 217.313 321.073 217.365 320.91 217.468C320.747 217.567 320.629 217.717 320.555 217.919C320.481 218.121 320.442 218.378 320.437 218.688V218.814C320.437 219.139 320.471 219.415 320.54 219.642C320.609 219.869 320.725 220.041 320.888 220.159C321.055 220.278 321.282 220.337 321.568 220.337C321.81 220.337 322.007 220.27 322.159 220.137C322.317 220.004 322.433 219.824 322.507 219.598C322.586 219.366 322.625 219.102 322.625 218.807C322.625 218.353 322.536 217.991 322.359 217.72C322.187 217.449 321.918 217.313 321.553 217.313Z" fill="#848484"/>
<path d="M325.573 218.777L324.205 216.84H324.944L325.964 218.333L326.977 216.84H327.709L326.342 218.777L327.783 220.803H327.044L325.964 219.221L324.87 220.803H324.138L325.573 218.777Z" fill="#848484"/>
<path d="M312.62 245.621H312.075V242.459C312.075 242.336 312.075 242.233 312.075 242.148C312.079 242.064 312.083 241.986 312.088 241.914C312.092 241.838 312.096 241.76 312.1 241.68C312.033 241.747 311.971 241.804 311.916 241.851C311.862 241.897 311.792 241.956 311.707 242.028L311.226 242.421L310.934 242.047L312.157 241.097H312.62V245.621Z" fill="#848484"/>
<path d="M317.672 245.621H314.681V245.158L315.866 243.961C316.094 243.733 316.286 243.53 316.442 243.352C316.599 243.175 316.717 243.002 316.797 242.833C316.878 242.66 316.918 242.472 316.918 242.269C316.918 242.02 316.844 241.832 316.696 241.705C316.548 241.574 316.356 241.508 316.119 241.508C315.9 241.508 315.705 241.546 315.536 241.623C315.372 241.699 315.203 241.804 315.029 241.939L314.732 241.565C314.85 241.464 314.979 241.373 315.118 241.293C315.262 241.213 315.416 241.149 315.581 241.103C315.75 241.056 315.929 241.033 316.119 241.033C316.402 241.033 316.645 241.082 316.848 241.179C317.051 241.276 317.207 241.416 317.317 241.597C317.431 241.775 317.488 241.988 317.488 242.237C317.488 242.415 317.461 242.584 317.406 242.744C317.351 242.9 317.273 243.055 317.171 243.207C317.07 243.359 316.947 243.513 316.804 243.669C316.66 243.826 316.502 243.988 316.328 244.157L315.384 245.089V245.114H317.672V245.621Z" fill="#848484"/>
<path d="M322.564 242.161C322.982 242.161 323.318 242.307 323.571 242.598C323.829 242.89 323.958 243.329 323.958 243.916C323.958 244.301 323.899 244.626 323.78 244.892C323.666 245.154 323.504 245.353 323.292 245.488C323.085 245.619 322.84 245.684 322.557 245.684C322.384 245.684 322.23 245.661 322.095 245.615C321.96 245.568 321.844 245.509 321.746 245.437C321.653 245.361 321.573 245.279 321.506 245.19H321.468C321.476 245.262 321.484 245.353 321.493 245.462C321.501 245.572 321.506 245.667 321.506 245.748V247.142H320.948V242.224H321.404L321.48 242.687H321.506C321.573 242.59 321.653 242.501 321.746 242.421C321.844 242.341 321.958 242.277 322.089 242.231C322.224 242.184 322.382 242.161 322.564 242.161ZM322.462 242.63C322.234 242.63 322.051 242.674 321.911 242.763C321.772 242.848 321.67 242.976 321.607 243.15C321.544 243.323 321.51 243.542 321.506 243.809V243.916C321.506 244.195 321.535 244.432 321.594 244.626C321.653 244.82 321.753 244.968 321.892 245.07C322.036 245.171 322.23 245.222 322.475 245.222C322.682 245.222 322.851 245.165 322.982 245.051C323.117 244.937 323.216 244.782 323.28 244.588C323.347 244.389 323.381 244.163 323.381 243.91C323.381 243.521 323.305 243.211 323.153 242.979C323.005 242.746 322.775 242.63 322.462 242.63Z" fill="#848484"/>
<path d="M325.908 243.885L324.735 242.224H325.369L326.243 243.504L327.112 242.224H327.739L326.567 243.885L327.802 245.621H327.169L326.243 244.265L325.306 245.621H324.678L325.908 243.885Z" fill="#848484"/>
<path d="M312.62 270.439H312.075V267.277C312.075 267.155 312.075 267.051 312.075 266.967C312.079 266.882 312.083 266.804 312.087 266.732C312.092 266.656 312.096 266.578 312.1 266.498C312.032 266.565 311.971 266.623 311.916 266.669C311.861 266.715 311.792 266.775 311.707 266.846L311.226 267.239L310.934 266.865L312.157 265.915H312.62V270.439Z" fill="#848484"/>
<path d="M317.672 270.439H314.681V269.977L315.866 268.779C316.094 268.551 316.286 268.348 316.442 268.171C316.599 267.993 316.717 267.82 316.797 267.651C316.877 267.478 316.918 267.29 316.918 267.087C316.918 266.838 316.844 266.65 316.696 266.523C316.548 266.392 316.356 266.327 316.119 266.327C315.899 266.327 315.705 266.365 315.536 266.441C315.371 266.517 315.202 266.623 315.029 266.758L314.731 266.384C314.85 266.282 314.979 266.192 315.118 266.111C315.262 266.031 315.416 265.968 315.581 265.921C315.75 265.875 315.929 265.852 316.119 265.852C316.402 265.852 316.645 265.9 316.848 265.997C317.051 266.094 317.207 266.234 317.317 266.416C317.431 266.593 317.488 266.806 317.488 267.056C317.488 267.233 317.46 267.402 317.405 267.562C317.351 267.719 317.272 267.873 317.171 268.025C317.07 268.177 316.947 268.331 316.804 268.488C316.66 268.644 316.501 268.807 316.328 268.975L315.384 269.907V269.932H317.672V270.439Z" fill="#848484"/>
<path d="M322.564 266.979C322.982 266.979 323.318 267.125 323.571 267.417C323.829 267.708 323.958 268.148 323.958 268.735C323.958 269.119 323.899 269.444 323.78 269.711C323.666 269.972 323.504 270.171 323.292 270.306C323.085 270.437 322.84 270.503 322.557 270.503C322.384 270.503 322.23 270.479 322.095 270.433C321.96 270.386 321.843 270.327 321.746 270.255C321.653 270.179 321.573 270.097 321.505 270.008H321.467C321.476 270.08 321.484 270.171 321.493 270.281C321.501 270.391 321.505 270.486 321.505 270.566V271.96H320.948V267.043H321.404L321.48 267.505H321.505C321.573 267.408 321.653 267.32 321.746 267.239C321.843 267.159 321.957 267.096 322.088 267.049C322.224 267.003 322.382 266.979 322.564 266.979ZM322.462 267.448C322.234 267.448 322.05 267.493 321.911 267.581C321.772 267.666 321.67 267.795 321.607 267.968C321.543 268.141 321.51 268.361 321.505 268.627V268.735C321.505 269.014 321.535 269.25 321.594 269.444C321.653 269.639 321.753 269.787 321.892 269.888C322.036 269.989 322.23 270.04 322.475 270.04C322.682 270.04 322.851 269.983 322.982 269.869C323.117 269.755 323.216 269.601 323.28 269.406C323.347 269.208 323.381 268.982 323.381 268.728C323.381 268.34 323.305 268.029 323.153 267.797C323.005 267.565 322.775 267.448 322.462 267.448Z" fill="#848484"/>
<path d="M325.907 268.703L324.735 267.043H325.369L326.243 268.323L327.111 267.043H327.739L326.566 268.703L327.802 270.439H327.168L326.243 269.083L325.306 270.439H324.678L325.907 268.703Z" fill="#848484"/>
<path d="M307.521 168.526H306.794V164.31C306.794 164.146 306.794 164.008 306.794 163.896C306.8 163.783 306.805 163.679 306.811 163.583C306.816 163.482 306.822 163.377 306.828 163.27C306.738 163.361 306.656 163.437 306.583 163.499C306.509 163.561 306.417 163.639 306.304 163.735L305.662 164.259L305.273 163.76L306.904 162.493H307.521V168.526Z" fill="#848484"/>
<path d="M310.328 165.949C310.328 165.6 310.35 165.256 310.395 164.918C310.446 164.58 310.531 164.262 310.649 163.963C310.767 163.659 310.93 163.392 311.139 163.161C311.347 162.924 311.609 162.741 311.925 162.611C312.246 162.476 312.634 162.409 313.09 162.409C313.209 162.409 313.338 162.414 313.479 162.426C313.626 162.437 313.744 162.457 313.834 162.485V163.118C313.733 163.085 313.617 163.059 313.488 163.042C313.364 163.025 313.237 163.017 313.107 163.017C312.719 163.017 312.395 163.082 312.136 163.211C311.877 163.341 311.671 163.518 311.519 163.744C311.373 163.969 311.266 164.228 311.198 164.521C311.13 164.814 311.088 165.126 311.071 165.459H311.122C311.206 165.324 311.313 165.202 311.443 165.095C311.573 164.988 311.727 164.904 311.908 164.842C312.094 164.78 312.308 164.749 312.55 164.749C312.899 164.749 313.203 164.822 313.462 164.969C313.727 165.109 313.933 165.318 314.079 165.594C314.225 165.864 314.299 166.194 314.299 166.582C314.299 166.999 314.22 167.36 314.062 167.664C313.904 167.968 313.682 168.202 313.395 168.365C313.113 168.528 312.775 168.61 312.381 168.61C312.094 168.61 311.826 168.557 311.578 168.45C311.33 168.343 311.111 168.179 310.919 167.96C310.733 167.74 310.587 167.464 310.48 167.132C310.378 166.794 310.328 166.399 310.328 165.949ZM312.372 167.985C312.727 167.985 313.014 167.872 313.234 167.647C313.454 167.416 313.564 167.061 313.564 166.582C313.564 166.199 313.465 165.895 313.268 165.67C313.076 165.445 312.786 165.332 312.398 165.332C312.133 165.332 311.902 165.388 311.705 165.501C311.508 165.608 311.353 165.746 311.24 165.915C311.133 166.084 311.08 166.259 311.08 166.439C311.08 166.625 311.105 166.808 311.156 166.988C311.212 167.168 311.294 167.334 311.401 167.486C311.513 167.638 311.649 167.76 311.806 167.85C311.97 167.94 312.158 167.985 312.372 167.985Z" fill="#848484"/>
<path d="M320.779 163.913C321.337 163.913 321.785 164.107 322.123 164.496C322.466 164.884 322.638 165.47 322.638 166.253C322.638 166.765 322.559 167.199 322.401 167.554C322.249 167.903 322.032 168.168 321.751 168.348C321.475 168.523 321.148 168.61 320.771 168.61C320.54 168.61 320.334 168.579 320.154 168.517C319.974 168.455 319.819 168.376 319.689 168.281C319.565 168.179 319.458 168.069 319.368 167.951H319.318C319.329 168.047 319.34 168.168 319.351 168.314C319.363 168.461 319.368 168.588 319.368 168.695V170.553H318.625V163.997H319.233L319.334 164.614H319.368C319.458 164.484 319.565 164.366 319.689 164.259C319.819 164.152 319.971 164.067 320.145 164.006C320.326 163.944 320.537 163.913 320.779 163.913ZM320.644 164.538C320.34 164.538 320.095 164.597 319.909 164.715C319.723 164.828 319.588 165 319.503 165.231C319.419 165.462 319.374 165.754 319.368 166.109V166.253C319.368 166.625 319.408 166.94 319.486 167.199C319.565 167.458 319.698 167.655 319.884 167.791C320.075 167.926 320.334 167.993 320.661 167.993C320.937 167.993 321.162 167.917 321.337 167.765C321.517 167.613 321.649 167.408 321.734 167.148C321.824 166.884 321.869 166.582 321.869 166.244C321.869 165.726 321.768 165.312 321.565 165.002C321.368 164.693 321.061 164.538 320.644 164.538Z" fill="#848484"/>
<path d="M325.238 166.211L323.675 163.997H324.519L325.685 165.704L326.843 163.997H327.679L326.116 166.211L327.764 168.526H326.919L325.685 166.718L324.435 168.526H323.599L325.238 166.211Z" fill="#848484"/>
<path d="M8.55431 103.048H6.64066V99.1448H3.05415V103.048H1.1405V93.9995H3.05415V97.548H6.64066V93.9995H8.55431V103.048Z" fill="#E2209E"/>
<path d="M14.2908 96.0018C14.9329 96.0018 15.4821 96.1243 15.9383 96.3694C16.403 96.6144 16.7621 96.9692 17.0155 97.4339C17.269 97.8986 17.3957 98.4689 17.3957 99.1448V100.057H12.9348C12.9517 100.59 13.108 101.008 13.4037 101.312C13.7078 101.616 14.126 101.768 14.6583 101.768C15.1061 101.768 15.5116 101.726 15.8749 101.641C16.2382 101.548 16.6142 101.409 17.0029 101.223V102.681C16.6649 102.85 16.3058 102.972 15.9256 103.048C15.5539 103.133 15.1019 103.175 14.5696 103.175C13.8768 103.175 13.2643 103.048 12.732 102.795C12.1997 102.533 11.7815 102.14 11.4774 101.616C11.1732 101.092 11.0211 100.433 11.0211 99.639C11.0211 98.8279 11.1563 98.1563 11.4267 97.624C11.7055 97.0833 12.0899 96.6777 12.5799 96.4074C13.0699 96.137 13.6402 96.0018 14.2908 96.0018ZM14.3035 97.3452C13.9402 97.3452 13.636 97.4635 13.391 97.7C13.1544 97.9366 13.015 98.3041 12.9728 98.8026H15.6215C15.6215 98.5238 15.5708 98.2746 15.4694 98.0549C15.3765 97.8352 15.2328 97.662 15.0385 97.5353C14.8442 97.4086 14.5992 97.3452 14.3035 97.3452Z" fill="#E2209E"/>
<path d="M22.5261 95.9892C23.4554 95.9892 24.1651 96.1919 24.6552 96.5975C25.1537 96.9946 25.4029 97.6071 25.4029 98.4351V103.048H24.0849L23.7174 102.11H23.6667C23.4723 102.355 23.2696 102.558 23.0584 102.719C22.8556 102.879 22.619 102.993 22.3487 103.061C22.0867 103.137 21.7615 103.175 21.3728 103.175C20.9673 103.175 20.5998 103.099 20.2703 102.947C19.9492 102.786 19.6957 102.545 19.5099 102.224C19.324 101.895 19.2311 101.481 19.2311 100.982C19.2311 100.247 19.4887 99.7066 20.0041 99.3602C20.5195 99.0054 21.2926 98.8111 22.3233 98.7773L23.5273 98.7392V98.4351C23.5273 98.0718 23.4301 97.8056 23.2358 97.6367C23.0499 97.4677 22.788 97.3832 22.45 97.3832C22.1121 97.3832 21.7826 97.4339 21.4615 97.5353C21.1405 97.6282 20.8194 97.7465 20.4984 97.8901L19.8774 96.6101C20.2491 96.4158 20.6589 96.2637 21.1067 96.1539C21.5629 96.0441 22.0361 95.9892 22.5261 95.9892ZM22.7922 99.8671C22.1839 99.884 21.7615 99.9939 21.5249 100.197C21.2883 100.399 21.1701 100.666 21.1701 100.995C21.1701 101.282 21.2545 101.489 21.4235 101.616C21.5925 101.734 21.8122 101.793 22.0825 101.793C22.4881 101.793 22.8302 101.675 23.109 101.439C23.3879 101.194 23.5273 100.851 23.5273 100.412V99.8418L22.7922 99.8671Z" fill="#E2209E"/>
<path d="M30.2886 103.175C29.5198 103.175 28.8903 102.875 28.4003 102.275C27.9187 101.667 27.6779 100.775 27.6779 99.601C27.6779 98.4182 27.9229 97.5226 28.413 96.9143C28.903 96.306 29.5451 96.0018 30.3393 96.0018C30.6688 96.0018 30.9603 96.0483 31.2137 96.1412C31.4672 96.2257 31.6826 96.344 31.8601 96.4961C32.0459 96.6482 32.2022 96.8214 32.329 97.0157H32.3923C32.367 96.8805 32.3374 96.6862 32.3036 96.4327C32.2698 96.1708 32.2529 95.9047 32.2529 95.6343V93.4165H34.1412V103.048H32.6965L32.329 102.148H32.2529C32.1347 102.334 31.9826 102.507 31.7967 102.668C31.6193 102.82 31.4081 102.943 31.163 103.035C30.918 103.128 30.6265 103.175 30.2886 103.175ZM30.9476 101.667C31.4714 101.667 31.8389 101.515 32.0502 101.211C32.2614 100.898 32.3712 100.433 32.3797 99.8165V99.6137C32.3797 98.9378 32.2741 98.4224 32.0628 98.0676C31.8601 97.7127 31.4799 97.5353 30.9223 97.5353C30.5083 97.5353 30.183 97.7169 29.9464 98.0802C29.7099 98.4351 29.5916 98.9505 29.5916 99.6264C29.5916 100.302 29.7099 100.813 29.9464 101.16C30.183 101.498 30.5167 101.667 30.9476 101.667Z" fill="#E2209E"/>
<path d="M38.7646 103.048H36.8763V93.4165H38.7646V103.048Z" fill="#E2209E"/>
<path d="M43.3863 96.1286V103.048H41.498V96.1286H43.3863ZM42.4485 93.4165C42.7273 93.4165 42.9681 93.4841 43.1709 93.6193C43.3736 93.746 43.475 93.9868 43.475 94.3416C43.475 94.688 43.3736 94.9288 43.1709 95.064C42.9681 95.1992 42.7273 95.2668 42.4485 95.2668C42.1612 95.2668 41.9162 95.1992 41.7135 95.064C41.5191 94.9288 41.422 94.688 41.422 94.3416C41.422 93.9868 41.5191 93.746 41.7135 93.6193C41.9162 93.4841 42.1612 93.4165 42.4485 93.4165Z" fill="#E2209E"/>
<path d="M50.0484 96.0018C50.7919 96.0018 51.3876 96.2046 51.8354 96.6101C52.2831 97.0072 52.507 97.6493 52.507 98.5365V103.048H50.6187V99.0054C50.6187 98.5069 50.53 98.1351 50.3526 97.8901C50.1752 97.6367 49.8921 97.5099 49.5035 97.5099C48.929 97.5099 48.5361 97.7085 48.3249 98.1056C48.1137 98.4942 48.0081 99.0561 48.0081 99.7911V103.048H46.1198V96.1286H47.5645L47.818 97.0157H47.9193C48.0714 96.7791 48.2573 96.589 48.477 96.4454C48.6966 96.2933 48.9417 96.1835 49.212 96.1159C49.4824 96.0399 49.7612 96.0018 50.0484 96.0018Z" fill="#E2209E"/>
<path d="M58.0608 96.0018C58.7029 96.0018 59.252 96.1243 59.7083 96.3694C60.173 96.6144 60.532 96.9692 60.7855 97.4339C61.039 97.8986 61.1657 98.4689 61.1657 99.1448V100.057H56.7047C56.7216 100.59 56.8779 101.008 57.1736 101.312C57.4778 101.616 57.896 101.768 58.4283 101.768C58.8761 101.768 59.2816 101.726 59.6449 101.641C60.0082 101.548 60.3842 101.409 60.7728 101.223V102.681C60.4349 102.85 60.0758 102.972 59.6956 103.048C59.3239 103.133 58.8718 103.175 58.3396 103.175C57.6468 103.175 57.0342 103.048 56.502 102.795C55.9697 102.533 55.5515 102.14 55.2473 101.616C54.9432 101.092 54.7911 100.433 54.7911 99.639C54.7911 98.8279 54.9263 98.1563 55.1966 97.624C55.4754 97.0833 55.8598 96.6777 56.3499 96.4074C56.8399 96.137 57.4102 96.0018 58.0608 96.0018ZM58.0734 97.3452C57.7101 97.3452 57.406 97.4635 57.161 97.7C56.9244 97.9366 56.785 98.3041 56.7427 98.8026H59.3914C59.3914 98.5238 59.3407 98.2746 59.2394 98.0549C59.1464 97.8352 59.0028 97.662 58.8085 97.5353C58.6142 97.4086 58.3691 97.3452 58.0734 97.3452Z" fill="#E2209E"/>
<path d="M72.9972 96.0272C72.9972 96.4412 72.9085 96.8002 72.731 97.1044C72.5621 97.4086 72.3297 97.6578 72.034 97.8521C71.7468 98.0464 71.4173 98.1901 71.0455 98.283V98.321C71.7721 98.4055 72.3213 98.6252 72.693 98.98C73.0732 99.3349 73.2633 99.8122 73.2633 100.412C73.2633 100.936 73.1324 101.409 72.8704 101.831C72.617 102.245 72.2199 102.575 71.6792 102.82C71.1469 103.057 70.4583 103.175 69.6134 103.175C69.115 103.175 68.6503 103.133 68.2194 103.048C67.7885 102.964 67.383 102.841 67.0028 102.681V101.058C67.3914 101.253 67.797 101.401 68.2194 101.502C68.6503 101.603 69.0474 101.654 69.4107 101.654C70.095 101.654 70.5724 101.536 70.8427 101.299C71.1215 101.063 71.261 100.729 71.261 100.298C71.261 100.045 71.1976 99.8334 71.0709 99.6644C70.9441 99.487 70.7202 99.356 70.3992 99.2715C70.0866 99.1786 69.6472 99.1321 69.0812 99.1321H68.3968V97.662H69.0938C69.6515 97.662 70.0739 97.6113 70.3612 97.5099C70.6569 97.4001 70.8554 97.2565 70.9568 97.0791C71.0666 96.8932 71.1215 96.682 71.1215 96.4454C71.1215 96.1243 71.0202 95.8751 70.8174 95.6977C70.6231 95.5118 70.2936 95.4189 69.8289 95.4189C69.5416 95.4189 69.2797 95.4569 69.0431 95.5329C68.8066 95.6005 68.5911 95.685 68.3968 95.7864C68.2109 95.8878 68.0462 95.9849 67.9026 96.0779L67.0154 94.7599C67.252 94.5909 67.5139 94.4388 67.8012 94.3036C68.0969 94.1684 68.4222 94.0628 68.777 93.9868C69.1319 93.9108 69.529 93.8727 69.9683 93.8727C70.8977 93.8727 71.6327 94.0628 72.1734 94.443C72.7226 94.8148 72.9972 95.3428 72.9972 96.0272Z" fill="#E2209E"/>
<path d="M299.413 104.103H293.431V103.178L295.801 100.783C296.257 100.327 296.641 99.921 296.954 99.5661C297.267 99.2113 297.503 98.8649 297.664 98.5269C297.824 98.1805 297.904 97.8045 297.904 97.399C297.904 96.9005 297.757 96.5246 297.461 96.2711C297.165 96.0092 296.781 95.8782 296.308 95.8782C295.868 95.8782 295.48 95.9543 295.142 96.1063C294.812 96.2584 294.474 96.4696 294.128 96.74L293.532 95.9923C293.769 95.7895 294.026 95.6079 294.305 95.4473C294.593 95.2868 294.901 95.1601 295.23 95.0671C295.568 94.9742 295.927 94.9277 296.308 94.9277C296.874 94.9277 297.36 95.0249 297.765 95.2192C298.171 95.4135 298.483 95.6923 298.703 96.0556C298.931 96.4105 299.045 96.8372 299.045 97.3356C299.045 97.6905 298.99 98.0284 298.88 98.3495C298.77 98.6621 298.614 98.9705 298.411 99.2746C298.209 99.5788 297.964 99.8872 297.676 100.2C297.389 100.512 297.072 100.838 296.726 101.176L294.838 103.039V103.089H299.413V104.103Z" fill="#848484"/>
<path d="M307.083 97.1709C307.083 97.5764 307.007 97.9271 306.855 98.2228C306.703 98.5185 306.483 98.7593 306.196 98.9451C305.917 99.131 305.588 99.262 305.208 99.338V99.3887C305.934 99.4732 306.475 99.7013 306.83 100.073C307.185 100.445 307.362 100.931 307.362 101.53C307.362 102.054 307.24 102.523 306.995 102.937C306.749 103.343 306.369 103.66 305.854 103.888C305.347 104.116 304.692 104.23 303.89 104.23C303.416 104.23 302.977 104.192 302.572 104.116C302.166 104.048 301.777 103.921 301.406 103.736V102.696C301.786 102.882 302.196 103.03 302.635 103.14C303.074 103.241 303.497 103.292 303.902 103.292C304.713 103.292 305.296 103.136 305.651 102.823C306.014 102.502 306.196 102.063 306.196 101.505C306.196 101.125 306.095 100.821 305.892 100.593C305.698 100.356 305.41 100.183 305.03 100.073C304.65 99.9632 304.194 99.9083 303.661 99.9083H302.787V98.9578H303.674C304.173 98.9578 304.587 98.886 304.916 98.7424C305.254 98.5987 305.508 98.4002 305.676 98.1467C305.854 97.8848 305.943 97.5849 305.943 97.2469C305.943 96.8076 305.795 96.4696 305.499 96.2331C305.203 95.9881 304.802 95.8655 304.295 95.8655C303.974 95.8655 303.683 95.8993 303.421 95.9669C303.159 96.0261 302.914 96.1148 302.686 96.2331C302.466 96.3429 302.242 96.4739 302.014 96.6259L301.456 95.8655C301.676 95.6966 301.925 95.5403 302.204 95.3966C302.491 95.253 302.808 95.139 303.155 95.0545C303.501 94.97 303.877 94.9277 304.282 94.9277C305.229 94.9277 305.93 95.139 306.386 95.5614C306.851 95.9838 307.083 96.5203 307.083 97.1709Z" fill="#848484"/>
<path d="M317.209 97.1836C318.046 97.1836 318.718 97.475 319.225 98.058C319.74 98.641 319.998 99.5196 319.998 100.694C319.998 101.463 319.879 102.113 319.643 102.646C319.415 103.17 319.089 103.567 318.667 103.837C318.253 104.099 317.763 104.23 317.197 104.23C316.85 104.23 316.542 104.183 316.272 104.09C316.001 103.998 315.769 103.879 315.575 103.736C315.389 103.584 315.228 103.419 315.093 103.241H315.017C315.034 103.385 315.051 103.567 315.068 103.786C315.085 104.006 315.093 104.196 315.093 104.357V107.145H313.978V97.3103H314.89L315.042 98.2354H315.093C315.228 98.0411 315.389 97.8637 315.575 97.7032C315.769 97.5426 315.997 97.4159 316.259 97.323C316.529 97.23 316.846 97.1836 317.209 97.1836ZM317.007 98.1214C316.55 98.1214 316.183 98.2101 315.904 98.3875C315.625 98.5565 315.423 98.8142 315.296 99.1606C315.169 99.507 315.102 99.9463 315.093 100.479V100.694C315.093 101.252 315.152 101.725 315.27 102.113C315.389 102.502 315.587 102.798 315.866 103.001C316.153 103.203 316.542 103.305 317.032 103.305C317.446 103.305 317.784 103.191 318.046 102.963C318.316 102.734 318.515 102.426 318.642 102.037C318.777 101.64 318.844 101.188 318.844 100.681C318.844 99.9041 318.692 99.2831 318.388 98.8184C318.092 98.3537 317.632 98.1214 317.007 98.1214Z" fill="#848484"/>
<path d="M323.897 100.631L321.553 97.3103H322.82L324.569 99.8703L326.305 97.3103H327.56L325.215 100.631L327.686 104.103H326.419L324.569 101.391L322.693 104.103H321.439L323.897 100.631Z" fill="#848484"/>
<path d="M271.718 16.0381H269.082V20.1442H266.927V16.0381H258.259V14.1371L266.775 1.94554H269.082V14.0357H271.718V16.0381ZM266.927 8.33282C266.927 7.89348 266.927 7.49639 266.927 7.14154C266.944 6.76979 266.961 6.42339 266.978 6.10234C266.995 5.78128 267.004 5.47713 267.004 5.18987C267.02 4.88571 267.037 4.59845 267.054 4.32809H266.953C266.818 4.64915 266.649 4.99555 266.446 5.36729C266.243 5.73904 266.049 6.05164 265.863 6.30511L260.439 14.0357H266.927V8.33282Z" fill="#848484"/>
<path d="M280.976 1.79346C282.041 1.79346 282.978 1.96243 283.79 2.30038C284.601 2.62144 285.234 3.10302 285.691 3.74513C286.164 4.38723 286.4 5.18142 286.4 6.12768C286.4 6.85428 286.24 7.48794 285.919 8.02866C285.614 8.56938 285.2 9.05096 284.677 9.4734C284.153 9.87894 283.578 10.2422 282.953 10.5633C283.697 10.9181 284.372 11.3237 284.981 11.7799C285.589 12.2193 286.071 12.7346 286.426 13.326C286.797 13.9175 286.983 14.6272 286.983 15.4551C286.983 16.469 286.738 17.3477 286.248 18.0912C285.758 18.8178 285.065 19.3838 284.17 19.7894C283.291 20.1949 282.252 20.3977 281.052 20.3977C279.751 20.3977 278.644 20.2034 277.732 19.8147C276.836 19.4261 276.152 18.8769 275.679 18.1672C275.222 17.4406 274.994 16.5619 274.994 15.5312C274.994 14.7032 275.163 13.9851 275.501 13.3767C275.856 12.7684 276.321 12.2446 276.895 11.8053C277.47 11.3659 278.087 10.9942 278.746 10.69C278.154 10.3521 277.613 9.97188 277.123 9.54944C276.65 9.1101 276.27 8.61162 275.983 8.05401C275.712 7.49639 275.577 6.84583 275.577 6.10234C275.577 5.17297 275.814 4.39568 276.287 3.77047C276.76 3.12837 277.402 2.63834 278.213 2.30038C279.024 1.96243 279.945 1.79346 280.976 1.79346ZM277.174 15.5565C277.174 16.4352 277.487 17.1702 278.112 17.7617C278.737 18.3362 279.7 18.6234 281.001 18.6234C281.829 18.6234 282.522 18.4883 283.08 18.2179C283.637 17.9475 284.06 17.5758 284.347 17.1027C284.651 16.6295 284.803 16.0888 284.803 15.4805C284.803 14.8891 284.643 14.3737 284.322 13.9344C284.018 13.4781 283.578 13.0726 283.004 12.7177C282.446 12.3629 281.779 12.0418 281.001 11.7546L280.596 11.6025C279.852 11.9235 279.227 12.2699 278.72 12.6417C278.213 13.0134 277.825 13.4359 277.554 13.909C277.301 14.3821 277.174 14.9313 277.174 15.5565ZM280.951 3.59305C280.021 3.59305 279.253 3.82116 278.644 4.2774C278.053 4.71674 277.757 5.35884 277.757 6.20372C277.757 6.82893 277.901 7.35276 278.188 7.7752C278.492 8.19763 278.898 8.56093 279.405 8.86509C279.912 9.15235 280.469 9.43116 281.077 9.70152C281.669 9.44805 282.193 9.16924 282.649 8.86509C283.122 8.56093 283.494 8.19763 283.764 7.7752C284.051 7.33586 284.195 6.81203 284.195 6.20372C284.195 5.35884 283.899 4.71674 283.308 4.2774C282.717 3.82116 281.931 3.59305 280.951 3.59305Z" fill="#848484"/>
<path d="M306.501 6.30511C308.174 6.30511 309.517 6.88807 310.531 8.05401C311.561 9.21994 312.077 10.9773 312.077 13.326C312.077 14.8637 311.84 16.1648 311.367 17.2294C310.911 18.277 310.26 19.0712 309.415 19.6119C308.587 20.1358 307.607 20.3977 306.475 20.3977C305.783 20.3977 305.166 20.3047 304.625 20.1189C304.084 19.933 303.62 19.6964 303.231 19.4092C302.859 19.105 302.538 18.7755 302.268 18.4207H302.116C302.15 18.7079 302.183 19.0712 302.217 19.5106C302.251 19.9499 302.268 20.3301 302.268 20.6511V26.2273H300.037V6.55857H301.862L302.166 8.40885H302.268C302.538 8.02021 302.859 7.66536 303.231 7.34431C303.62 7.02325 304.076 6.76979 304.6 6.58392C305.14 6.39805 305.774 6.30511 306.501 6.30511ZM306.095 8.18074C305.183 8.18074 304.448 8.35816 303.89 8.71301C303.332 9.05096 302.927 9.56634 302.673 10.2591C302.42 10.9519 302.285 11.8306 302.268 12.8952V13.326C302.268 14.4413 302.386 15.3875 302.623 16.1648C302.859 16.9421 303.256 17.5335 303.814 17.9391C304.388 18.3446 305.166 18.5474 306.146 18.5474C306.974 18.5474 307.65 18.3193 308.174 17.863C308.714 17.4068 309.111 16.79 309.365 16.0128C309.635 15.2186 309.77 14.3146 309.77 13.3007C309.77 11.7461 309.466 10.5042 308.858 9.57479C308.266 8.64542 307.346 8.18074 306.095 8.18074Z" fill="#848484"/>
<path d="M319.876 13.1993L315.187 6.55857H317.722L321.219 11.6785L324.692 6.55857H327.201L322.512 13.1993L327.455 20.1442H324.92L321.219 14.7201L317.468 20.1442H314.959L319.876 13.1993Z" fill="#848484"/>
<path d="M284.646 54.1015C284.646 54.7099 284.532 55.2358 284.304 55.6794C284.076 56.1229 283.747 56.4841 283.316 56.7629C282.898 57.0417 282.403 57.2382 281.833 57.3522V57.4283C282.923 57.555 283.734 57.8972 284.266 58.4548C284.799 59.0124 285.065 59.7411 285.065 60.6409C285.065 61.4266 284.881 62.13 284.513 62.751C284.146 63.3593 283.576 63.8345 282.802 64.1767C282.042 64.5189 281.06 64.69 279.856 64.69C279.146 64.69 278.487 64.6329 277.879 64.5189C277.271 64.4175 276.688 64.2274 276.13 63.9486V62.3898C276.7 62.6686 277.315 62.8904 277.974 63.0551C278.633 63.2072 279.267 63.2833 279.875 63.2833C281.092 63.2833 281.966 63.0488 282.498 62.5799C283.043 62.0983 283.316 61.4393 283.316 60.6029C283.316 60.0326 283.164 59.5764 282.86 59.2342C282.568 58.8793 282.137 58.6195 281.567 58.4548C280.997 58.29 280.312 58.2077 279.514 58.2077H278.202V56.7819H279.533C280.281 56.7819 280.902 56.6742 281.396 56.4588C281.903 56.2433 282.283 55.9455 282.536 55.5653C282.802 55.1724 282.936 54.7225 282.936 54.2156C282.936 53.5566 282.714 53.0497 282.27 52.6948C281.827 52.3273 281.225 52.1435 280.464 52.1435C279.983 52.1435 279.545 52.1942 279.153 52.2956C278.76 52.3843 278.392 52.5174 278.05 52.6948C277.721 52.8596 277.385 53.056 277.043 53.2841L276.206 52.1435C276.536 51.8901 276.909 51.6556 277.328 51.4402C277.759 51.2247 278.234 51.0536 278.753 50.9269C279.273 50.8002 279.837 50.7368 280.445 50.7368C281.865 50.7368 282.917 51.0536 283.601 51.6873C284.298 52.321 284.646 53.1257 284.646 54.1015Z" fill="#848484"/>
<path d="M297.179 64.4999H288.206V63.1122L291.761 59.5193C292.445 58.835 293.022 58.2267 293.491 57.6944C293.96 57.1621 294.315 56.6425 294.556 56.1356C294.796 55.616 294.917 55.052 294.917 54.4437C294.917 53.696 294.695 53.132 294.251 52.7519C293.808 52.359 293.231 52.1625 292.522 52.1625C291.863 52.1625 291.28 52.2766 290.773 52.5047C290.278 52.7328 289.771 53.0497 289.252 53.4552L288.358 52.3336C288.713 52.0295 289.1 51.757 289.518 51.5162C289.949 51.2754 290.411 51.0853 290.906 50.9459C291.413 50.8065 291.951 50.7368 292.522 50.7368C293.371 50.7368 294.099 50.8826 294.708 51.174C295.316 51.4655 295.785 51.8837 296.114 52.4287C296.457 52.961 296.628 53.601 296.628 54.3487C296.628 54.8809 296.545 55.3879 296.381 55.8695C296.216 56.3384 295.981 56.8009 295.677 57.2572C295.373 57.7134 295.005 58.176 294.575 58.6449C294.144 59.1138 293.668 59.6017 293.149 60.1086L290.316 62.9031V62.9791H297.179V64.4999Z" fill="#848484"/>
<path d="M311.855 54.1206C313.11 54.1206 314.117 54.5578 314.878 55.4322C315.651 56.3067 316.037 57.6247 316.037 59.3863C316.037 60.5395 315.86 61.5153 315.505 62.3138C315.163 63.0995 314.675 63.6951 314.041 64.1007C313.42 64.4935 312.685 64.69 311.836 64.69C311.316 64.69 310.854 64.6203 310.448 64.4809C310.043 64.3415 309.694 64.164 309.403 63.9486C309.124 63.7205 308.883 63.4734 308.68 63.2072H308.566C308.592 63.4227 308.617 63.6951 308.642 64.0246C308.668 64.3541 308.68 64.6393 308.68 64.8801V69.0622H307.008V54.3107H308.376L308.604 55.6984H308.68C308.883 55.4069 309.124 55.1407 309.403 54.9C309.694 54.6592 310.036 54.4691 310.429 54.3297C310.835 54.1903 311.31 54.1206 311.855 54.1206ZM311.551 55.5273C310.867 55.5273 310.315 55.6603 309.897 55.9265C309.479 56.1799 309.175 56.5665 308.985 57.0861C308.794 57.6057 308.693 58.2647 308.68 59.0631V59.3863C308.68 60.2227 308.769 60.9324 308.947 61.5153C309.124 62.0983 309.422 62.5419 309.84 62.846C310.271 63.1502 310.854 63.3023 311.589 63.3023C312.21 63.3023 312.717 63.1312 313.11 62.789C313.515 62.4468 313.813 61.9843 314.003 61.4013C314.206 60.8057 314.307 60.1276 314.307 59.3672C314.307 58.2013 314.079 57.2698 313.623 56.5728C313.179 55.8758 312.489 55.5273 311.551 55.5273Z" fill="#848484"/>
<path d="M321.887 59.2912L318.37 54.3107H320.271L322.894 58.1506L325.498 54.3107H327.38L323.864 59.2912L327.57 64.4999H325.669L322.894 60.4318L320.081 64.4999H318.199L321.887 59.2912Z" fill="#848484"/>
<g opacity="0.15">
<path fill-rule="evenodd" clip-rule="evenodd" d="M-4.16689e-08 38.0979L0 37.5698L327.918 37.5699L327.918 38.0979L-4.16689e-08 38.0979Z" fill="white"/>
<path fill-rule="evenodd" clip-rule="evenodd" d="M327.918 82.4534L-4.16689e-08 82.4533L0 81.9253L327.918 81.9253L327.918 82.4534Z" fill="white"/>
<path fill-rule="evenodd" clip-rule="evenodd" d="M327.918 116.248L-4.16689e-08 116.248L0 115.72L327.918 115.72L327.918 116.248Z" fill="white"/>
<path fill-rule="evenodd" clip-rule="evenodd" d="M327.918 145.82L-4.16689e-08 145.82L0 145.292L327.918 145.292L327.918 145.82Z" fill="white"/>
<path fill-rule="evenodd" clip-rule="evenodd" d="M327.918 175.39L-4.16689e-08 175.39L0 174.862L327.918 174.862L327.918 175.39Z" fill="white"/>
<path fill-rule="evenodd" clip-rule="evenodd" d="M327.918 204.961L-4.16689e-08 204.961L0 204.433L327.918 204.433L327.918 204.961Z" fill="white"/>
<path fill-rule="evenodd" clip-rule="evenodd" d="M327.918 230.307L-4.16689e-08 230.307L0 229.779L327.918 229.779L327.918 230.307Z" fill="white"/>
<path fill-rule="evenodd" clip-rule="evenodd" d="M327.918 255.653L-4.16689e-08 255.653L0 255.125L327.918 255.125L327.918 255.653Z" fill="white"/>
<path fill-rule="evenodd" clip-rule="evenodd" d="M327.918 281L-4.16689e-08 281L0 280.472L327.918 280.472L327.918 281Z" fill="white"/>
</g>
</svg>
