<svg width="330" height="276" viewBox="0 0 330 276" fill="none" xmlns="http://www.w3.org/2000/svg">
<path d="M7.40787 114.346H6.52982L6.23361 116.594H7.01645V117.44H6.11724L5.90037 119.133H4.90595L5.12811 117.44H3.78988L3.56772 119.133H2.5733L2.79546 117.44H2.03906V116.594H2.90654L3.21332 114.346H2.43048V113.494H3.3244L3.54127 111.833H4.54098L4.30824 113.494H5.65177L5.87393 111.833H6.86835L6.6409 113.494H7.40787V114.346ZM4.19717 114.346L3.90096 116.594H5.23919L5.54069 114.346H4.19717Z" fill="#E2209E"/>
<path d="M13.7748 111.833L13.6214 112.722H10.818V114.753C11.0155 114.651 11.2112 114.578 11.4052 114.536C11.5991 114.49 11.8019 114.467 12.0134 114.467C12.4049 114.467 12.7522 114.561 13.0555 114.748C13.3623 114.931 13.6003 115.197 13.7696 115.546C13.9423 115.895 14.0287 116.31 14.0287 116.789C14.0287 117.276 13.9194 117.708 13.7008 118.085C13.4857 118.459 13.1789 118.752 12.7804 118.963C12.3855 119.171 11.9288 119.275 11.4104 119.275C10.5183 119.275 9.77248 118.956 9.173 118.318L9.88179 117.652C10.2908 118.106 10.7845 118.334 11.3628 118.334C11.8107 118.334 12.1616 118.198 12.4154 117.927C12.6693 117.655 12.7963 117.274 12.7963 116.784C12.7963 116.276 12.6887 115.91 12.4736 115.684C12.2621 115.455 11.9729 115.34 11.6062 115.34C11.4263 115.34 11.2571 115.359 11.0984 115.398C10.9397 115.437 10.7598 115.499 10.5588 115.583H9.68608V111.833H13.7748Z" fill="#E2209E"/>
<path d="M20.7395 111.833L20.5861 112.722H17.7827V114.753C17.9802 114.651 18.1759 114.578 18.3698 114.536C18.5638 114.49 18.7666 114.467 18.9781 114.467C19.3695 114.467 19.7169 114.561 20.0202 114.748C20.3269 114.931 20.565 115.197 20.7342 115.546C20.907 115.895 20.9934 116.31 20.9934 116.789C20.9934 117.276 20.8841 117.708 20.6655 118.085C20.4504 118.459 20.1436 118.752 19.7451 118.963C19.3502 119.171 18.8935 119.275 18.3751 119.275C17.483 119.275 16.7372 118.956 16.1377 118.318L16.8465 117.652C17.2555 118.106 17.7492 118.334 18.3275 118.334C18.7754 118.334 19.1262 118.198 19.3801 117.927C19.634 117.655 19.761 117.274 19.761 116.784C19.761 116.276 19.6534 115.91 19.4383 115.684C19.2267 115.455 18.9376 115.34 18.5708 115.34C18.391 115.34 18.2217 115.359 18.063 115.398C17.9044 115.437 17.7245 115.499 17.5235 115.583H16.6508V111.833H20.7395Z" fill="#E2209E"/>
<path d="M27.8946 112.685L25.0119 119.26L23.8958 118.916L26.6939 112.764H23.351V111.833H27.8946V112.685Z" fill="#E2209E"/>
<path d="M34.8593 113.573C34.8593 113.915 34.7588 114.215 34.5578 114.473C34.3603 114.727 34.0553 114.968 33.6427 115.197C34.1294 115.412 34.5014 115.687 34.7588 116.022C35.0197 116.354 35.1502 116.735 35.1502 117.165C35.1502 117.56 35.0462 117.918 34.8381 118.239C34.6336 118.556 34.3339 118.808 33.9389 118.995C33.5475 119.182 33.0856 119.275 32.5531 119.275C32.0206 119.275 31.5622 119.184 31.1778 119C30.797 118.813 30.5061 118.563 30.3051 118.249C30.1076 117.932 30.0089 117.579 30.0089 117.191C30.0089 116.772 30.1323 116.407 30.3791 116.096C30.626 115.783 30.9751 115.523 31.4264 115.319C31.0315 115.111 30.7441 114.878 30.5643 114.621C30.3879 114.363 30.2998 114.035 30.2998 113.637C30.2998 113.224 30.4073 112.872 30.6224 112.579C30.8411 112.283 31.1249 112.061 31.474 111.913C31.8231 111.761 32.1934 111.685 32.5848 111.685C32.9939 111.685 33.3712 111.757 33.7168 111.902C34.0624 112.047 34.3392 112.262 34.5472 112.547C34.7553 112.829 34.8593 113.171 34.8593 113.573ZM31.4476 113.642C31.4476 113.875 31.4987 114.065 31.601 114.213C31.7068 114.362 31.8549 114.485 32.0453 114.584C32.2393 114.682 32.5055 114.788 32.844 114.901C33.1543 114.711 33.3765 114.52 33.5105 114.33C33.6445 114.139 33.7115 113.907 33.7115 113.632C33.7115 113.3 33.6127 113.037 33.4153 112.843C33.2178 112.646 32.941 112.547 32.5848 112.547C32.2251 112.547 31.9448 112.642 31.7438 112.833C31.5463 113.023 31.4476 113.293 31.4476 113.642ZM33.9389 117.17C33.9389 116.888 33.8719 116.659 33.7379 116.483C33.6075 116.306 33.4259 116.162 33.1931 116.049C32.9639 115.932 32.6307 115.799 32.1934 115.647C31.5446 115.982 31.2201 116.484 31.2201 117.154C31.2201 117.535 31.3348 117.835 31.564 118.054C31.7967 118.269 32.1317 118.376 32.569 118.376C32.8616 118.376 33.1103 118.323 33.3148 118.218C33.5228 118.112 33.678 117.969 33.7802 117.789C33.886 117.606 33.9389 117.399 33.9389 117.17Z" fill="#E2209E"/>
<path d="M41.3321 119.133L40.8243 117.377H38.2166L37.7088 119.133H36.4605L38.7825 111.833H40.3059L42.6333 119.133H41.3321ZM39.5231 112.785L38.4705 116.43H40.5651L39.5231 112.785Z" fill="#E2209E"/>
<path d="M49.27 115.446C49.27 116.821 48.9491 117.78 48.3073 118.323C47.6655 118.863 46.8562 119.133 45.8794 119.133H44.0916V111.833H45.7578C46.4278 111.833 47.0184 111.932 47.5298 112.129C48.0446 112.323 48.4625 112.687 48.7834 113.219C49.1078 113.751 49.27 114.494 49.27 115.446ZM47.9794 115.446C47.9794 114.719 47.8859 114.161 47.699 113.769C47.5157 113.374 47.2794 113.11 46.9902 112.976C46.7046 112.842 46.3714 112.775 45.9905 112.775H45.3188V118.202H45.9958C47.3182 118.202 47.9794 117.283 47.9794 115.446Z" fill="#E2209E"/>
<path d="M5.86075 270.094H4.9827L4.68649 272.342H5.46933V273.189H4.57012L4.35325 274.881H3.35883L3.58099 273.189H2.24276L2.0206 274.881H1.02618L1.24834 273.189H0.491943V272.342H1.35942L1.66621 270.094H0.883364V269.243H1.77728L1.99415 267.582H2.99386L2.76112 269.243H4.10465L4.32681 267.582H5.32123L5.09378 269.243H5.86075V270.094ZM2.65005 270.094L2.35384 272.342H3.69207L3.99357 270.094H2.65005Z" fill="#E2209E"/>
<path d="M9.84217 267.434C10.3253 267.434 10.7414 267.525 11.0905 267.709C11.4396 267.888 11.7058 268.135 11.8892 268.449C12.0726 268.759 12.1642 269.109 12.1642 269.496C12.1642 269.923 12.0637 270.339 11.8627 270.745C11.6653 271.15 11.3444 271.598 10.9001 272.088C10.4557 272.578 9.82807 273.192 9.01701 273.929H12.3335L12.196 274.881H7.65762V273.982C8.57446 273.1 9.25857 272.411 9.70994 271.914C10.1613 271.417 10.4787 270.993 10.662 270.644C10.8454 270.292 10.9371 269.934 10.9371 269.571C10.9371 269.2 10.8331 268.911 10.625 268.703C10.417 268.491 10.1278 268.386 9.75754 268.386C9.43665 268.386 9.16512 268.446 8.94296 268.566C8.7208 268.682 8.50041 268.876 8.28178 269.147L7.50952 268.56C7.8022 268.186 8.13544 267.906 8.50923 267.719C8.88301 267.529 9.32733 267.434 9.84217 267.434Z" fill="#E2209E"/>
<path d="M16.8069 267.434C17.29 267.434 17.7061 267.525 18.0552 267.709C18.4043 267.888 18.6705 268.135 18.8539 268.449C19.0372 268.759 19.1289 269.109 19.1289 269.496C19.1289 269.923 19.0284 270.339 18.8274 270.745C18.63 271.15 18.3091 271.598 17.8647 272.088C17.4204 272.578 16.7927 273.192 15.9817 273.929H19.2982L19.1607 274.881H14.6223V273.982C15.5391 273.1 16.2232 272.411 16.6746 271.914C17.126 271.417 17.4433 270.993 17.6267 270.644C17.8101 270.292 17.9018 269.934 17.9018 269.571C17.9018 269.2 17.7977 268.911 17.5897 268.703C17.3816 268.491 17.0925 268.386 16.7222 268.386C16.4013 268.386 16.1298 268.446 15.9076 268.566C15.6855 268.682 15.4651 268.876 15.2465 269.147L14.4742 268.56C14.7669 268.186 15.1001 267.906 15.4739 267.719C15.8477 267.529 16.292 267.434 16.8069 267.434Z" fill="#E2209E"/>
<path d="M23.7715 267.434C24.2546 267.434 24.6707 267.525 25.0198 267.709C25.3689 267.888 25.6352 268.135 25.8186 268.449C26.0019 268.759 26.0936 269.109 26.0936 269.496C26.0936 269.923 25.9931 270.339 25.7921 270.745C25.5946 271.15 25.2737 271.598 24.8294 272.088C24.3851 272.578 23.7574 273.192 22.9464 273.929H26.2629L26.1253 274.881H21.587V273.982C22.5038 273.1 23.1879 272.411 23.6393 271.914C24.0907 271.417 24.408 270.993 24.5914 270.644C24.7748 270.292 24.8664 269.934 24.8664 269.571C24.8664 269.2 24.7624 268.911 24.5544 268.703C24.3463 268.491 24.0572 268.386 23.6869 268.386C23.366 268.386 23.0945 268.446 22.8723 268.566C22.6502 268.682 22.4298 268.876 22.2111 269.147L21.4389 268.56C21.7316 268.186 22.0648 267.906 22.4386 267.719C22.8124 267.529 23.2567 267.434 23.7715 267.434Z" fill="#E2209E"/>
<path d="M30.7362 267.434C31.2193 267.434 31.6354 267.525 31.9845 267.709C32.3336 267.888 32.5999 268.135 32.7832 268.449C32.9666 268.759 33.0583 269.109 33.0583 269.496C33.0583 269.923 32.9578 270.339 32.7568 270.745C32.5593 271.15 32.2384 271.598 31.7941 272.088C31.3498 272.578 30.7221 273.192 29.9111 273.929H33.2275L33.09 274.881H28.5517V273.982C29.4685 273.1 30.1526 272.411 30.604 271.914C31.0553 271.417 31.3727 270.993 31.5561 270.644C31.7394 270.292 31.8311 269.934 31.8311 269.571C31.8311 269.2 31.7271 268.911 31.519 268.703C31.311 268.491 31.0218 268.386 30.6516 268.386C30.3307 268.386 30.0592 268.446 29.837 268.566C29.6148 268.682 29.3944 268.876 29.1758 269.147L28.4036 268.56C28.6962 268.186 29.0295 267.906 29.4033 267.719C29.7771 267.529 30.2214 267.434 30.7362 267.434Z" fill="#E2209E"/>
<path d="M37.7009 267.434C38.184 267.434 38.6001 267.525 38.9492 267.709C39.2983 267.888 39.5645 268.135 39.7479 268.449C39.9313 268.759 40.023 269.109 40.023 269.496C40.023 269.923 39.9225 270.339 39.7215 270.745C39.524 271.15 39.2031 271.598 38.7588 272.088C38.3145 272.578 37.6868 273.192 36.8757 273.929H40.1922L40.0547 274.881H35.5163V273.982C36.4332 273.1 37.1173 272.411 37.5686 271.914C38.02 271.417 38.3374 270.993 38.5208 270.644C38.7041 270.292 38.7958 269.934 38.7958 269.571C38.7958 269.2 38.6918 268.911 38.4837 268.703C38.2757 268.491 37.9865 268.386 37.6163 268.386C37.2954 268.386 37.0238 268.446 36.8017 268.566C36.5795 268.682 36.3591 268.876 36.1405 269.147L35.3682 268.56C35.6609 268.186 35.9942 267.906 36.3679 267.719C36.7417 267.529 37.186 267.434 37.7009 267.434Z" fill="#E2209E"/>
<path d="M44.6656 267.434C45.1487 267.434 45.5648 267.525 45.9139 267.709C46.263 267.888 46.5292 268.135 46.7126 268.449C46.896 268.759 46.9876 269.109 46.9876 269.496C46.9876 269.923 46.8871 270.339 46.6861 270.745C46.4887 271.15 46.1678 271.598 45.7235 272.088C45.2791 272.578 44.6515 273.192 43.8404 273.929H47.1569L47.0194 274.881H42.481V273.982C43.3979 273.1 44.082 272.411 44.5333 271.914C44.9847 271.417 45.3021 270.993 45.4854 270.644C45.6688 270.292 45.7605 269.934 45.7605 269.571C45.7605 269.2 45.6565 268.911 45.4484 268.703C45.2403 268.491 44.9512 268.386 44.5809 268.386C44.26 268.386 43.9885 268.446 43.7664 268.566C43.5442 268.682 43.3238 268.876 43.1052 269.147L42.3329 268.56C42.6256 268.186 42.9588 267.906 43.3326 267.719C43.7064 267.529 44.1507 267.434 44.6656 267.434Z" fill="#E2209E"/>
<path d="M76.5147 114.346H75.6366L75.3404 116.594H76.1233V117.44H75.2241L75.0072 119.133H74.0128L74.2349 117.44H72.8967L72.6745 119.133H71.6801L71.9023 117.44H71.1459V116.594H72.0133L72.3201 114.346H71.5373V113.494H72.4312L72.6481 111.833H73.6478L73.4151 113.494H74.7586L74.9807 111.833H75.9752L75.7477 113.494H76.5147V114.346ZM73.304 114.346L73.0078 116.594H74.346L74.6475 114.346H73.304Z" fill="#E2209E"/>
<path d="M80.4961 111.685C80.9792 111.685 81.3953 111.777 81.7444 111.96C82.0935 112.14 82.3598 112.387 82.5431 112.701C82.7265 113.011 82.8182 113.36 82.8182 113.748C82.8182 114.175 82.7177 114.591 82.5167 114.996C82.3192 115.402 81.9983 115.85 81.554 116.34C81.1097 116.83 80.482 117.444 79.6709 118.181H82.9874L82.8499 119.133H78.3116V118.233C79.2284 117.352 79.9125 116.662 80.3639 116.165C80.8152 115.668 81.1326 115.245 81.316 114.896C81.4993 114.543 81.591 114.185 81.591 113.822C81.591 113.452 81.487 113.163 81.2789 112.955C81.0709 112.743 80.7817 112.637 80.4115 112.637C80.0906 112.637 79.819 112.697 79.5969 112.817C79.3747 112.933 79.1543 113.127 78.9357 113.399L78.1634 112.812C78.4561 112.438 78.7894 112.158 79.1632 111.971C79.5369 111.78 79.9813 111.685 80.4961 111.685Z" fill="#E2209E"/>
<path d="M89.8463 111.833L89.6929 112.722H86.8895V114.753C87.087 114.651 87.2827 114.578 87.4766 114.536C87.6706 114.49 87.8734 114.467 88.0849 114.467C88.4764 114.467 88.8237 114.561 89.127 114.748C89.4338 114.931 89.6718 115.197 89.841 115.546C90.0138 115.895 90.1002 116.31 90.1002 116.789C90.1002 117.276 89.9909 117.708 89.7723 118.085C89.5572 118.459 89.2504 118.752 88.8519 118.963C88.457 119.171 88.0003 119.275 87.4819 119.275C86.5898 119.275 85.844 118.956 85.2445 118.318L85.9533 117.652C86.3623 118.106 86.856 118.334 87.4343 118.334C87.8822 118.334 88.233 118.198 88.4869 117.927C88.7408 117.655 88.8678 117.274 88.8678 116.784C88.8678 116.276 88.7602 115.91 88.5451 115.684C88.3335 115.455 88.0444 115.34 87.6776 115.34C87.4978 115.34 87.3285 115.359 87.1699 115.398C87.0112 115.437 86.8313 115.499 86.6303 115.583H85.7576V111.833H89.8463Z" fill="#E2209E"/>
<path d="M95.1554 114.325C95.5398 114.325 95.8871 114.414 96.1974 114.594C96.5113 114.771 96.7599 115.035 96.9432 115.388C97.1266 115.74 97.2183 116.167 97.2183 116.668C97.2183 117.179 97.1143 117.632 96.9062 118.027C96.6982 118.422 96.4108 118.729 96.044 118.947C95.6808 119.166 95.2682 119.275 94.8063 119.275C93.9318 119.275 93.29 118.96 92.8809 118.329C92.4719 117.697 92.2674 116.833 92.2674 115.737C92.2674 114.926 92.382 114.215 92.6112 113.605C92.8439 112.995 93.1771 112.523 93.6109 112.188C94.0446 111.853 94.5595 111.685 95.1554 111.685C95.7126 111.685 96.2133 111.833 96.6576 112.129L96.1974 112.891C95.8801 112.687 95.5345 112.584 95.1607 112.584C94.8292 112.584 94.5401 112.688 94.2932 112.896C94.0499 113.104 93.8577 113.404 93.7167 113.796C93.5791 114.187 93.5016 114.649 93.4839 115.181C93.9177 114.61 94.4748 114.325 95.1554 114.325ZM94.8116 118.376C95.2065 118.376 95.5063 118.228 95.7108 117.932C95.9153 117.636 96.0176 117.232 96.0176 116.721C96.0176 116.185 95.9206 115.8 95.7267 115.568C95.5362 115.331 95.263 115.213 94.9068 115.213C94.6247 115.213 94.362 115.289 94.1187 115.441C93.8754 115.592 93.6655 115.8 93.4892 116.065C93.4998 116.601 93.5509 117.038 93.6426 117.377C93.7343 117.712 93.8754 117.962 94.0658 118.128C94.2562 118.293 94.5048 118.376 94.8116 118.376Z" fill="#E2209E"/>
<path d="M104.209 112.764H101.083V115.086H103.829V116.017H101.083V119.133H99.8562V111.833H104.347L104.209 112.764Z" fill="#E2209E"/>
<path d="M109.085 114.325C109.469 114.325 109.816 114.414 110.127 114.594C110.441 114.771 110.689 115.035 110.873 115.388C111.056 115.74 111.148 116.167 111.148 116.668C111.148 117.179 111.044 117.632 110.836 118.027C110.628 118.422 110.34 118.729 109.973 118.947C109.61 119.166 109.198 119.275 108.736 119.275C107.861 119.275 107.219 118.96 106.81 118.329C106.401 117.697 106.197 116.833 106.197 115.737C106.197 114.926 106.311 114.215 106.541 113.605C106.773 112.995 107.107 112.523 107.54 112.188C107.974 111.853 108.489 111.685 109.085 111.685C109.642 111.685 110.143 111.833 110.587 112.129L110.127 112.891C109.809 112.687 109.464 112.584 109.09 112.584C108.759 112.584 108.469 112.688 108.223 112.896C107.979 113.104 107.787 113.404 107.646 113.796C107.509 114.187 107.431 114.649 107.413 115.181C107.847 114.61 108.404 114.325 109.085 114.325ZM108.741 118.376C109.136 118.376 109.436 118.228 109.64 117.932C109.845 117.636 109.947 117.232 109.947 116.721C109.947 116.185 109.85 115.8 109.656 115.568C109.466 115.331 109.192 115.213 108.836 115.213C108.554 115.213 108.291 115.289 108.048 115.441C107.805 115.592 107.595 115.8 107.419 116.065C107.429 116.601 107.48 117.038 107.572 117.377C107.664 117.712 107.805 117.962 107.995 118.128C108.186 118.293 108.434 118.376 108.741 118.376Z" fill="#E2209E"/>
<path d="M118.276 117.027C118.276 117.779 118.008 118.318 117.472 118.646C116.936 118.97 116.257 119.133 115.436 119.133H113.299V111.833H115.293C116.069 111.833 116.707 111.976 117.208 112.262C117.709 112.547 117.959 113.02 117.959 113.679C117.959 114.109 117.83 114.459 117.573 114.727C117.319 114.995 116.998 115.174 116.61 115.266C117.086 115.347 117.483 115.523 117.8 115.795C118.118 116.066 118.276 116.477 118.276 117.027ZM116.716 113.78C116.716 113.424 116.605 113.164 116.383 113.002C116.161 112.836 115.834 112.754 115.404 112.754H114.526V114.864H115.478C115.891 114.864 116.199 114.778 116.404 114.605C116.612 114.429 116.716 114.153 116.716 113.78ZM116.996 117.022C116.996 116.564 116.869 116.241 116.615 116.054C116.362 115.867 116.012 115.774 115.568 115.774H114.526V118.181H115.515C116.503 118.181 116.996 117.794 116.996 117.022Z" fill="#E2209E"/>
<path d="M74.9679 270.094H74.0899L73.7937 272.342H74.5765V273.189H73.6773L73.4604 274.881H72.466L72.6882 273.189H71.3499L71.1278 274.881H70.1334L70.3555 273.189H69.5991V272.342H70.4666L70.7734 270.094H69.9905V269.243H70.8845L71.1013 267.582H72.101L71.8683 269.243H73.2118L73.434 267.582H74.4284L74.201 269.243H74.9679V270.094ZM71.7572 270.094L71.461 272.342H72.7992L73.1007 270.094H71.7572Z" fill="#E2209E"/>
<path d="M80.8959 272.279H81.7633V273.199H80.8959V274.881H79.7586L79.7533 273.199H76.7225V272.374L78.8224 267.434L79.8221 267.83L77.9602 272.279H79.7586L79.9015 270.327H80.8959V272.279Z" fill="#E2209E"/>
<path d="M86.644 270.073C87.0283 270.073 87.3757 270.163 87.686 270.343C87.9998 270.519 88.2484 270.784 88.4318 271.136C88.6152 271.489 88.7069 271.916 88.7069 272.416C88.7069 272.928 88.6028 273.381 88.3948 273.776C88.1867 274.171 87.8993 274.477 87.5326 274.696C87.1694 274.915 86.7568 275.024 86.2949 275.024C85.4203 275.024 84.7786 274.708 84.3695 274.077C83.9605 273.446 83.7559 272.582 83.7559 271.485C83.7559 270.674 83.8705 269.964 84.0997 269.354C84.3325 268.744 84.6657 268.271 85.0995 267.936C85.5332 267.601 86.048 267.434 86.644 267.434C87.2011 267.434 87.7019 267.582 88.1462 267.878L87.686 268.64C87.3686 268.435 87.0231 268.333 86.6493 268.333C86.3178 268.333 86.0286 268.437 85.7818 268.645C85.5385 268.853 85.3463 269.153 85.2052 269.544C85.0677 269.936 84.9901 270.397 84.9725 270.93C85.4062 270.359 85.9634 270.073 86.644 270.073ZM86.3002 274.125C86.6951 274.125 86.9948 273.977 87.1994 273.68C87.4039 273.384 87.5062 272.98 87.5062 272.469C87.5062 271.933 87.4092 271.549 87.2152 271.316C87.0248 271.08 86.7515 270.962 86.3954 270.962C86.1133 270.962 85.8506 271.037 85.6072 271.189C85.3639 271.341 85.1541 271.549 84.9778 271.813C84.9884 272.349 85.0395 272.787 85.1312 273.125C85.2229 273.46 85.3639 273.71 85.5543 273.876C85.7448 274.042 85.9934 274.125 86.3002 274.125Z" fill="#E2209E"/>
<path d="M94.8252 272.279H95.6927V273.199H94.8252V274.881H93.688L93.6827 273.199H90.6518V272.374L92.7518 267.434L93.7515 267.83L91.8896 272.279H93.688L93.8308 270.327H94.8252V272.279Z" fill="#E2209E"/>
<path d="M100.573 270.073C100.958 270.073 101.305 270.163 101.615 270.343C101.929 270.519 102.178 270.784 102.361 271.136C102.545 271.489 102.636 271.916 102.636 272.416C102.636 272.928 102.532 273.381 102.324 273.776C102.116 274.171 101.829 274.477 101.462 274.696C101.099 274.915 100.686 275.024 100.224 275.024C99.3497 275.024 98.7079 274.708 98.2989 274.077C97.8898 273.446 97.6853 272.582 97.6853 271.485C97.6853 270.674 97.7999 269.964 98.0291 269.354C98.2618 268.744 98.5951 268.271 99.0288 267.936C99.4625 267.601 99.9774 267.434 100.573 267.434C101.13 267.434 101.631 267.582 102.076 267.878L101.615 268.64C101.298 268.435 100.952 268.333 100.579 268.333C100.247 268.333 99.958 268.437 99.7111 268.645C99.4678 268.853 99.2756 269.153 99.1346 269.544C98.9971 269.936 98.9195 270.397 98.9019 270.93C99.3356 270.359 99.8928 270.073 100.573 270.073ZM100.23 274.125C100.624 274.125 100.924 273.977 101.129 273.68C101.333 273.384 101.436 272.98 101.436 272.469C101.436 271.933 101.339 271.549 101.145 271.316C100.954 271.08 100.681 270.962 100.325 270.962C100.043 270.962 99.7799 271.037 99.5366 271.189C99.2933 271.341 99.0835 271.549 98.9072 271.813C98.9177 272.349 98.9689 272.787 99.0605 273.125C99.1522 273.46 99.2933 273.71 99.4837 273.876C99.6741 274.042 99.9227 274.125 100.23 274.125Z" fill="#E2209E"/>
<path d="M108.755 272.279H109.622V273.199H108.755V274.881H107.617L107.612 273.199H104.581V272.374L106.681 267.434L107.681 267.83L105.819 272.279H107.617L107.76 270.327H108.755V272.279Z" fill="#E2209E"/>
<path d="M114.503 270.073C114.887 270.073 115.234 270.163 115.545 270.343C115.859 270.519 116.107 270.784 116.291 271.136C116.474 271.489 116.566 271.916 116.566 272.416C116.566 272.928 116.462 273.381 116.253 273.776C116.045 274.171 115.758 274.477 115.391 274.696C115.028 274.915 114.616 275.024 114.154 275.024C113.279 275.024 112.637 274.708 112.228 274.077C111.819 273.446 111.615 272.582 111.615 271.485C111.615 270.674 111.729 269.964 111.958 269.354C112.191 268.744 112.524 268.271 112.958 267.936C113.392 267.601 113.907 267.434 114.503 267.434C115.06 267.434 115.561 267.582 116.005 267.878L115.545 268.64C115.227 268.435 114.882 268.333 114.508 268.333C114.177 268.333 113.887 268.437 113.641 268.645C113.397 268.853 113.205 269.153 113.064 269.544C112.926 269.936 112.849 270.397 112.831 270.93C113.265 270.359 113.822 270.073 114.503 270.073ZM114.159 274.125C114.554 274.125 114.854 273.977 115.058 273.68C115.263 273.384 115.365 272.98 115.365 272.469C115.365 271.933 115.268 271.549 115.074 271.316C114.884 271.08 114.61 270.962 114.254 270.962C113.972 270.962 113.709 271.037 113.466 271.189C113.223 271.341 113.013 271.549 112.837 271.813C112.847 272.349 112.898 272.787 112.99 273.125C113.082 273.46 113.223 273.71 113.413 273.876C113.603 274.042 113.852 274.125 114.159 274.125Z" fill="#E2209E"/>
<path d="M145.622 114.346H144.744L144.447 116.594H145.23V117.44H144.331L144.114 119.133H143.12L143.342 117.44H142.004L141.782 119.133H140.787L141.009 117.44H140.253V116.594H141.12L141.427 114.346H140.644V113.494H141.538L141.755 111.833H142.755L142.522 113.494H143.866L144.088 111.833H145.082L144.855 113.494H145.622V114.346ZM142.411 114.346L142.115 116.594H143.453L143.755 114.346H142.411Z" fill="#E2209E"/>
<path d="M149.899 111.685C150.439 111.685 150.894 111.833 151.264 112.129C151.634 112.422 151.913 112.852 152.1 113.42C152.29 113.984 152.385 114.668 152.385 115.472C152.385 116.28 152.29 116.967 152.1 117.535C151.913 118.103 151.634 118.535 151.264 118.831C150.894 119.127 150.439 119.275 149.899 119.275C149.085 119.275 148.466 118.947 148.043 118.292C147.623 117.636 147.413 116.696 147.413 115.472C147.413 114.256 147.623 113.321 148.043 112.669C148.466 112.013 149.085 111.685 149.899 111.685ZM149.899 112.59C149.469 112.59 149.143 112.821 148.921 113.282C148.702 113.741 148.593 114.471 148.593 115.472C148.593 116.22 148.637 116.803 148.725 117.223L150.793 113.018C150.691 112.866 150.568 112.757 150.423 112.69C150.278 112.623 150.104 112.59 149.899 112.59ZM149.899 118.371C150.333 118.371 150.659 118.142 150.878 117.683C151.097 117.225 151.206 116.488 151.206 115.472C151.206 114.781 151.169 114.243 151.095 113.859L149.058 118.017C149.161 118.14 149.281 118.23 149.418 118.286C149.556 118.343 149.716 118.371 149.899 118.371Z" fill="#E2209E"/>
<path d="M157.837 111.833V118.202H159.297V119.133H154.88V118.202H156.663V113.05L155.055 114.039L154.547 113.208L156.79 111.833H157.837Z" fill="#E2209E"/>
<path d="M165.617 119.133L165.109 117.377H162.501L161.993 119.133H160.745L163.067 111.833H164.59L166.918 119.133H165.617ZM163.808 112.785L162.755 116.43H164.85L163.808 112.785Z" fill="#E2209E"/>
<path d="M173.073 112.685L170.19 119.26L169.074 118.916L171.872 112.764H168.53V111.833H173.073V112.685Z" fill="#E2209E"/>
<path d="M180.038 113.573C180.038 113.915 179.937 114.215 179.736 114.473C179.539 114.727 179.234 114.968 178.821 115.197C179.308 115.412 179.68 115.687 179.937 116.022C180.198 116.354 180.329 116.735 180.329 117.165C180.329 117.56 180.225 117.918 180.017 118.239C179.812 118.556 179.512 118.808 179.117 118.995C178.726 119.182 178.264 119.275 177.732 119.275C177.199 119.275 176.741 119.184 176.356 119C175.976 118.813 175.685 118.563 175.484 118.249C175.286 117.932 175.187 117.579 175.187 117.191C175.187 116.772 175.311 116.407 175.558 116.096C175.805 115.783 176.154 115.523 176.605 115.319C176.21 115.111 175.923 114.878 175.743 114.621C175.566 114.363 175.478 114.035 175.478 113.637C175.478 113.224 175.586 112.872 175.801 112.579C176.02 112.283 176.303 112.061 176.653 111.913C177.002 111.761 177.372 111.685 177.763 111.685C178.172 111.685 178.55 111.757 178.895 111.902C179.241 112.047 179.518 112.262 179.726 112.547C179.934 112.829 180.038 113.171 180.038 113.573ZM176.626 113.642C176.626 113.875 176.677 114.065 176.78 114.213C176.885 114.362 177.033 114.485 177.224 114.584C177.418 114.682 177.684 114.788 178.023 114.901C178.333 114.711 178.555 114.52 178.689 114.33C178.823 114.139 178.89 113.907 178.89 113.632C178.89 113.3 178.791 113.037 178.594 112.843C178.396 112.646 178.12 112.547 177.763 112.547C177.404 112.547 177.123 112.642 176.922 112.833C176.725 113.023 176.626 113.293 176.626 113.642ZM179.117 117.17C179.117 116.888 179.05 116.659 178.916 116.483C178.786 116.306 178.604 116.162 178.372 116.049C178.142 115.932 177.809 115.799 177.372 115.647C176.723 115.982 176.399 116.484 176.399 117.154C176.399 117.535 176.513 117.835 176.743 118.054C176.975 118.269 177.31 118.376 177.748 118.376C178.04 118.376 178.289 118.323 178.493 118.218C178.701 118.112 178.857 117.969 178.959 117.789C179.065 117.606 179.117 117.399 179.117 117.17Z" fill="#E2209E"/>
<path d="M185.696 111.833V118.202H187.156V119.133H182.739V118.202H184.522V113.05L182.914 114.039L182.406 113.208L184.649 111.833H185.696Z" fill="#E2209E"/>
<path d="M144.075 270.094H143.197L142.9 272.342H143.683V273.189H142.784L142.567 274.881H141.573L141.795 273.189H140.457L140.234 274.881H139.24L139.462 273.189H138.706V272.342H139.573L139.88 270.094H139.097V269.243H139.991L140.208 267.582H141.208L140.975 269.243H142.319L142.541 267.582H143.535L143.308 269.243H144.075V270.094ZM140.864 270.094L140.568 272.342H141.906L142.207 270.094H140.864Z" fill="#E2209E"/>
<path d="M150.632 269.322C150.632 269.664 150.532 269.964 150.331 270.221C150.133 270.475 149.828 270.717 149.415 270.946C149.902 271.161 150.274 271.436 150.532 271.771C150.792 272.102 150.923 272.483 150.923 272.913C150.923 273.308 150.819 273.666 150.611 273.987C150.406 274.305 150.107 274.557 149.712 274.744C149.32 274.931 148.858 275.024 148.326 275.024C147.793 275.024 147.335 274.932 146.951 274.749C146.57 274.562 146.279 274.312 146.078 273.998C145.88 273.68 145.782 273.328 145.782 272.94C145.782 272.52 145.905 272.155 146.152 271.845C146.399 271.531 146.748 271.272 147.199 271.067C146.804 270.859 146.517 270.627 146.337 270.369C146.161 270.112 146.072 269.784 146.072 269.385C146.072 268.973 146.18 268.62 146.395 268.328C146.614 268.031 146.898 267.809 147.247 267.661C147.596 267.509 147.966 267.434 148.358 267.434C148.767 267.434 149.144 267.506 149.489 267.65C149.835 267.795 150.112 268.01 150.32 268.296C150.528 268.578 150.632 268.92 150.632 269.322ZM147.22 269.391C147.22 269.623 147.271 269.814 147.374 269.962C147.479 270.11 147.628 270.233 147.818 270.332C148.012 270.431 148.278 270.537 148.617 270.65C148.927 270.459 149.149 270.269 149.283 270.078C149.417 269.888 149.484 269.655 149.484 269.38C149.484 269.049 149.385 268.786 149.188 268.592C148.991 268.395 148.714 268.296 148.358 268.296C147.998 268.296 147.718 268.391 147.517 268.581C147.319 268.772 147.22 269.042 147.22 269.391ZM149.712 272.919C149.712 272.637 149.645 272.407 149.511 272.231C149.38 272.055 149.199 271.91 148.966 271.797C148.737 271.681 148.403 271.547 147.966 271.395C147.317 271.73 146.993 272.233 146.993 272.903C146.993 273.284 147.107 273.583 147.337 273.802C147.569 274.017 147.904 274.125 148.342 274.125C148.634 274.125 148.883 274.072 149.087 273.966C149.296 273.86 149.451 273.717 149.553 273.538C149.659 273.354 149.712 273.148 149.712 272.919Z" fill="#E2209E"/>
<path d="M156.967 272.279H157.835V273.199H156.967V274.881H155.83L155.825 273.199H152.794V272.374L154.894 267.434L155.893 267.83L154.032 272.279H155.83L155.973 270.327H156.967V272.279Z" fill="#E2209E"/>
<path d="M164.561 269.322C164.561 269.664 164.461 269.964 164.26 270.221C164.062 270.475 163.757 270.717 163.345 270.946C163.831 271.161 164.203 271.436 164.461 271.771C164.722 272.102 164.852 272.483 164.852 272.913C164.852 273.308 164.748 273.666 164.54 273.987C164.336 274.305 164.036 274.557 163.641 274.744C163.25 274.931 162.788 275.024 162.255 275.024C161.723 275.024 161.264 274.932 160.88 274.749C160.499 274.562 160.208 274.312 160.007 273.998C159.81 273.68 159.711 273.328 159.711 272.94C159.711 272.52 159.834 272.155 160.081 271.845C160.328 271.531 160.677 271.272 161.129 271.067C160.734 270.859 160.446 270.627 160.266 270.369C160.09 270.112 160.002 269.784 160.002 269.385C160.002 268.973 160.109 268.62 160.325 268.328C160.543 268.031 160.827 267.809 161.176 267.661C161.525 267.509 161.895 267.434 162.287 267.434C162.696 267.434 163.073 267.506 163.419 267.65C163.764 267.795 164.041 268.01 164.249 268.296C164.457 268.578 164.561 268.92 164.561 269.322ZM161.15 269.391C161.15 269.623 161.201 269.814 161.303 269.962C161.409 270.11 161.557 270.233 161.747 270.332C161.941 270.431 162.208 270.537 162.546 270.65C162.856 270.459 163.079 270.269 163.213 270.078C163.347 269.888 163.414 269.655 163.414 269.38C163.414 269.049 163.315 268.786 163.117 268.592C162.92 268.395 162.643 268.296 162.287 268.296C161.927 268.296 161.647 268.391 161.446 268.581C161.248 268.772 161.15 269.042 161.15 269.391ZM163.641 272.919C163.641 272.637 163.574 272.407 163.44 272.231C163.31 272.055 163.128 271.91 162.895 271.797C162.666 271.681 162.333 271.547 161.895 271.395C161.247 271.73 160.922 272.233 160.922 272.903C160.922 273.284 161.037 273.583 161.266 273.802C161.499 274.017 161.834 274.125 162.271 274.125C162.564 274.125 162.812 274.072 163.017 273.966C163.225 273.86 163.38 273.717 163.482 273.538C163.588 273.354 163.641 273.148 163.641 272.919Z" fill="#E2209E"/>
<path d="M170.897 272.279H171.764V273.199H170.897V274.881H169.759L169.754 273.199H166.723V272.374L168.823 267.434L169.823 267.83L167.961 272.279H169.759L169.902 270.327H170.897V272.279Z" fill="#E2209E"/>
<path d="M178.491 269.322C178.491 269.664 178.39 269.964 178.189 270.221C177.992 270.475 177.687 270.717 177.274 270.946C177.761 271.161 178.133 271.436 178.39 271.771C178.651 272.102 178.782 272.483 178.782 272.913C178.782 273.308 178.678 273.666 178.47 273.987C178.265 274.305 177.965 274.557 177.57 274.744C177.179 274.931 176.717 275.024 176.185 275.024C175.652 275.024 175.194 274.932 174.809 274.749C174.428 274.562 174.137 274.312 173.936 273.998C173.739 273.68 173.64 273.328 173.64 272.94C173.64 272.52 173.764 272.155 174.011 271.845C174.257 271.531 174.606 271.272 175.058 271.067C174.663 270.859 174.376 270.627 174.196 270.369C174.019 270.112 173.931 269.784 173.931 269.385C173.931 268.973 174.039 268.62 174.254 268.328C174.472 268.031 174.756 267.809 175.105 267.661C175.455 267.509 175.825 267.434 176.216 267.434C176.625 267.434 177.003 267.506 177.348 267.65C177.694 267.795 177.971 268.01 178.179 268.296C178.387 268.578 178.491 268.92 178.491 269.322ZM175.079 269.391C175.079 269.623 175.13 269.814 175.232 269.962C175.338 270.11 175.486 270.233 175.677 270.332C175.871 270.431 176.137 270.537 176.475 270.65C176.786 270.459 177.008 270.269 177.142 270.078C177.276 269.888 177.343 269.655 177.343 269.38C177.343 269.049 177.244 268.786 177.047 268.592C176.849 268.395 176.572 268.296 176.216 268.296C175.857 268.296 175.576 268.391 175.375 268.581C175.178 268.772 175.079 269.042 175.079 269.391ZM177.57 272.919C177.57 272.637 177.503 272.407 177.369 272.231C177.239 272.055 177.057 271.91 176.825 271.797C176.595 271.681 176.262 271.547 175.825 271.395C175.176 271.73 174.852 272.233 174.852 272.903C174.852 273.284 174.966 273.583 175.195 273.802C175.428 274.017 175.763 274.125 176.2 274.125C176.493 274.125 176.742 274.072 176.946 273.966C177.154 273.86 177.309 273.717 177.412 273.538C177.517 273.354 177.57 273.148 177.57 272.919Z" fill="#E2209E"/>
<path d="M184.826 272.279H185.693V273.199H184.826V274.881H183.689L183.683 273.199H180.653V272.374L182.752 267.434L183.752 267.83L181.89 272.279H183.689L183.832 270.327H184.826V272.279Z" fill="#E2209E"/>
<path d="M214.728 114.346H213.85L213.554 116.594H214.337V117.44H213.438L213.221 119.133H212.227L212.449 117.44H211.11L210.888 119.133H209.894L210.116 117.44H209.36V116.594H210.227L210.534 114.346H209.751V113.494H210.645L210.862 111.833H211.862L211.629 113.494H212.972L213.195 111.833H214.189L213.962 113.494H214.728V114.346ZM211.518 114.346L211.222 116.594H212.56L212.861 114.346H211.518Z" fill="#E2209E"/>
<path d="M221.529 112.764H218.403V115.086H221.148V116.017H218.403V119.133H217.176V111.833H221.667L221.529 112.764Z" fill="#E2209E"/>
<path d="M227.621 116.53H228.489V117.451H227.621V119.133H226.484L226.479 117.451H223.448V116.625L225.548 111.685L226.547 112.082L224.685 116.53H226.484L226.627 114.578H227.621V116.53Z" fill="#E2209E"/>
<path d="M235.596 117.027C235.596 117.779 235.328 118.318 234.792 118.646C234.256 118.97 233.577 119.133 232.756 119.133H230.619V111.833H232.613C233.389 111.833 234.027 111.976 234.528 112.262C235.028 112.547 235.279 113.02 235.279 113.679C235.279 114.109 235.15 114.459 234.893 114.727C234.639 114.995 234.318 115.174 233.93 115.266C234.406 115.347 234.803 115.523 235.12 115.795C235.437 116.066 235.596 116.477 235.596 117.027ZM234.036 113.78C234.036 113.424 233.925 113.164 233.702 113.002C233.48 112.836 233.154 112.754 232.724 112.754H231.846V114.864H232.798C233.211 114.864 233.519 114.778 233.724 114.605C233.932 114.429 234.036 114.153 234.036 113.78ZM234.316 117.022C234.316 116.564 234.189 116.241 233.935 116.054C233.681 115.867 233.332 115.774 232.888 115.774H231.846V118.181H232.835C233.822 118.181 234.316 117.794 234.316 117.022Z" fill="#E2209E"/>
<path d="M241.688 119.133L241.18 117.377H238.572L238.065 119.133H236.816L239.138 111.833H240.662L242.989 119.133H241.688ZM239.879 112.785L238.826 116.43H240.921L239.879 112.785Z" fill="#E2209E"/>
<path d="M249.145 112.685L246.262 119.26L245.146 118.916L247.944 112.764H244.601V111.833H249.145V112.685Z" fill="#E2209E"/>
<path d="M253.83 111.685C254.369 111.685 254.824 111.833 255.194 112.129C255.564 112.422 255.843 112.852 256.03 113.42C256.22 113.984 256.316 114.668 256.316 115.472C256.316 116.28 256.22 116.967 256.03 117.535C255.843 118.103 255.564 118.535 255.194 118.831C254.824 119.127 254.369 119.275 253.83 119.275C253.015 119.275 252.396 118.947 251.973 118.292C251.553 117.636 251.343 116.696 251.343 115.472C251.343 114.256 251.553 113.321 251.973 112.669C252.396 112.013 253.015 111.685 253.83 111.685ZM253.83 112.59C253.399 112.59 253.073 112.821 252.851 113.282C252.632 113.741 252.523 114.471 252.523 115.472C252.523 116.22 252.567 116.803 252.655 117.223L254.723 113.018C254.621 112.866 254.498 112.757 254.353 112.69C254.209 112.623 254.034 112.59 253.83 112.59ZM253.83 118.371C254.263 118.371 254.589 118.142 254.808 117.683C255.027 117.225 255.136 116.488 255.136 115.472C255.136 114.781 255.099 114.243 255.025 113.859L252.988 118.017C253.091 118.14 253.211 118.23 253.348 118.286C253.486 118.343 253.646 118.371 253.83 118.371Z" fill="#E2209E"/>
<path d="M213.181 270.094H212.303L212.007 272.342H212.79V273.188H211.891L211.674 274.881H210.68L210.902 273.188H209.563L209.341 274.881H208.347L208.569 273.188H207.813V272.342H208.68L208.987 270.094H208.204V269.242H209.098L209.315 267.582H210.315L210.082 269.242H211.425L211.647 267.582H212.642L212.414 269.242H213.181V270.094ZM209.971 270.094L209.675 272.342H211.013L211.314 270.094H209.971Z" fill="#E2209E"/>
<path d="M220.12 272.776C220.12 273.527 219.852 274.066 219.316 274.394C218.78 274.719 218.101 274.881 217.279 274.881H215.142V267.582H217.136C217.912 267.582 218.55 267.724 219.051 268.01C219.552 268.296 219.802 268.768 219.802 269.428C219.802 269.858 219.674 270.207 219.416 270.475C219.162 270.743 218.841 270.923 218.453 271.014C218.93 271.096 219.326 271.272 219.644 271.543C219.961 271.815 220.12 272.226 220.12 272.776ZM218.559 269.528C218.559 269.172 218.448 268.913 218.226 268.751C218.004 268.585 217.678 268.502 217.247 268.502H216.369V270.612H217.322C217.734 270.612 218.043 270.526 218.247 270.353C218.455 270.177 218.559 269.902 218.559 269.528ZM218.84 272.771C218.84 272.312 218.713 271.989 218.459 271.803C218.205 271.616 217.856 271.522 217.411 271.522H216.369V273.929H217.359C218.346 273.929 218.84 273.543 218.84 272.771Z" fill="#E2209E"/>
<path d="M226.947 268.512H223.821V270.835H226.566V271.766H223.821V274.881H222.594V267.582H227.084L226.947 268.512Z" fill="#E2209E"/>
<path d="M234.049 272.776C234.049 273.527 233.781 274.066 233.245 274.394C232.709 274.719 232.03 274.881 231.209 274.881H229.072V267.582H231.066C231.842 267.582 232.48 267.724 232.981 268.01C233.481 268.296 233.732 268.768 233.732 269.428C233.732 269.858 233.603 270.207 233.346 270.475C233.092 270.743 232.771 270.923 232.383 271.014C232.859 271.096 233.256 271.272 233.573 271.543C233.89 271.815 234.049 272.226 234.049 272.776ZM232.489 269.528C232.489 269.172 232.378 268.913 232.155 268.751C231.933 268.585 231.607 268.502 231.177 268.502H230.299V270.612H231.251C231.663 270.612 231.972 270.526 232.177 270.353C232.385 270.177 232.489 269.902 232.489 269.528ZM232.769 272.771C232.769 272.312 232.642 271.989 232.388 271.803C232.134 271.616 231.785 271.522 231.341 271.522H230.299V273.929H231.288C232.275 273.929 232.769 273.543 232.769 272.771Z" fill="#E2209E"/>
<path d="M240.876 268.512H237.75V270.835H240.495V271.766H237.75V274.881H236.523V267.582H241.014L240.876 268.512Z" fill="#E2209E"/>
<path d="M247.978 272.776C247.978 273.527 247.71 274.066 247.174 274.394C246.638 274.719 245.96 274.881 245.138 274.881H243.001V267.582H244.995C245.771 267.582 246.409 267.724 246.91 268.01C247.411 268.296 247.661 268.768 247.661 269.428C247.661 269.858 247.532 270.207 247.275 270.475C247.021 270.743 246.7 270.923 246.312 271.014C246.788 271.096 247.185 271.272 247.502 271.543C247.82 271.815 247.978 272.226 247.978 272.776ZM246.418 269.528C246.418 269.172 246.307 268.913 246.085 268.751C245.863 268.585 245.536 268.502 245.106 268.502H244.228V270.612H245.18C245.593 270.612 245.901 270.526 246.106 270.353C246.314 270.177 246.418 269.902 246.418 269.528ZM246.698 272.771C246.698 272.312 246.571 271.989 246.317 271.803C246.064 271.616 245.714 271.522 245.27 271.522H244.228V273.929H245.217C246.205 273.929 246.698 273.543 246.698 272.771Z" fill="#E2209E"/>
<path d="M254.806 268.512H251.679V270.835H254.425V271.766H251.679V274.881H250.452V267.582H254.943L254.806 268.512Z" fill="#E2209E"/>
<path d="M283.835 114.346H282.957L282.661 116.594H283.444V117.44H282.545L282.328 119.133H281.334L281.556 117.44H280.217L279.995 119.133H279.001L279.223 117.44H278.467V116.594H279.334L279.641 114.346H278.858V113.494H279.752L279.969 111.833H280.969L280.736 113.494H282.079L282.302 111.833H283.296L283.069 113.494H283.835V114.346ZM280.625 114.346L280.329 116.594H281.667L281.968 114.346H280.625Z" fill="#E2209E"/>
<path d="M290.874 115.446C290.874 116.821 290.553 117.78 289.912 118.323C289.27 118.863 288.46 119.133 287.484 119.133H285.696V111.833H287.362C288.032 111.833 288.623 111.932 289.134 112.129C289.649 112.323 290.067 112.687 290.388 113.219C290.712 113.751 290.874 114.494 290.874 115.446ZM289.584 115.446C289.584 114.719 289.49 114.161 289.303 113.769C289.12 113.374 288.884 113.11 288.594 112.976C288.309 112.842 287.976 112.775 287.595 112.775H286.923V118.202H287.6C288.922 118.202 289.584 117.283 289.584 115.446Z" fill="#E2209E"/>
<path d="M297.352 112.764H294.327V114.959H296.971V115.89H294.327V118.202H297.548V119.133H293.1V111.833H297.49L297.352 112.764Z" fill="#E2209E"/>
<path d="M302.476 114.325C302.861 114.325 303.208 114.414 303.518 114.594C303.832 114.771 304.081 115.035 304.264 115.388C304.447 115.74 304.539 116.167 304.539 116.668C304.539 117.179 304.435 117.632 304.227 118.027C304.019 118.422 303.732 118.729 303.365 118.947C303.002 119.166 302.589 119.275 302.127 119.275C301.253 119.275 300.611 118.96 300.202 118.329C299.793 117.697 299.588 116.833 299.588 115.737C299.588 114.926 299.703 114.215 299.932 113.605C300.165 112.995 300.498 112.523 300.932 112.188C301.365 111.853 301.88 111.685 302.476 111.685C303.033 111.685 303.534 111.833 303.978 112.129L303.518 112.891C303.201 112.687 302.855 112.584 302.481 112.584C302.15 112.584 301.861 112.688 301.614 112.896C301.371 113.104 301.179 113.404 301.037 113.796C300.9 114.187 300.822 114.649 300.805 115.181C301.238 114.61 301.796 114.325 302.476 114.325ZM302.132 118.376C302.527 118.376 302.827 118.228 303.032 117.932C303.236 117.636 303.338 117.232 303.338 116.721C303.338 116.185 303.241 115.8 303.047 115.568C302.857 115.331 302.584 115.213 302.228 115.213C301.945 115.213 301.683 115.289 301.439 115.441C301.196 115.592 300.986 115.8 300.81 116.065C300.821 116.601 300.872 117.038 300.963 117.377C301.055 117.712 301.196 117.962 301.387 118.128C301.577 118.293 301.826 118.376 302.132 118.376Z" fill="#E2209E"/>
<path d="M311.287 113.573C311.287 113.915 311.186 114.215 310.985 114.473C310.788 114.727 310.483 114.968 310.07 115.197C310.557 115.412 310.929 115.687 311.186 116.022C311.447 116.354 311.578 116.735 311.578 117.165C311.578 117.56 311.474 117.918 311.266 118.239C311.061 118.556 310.761 118.808 310.367 118.995C309.975 119.182 309.513 119.275 308.981 119.275C308.448 119.275 307.99 119.184 307.605 119C307.225 118.813 306.934 118.563 306.733 118.249C306.535 117.932 306.436 117.579 306.436 117.191C306.436 116.772 306.56 116.407 306.807 116.096C307.054 115.783 307.403 115.523 307.854 115.319C307.459 115.111 307.172 114.878 306.992 114.621C306.816 114.363 306.727 114.035 306.727 113.637C306.727 113.224 306.835 112.872 307.05 112.579C307.269 112.283 307.553 112.061 307.902 111.913C308.251 111.761 308.621 111.685 309.012 111.685C309.421 111.685 309.799 111.757 310.144 111.902C310.49 112.047 310.767 112.262 310.975 112.547C311.183 112.829 311.287 113.171 311.287 113.573ZM307.875 113.642C307.875 113.875 307.926 114.065 308.029 114.213C308.134 114.362 308.282 114.485 308.473 114.584C308.667 114.682 308.933 114.788 309.272 114.901C309.582 114.711 309.804 114.52 309.938 114.33C310.072 114.139 310.139 113.907 310.139 113.632C310.139 113.3 310.04 113.037 309.843 112.843C309.645 112.646 309.369 112.547 309.012 112.547C308.653 112.547 308.372 112.642 308.171 112.833C307.974 113.023 307.875 113.293 307.875 113.642ZM310.367 117.17C310.367 116.888 310.3 116.659 310.166 116.483C310.035 116.306 309.853 116.162 309.621 116.049C309.392 115.932 309.058 115.799 308.621 115.647C307.972 115.982 307.648 116.484 307.648 117.154C307.648 117.535 307.762 117.835 307.992 118.054C308.224 118.269 308.559 118.376 308.997 118.376C309.289 118.376 309.538 118.323 309.742 118.218C309.95 118.112 310.106 117.969 310.208 117.789C310.314 117.606 310.367 117.399 310.367 117.17Z" fill="#E2209E"/>
<path d="M318.061 111.833L317.908 112.722H315.104V114.753C315.302 114.651 315.498 114.578 315.691 114.536C315.885 114.49 316.088 114.467 316.3 114.467C316.691 114.467 317.039 114.561 317.342 114.748C317.649 114.931 317.887 115.197 318.056 115.546C318.229 115.895 318.315 116.31 318.315 116.789C318.315 117.276 318.206 117.708 317.987 118.085C317.772 118.459 317.465 118.752 317.067 118.963C316.672 119.171 316.215 119.275 315.697 119.275C314.805 119.275 314.059 118.956 313.459 118.318L314.168 117.652C314.577 118.106 315.071 118.334 315.649 118.334C316.097 118.334 316.448 118.198 316.702 117.927C316.956 117.655 317.083 117.274 317.083 116.784C317.083 116.276 316.975 115.91 316.76 115.684C316.548 115.455 316.259 115.34 315.892 115.34C315.713 115.34 315.543 115.359 315.385 115.398C315.226 115.437 315.046 115.499 314.845 115.583H313.972V111.833H318.061Z" fill="#E2209E"/>
<path d="M325.026 111.833L324.872 112.722H322.069V114.753C322.267 114.651 322.462 114.578 322.656 114.536C322.85 114.49 323.053 114.467 323.264 114.467C323.656 114.467 324.003 114.561 324.306 114.748C324.613 114.931 324.851 115.197 325.021 115.546C325.193 115.895 325.28 116.31 325.28 116.789C325.28 117.276 325.17 117.708 324.952 118.085C324.737 118.459 324.43 118.752 324.031 118.963C323.636 119.171 323.18 119.275 322.661 119.275C321.769 119.275 321.023 118.956 320.424 118.318L321.133 117.652C321.542 118.106 322.036 118.334 322.614 118.334C323.062 118.334 323.413 118.198 323.666 117.927C323.92 117.655 324.047 117.274 324.047 116.784C324.047 116.276 323.94 115.91 323.725 115.684C323.513 115.455 323.224 115.34 322.857 115.34C322.677 115.34 322.508 115.359 322.349 115.398C322.191 115.437 322.011 115.499 321.81 115.583H320.937V111.833H325.026Z" fill="#E2209E"/>
<path d="M282.288 270.094H281.41L281.114 272.342H281.897V273.188H280.998L280.781 274.881H279.786L280.008 273.188H278.67L278.448 274.881H277.454L277.676 273.188H276.919V272.342H277.787L278.094 270.094H277.311V269.242H278.205L278.422 267.582H279.421L279.189 269.242H280.532L280.754 267.582H281.749L281.521 269.242H282.288V270.094ZM279.078 270.094L278.781 272.342H280.12L280.421 270.094H279.078Z" fill="#E2209E"/>
<path d="M289.089 268.512H285.963V270.835H288.708V271.766H285.963V274.881H284.736V267.582H289.226L289.089 268.512Z" fill="#E2209E"/>
<path d="M296.054 268.512H292.928V270.835H295.673V271.766H292.928V274.881H291.7V267.582H296.191L296.054 268.512Z" fill="#E2209E"/>
<path d="M303.018 268.512H299.892V270.835H302.637V271.766H299.892V274.881H298.665V267.582H303.156L303.018 268.512Z" fill="#E2209E"/>
<path d="M309.983 268.512H306.857V270.835H309.602V271.766H306.857V274.881H305.63V267.582H310.121L309.983 268.512Z" fill="#E2209E"/>
<path d="M316.948 268.512H313.822V270.835H316.567V271.766H313.822V274.881H312.594V267.582H317.085L316.948 268.512Z" fill="#E2209E"/>
<path d="M323.912 268.512H320.786V270.835H323.531V271.766H320.786V274.881H319.559V267.582H324.05L323.912 268.512Z" fill="#E2209E"/>
<path d="M1.96267 87.5768C1.96267 87.5768 10.6195 86.5082 12.5668 85.5794C14.8116 84.5086 29.4183 88.5092 31.6731 87.513C34.3008 86.3521 40.4619 87.4061 43.0553 86.0774C44.5982 85.2868 53.2115 84.2672 53.2115 84.2672C53.2115 84.2672 53.5578 55.9288 53.5578 53.1199C53.5578 50.6648 53.7319 53.9805 53.5578 50.4983C53.3916 47.1736 53.2115 49.5523 53.2115 46.0665C53.2115 42.7513 52.5306 38.1162 53.2115 33.0832C53.5578 30.524 52.8124 28.712 52.796 25.905C52.7777 22.7814 53.2415 21.0388 53.2115 17.9153C53.1862 15.2787 52.796 13.831 52.796 11.174C52.796 8.2976 53.1957 4.75554 52.796 1.8735C52.3804 -1.12263 53.2115 0.375438 53.2115 0.375438C48.1358 0.863749 46.9867 1.43656 42.2081 2.24802C37.4274 2.70795 33.9827 2.93695 29.4651 3.37158C25.7811 3.726 19.5559 0.969369 15.1293 1.37554C10.7026 1.78171 5.40268 2.76568 1.68565 3.12328L1.54712 7.92958L2.44744 14.2964L1.96267 22.1612L2.44744 28.9649L1.96267 36.5801C1.96267 36.5801 1.2701 41.8858 1.96267 45.4437C2.64502 48.9491 2.58595 50.0003 1.96267 54.5569C1.43981 58.3794 2.3782 78.7757 1.96267 82.396C1.68715 84.7964 1.96267 87.5768 1.96267 87.5768Z" fill="#5578AD"/>
<path fill-rule="evenodd" clip-rule="evenodd" d="M53.6351 85.0953L1.54709 1.54814L2.42236 1.00244L54.5104 84.5496L53.6351 85.0953Z" fill="black"/>
<path d="M70.5541 87.5763C70.5541 87.5763 79.211 86.5077 81.1582 85.5789C83.4031 84.5082 98.0097 88.5087 100.265 87.5125C102.892 86.3516 109.053 87.4057 111.647 86.0769C113.19 85.2863 121.803 84.2667 121.803 84.2667C121.803 84.2667 122.149 55.9283 122.149 53.1194C122.149 50.6643 122.323 53.9801 122.149 50.4978C121.983 47.1731 121.803 49.5518 121.803 46.066C121.803 42.7508 121.122 38.1157 121.803 33.0827C122.149 30.5236 121.404 28.7116 121.387 25.9045C121.369 22.781 121.833 21.0383 121.803 17.9148C121.778 15.2782 121.387 13.8305 121.387 11.1735C121.387 8.29711 121.787 4.75505 121.387 1.87301C120.972 -1.12312 121.803 0.374949 121.803 0.374949C116.727 0.863261 115.578 1.43608 110.799 2.24753C106.019 2.70746 102.574 2.93646 98.0565 3.37109C94.3725 3.72551 88.1473 0.968881 83.7207 1.37505C79.2941 1.78122 73.9941 2.76519 70.2771 3.1228L70.1386 7.92909L71.0389 14.2959L70.5541 22.1607L71.0389 28.9645L70.5541 36.5796C70.5541 36.5796 69.8615 41.8853 70.5541 45.4432C71.2365 48.9486 71.1774 49.9998 70.5541 54.5564C70.0312 58.3789 70.9696 78.7752 70.5541 82.3955C70.2786 84.7959 70.5541 87.5763 70.5541 87.5763Z" fill="#256F6B"/>
<path fill-rule="evenodd" clip-rule="evenodd" d="M122.742 85.6104L70.6543 2.06327L71.5295 1.51758L123.618 85.0647L122.742 85.6104Z" fill="black"/>
<path d="M139.145 87.5763C139.145 87.5763 147.802 86.5077 149.749 85.5789C151.994 84.5082 166.601 88.5087 168.856 87.5125C171.483 86.3516 177.644 87.4057 180.238 86.0769C181.781 85.2863 190.394 84.2667 190.394 84.2667C190.394 84.2667 190.74 55.9283 190.74 53.1194C190.74 50.6643 190.914 53.9801 190.74 50.4978C190.574 47.1731 190.394 49.5518 190.394 46.066C190.394 42.7508 189.713 38.1157 190.394 33.0827C190.74 30.5236 189.995 28.7116 189.978 25.9045C189.96 22.781 190.424 21.0383 190.394 17.9148C190.369 15.2782 189.978 13.8305 189.978 11.1735C189.978 8.29711 190.378 4.75505 189.978 1.87301C189.563 -1.12312 190.394 0.374949 190.394 0.374949C185.318 0.863261 184.169 1.43608 179.391 2.24753C174.61 2.70746 171.165 2.93646 166.648 3.37109C162.964 3.72551 156.738 0.968881 152.312 1.37505C147.885 1.78122 142.585 2.76519 138.868 3.1228L138.73 7.92909L139.63 14.2959L139.145 22.1607L139.63 28.9645L139.145 36.5796C139.145 36.5796 138.453 41.8853 139.145 45.4432C139.828 48.9486 139.768 49.9998 139.145 54.5564C138.622 58.3789 139.561 78.7752 139.145 82.3955C138.87 84.7959 139.145 87.5763 139.145 87.5763Z" fill="#01A781"/>
<path fill-rule="evenodd" clip-rule="evenodd" d="M188.239 85.0948L136.151 1.54765L137.026 1.00195L189.114 84.5491L188.239 85.0948Z" fill="black"/>
<path d="M207.736 87.5768C207.736 87.5768 216.393 86.5082 218.34 85.5794C220.585 84.5086 235.192 88.5092 237.447 87.513C240.074 86.3521 246.235 87.4061 248.829 86.0774C250.372 85.2868 258.985 84.2672 258.985 84.2672C258.985 84.2672 259.331 55.9288 259.331 53.1199C259.331 50.6648 259.505 53.9805 259.331 50.4983C259.165 47.1736 258.985 49.5523 258.985 46.0665C258.985 42.7513 258.304 38.1162 258.985 33.0832C259.331 30.524 258.586 28.712 258.569 25.905C258.551 22.7814 259.015 21.0388 258.985 17.9153C258.96 15.2787 258.569 13.831 258.569 11.174C258.569 8.2976 258.969 4.75554 258.569 1.8735C258.154 -1.12263 258.985 0.375438 258.985 0.375438C253.909 0.863749 252.76 1.43656 247.981 2.24802C243.201 2.70795 239.756 2.93695 235.238 3.37158C231.554 3.726 225.329 0.969369 220.903 1.37554C216.476 1.78171 211.176 2.76568 207.459 3.12328L207.321 7.92958L208.221 14.2964L207.736 22.1612L208.221 28.9649L207.736 36.5801C207.736 36.5801 207.043 41.8858 207.736 45.4437C208.418 48.9491 208.359 50.0003 207.736 54.5569C207.213 58.3794 208.152 78.7757 207.736 82.396C207.461 84.7964 207.736 87.5768 207.736 87.5768Z" fill="#F4BA70"/>
<path fill-rule="evenodd" clip-rule="evenodd" d="M259.409 85.6109L207.321 2.06376L208.196 1.51807L260.284 85.0652L259.409 85.6109Z" fill="black"/>
<path d="M276.327 87.5763C276.327 87.5763 284.984 86.5077 286.932 85.5789C289.176 84.5082 303.783 88.5087 306.038 87.5125C308.666 86.3516 314.827 87.4057 317.42 86.0769C318.963 85.2863 327.576 84.2667 327.576 84.2667C327.576 84.2667 327.923 55.9283 327.923 53.1194C327.923 50.6643 328.097 53.9801 327.923 50.4978C327.756 47.1731 327.576 49.5518 327.576 46.066C327.576 42.7508 326.895 38.1157 327.576 33.0827C327.923 30.5236 327.177 28.7116 327.161 25.9045C327.142 22.781 327.606 21.0383 327.576 17.9148C327.551 15.2782 327.161 13.8305 327.161 11.1735C327.161 8.29711 327.56 4.75505 327.161 1.87301C326.745 -1.12312 327.576 0.374949 327.576 0.374949C322.501 0.863261 321.351 1.43608 316.573 2.24753C311.792 2.70746 308.347 2.93646 303.83 3.37109C300.146 3.72551 293.921 0.968881 289.494 1.37505C285.067 1.78122 279.767 2.76519 276.05 3.1228L275.912 7.92909L276.812 14.2959L276.327 22.1607L276.812 28.9645L276.327 36.5796C276.327 36.5796 275.635 41.8853 276.327 45.4432C277.01 48.9486 276.951 49.9998 276.327 54.5564C275.805 58.3789 276.743 78.7752 276.327 82.3955C276.052 84.7959 276.327 87.5763 276.327 87.5763Z" fill="#DE6855"/>
<path fill-rule="evenodd" clip-rule="evenodd" d="M328.516 87.6734L276.428 4.12626L277.303 3.58057L329.391 87.1277L328.516 87.6734Z" fill="black"/>
<path d="M69.0066 243.325C69.0066 243.325 77.6635 242.257 79.6108 241.328C81.8556 240.257 96.4622 244.258 98.7171 243.262C101.345 242.101 107.506 243.155 110.099 241.826C111.642 241.035 120.255 240.016 120.255 240.016C120.255 240.016 120.602 211.677 120.602 208.868C120.602 206.413 120.776 209.729 120.602 206.247C120.436 202.922 120.255 205.301 120.255 201.815C120.255 198.5 119.575 193.865 120.255 188.832C120.602 186.273 119.856 184.461 119.84 181.654C119.822 178.53 120.285 176.787 120.255 173.664C120.23 171.027 119.84 169.58 119.84 166.923C119.84 164.046 120.24 160.504 119.84 157.622C119.424 154.626 120.255 156.124 120.255 156.124C115.18 156.612 114.031 157.185 109.252 157.997C104.471 158.456 101.027 158.685 96.509 159.12C92.825 159.475 86.5998 156.718 82.1732 157.124C77.7466 157.53 72.4466 158.514 68.7296 158.872L68.5911 163.678L69.4914 170.045L69.0066 177.91L69.4914 184.713L69.0066 192.329C69.0066 192.329 68.314 197.634 69.0066 201.192C69.689 204.698 69.6299 205.749 69.0066 210.305C68.4838 214.128 69.4221 234.524 69.0066 238.145C68.7311 240.545 69.0066 243.325 69.0066 243.325Z" fill="#464646"/>
<path fill-rule="evenodd" clip-rule="evenodd" d="M120.679 241.359L68.5912 157.812L69.4664 157.267L121.554 240.814L120.679 241.359Z" fill="black"/>
<path d="M137.598 243.324C137.598 243.324 146.255 242.256 148.202 241.327C150.447 240.256 165.054 244.257 167.308 243.261C169.936 242.1 176.097 243.154 178.691 241.825C180.233 241.034 188.847 240.015 188.847 240.015C188.847 240.015 189.193 211.676 189.193 208.867C189.193 206.412 189.367 209.728 189.193 206.246C189.027 202.921 188.847 205.3 188.847 201.814C188.847 198.499 188.166 193.864 188.847 188.831C189.193 186.272 188.448 184.46 188.431 181.653C188.413 178.529 188.877 176.786 188.847 173.663C188.821 171.026 188.431 169.579 188.431 166.922C188.431 164.045 188.831 160.503 188.431 157.621C188.016 154.625 188.847 156.123 188.847 156.123C183.771 156.611 182.622 157.184 177.843 157.996C173.063 158.456 169.618 158.685 165.1 159.119C161.416 159.474 155.191 156.717 150.765 157.123C146.338 157.529 141.038 158.513 137.321 158.871L137.182 163.677L138.083 170.044L137.598 177.909L138.083 184.712L137.598 192.328C137.598 192.328 136.905 197.633 137.598 201.191C138.28 204.697 138.221 205.748 137.598 210.304C137.075 214.127 138.013 234.523 137.598 238.144C137.322 240.544 137.598 243.324 137.598 243.324Z" fill="#848484"/>
<path fill-rule="evenodd" clip-rule="evenodd" d="M188.755 242.39L136.667 158.843L137.542 158.297L189.63 241.844L188.755 242.39Z" fill="black"/>
<path d="M206.189 243.324C206.189 243.324 214.846 242.256 216.793 241.327C219.038 240.256 233.645 244.257 235.9 243.261C238.527 242.1 244.688 243.154 247.282 241.825C248.825 241.034 257.438 240.015 257.438 240.015C257.438 240.015 257.784 211.676 257.784 208.867C257.784 206.412 257.958 209.728 257.784 206.246C257.618 202.921 257.438 205.3 257.438 201.814C257.438 198.499 256.757 193.864 257.438 188.831C257.784 186.272 257.039 184.46 257.022 181.653C257.004 178.529 257.468 176.786 257.438 173.663C257.413 171.026 257.022 169.579 257.022 166.922C257.022 164.045 257.422 160.503 257.022 157.621C256.607 154.625 257.438 156.123 257.438 156.123C252.362 156.611 251.213 157.184 246.434 157.996C241.654 158.456 238.209 158.685 233.692 159.119C230.008 159.474 223.782 156.717 219.356 157.123C214.929 157.529 209.629 158.513 205.912 158.871L205.774 163.677L206.674 170.044L206.189 177.909L206.674 184.712L206.189 192.328C206.189 192.328 205.497 197.633 206.189 201.191C206.871 204.697 206.812 205.748 206.189 210.304C205.666 214.127 206.605 234.523 206.189 238.144C205.914 240.544 206.189 243.324 206.189 243.324Z" fill="#BFBFBF"/>
<path fill-rule="evenodd" clip-rule="evenodd" d="M258.893 243.421L206.805 159.874L207.68 159.329L259.768 242.876L258.893 243.421Z" fill="black"/>
<path d="M274.78 243.324C274.78 243.324 283.437 242.256 285.384 241.327C287.629 240.256 302.236 244.257 304.491 243.261C307.118 242.1 313.279 243.154 315.873 241.825C317.416 241.034 326.029 240.015 326.029 240.015C326.029 240.015 326.375 211.676 326.375 208.867C326.375 206.412 326.549 209.728 326.375 206.246C326.209 202.921 326.029 205.3 326.029 201.814C326.029 198.499 325.348 193.864 326.029 188.831C326.375 186.272 325.63 184.46 325.613 181.653C325.595 178.529 326.059 176.786 326.029 173.663C326.004 171.026 325.613 169.579 325.613 166.922C325.613 164.045 326.013 160.503 325.613 157.621C325.198 154.625 326.029 156.123 326.029 156.123C320.953 156.611 319.804 157.184 315.026 157.996C310.245 158.456 306.8 158.685 302.283 159.119C298.599 159.474 292.373 156.717 287.947 157.123C283.52 157.529 278.22 158.513 274.503 158.871L274.365 163.677L275.265 170.044L274.78 177.909L275.265 184.712L274.78 192.328C274.78 192.328 274.088 197.633 274.78 201.191C275.463 204.697 275.403 205.748 274.78 210.304C274.257 214.127 275.196 234.523 274.78 238.144C274.505 240.544 274.78 243.324 274.78 243.324Z" fill="white"/>
<path fill-rule="evenodd" clip-rule="evenodd" d="M326.968 241.358L274.88 157.811L275.756 157.266L327.844 240.813L326.968 241.358Z" fill="black"/>
<path d="M0.415548 243.324C0.415548 243.324 9.0724 242.256 11.0197 241.327C13.2645 240.256 27.8712 244.257 30.126 243.261C32.7537 242.1 38.9148 243.154 41.5082 241.825C43.0511 241.034 51.6644 240.015 51.6644 240.015C51.6644 240.015 52.0107 211.676 52.0107 208.867C52.0107 206.412 52.1847 209.728 52.0107 206.246C51.8445 202.921 51.6644 205.3 51.6644 201.814C51.6644 198.499 50.9834 193.864 51.6644 188.831C52.0107 186.272 51.2653 184.46 51.2489 181.653C51.2305 178.529 51.6944 176.786 51.6644 173.663C51.6391 171.026 51.2489 169.579 51.2489 166.922C51.2489 164.045 51.6486 160.503 51.2489 157.621C50.8333 154.625 51.6644 156.123 51.6644 156.123C46.5887 156.611 45.4395 157.184 40.6609 157.996C35.8802 158.456 32.4356 158.685 27.918 159.119C24.234 159.474 18.0088 156.717 13.5821 157.123C9.15552 157.529 3.85556 158.513 0.138532 158.871L4.43667e-06 163.677L0.900322 170.044L0.415552 177.909L0.900321 184.712L0.415551 192.328C0.415551 192.328 -0.277023 197.633 0.415551 201.191C1.0979 204.697 1.03883 205.748 0.41555 210.304C-0.107313 214.127 0.831076 234.523 0.415549 238.144C0.140035 240.544 0.415548 243.324 0.415548 243.324Z" fill="#222222"/>
<path fill-rule="evenodd" clip-rule="evenodd" d="M52.088 240.843L-2.69099e-05 157.296L0.875244 156.75L52.9633 240.297L52.088 240.843Z" fill="black"/>
</svg>
