<svg width="1504" height="956" viewBox="0 0 1504 956" fill="none" xmlns="http://www.w3.org/2000/svg">
<path d="M1503.29 948.373C1503.29 948.373 1484.96 789.489 1469.02 753.75C1450.66 712.549 1517.78 444.465 1500.69 403.081C1480.77 354.853 1498.85 241.775 1476.06 194.178C1462.5 165.86 1445.01 7.77502 1445.01 7.77502C1445.01 7.77502 958.889 1.41992 910.706 1.41991C868.59 1.41991 925.469 -1.77485 865.734 1.41991C808.702 4.47008 849.507 7.77502 789.711 7.77502C732.842 7.77502 653.332 20.2731 566.996 7.77501C523.095 1.41991 492.012 15.0995 443.86 15.4017C390.278 15.738 360.385 7.22429 306.804 7.77501C261.576 8.23985 236.742 15.4017 191.164 15.4017C141.822 15.4017 107.939 2.66362 58.5 9.99998C7.10414 17.6268 1.12452e-05 13 1.12452e-05 13C8.3766 106.158 24.1272 122.023 38.0469 209.728C45.9365 297.47 49.8648 360.691 57.3203 443.606C63.4002 511.221 17.6173 625.475 24.5848 706.72C31.5524 787.964 48.4315 885.237 54.5658 953.458L137.013 956L246.229 939.476L381.144 948.373L497.855 939.476L628.486 948.373C628.486 948.373 719.5 961.084 780.532 948.373C840.664 935.85 858.697 936.934 936.861 948.373C1002.43 957.97 1352.31 940.747 1414.41 948.373C1455.59 953.43 1503.29 948.373 1503.29 948.373Z" fill="#161616"/>
</svg>
