<svg width="173" height="173" viewBox="0 0 173 173" fill="none" xmlns="http://www.w3.org/2000/svg">
<path d="M158.02 123.5H15.02V53.9333C15.02 48.8153 19.4829 44.5 25.2 44.5H147.84C153.557 44.5 158.02 48.8153 158.02 53.9333V123.5Z" stroke="white" stroke-width="3"/>
<path d="M24.3281 137.859H148.672C154.643 137.859 159.484 133.018 159.484 127.047V124.344H13.5156V127.047C13.5156 133.018 18.3566 137.859 24.3281 137.859Z" fill="#5E1DBB"/>
<path d="M137.859 137.859H24.3281C18.3566 137.859 13.5156 133.018 13.5156 127.047V124.344H148.672V127.047C148.672 133.018 143.831 137.859 137.859 137.859Z" fill="#9364ED"/>
<path d="M70.2812 137.859H94.6094V148.672H70.2812V137.859Z" fill="#5E1DBB"/>
<path d="M70.2812 143.266H86.5V148.672H70.2812V143.266Z" fill="#9364ED"/>
<path d="M108.125 156.781H54.0625V154.078C54.0625 151.092 56.4828 148.672 59.4688 148.672H102.719C105.705 148.672 108.125 151.092 108.125 154.078V156.781Z" fill="#9364ED"/>
<path d="M108.125 156.781H91.9062V154.078C91.9062 151.092 94.3266 148.672 97.3125 148.672H102.719C105.705 148.672 108.125 151.092 108.125 154.078V156.781Z" fill="#5E1DBB"/>
<path d="M24.3281 36.7588H34.2395V121H24.3281V36.7588Z" fill="#E2209E"/>
<path d="M34 37H43V121H34V37Z" fill="#E2209E"/>
<path d="M43 37H53V121H43V37Z" fill="#E2209E"/>
<path d="M38.7449 36.7588V20.54H35.1406L24.3281 36.7588H38.7449Z" fill="#FAB991"/>
<path d="M38.7449 36.7588V20.54H42.3488L53.1613 36.7588H38.7449Z" fill="#F0915A"/>
<path d="M35.1406 20.5401L37.6201 16.8206C38.1549 16.0181 39.3342 16.0181 39.8691 16.8206L42.3485 20.5401H35.1406Z" fill="#353744"/>
<path d="M137.859 94.6094H136.986L126.854 69.2774C126.443 68.2509 125.449 67.5781 124.344 67.5781H118.938C117.445 67.5781 116.234 68.7884 116.234 70.2813C116.234 71.7741 117.445 72.9844 118.938 72.9844H120.351L111.701 94.6094H110.828C109.335 94.6094 108.125 95.8197 108.125 97.3125C108.125 98.8053 109.335 100.016 110.828 100.016H113.581H113.585H116.234C117.727 100.016 118.938 98.8053 118.938 97.3125C118.938 96.2434 118.315 95.3217 117.414 94.8834L118.614 91.8853C118.72 91.8978 118.828 91.9066 118.938 91.9066H129.75C129.86 91.9066 129.968 91.8981 130.074 91.8853L131.274 94.8834C130.372 95.3217 129.75 96.2434 129.75 97.3125C129.75 98.8053 130.96 100.016 132.453 100.016H135.148C135.152 100.016 135.154 100.016 135.157 100.016C135.162 100.016 135.167 100.016 135.171 100.016H137.859C139.352 100.016 140.562 98.8053 140.562 97.3125C140.562 95.8197 139.352 94.6094 137.859 94.6094ZM120.768 86.5L124.344 77.5598L127.92 86.5H120.768Z" fill="#00D2D2"/>
<path d="M150.023 102.896V64.6979C152.354 64.0972 154.078 61.9874 154.078 59.4688C154.078 56.4828 151.658 54.0625 148.672 54.0625C146.154 54.0625 144.044 55.7868 143.443 58.1172H105.245C104.644 55.7868 102.534 54.0625 100.016 54.0625C97.0297 54.0625 94.6094 56.4828 94.6094 59.4688C94.6094 61.987 96.3336 64.0968 98.6641 64.6979V102.896C96.3336 103.497 94.6094 105.607 94.6094 108.125C94.6094 111.111 97.0297 113.532 100.016 113.532C102.534 113.532 104.644 111.807 105.245 109.477H143.443C144.044 111.807 146.154 113.532 148.672 113.532C151.658 113.532 154.078 111.111 154.078 108.125C154.078 105.607 152.354 103.497 150.023 102.896ZM143.443 106.773H105.245C104.756 104.876 103.265 103.385 101.367 102.896V64.6979C103.265 64.2087 104.755 62.7182 105.245 60.8203H143.443C143.932 62.7179 145.423 64.2083 147.321 64.6979V102.896C145.423 103.385 143.932 104.876 143.443 106.773Z" fill="#00D2D2"/>
<path d="M83.5455 27H64.4545C61.4419 27 59 29.3379 59 32.2222V121H89V32.2222C89 29.3379 86.5581 27 83.5455 27Z" fill="#FFE500"/>
<path d="M86.5 43.25H89.2031V37.8438H86.5C85.0072 37.8438 83.7969 39.0541 83.7969 40.5469C83.7969 42.0397 85.0072 43.25 86.5 43.25Z" fill="black"/>
<path d="M86.5 64.875H89.2031V59.4688H86.5C85.0072 59.4688 83.7969 60.6791 83.7969 62.1719C83.7969 63.6647 85.0072 64.875 86.5 64.875Z" fill="black"/>
<path d="M86.5 86.5H89.2031V81.0938H86.5C85.0072 81.0938 83.7969 82.3041 83.7969 83.7969C83.7969 85.2897 85.0072 86.5 86.5 86.5Z" fill="black"/>
<path d="M86.5 108.125H89.2031V102.719H86.5C85.0072 102.719 83.7969 103.929 83.7969 105.422C83.7969 106.915 85.0072 108.125 86.5 108.125Z" fill="black"/>
</svg>
