<svg width="129" height="169" viewBox="0 0 129 169" fill="none" xmlns="http://www.w3.org/2000/svg">
<g clip-path="url(#clip0_673_332)">
<path d="M92.8828 33.1133C92.8828 17.4629 80.1504 4.73047 64.5 4.73047C48.8496 4.73047 36.1172 17.4629 36.1172 33.1133C36.1172 48.3106 48.1235 60.7537 63.1484 61.4616V76.3633H65.8516V61.4616C80.8765 60.7537 92.8828 48.3106 92.8828 33.1133ZM64.5 58.793C50.34 58.793 38.8203 47.2733 38.8203 33.1133C38.8203 18.9533 50.34 7.43359 64.5 7.43359C78.66 7.43359 90.1797 18.9533 90.1797 33.1133C90.1797 47.2733 78.66 58.793 64.5 58.793Z" fill="white"/>
<path d="M64.5 18.2461C56.3021 18.2461 49.6328 24.9154 49.6328 33.1133C49.6328 41.3112 56.3021 47.9805 64.5 47.9805C72.6979 47.9805 79.3672 41.3112 79.3672 33.1133C79.3672 24.9154 72.6979 18.2461 64.5 18.2461ZM64.5 45.2773C57.7925 45.2773 52.3359 39.8207 52.3359 33.1133C52.3359 26.4058 57.7925 20.9492 64.5 20.9492C71.2075 20.9492 76.6641 26.4058 76.6641 33.1133C76.6641 39.8207 71.2075 45.2773 64.5 45.2773Z" fill="white"/>
<path d="M123.553 168.5H5.74667C2.82015 168.5 0.5 166.273 0.5 163.588V82.4118C0.5 79.7268 2.82014 77.5 5.74667 77.5H123.553C126.48 77.5 128.8 79.7268 128.8 82.4118V163.588C128.8 166.273 126.48 168.5 123.553 168.5Z" stroke="white"/>
<path d="M129.375 87.1758H-0.375V81.7695C-0.375 78.7836 2.04531 76.3633 5.03125 76.3633H123.969C126.955 76.3633 129.375 78.7836 129.375 81.7695V87.1758Z" fill="#B3B3B3"/>
<path d="M121.266 87.1758H-0.375V81.7695C-0.375 78.7836 2.04531 76.3633 5.03125 76.3633H115.859C118.845 76.3633 121.266 78.7836 121.266 81.7695V87.1758Z" fill="white"/>
<path d="M10.4375 84.4727C11.9304 84.4727 13.1406 83.2624 13.1406 81.7695C13.1406 80.2766 11.9304 79.0664 10.4375 79.0664C8.94461 79.0664 7.73438 80.2766 7.73438 81.7695C7.73438 83.2624 8.94461 84.4727 10.4375 84.4727Z" fill="#07CBF5"/>
<path d="M21.25 84.4727C22.7429 84.4727 23.9531 83.2624 23.9531 81.7695C23.9531 80.2766 22.7429 79.0664 21.25 79.0664C19.7571 79.0664 18.5469 80.2766 18.5469 81.7695C18.5469 83.2624 19.7571 84.4727 21.25 84.4727Z" fill="#9364ED"/>
<path d="M32.0625 84.4727C33.5554 84.4727 34.7656 83.2624 34.7656 81.7695C34.7656 80.2766 33.5554 79.0664 32.0625 79.0664C30.5696 79.0664 29.3594 80.2766 29.3594 81.7695C29.3594 83.2624 30.5696 84.4727 32.0625 84.4727Z" fill="#E2209E"/>
<path d="M108.407 52.6917L96.9375 41.2227L100.647 37.513C104.266 33.8941 101.703 27.707 96.5854 27.707H68.4706C66.7169 27.707 64.9768 28.1473 63.4863 29.0711C60.7106 30.7916 59.0938 33.785 59.0938 36.9446V54.3862C59.0938 57.8489 61.9266 60.1384 64.8798 60.1384L64.8794 60.1418H75.6919L75.6923 60.1384C76.3508 60.1384 77.0141 60.0236 77.6544 59.783L84.2135 66.3421C85.4374 67.5663 87.0974 68.2539 88.8281 68.2539H99.6406C101.371 68.2539 103.031 67.5663 104.255 66.3425L108.542 62.056C110.1 60.4973 110.789 58.2314 110.295 56.0121C110.014 54.7464 109.323 53.6084 108.407 52.6917Z" fill="#D2B82F"/>
<path d="M97.7292 52.8268L86.125 41.2227L89.8347 37.513C93.4535 33.8941 90.8906 27.707 85.7729 27.707H68.3141C65.8688 27.707 63.5242 28.6795 61.7969 30.4102C60.0659 32.1442 59.0938 34.4946 59.0938 36.9446V54.3862C59.0938 59.5035 65.2809 62.0665 68.8997 58.448L72.6094 54.7383L84.2135 66.3425C85.4374 67.5663 87.0974 68.2539 88.8281 68.2539C90.5588 68.2539 92.2189 67.5663 93.4427 66.3425L97.7295 62.0556C98.953 60.8318 99.6406 59.1721 99.6406 57.4414C99.6406 55.7107 98.953 54.0507 97.7292 52.8268Z" fill="#FFE500"/>
<path d="M105.047 157.457H64.5C61.5141 157.457 59.0938 155.037 59.0938 152.051V103.395C59.0938 100.409 61.5141 97.9883 64.5 97.9883H105.047C108.033 97.9883 110.453 100.409 110.453 103.395V152.051C110.453 155.037 108.033 157.457 105.047 157.457Z" fill="#E2209E"/>
<path d="M26.6562 114.207H18.5469C15.5609 114.207 13.1406 111.787 13.1406 108.801C13.1406 105.815 15.5609 103.395 18.5469 103.395H26.6562C29.6422 103.395 32.0625 105.815 32.0625 108.801C32.0625 111.787 29.6422 114.207 26.6562 114.207Z" fill="#07CBF5"/>
<path d="M42.875 135.832H18.5469C15.5609 135.832 13.1406 133.412 13.1406 130.426C13.1406 127.44 15.5609 125.02 18.5469 125.02H42.875C45.8609 125.02 48.2812 127.44 48.2812 130.426C48.2812 133.412 45.8609 135.832 42.875 135.832Z" fill="#07CBF5"/>
<path d="M42.875 152.051H18.5469C15.5609 152.051 13.1406 149.63 13.1406 146.645C13.1406 143.659 15.5609 141.238 18.5469 141.238H42.875C45.8609 141.238 48.2812 143.659 48.2812 146.645C48.2812 149.63 45.8609 152.051 42.875 152.051Z" fill="#07CBF5"/>
</g>
<defs>
<clipPath id="clip0_673_332">
<rect width="129" height="169" fill="white"/>
</clipPath>
</defs>
</svg>
