<svg width="173" height="173" viewBox="0 0 173 173" fill="none" xmlns="http://www.w3.org/2000/svg">
<path d="M155.281 114.734H6.90625V35.1406C6.90625 29.9975 11.0756 25.8281 16.2188 25.8281H145.969C151.112 25.8281 155.281 29.9975 155.281 35.1406V114.734Z" stroke="#F0E9E9" stroke-width="3"/>
<path d="M16.2188 129.75H156.781C162.753 129.75 167.594 124.909 167.594 118.938V116.234H5.40625V118.938C5.40625 124.909 10.2472 129.75 16.2188 129.75Z" fill="#A5C3DC"/>
<path d="M145.969 129.75H16.2188C10.2472 129.75 5.40625 124.909 5.40625 118.938V116.234H156.781V118.938C156.781 124.909 151.94 129.75 145.969 129.75Z" fill="#9364ED"/>
<path d="M70.2812 129.75H94.6094V140.562H70.2812V129.75Z" fill="#5E1DBB"/>
<path d="M70.2812 135.156H86.5V140.562H70.2812V135.156Z" fill="#9364ED"/>
<path d="M108.125 148.672H54.0625V145.969C54.0625 142.983 56.4828 140.562 59.4688 140.562H102.719C105.705 140.562 108.125 142.983 108.125 145.969V148.672Z" fill="#9364ED"/>
<path d="M108.125 148.672H91.9062V145.969C91.9062 142.983 94.3266 140.562 97.3125 140.562H102.719C105.705 140.562 108.125 142.983 108.125 145.969V148.672Z" fill="#5E1DBB"/>
<path d="M35.1406 86.5C45.5909 86.5 54.0625 78.0284 54.0625 67.5781C54.0625 57.1279 45.5909 48.6562 35.1406 48.6562C24.6904 48.6562 16.2188 57.1279 16.2188 67.5781C16.2188 78.0284 24.6904 86.5 35.1406 86.5Z" fill="#E2209E"/>
<path d="M81.0938 86.5C91.544 86.5 100.016 78.0284 100.016 67.5781C100.016 57.1279 91.544 48.6562 81.0938 48.6562C70.6435 48.6562 62.1719 57.1279 62.1719 67.5781C62.1719 78.0284 70.6435 86.5 81.0938 86.5Z" fill="#07CBF5"/>
<path d="M132.453 95.0598C117.3 95.0598 104.972 82.7315 104.972 67.5781C104.972 52.4247 117.3 40.0964 132.453 40.0964C147.607 40.0964 159.935 52.4247 159.935 67.5781C159.935 82.7315 147.607 95.0598 132.453 95.0598ZM132.453 42.7996C118.79 42.7996 107.675 53.9151 107.675 67.5781C107.675 81.241 118.79 92.3566 132.453 92.3566C146.116 92.3566 157.232 81.241 157.232 67.5781C157.232 53.9151 146.116 42.7996 132.453 42.7996Z" fill="#FFE500"/>
<path d="M132.453 86.5C142.903 86.5 151.375 78.0284 151.375 67.5781C151.375 57.1279 142.903 48.6562 132.453 48.6562C122.003 48.6562 113.531 57.1279 113.531 67.5781C113.531 78.0284 122.003 86.5 132.453 86.5Z" fill="#FFE500"/>
<path d="M132.453 81.0938C139.918 81.0938 145.969 75.0426 145.969 67.5781C145.969 60.1137 139.918 54.0625 132.453 54.0625C124.989 54.0625 118.938 60.1137 118.938 67.5781C118.938 75.0426 124.989 81.0938 132.453 81.0938Z" fill="#D2B82F"/>
<path d="M162.188 86.5C165.173 86.5 167.594 88.9203 167.594 91.9062V97.3125H156.781V91.9062C156.781 88.9203 159.202 86.5 162.188 86.5Z" fill="#EF8E4D"/>
<path d="M151.375 86.5C154.361 86.5 156.781 88.9203 156.781 91.9062V97.3125H145.969V91.9062C145.969 88.9203 148.389 86.5 151.375 86.5Z" fill="#EF8E4D"/>
<path d="M140.562 86.5C143.548 86.5 145.969 88.9203 145.969 91.9062V97.3125H135.156V91.9062C135.156 88.9203 137.577 86.5 140.562 86.5Z" fill="#EF8E4D"/>
<path d="M129.75 62.1719C132.736 62.1719 135.156 64.5922 135.156 67.5781V97.3125H124.344V67.5781C124.344 64.5922 126.764 62.1719 129.75 62.1719Z" fill="#EF8E4D"/>
<path d="M124.344 97.3125V137.859H162.188V129.75C165.173 129.75 167.594 127.33 167.594 124.344V97.3125H124.344Z" fill="#EF8E4D"/>
<path d="M124.344 137.859H143.266C143.266 133.381 139.635 129.75 135.156 129.75H124.344V137.859Z" fill="#EF8E4D"/>
<path d="M116.234 97.3125C120.713 97.3125 124.344 100.943 124.344 105.422V129.75C118.372 129.75 113.531 124.909 113.531 118.938V100.016C113.531 98.5228 114.742 97.3125 116.234 97.3125Z" fill="#EF8E4D"/>
<path d="M124.344 138.359H162.188C164.897 138.359 167.094 140.556 167.094 143.266V148.172H119.438V143.266C119.438 140.556 121.634 138.359 124.344 138.359Z" stroke="white"/>
<path d="M129.75 70.2812C131.243 70.2812 132.453 69.071 132.453 67.5781C132.453 66.0852 131.243 64.875 129.75 64.875C128.257 64.875 127.047 66.0852 127.047 67.5781C127.047 69.071 128.257 70.2812 129.75 70.2812Z" fill="#F0915A"/>
<path d="M118.036 108.125H113.531V100.016C117.015 100.016 119.839 102.839 119.839 106.323C119.839 107.318 119.032 108.125 118.036 108.125Z" fill="#F0915A"/>
<path d="M35.1405 81.0938C33.6477 81.0938 32.4374 79.8835 32.4374 78.3907V63.2917L31.6457 64.0834C30.5902 65.1389 28.8788 65.1389 27.8232 64.0834C26.7673 63.0278 26.7673 61.316 27.8232 60.2605L33.2294 54.8542C34.0022 54.0811 35.1649 53.85 36.1752 54.2683C37.1851 54.6866 37.8437 55.6726 37.8437 56.7657V78.3907C37.8437 79.8835 36.6333 81.0938 35.1405 81.0938Z" fill="black"/>
<path d="M86.5 81.0938H75.6875C74.1947 81.0938 72.9844 79.8834 72.9844 78.3906V72.9844C72.9844 68.5127 76.6224 64.875 81.0938 64.875C82.5842 64.875 83.7969 63.6623 83.7969 62.1719C83.7969 60.6814 82.5842 59.4688 81.0938 59.4688H75.6875C74.1947 59.4688 72.9844 58.2584 72.9844 56.7656C72.9844 55.2728 74.1947 54.0625 75.6875 54.0625H81.0938C85.5651 54.0625 89.2031 57.7002 89.2031 62.1719C89.2031 66.6435 85.5651 70.2812 81.0938 70.2812C79.6033 70.2812 78.3906 71.4939 78.3906 72.9844V75.6875H86.5C87.9928 75.6875 89.2031 76.8978 89.2031 78.3906C89.2031 79.8834 87.9928 81.0938 86.5 81.0938Z" fill="black"/>
</svg>
