<svg width="173" height="173" viewBox="0 0 173 173" fill="none" xmlns="http://www.w3.org/2000/svg">
<path d="M132.453 80.0938H90.2031V72.9844V71.9844H89.2031H83.7969H82.7969V72.9844V80.0938H40.5469C38.5018 80.0938 36.8438 81.7518 36.8438 83.7969V93.7968C18.6228 95.6518 4.40625 111.04 4.40625 129.75C4.40625 149.71 20.5868 165.891 40.5469 165.891C60.5069 165.891 76.6875 149.71 76.6875 129.75C76.6875 111.04 62.4709 95.6518 44.25 93.7968V87.5H128.75V93.7968C110.529 95.6518 96.3125 111.04 96.3125 129.75C96.3125 149.71 112.493 165.891 132.453 165.891C152.413 165.891 168.594 149.71 168.594 129.75C168.594 111.04 154.377 95.6518 136.156 93.7968V83.7969C136.156 81.7518 134.498 80.0938 132.453 80.0938Z" stroke="white" stroke-width="2"/>
<path d="M48.6562 129.75H32.4375C24.9732 129.75 18.9219 135.801 18.9219 143.266V157.45C24.885 162.111 32.3912 164.891 40.5469 164.891C48.7025 164.891 56.2088 162.111 62.1719 157.45V143.266C62.1719 135.801 56.1206 129.75 48.6562 129.75Z" fill="#E2209E"/>
<path d="M40.5469 143.266C36.0681 143.266 32.4375 139.635 32.4375 135.156V129.75H48.6562V135.156C48.6562 139.635 45.0256 143.266 40.5469 143.266Z" fill="#D7E6F0"/>
<path d="M40.5469 127.047C48.0113 127.047 54.0625 120.996 54.0625 113.531C54.0625 106.067 48.0113 100.016 40.5469 100.016C33.0824 100.016 27.0312 106.067 27.0312 113.531C27.0312 120.996 33.0824 127.047 40.5469 127.047Z" fill="#FAB991"/>
<path d="M140.562 129.75H124.344C116.879 129.75 110.828 135.801 110.828 143.266V157.45C116.791 162.111 124.297 164.891 132.453 164.891C140.609 164.891 148.115 162.111 154.078 157.45V143.266C154.078 135.801 148.027 129.75 140.562 129.75Z" fill="#07CBF5"/>
<path d="M132.453 143.266C127.974 143.266 124.344 139.635 124.344 135.156V129.75H140.562V135.156C140.562 139.635 136.932 143.266 132.453 143.266Z" fill="#D7E6F0"/>
<path d="M132.453 127.047C139.918 127.047 145.969 120.996 145.969 113.531C145.969 106.067 139.918 100.016 132.453 100.016C124.989 100.016 118.938 106.067 118.938 113.531C118.938 120.996 124.989 127.047 132.453 127.047Z" fill="#FAB991"/>
<path d="M83.7803 72.9844H89.1865C107.101 72.9844 121.624 58.4615 121.624 40.5469C121.624 22.6323 107.101 8.10938 89.1865 8.10938H83.7803C65.8657 8.10938 51.3428 22.6323 51.3428 40.5469C51.3428 58.4615 65.8657 72.9844 83.7803 72.9844Z" fill="#5E1DBB"/>
<path d="M83.7803 72.9844C101.695 72.9844 116.218 58.4616 116.218 40.5469C116.218 22.6321 101.695 8.10938 83.7803 8.10938C65.8655 8.10938 51.3428 22.6321 51.3428 40.5469C51.3428 58.4616 65.8655 72.9844 83.7803 72.9844Z" fill="#9364ED"/>
<path d="M83.7803 62.1719C95.7234 62.1719 105.405 52.49 105.405 40.5469C105.405 28.6037 95.7234 18.9219 83.7803 18.9219C71.8371 18.9219 62.1553 28.6037 62.1553 40.5469C62.1553 52.49 71.8371 62.1719 83.7803 62.1719Z" fill="#D7E6F0"/>
<path d="M83.7803 51.3594C89.7519 51.3594 94.5928 46.5185 94.5928 40.5469C94.5928 34.5753 89.7519 29.7344 83.7803 29.7344C77.8087 29.7344 72.9678 34.5753 72.9678 40.5469C72.9678 46.5185 77.8087 51.3594 83.7803 51.3594Z" fill="#9364ED"/>
<path d="M83.7804 35.1406H51.3429L47.5417 29.4387C46.5388 27.9348 44.851 27.0312 43.0433 27.0312H28.6515C24.4857 27.0312 22.0005 31.6742 24.3117 35.1406V40.5469H51.3429H89.1867C89.1867 37.5613 86.766 35.1406 83.7804 35.1406Z" fill="#FFE500"/>
<path d="M51.3428 40.5469H24.3115V45.9531C22.0007 49.4195 24.4855 54.0625 28.6514 54.0625H43.0432C44.8509 54.0625 46.5387 53.159 47.5415 51.655L51.3428 45.9531H83.7803C86.7662 45.9531 89.1865 43.5325 89.1865 40.5469H51.3428Z" fill="#D2B82F"/>
</svg>
