<svg width="32" height="36" viewBox="0 0 32 36" fill="none" xmlns="http://www.w3.org/2000/svg">
<g clip-path="url(#clip0_671_68)">
<path d="M0.939922 0.572653L19.3633 11.0986L13.8826 16.5773L0.547617 3.24717C0.544098 2.51856 0.540648 1.92851 0.538005 1.51094L0.534514 0.986558L0.533535 0.850546L0.533277 0.815899L0.533211 0.807143L0.533207 0.806599C0.533682 0.713584 0.580485 0.630092 0.669122 0.578644L0.669148 0.578688L0.675302 0.574997C0.754966 0.527216 0.860535 0.526588 0.936962 0.570948L0.939922 0.572653Z" stroke="#E2209E"/>
<path d="M0.0483398 3.45532C0.071435 9.39632 0.14072 23.8179 0.171514 30.9979L13.89 17.2843L0.0483398 3.45532Z" fill="#E2209E"/>
<path d="M31.0496 17.1997L20.1795 10.9893L13.8745 17.2843L20.9878 24.395L31.0573 18.531C31.296 18.3925 31.4422 18.1385 31.4422 17.8692C31.4422 17.5921 31.2883 17.3382 31.0496 17.1997Z" fill="#E2209E"/>
<path d="M0.164062 30.9978C0.179459 33.5605 0.187158 35.1996 0.187158 35.1996M0.164062 30.9978L0.517453 31.3516L0.665304 31.2038M0.164062 30.9978L0.664053 30.9948C0.664476 31.0652 0.664893 31.1349 0.665304 31.2038M0.164062 30.9978L13.8826 17.292M0.187158 35.1996L0.687152 35.1973L0.687152 35.1972L0.687151 35.197L0.687146 35.1961L0.687129 35.1925L0.687062 35.1782L0.686791 35.1218L0.685708 34.901L0.681377 34.0571C0.677739 33.367 0.672381 32.3907 0.665304 31.2038M0.187158 35.1996L0.687152 35.1973L0.687163 35.1996C0.687158 35.3012 0.739998 35.3833 0.812426 35.423L0.823152 35.4289L0.823077 35.429C0.906446 35.4774 1.0073 35.4775 1.0907 35.4292L1.09008 35.4295L1.34192 35.8615M0.187158 35.1996C0.187158 35.4767 0.333427 35.7306 0.572077 35.8615C0.810727 36 1.10327 36 1.34192 35.8615M0.665304 31.2038L13.8825 17.9989M13.8825 17.9989L13.5291 17.6456L13.8826 17.292M13.8825 17.9989L20.1835 24.2976M13.8825 17.9989L14.236 17.6457L13.8826 17.292M13.8826 17.292L20.6302 24.0372L20.1835 24.2976M20.1835 24.2976L20.5492 24.6632L1.34192 35.8615M20.1835 24.2976L1.09091 35.429L1.34192 35.8615" stroke="#E2209E"/>
</g>
<defs>
<clipPath id="clip0_671_68">
<rect width="31.4754" height="36" fill="white"/>
</clipPath>
</defs>
</svg>
