<svg width="170" height="178" viewBox="0 0 170 178" fill="none" xmlns="http://www.w3.org/2000/svg">
<path d="M128.39 13.9093L111.549 7L93.9998 1.5L80.4998 17.364L77.0022 55.3652L73.1157 74.3658L54.9998 97L14.8184 112.367L1.43159 124.89L0.999756 150.368L13.7277 168.3L40.9998 172L68.3656 176.71L120.185 167.21L134.436 153.823L151.709 140.004L163.369 112.367L168.551 87.7526V67.0247L165.5 49.5L145.664 17.364L128.39 13.9093Z" fill="black" stroke="black"/>
<path d="M99.7289 36.3947C96.5688 28.3541 107.138 20.9146 114.749 25.8434C116.467 26.9547 118.128 28.1346 119.731 29.3802L115.176 41.949L99.7289 36.3947Z" fill="#BDA41C"/>
<path d="M33.381 149.215C24.6608 145.967 26.7161 134.266 36.2772 132.596C38.8652 132.147 41.4581 131.576 44.0519 130.881L47.9433 141.548L42.048 151.884C39.0871 151.153 36.1923 150.26 33.381 149.215Z" fill="#BDA41C"/>
<path d="M99.7289 36.3947L119.731 29.3802C130.744 37.9379 138.953 49.5939 142.68 63.5046C152.685 100.843 126.858 140.003 84.7925 151.274C70.0983 155.211 55.389 155.184 42.048 151.884L44.0519 130.881C85.9695 119.649 111.913 80.3184 101.938 43.1083C101.322 40.806 100.582 38.5666 99.7289 36.3947Z" fill="#FFE500"/>
<path d="M80.9062 136.768C68.0849 140.204 55.2524 140.62 43.3271 138.479L42.048 151.884C55.389 155.184 70.0983 155.211 84.7925 151.274C126.858 140.003 152.685 100.843 142.68 63.5046C142.024 61.0579 141.228 58.6823 140.304 56.3795C145.328 91.3668 120.206 126.238 80.9062 136.768Z" fill="#D2B82F"/>
<path d="M125.744 53.6749C130.694 72.149 127.271 91.6465 116.105 108.575C104.94 125.504 87.3275 137.899 66.5135 143.476C63.4412 144.299 60.2995 144.969 57.1758 145.465C56.1847 145.623 55.2877 145.031 55.1723 144.147C55.0565 143.26 55.766 142.415 56.7566 142.257C59.7408 141.783 62.7423 141.144 65.6777 140.357C85.5529 135.032 102.37 123.198 113.029 107.036C123.689 90.874 126.956 72.2581 122.229 54.6176C121.749 52.8231 121.175 51.0201 120.525 49.2587C120.217 48.4215 120.734 47.4754 121.682 47.146C122.631 46.8166 123.65 47.2282 123.96 48.0659C124.64 49.9086 125.24 51.7961 125.744 53.6749Z" fill="#74640E"/>
</svg>
