<svg width="84" height="85" viewBox="0 0 84 85" fill="none" xmlns="http://www.w3.org/2000/svg">
<g clip-path="url(#clip0_727_1535)">
<path d="M20.5 29.609C20.5 33.972 16.963 37.509 12.6 37.509C8.2369 37.509 4.69995 33.972 4.69995 29.609C4.69995 25.2459 8.2369 21.709 12.6 21.709C16.963 21.709 20.5 25.2459 20.5 29.609Z" stroke="#E2209E"/>
<path d="M4.7 67.409V66.909H4.2H0.5V50.609C0.5 46.2651 4.05614 42.709 8.4 42.709H16.8C21.1439 42.709 24.7 46.2651 24.7 50.609V66.909H21H20.5V67.409V84.129H4.7V67.409Z" stroke="#E2209E"/>
<path d="M79.3 29.609C79.3 33.972 75.7631 37.509 71.4 37.509C67.037 37.509 63.5 33.972 63.5 29.609C63.5 25.2459 67.037 21.709 71.4 21.709C75.7631 21.709 79.3 25.2459 79.3 29.609Z" stroke="#E2209E"/>
<path d="M63.5 67.409V66.909H63H59.3V50.609C59.3 46.2651 62.8562 42.709 67.2001 42.709H75.6C79.9439 42.709 83.5 46.2651 83.5 50.609V66.909H79.8H79.3V67.409V84.129H63.5V67.409Z" stroke="#E2209E"/>
<path d="M49.9001 9.02891C49.9001 13.392 46.3631 16.9289 42.0001 16.9289C37.637 16.9289 34.1001 13.392 34.1001 9.02891C34.1001 4.66586 37.637 1.12891 42.0001 1.12891C46.3631 1.12891 49.9001 4.66586 49.9001 9.02891Z" stroke="#E2209E"/>
<path d="M34.0999 46.8289V46.3289H33.5999H29.8999V30.0289C29.8999 25.685 33.456 22.1289 37.7999 22.1289H46.1999C50.5438 22.1289 54.0999 25.685 54.0999 30.0289V46.3289H50.3999H49.8999V46.8289V63.5489H34.0999V46.8289Z" stroke="#E2209E"/>
</g>
<defs>
<clipPath id="clip0_727_1535">
<rect width="84" height="84" fill="white" transform="translate(0 0.628906)"/>
</clipPath>
</defs>
</svg>
