<svg width="399" height="380" viewBox="0 0 399 380" fill="none" xmlns="http://www.w3.org/2000/svg">
<path d="M394.922 377.223C394.922 377.223 398.918 342.369 394.276 300.165C392.02 279.652 395.625 252.009 397.822 225.336C400.844 188.651 397.382 155.93 394.922 147.896C389.971 131.725 397.447 99.091 397.822 70.2633C398.152 44.9582 394.276 5.63245 394.276 5.63245C394.276 5.63245 362.058 17.2813 350.079 17.2813C339.609 17.2813 295.811 9.24927 280.96 10.3205C266.781 11.3432 232.386 0.802397 217.52 0.802397C203.382 0.802396 183.614 11.9538 162.15 7.76327C151.236 5.63244 143.509 17.18 131.537 17.2813C118.216 17.3941 110.785 7.57861 97.4639 7.76327C86.2196 7.91916 80.0457 10.3205 68.7143 10.3205C56.4474 10.3205 47.9421 7.76327 35.7327 8.5093C22.8287 9.29776 21.1889 9.51516 21.1889 9.51516C23.2715 40.7505 17.7283 40.8564 21.1889 70.2633C23.1504 99.683 19.3354 142.717 21.1889 170.519C22.7004 193.189 3.95813 203.315 5.69034 230.556C6.56394 244.295 22.8292 273.886 24.5301 303.21C26.2017 332.032 -0.22586 368.442 0.53006 379.78L55.2519 379.78L82.4043 374.24L115.945 377.223L144.961 374.24L177.437 377.223C177.437 377.223 200.064 381.485 215.238 377.223C230.187 373.024 234.67 373.387 254.103 377.223C270.405 380.441 357.388 374.666 372.828 377.223C383.065 378.918 394.922 377.223 394.922 377.223Z" fill="#161616"/>
</svg>
