<svg width="84" height="85" viewBox="0 0 84 85" fill="none" xmlns="http://www.w3.org/2000/svg">
<path d="M34.6757 21.0406L34.6759 21.0406L34.6751 21.0266C34.6383 20.3487 34.625 18.44 34.625 17.9907C34.625 13.4988 35.3557 9.97179 36.6524 7.58684C37.9379 5.22237 39.7571 4.0073 42 4.0073C42.7106 4.0073 43.7245 4.14919 44.7714 4.76755C45.8137 5.38321 46.9248 6.49223 47.803 8.48633L47.8033 8.48685C48.8476 10.8509 49.3914 14.0424 49.3914 17.9989C49.3914 18.4381 49.3782 20.3455 49.3413 21.0336L49.3411 21.0336L49.3407 21.047L49.0881 30.5249L49.0816 30.7692L49.2703 30.9244L75.625 52.5947L75.625 61.9193L49.2888 49.9966L48.5997 49.6847L48.5827 50.4409L48.2267 66.3173L48.2213 66.5595L48.4081 66.7139L57.25 74.0206L57.25 81.6577L42.3674 78.3678C42.301 78.349 42.2355 78.3268 42.1713 78.3013L42.1515 78.2934L42.1311 78.2873C42.029 78.2566 41.9201 78.2565 41.818 78.2873L41.8002 78.2927L41.7828 78.2994C41.7141 78.3258 41.6467 78.3487 41.5802 78.3677L26.75 81.6131L26.75 73.9218L35.4344 66.8071L35.6211 66.6542L35.6175 66.413L35.3813 50.448L35.37 49.6851L34.675 50L8.375 61.9173L8.375 52.6241L34.743 30.9177L34.9315 30.7626L34.9251 30.5185L34.6757 21.0406Z" stroke="#E2209E"/>
<g clip-path="url(#clip0_727_1639)">
<path d="M34.125 17.9907C34.125 18.437 34.1381 20.3598 34.1759 21.0538L34.4252 30.5317L7.875 52.3881L7.875 62.6929L34.8813 50.4554L35.1176 66.4204L26.25 73.685L26.25 82.2343L41.7014 78.853C41.79 78.8284 41.877 78.7989 41.9623 78.7661C41.9703 78.7636 41.9789 78.7636 41.9869 78.7661C42.0717 78.7997 42.1582 78.8287 42.2461 78.853L57.75 82.2803L57.75 73.7851L48.7266 66.3285L49.0826 50.4521L76.125 62.6945L76.125 52.3585L49.5879 30.5382L49.8406 21.0603C49.8783 20.3565 49.8914 18.4353 49.8914 17.9989C49.8914 14.004 49.3434 10.7359 48.2606 8.2848C46.4297 4.12745 43.552 3.5073 42 3.5073C37.0683 3.5073 34.125 8.92136 34.125 17.9907Z" fill="#E2209E"/>
</g>
<defs>
<clipPath id="clip0_727_1639">
<rect width="78" height="33" fill="white" transform="translate(43 82) rotate(-90)"/>
</clipPath>
</defs>
</svg>
