<svg width="84" height="85" viewBox="0 0 84 85" fill="none" xmlns="http://www.w3.org/2000/svg">
<g clip-path="url(#clip0_727_1654)">
<mask id="path-1-inside-1_727_1654" fill="white">
<path d="M53.6824 38.644C50.3862 36.8224 46.8817 35.4345 43.4119 33.9945C41.3995 33.1618 39.4738 32.1903 37.7736 30.837C34.4253 28.1653 35.0672 23.8281 38.988 22.1106C40.0983 21.6248 41.2607 21.4687 42.4404 21.3993C46.9858 21.1564 51.3056 21.9892 55.4173 23.9669C57.4645 24.9558 58.1411 24.6435 58.835 22.5096C59.5637 20.2543 60.1709 17.9643 60.8475 15.6916C61.2985 14.1649 60.7434 13.1586 59.3034 12.5167C56.6664 11.3544 53.96 10.5216 51.1148 10.0706C47.4022 9.49805 47.4022 9.4807 47.3848 5.75072C47.3675 0.494039 47.3675 0.494039 42.0934 0.494039C41.3301 0.494039 40.5667 0.47669 39.8034 0.494039C37.3399 0.563434 36.9235 0.997153 36.8541 3.47803C36.8194 4.58835 36.8541 5.69867 36.8368 6.82634C36.8194 10.1226 36.8021 10.0706 33.6446 11.2156C26.0111 13.9914 21.2923 19.196 20.7891 27.5234C20.3381 34.8967 24.1895 39.8758 30.2442 43.5017C33.9742 45.7396 38.1032 47.0582 42.0587 48.8104C43.6028 49.487 45.0774 50.2677 46.3612 51.3433C50.1606 54.4834 49.4667 59.7054 44.956 61.6832C42.5445 62.7414 39.9942 63.0017 37.3746 62.6721C33.3323 62.1689 29.4635 61.1107 25.8203 59.2196C23.6864 58.1093 23.0618 58.4043 22.3332 60.7116C21.7086 62.7068 21.1535 64.7192 20.5983 66.7317C19.8523 69.4381 20.1299 70.08 22.7149 71.3464C26.0111 72.9425 29.5329 73.7579 33.1241 74.3304C35.9346 74.7815 36.0214 74.9029 36.0561 77.8175C36.0734 79.136 36.0734 80.4719 36.0908 81.7904C36.1081 83.4559 36.9062 84.4274 38.6237 84.4621C40.5667 84.4968 42.5272 84.4968 44.4702 84.4448C46.0663 84.4101 46.8817 83.5426 46.8817 81.9292C46.8817 80.1249 46.9684 78.3033 46.899 76.499C46.8123 74.6601 47.6103 73.7232 49.3799 73.2375C53.4569 72.1271 56.9266 69.9412 59.5984 66.6796C67.0236 57.6583 64.1958 44.4558 53.6824 38.644Z"/>
</mask>
<path d="M53.6824 38.644C50.3862 36.8224 46.8817 35.4345 43.4119 33.9945C41.3995 33.1618 39.4738 32.1903 37.7736 30.837C34.4253 28.1653 35.0672 23.8281 38.988 22.1106C40.0983 21.6248 41.2607 21.4687 42.4404 21.3993C46.9858 21.1564 51.3056 21.9892 55.4173 23.9669C57.4645 24.9558 58.1411 24.6435 58.835 22.5096C59.5637 20.2543 60.1709 17.9643 60.8475 15.6916C61.2985 14.1649 60.7434 13.1586 59.3034 12.5167C56.6664 11.3544 53.96 10.5216 51.1148 10.0706C47.4022 9.49805 47.4022 9.4807 47.3848 5.75072C47.3675 0.494039 47.3675 0.494039 42.0934 0.494039C41.3301 0.494039 40.5667 0.47669 39.8034 0.494039C37.3399 0.563434 36.9235 0.997153 36.8541 3.47803C36.8194 4.58835 36.8541 5.69867 36.8368 6.82634C36.8194 10.1226 36.8021 10.0706 33.6446 11.2156C26.0111 13.9914 21.2923 19.196 20.7891 27.5234C20.3381 34.8967 24.1895 39.8758 30.2442 43.5017C33.9742 45.7396 38.1032 47.0582 42.0587 48.8104C43.6028 49.487 45.0774 50.2677 46.3612 51.3433C50.1606 54.4834 49.4667 59.7054 44.956 61.6832C42.5445 62.7414 39.9942 63.0017 37.3746 62.6721C33.3323 62.1689 29.4635 61.1107 25.8203 59.2196C23.6864 58.1093 23.0618 58.4043 22.3332 60.7116C21.7086 62.7068 21.1535 64.7192 20.5983 66.7317C19.8523 69.4381 20.1299 70.08 22.7149 71.3464C26.0111 72.9425 29.5329 73.7579 33.1241 74.3304C35.9346 74.7815 36.0214 74.9029 36.0561 77.8175C36.0734 79.136 36.0734 80.4719 36.0908 81.7904C36.1081 83.4559 36.9062 84.4274 38.6237 84.4621C40.5667 84.4968 42.5272 84.4968 44.4702 84.4448C46.0663 84.4101 46.8817 83.5426 46.8817 81.9292C46.8817 80.1249 46.9684 78.3033 46.899 76.499C46.8123 74.6601 47.6103 73.7232 49.3799 73.2375C53.4569 72.1271 56.9266 69.9412 59.5984 66.6796C67.0236 57.6583 64.1958 44.4558 53.6824 38.644Z" stroke="#E2209E" stroke-width="2" mask="url(#path-1-inside-1_727_1654)"/>
<g clip-path="url(#clip1_727_1654)">
<path d="M53.6824 38.644C50.3862 36.8224 46.8817 35.4345 43.4119 33.9945C41.3995 33.1618 39.4738 32.1903 37.7736 30.837C34.4253 28.1653 35.0672 23.8281 38.988 22.1106C40.0983 21.6248 41.2607 21.4687 42.4404 21.3993C46.9858 21.1564 51.3056 21.9892 55.4173 23.9669C57.4645 24.9558 58.1411 24.6435 58.835 22.5096C59.5637 20.2543 60.1709 17.9643 60.8475 15.6916C61.2985 14.1649 60.7434 13.1586 59.3034 12.5167C56.6664 11.3544 53.96 10.5216 51.1148 10.0706C47.4022 9.49805 47.4022 9.4807 47.3848 5.75072C47.3675 0.494039 47.3675 0.494039 42.0934 0.494039C41.3301 0.494039 40.5667 0.47669 39.8034 0.494039C37.3399 0.563434 36.9235 0.997153 36.8541 3.47803C36.8194 4.58835 36.8541 5.69867 36.8368 6.82634C36.8194 10.1226 36.8021 10.0706 33.6446 11.2156C26.0111 13.9914 21.2923 19.196 20.7891 27.5234C20.3381 34.8967 24.1895 39.8758 30.2442 43.5017C33.9742 45.7396 38.1032 47.0582 42.0587 48.8104C43.6028 49.487 45.0774 50.2677 46.3612 51.3433C50.1606 54.4834 49.4667 59.7054 44.956 61.6832C42.5445 62.7414 39.9942 63.0017 37.3746 62.6721C33.3323 62.1689 29.4635 61.1107 25.8203 59.2196C23.6864 58.1093 23.0618 58.4043 22.3332 60.7116C21.7086 62.7068 21.1535 64.7192 20.5983 66.7317C19.8523 69.4381 20.1299 70.08 22.7149 71.3464C26.0111 72.9425 29.5329 73.7579 33.1241 74.3304C35.9346 74.7815 36.0214 74.9029 36.0561 77.8175C36.0734 79.136 36.0734 80.4719 36.0908 81.7904C36.1081 83.4559 36.9062 84.4274 38.6237 84.4621C40.5667 84.4968 42.5272 84.4968 44.4702 84.4448C46.0663 84.4101 46.8817 83.5426 46.8817 81.9292C46.8817 80.1249 46.9684 78.3033 46.899 76.499C46.8123 74.6601 47.6103 73.7232 49.3799 73.2375C53.4569 72.1271 56.9266 69.9412 59.5984 66.6796C67.0236 57.6583 64.1958 44.4558 53.6824 38.644Z" fill="#E2209E"/>
</g>
</g>
<defs>
<clipPath id="clip0_727_1654">
<rect width="84" height="84" fill="white" transform="translate(0 0.487305)"/>
</clipPath>
<clipPath id="clip1_727_1654">
<rect width="44" height="47" fill="white" transform="translate(20 37.001)"/>
</clipPath>
</defs>
</svg>
