<svg width="939" height="994" viewBox="0 0 939 994" fill="none" xmlns="http://www.w3.org/2000/svg">
<path d="M515.922 426.223C515.922 426.223 519.918 391.369 515.276 349.165C513.02 328.652 516.625 301.009 518.822 274.336C521.844 237.651 518.382 204.93 515.922 196.896C510.971 180.725 518.447 148.091 518.822 119.263C519.152 93.9582 515.276 54.6324 515.276 54.6324C515.276 54.6324 483.058 66.2813 471.079 66.2813C460.609 66.2813 416.811 58.2493 401.96 59.3205C387.781 60.3432 353.386 49.8024 338.52 49.8024C324.382 49.8024 304.614 60.9538 283.15 56.7633C272.236 54.6324 264.509 66.18 252.537 66.2813C239.216 66.3941 231.785 56.5786 218.464 56.7633C207.22 56.9192 201.046 59.3205 189.714 59.3205C177.447 59.3205 168.942 56.7633 156.733 57.5093C143.829 58.2978 142.189 58.5152 142.189 58.5152C144.271 89.7505 138.728 89.8564 142.189 119.263C144.15 148.683 140.335 191.717 142.189 219.519C143.7 242.189 124.958 252.315 126.69 279.556C127.564 293.295 143.829 322.886 145.53 352.21C147.202 381.032 120.774 417.442 121.53 428.78L176.252 428.78L203.404 423.24L236.945 426.223L265.961 423.24L298.437 426.223C298.437 426.223 321.064 430.485 336.238 426.223C351.187 422.024 355.67 422.387 375.103 426.223C391.405 429.441 478.388 423.666 493.828 426.223C504.065 427.918 515.922 426.223 515.922 426.223Z" fill="#161616"/>
<path d="M247.741 250.103C250.99 250.103 253.777 250.701 256.101 251.897C258.425 253.07 260.185 254.661 261.381 256.669C262.577 258.677 263.175 260.911 263.175 263.371C263.175 266.033 262.554 268.628 261.313 271.155C260.095 273.66 258.098 276.435 255.322 279.482C252.547 282.528 248.621 286.341 243.544 290.922H264.258L263.276 297.928H233.322V291.395C239.008 285.912 243.273 281.614 246.116 278.5C248.982 275.364 251.013 272.701 252.208 270.512C253.404 268.324 254.002 266.169 254.002 264.048C254.002 261.882 253.382 260.189 252.141 258.971C250.922 257.73 249.207 257.109 246.996 257.109C245.056 257.109 243.397 257.482 242.021 258.226C240.667 258.971 239.324 260.201 237.993 261.915L232.375 257.651C234.225 255.169 236.391 253.296 238.873 252.032C241.355 250.746 244.311 250.103 247.741 250.103ZM304.017 251.119L302.968 257.685H285.368V269.395C287.602 268.29 290.039 267.737 292.679 267.737C295.161 267.737 297.383 268.346 299.346 269.565C301.332 270.761 302.889 272.498 304.017 274.777C305.145 277.033 305.709 279.696 305.709 282.765C305.709 285.901 304.976 288.699 303.509 291.159C302.065 293.595 300.012 295.502 297.349 296.879C294.709 298.255 291.663 298.943 288.211 298.943C285.12 298.943 282.322 298.379 279.817 297.251C277.335 296.1 275.191 294.498 273.386 292.445L278.599 287.605C279.817 289.049 281.193 290.143 282.728 290.888C284.262 291.61 285.921 291.971 287.703 291.971C290.411 291.971 292.543 291.159 294.1 289.534C295.68 287.887 296.469 285.642 296.469 282.799C296.469 279.752 295.838 277.541 294.574 276.165C293.31 274.788 291.584 274.1 289.395 274.1C288.358 274.1 287.331 274.224 286.315 274.472C285.323 274.721 284.251 275.115 283.1 275.657H276.839V251.119H304.017ZM330.746 250.103C336.093 250.103 340.155 252.213 342.93 256.432C345.706 260.629 347.093 266.631 347.093 274.439C347.093 279.628 346.473 284.051 345.232 287.706C344.013 291.362 342.186 294.148 339.749 296.066C337.312 297.984 334.311 298.943 330.746 298.943C325.398 298.943 321.336 296.822 318.561 292.58C315.786 288.338 314.398 282.291 314.398 274.439C314.398 266.631 315.786 260.629 318.561 256.432C321.336 252.213 325.398 250.103 330.746 250.103ZM330.746 256.737C328.128 256.737 326.188 258.136 324.924 260.934C323.66 263.709 323.029 268.211 323.029 274.439C323.029 278.861 323.243 282.347 323.672 284.897L336.127 259.275C335.54 258.373 334.807 257.73 333.927 257.346C333.047 256.94 331.987 256.737 330.746 256.737ZM330.746 292.309C332.506 292.309 333.938 291.723 335.044 290.549C336.172 289.353 337.018 287.447 337.582 284.829C338.147 282.189 338.429 278.726 338.429 274.439C338.429 270.896 338.293 267.963 338.022 265.639L325.906 290.482C326.47 291.113 327.147 291.576 327.936 291.869C328.726 292.163 329.662 292.309 330.746 292.309ZM365.394 251.119V297.928H356.12V251.119H365.394ZM380.794 297.928L365.733 272.949L380.489 251.119H390.44L375.413 272.272L391.726 297.928H380.794ZM408.064 259.546H415.747V273.288H429.252V280.328H415.747V294.069H408.064V280.328H394.661V273.288H408.064V259.546Z" fill="#FFE500"/>
<path d="M212.654 346.546C213.15 346.546 213.624 346.456 214.075 346.276C214.534 346.095 215 345.839 215.474 345.508L216.828 347.415C216.287 347.881 215.64 348.254 214.888 348.532C214.135 348.803 213.349 348.938 212.53 348.938C211.296 348.938 210.228 348.679 209.326 348.16C208.43 347.641 207.742 346.911 207.261 345.971C206.787 345.031 206.55 343.94 206.55 342.699C206.55 341.466 206.791 340.367 207.272 339.405C207.761 338.434 208.461 337.679 209.371 337.137C210.281 336.588 211.349 336.313 212.575 336.313C213.425 336.313 214.196 336.434 214.888 336.674C215.587 336.915 216.23 337.28 216.817 337.769L215.497 339.597C214.572 338.965 213.628 338.649 212.665 338.649C211.74 338.649 211.01 338.98 210.476 339.642C209.95 340.304 209.687 341.323 209.687 342.699C209.687 344.045 209.95 345.023 210.476 345.632C211.01 346.242 211.736 346.546 212.654 346.546ZM227.182 345.125C227.182 346.08 227.746 346.558 228.874 346.558C229.446 346.558 230.044 346.433 230.668 346.185L231.401 348.216C230.469 348.697 229.389 348.938 228.163 348.938C226.877 348.938 225.896 348.573 225.219 347.844C224.542 347.114 224.203 346.103 224.203 344.809V333.989H220.627V331.88H227.182V345.125ZM241.292 330.627C241.653 330.627 241.973 330.706 242.251 330.864C242.53 331.015 242.748 331.225 242.906 331.496C243.064 331.767 243.142 332.068 243.142 332.399C243.142 332.73 243.064 333.03 242.906 333.301C242.748 333.572 242.53 333.786 242.251 333.944C241.973 334.102 241.653 334.181 241.292 334.181C240.931 334.181 240.608 334.102 240.322 333.944C240.044 333.786 239.826 333.572 239.668 333.301C239.51 333.03 239.431 332.73 239.431 332.399C239.431 332.068 239.51 331.767 239.668 331.496C239.826 331.225 240.044 331.015 240.322 330.864C240.608 330.706 240.931 330.627 241.292 330.627ZM236.858 336.652H243.221V346.49H246.369V348.6H236.746V346.49H240.243V338.762H236.858V336.652ZM253.744 343.534C253.827 344.61 254.143 345.407 254.692 345.926C255.249 346.445 255.959 346.704 256.824 346.704C257.373 346.704 257.9 346.618 258.404 346.445C258.908 346.272 259.415 346.016 259.927 345.678L261.168 347.381C260.589 347.87 259.912 348.254 259.137 348.532C258.362 348.803 257.528 348.938 256.633 348.938C255.361 348.938 254.278 348.675 253.383 348.148C252.496 347.622 251.823 346.885 251.364 345.937C250.913 344.989 250.687 343.891 250.687 342.643C250.687 341.447 250.909 340.371 251.353 339.416C251.804 338.453 252.451 337.697 253.293 337.148C254.143 336.592 255.143 336.313 256.294 336.313C257.377 336.313 258.321 336.554 259.126 337.036C259.931 337.517 260.551 338.213 260.987 339.123C261.424 340.025 261.642 341.101 261.642 342.349C261.642 342.778 261.623 343.173 261.585 343.534H253.744ZM256.305 338.412C255.561 338.412 254.959 338.679 254.5 339.213C254.049 339.739 253.786 340.544 253.71 341.627H258.742C258.727 340.597 258.513 339.803 258.099 339.247C257.693 338.69 257.095 338.412 256.305 338.412ZM266.061 348.6V336.652H268.656L268.87 338.13C269.382 337.528 269.957 337.077 270.596 336.776C271.236 336.468 271.924 336.313 272.661 336.313C273.729 336.313 274.545 336.622 275.109 337.239C275.681 337.855 275.967 338.728 275.967 339.856V348.6H272.988V341.018C272.988 340.386 272.947 339.897 272.864 339.551C272.789 339.198 272.646 338.942 272.435 338.784C272.232 338.619 271.931 338.536 271.533 338.536C270.66 338.536 269.829 339.066 269.039 340.127V348.6H266.061ZM291.228 347.934C290.762 348.242 290.209 348.487 289.569 348.667C288.938 348.848 288.268 348.938 287.561 348.938C286.606 348.938 285.798 348.769 285.136 348.43C284.481 348.092 283.989 347.614 283.658 346.998C283.327 346.373 283.161 345.636 283.161 344.786V338.762H280.566V336.652H283.161V334.023L286.14 333.662V336.652H290.088L289.784 338.762H286.14V344.775C286.14 345.399 286.29 345.854 286.591 346.14C286.892 346.418 287.377 346.558 288.046 346.558C288.814 346.558 289.532 346.377 290.201 346.016L291.228 347.934ZM300.318 346.738C301.033 346.738 301.597 346.618 302.01 346.377C302.431 346.129 302.642 345.783 302.642 345.339C302.642 345.031 302.571 344.779 302.428 344.583C302.285 344.388 302.01 344.203 301.604 344.03C301.206 343.85 300.6 343.651 299.788 343.432C298.96 343.222 298.268 342.974 297.712 342.688C297.155 342.394 296.723 342.018 296.414 341.56C296.106 341.093 295.952 340.522 295.952 339.845C295.952 339.153 296.147 338.54 296.538 338.006C296.937 337.472 297.509 337.058 298.253 336.765C299.006 336.464 299.893 336.313 300.916 336.313C302.736 336.313 304.289 336.78 305.575 337.712L304.357 339.529C303.266 338.837 302.142 338.491 300.984 338.491C299.645 338.491 298.975 338.874 298.975 339.642C298.975 339.905 299.054 340.123 299.212 340.296C299.378 340.469 299.66 340.634 300.059 340.792C300.465 340.95 301.085 341.146 301.92 341.379C302.777 341.62 303.477 341.883 304.018 342.169C304.568 342.455 304.993 342.834 305.293 343.308C305.602 343.782 305.756 344.388 305.756 345.125C305.756 345.952 305.508 346.655 305.011 347.234C304.522 347.806 303.868 348.235 303.048 348.521C302.228 348.799 301.322 348.938 300.329 348.938C299.246 348.938 298.28 348.784 297.43 348.476C296.58 348.167 295.847 347.742 295.23 347.201L296.775 345.463C297.264 345.854 297.81 346.166 298.411 346.4C299.013 346.625 299.649 346.738 300.318 346.738ZM337.012 336.652L335.184 348.6H331.687L330.48 340.307L329.193 348.6H325.764L323.857 336.652H326.655L327.693 346.749L329.171 338.164H331.912L333.266 346.749L334.327 336.652H337.012ZM345.301 336.313C346.474 336.313 347.478 336.573 348.313 337.092C349.148 337.603 349.78 338.333 350.209 339.281C350.645 340.221 350.863 341.326 350.863 342.598C350.863 343.891 350.645 345.016 350.209 345.971C349.772 346.919 349.133 347.652 348.291 348.171C347.456 348.682 346.455 348.938 345.29 348.938C344.116 348.938 343.112 348.686 342.277 348.182C341.442 347.678 340.807 346.952 340.371 346.005C339.934 345.057 339.716 343.929 339.716 342.62C339.716 341.372 339.934 340.273 340.371 339.326C340.814 338.371 341.454 337.63 342.289 337.103C343.131 336.577 344.135 336.313 345.301 336.313ZM345.301 338.559C344.459 338.559 343.834 338.89 343.428 339.551C343.022 340.206 342.819 341.229 342.819 342.62C342.819 344.027 343.022 345.057 343.428 345.711C343.834 346.366 344.455 346.693 345.29 346.693C346.124 346.693 346.745 346.366 347.151 345.711C347.557 345.05 347.76 344.012 347.76 342.598C347.76 341.221 347.557 340.206 347.151 339.551C346.745 338.89 346.128 338.559 345.301 338.559ZM363.947 336.325C364.308 336.325 364.635 336.355 364.928 336.415C365.229 336.468 365.526 336.547 365.82 336.652L365.289 341.311H363.304V338.976C362.544 339.036 361.878 339.378 361.307 340.003C360.743 340.627 360.295 341.473 359.964 342.541V346.535H362.345V348.6H355.305V346.535H356.986V338.705H355.305V336.652H359.253L359.806 339.393C360.25 338.363 360.803 337.596 361.465 337.092C362.134 336.58 362.962 336.325 363.947 336.325ZM375.733 345.125C375.733 346.08 376.297 346.558 377.426 346.558C377.997 346.558 378.595 346.433 379.219 346.185L379.953 348.216C379.02 348.697 377.941 348.938 376.715 348.938C375.429 348.938 374.447 348.573 373.77 347.844C373.093 347.114 372.755 346.103 372.755 344.809V333.989H369.178V331.88H375.733V345.125ZM391.829 331.564L394.808 331.88V348.6H392.168L391.987 347.189C391.596 347.738 391.119 348.167 390.555 348.476C389.998 348.784 389.366 348.938 388.659 348.938C387.193 348.938 386.083 348.374 385.331 347.246C384.586 346.118 384.214 344.572 384.214 342.609C384.214 341.39 384.402 340.307 384.778 339.36C385.162 338.404 385.711 337.66 386.425 337.126C387.14 336.584 387.978 336.313 388.941 336.313C390.1 336.313 391.062 336.716 391.829 337.521V331.564ZM389.742 338.536C388.968 338.536 388.37 338.871 387.948 339.54C387.527 340.21 387.317 341.236 387.317 342.62C387.317 344.064 387.505 345.106 387.881 345.745C388.264 346.385 388.813 346.704 389.528 346.704C390.408 346.704 391.175 346.185 391.829 345.147V339.709C391.25 338.927 390.555 338.536 389.742 338.536ZM411.288 336.652L409.46 348.6H405.963L404.755 340.307L403.469 348.6H400.039L398.133 336.652H400.931L401.969 346.749L403.447 338.164H406.188L407.542 346.749L408.603 336.652H411.288ZM419.554 330.627C419.915 330.627 420.235 330.706 420.513 330.864C420.791 331.015 421.009 331.225 421.167 331.496C421.325 331.767 421.404 332.068 421.404 332.399C421.404 332.73 421.325 333.03 421.167 333.301C421.009 333.572 420.791 333.786 420.513 333.944C420.235 334.102 419.915 334.181 419.554 334.181C419.193 334.181 418.87 334.102 418.584 333.944C418.306 333.786 418.087 333.572 417.929 333.301C417.772 333.03 417.693 332.73 417.693 332.399C417.693 332.068 417.772 331.767 417.929 331.496C418.087 331.225 418.306 331.015 418.584 330.864C418.87 330.706 419.193 330.627 419.554 330.627ZM415.12 336.652H421.483V346.49H424.631V348.6H415.007V346.49H418.505V338.762H415.12V336.652ZM436.395 331.564L439.373 331.88V348.6H436.733L436.553 347.189C436.162 347.738 435.684 348.167 435.12 348.476C434.563 348.784 433.932 348.938 433.225 348.938C431.758 348.938 430.649 348.374 429.896 347.246C429.152 346.118 428.78 344.572 428.78 342.609C428.78 341.39 428.968 340.307 429.344 339.36C429.727 338.404 430.276 337.66 430.991 337.126C431.705 336.584 432.544 336.313 433.507 336.313C434.665 336.313 435.628 336.716 436.395 337.521V331.564ZM434.308 338.536C433.533 338.536 432.935 338.871 432.514 339.54C432.093 340.21 431.882 341.236 431.882 342.62C431.882 344.064 432.07 345.106 432.446 345.745C432.83 346.385 433.379 346.704 434.093 346.704C434.973 346.704 435.741 346.185 436.395 345.147V339.709C435.816 338.927 435.12 338.536 434.308 338.536ZM446.861 343.534C446.944 344.61 447.26 345.407 447.809 345.926C448.366 346.445 449.076 346.704 449.941 346.704C450.49 346.704 451.017 346.618 451.521 346.445C452.025 346.272 452.532 346.016 453.044 345.678L454.285 347.381C453.706 347.87 453.029 348.254 452.254 348.532C451.479 348.803 450.645 348.938 449.75 348.938C448.478 348.938 447.395 348.675 446.5 348.148C445.613 347.622 444.94 346.885 444.481 345.937C444.03 344.989 443.804 343.891 443.804 342.643C443.804 341.447 444.026 340.371 444.47 339.416C444.921 338.453 445.568 337.697 446.41 337.148C447.26 336.592 448.26 336.313 449.411 336.313C450.494 336.313 451.438 336.554 452.243 337.036C453.048 337.517 453.668 338.213 454.104 339.123C454.541 340.025 454.759 341.101 454.759 342.349C454.759 342.778 454.74 343.173 454.702 343.534H446.861ZM449.422 338.412C448.678 338.412 448.076 338.679 447.617 339.213C447.166 339.739 446.903 340.544 446.827 341.627H451.859C451.844 340.597 451.63 339.803 451.216 339.247C450.81 338.69 450.212 338.412 449.422 338.412Z" fill="#07CBF5"/>
<g clip-path="url(#clip0_731_6)">
<path d="M305.8 163.209H297.4C292.78 163.209 289 166.989 289 171.609V188.409H293.2V205.629H310V188.409H314.2V171.609C314.2 166.989 310.42 163.209 305.8 163.209Z" fill="#E2209E"/>
<path d="M364.6 163.209H356.2C351.58 163.209 347.8 166.989 347.8 171.609V188.409H352V205.629H368.8V188.409H373V171.609C373 166.989 369.22 163.209 364.6 163.209Z" fill="#E2209E"/>
<path d="M335.2 142.629H326.8C322.18 142.629 318.4 146.409 318.4 151.029V167.829H322.6V185.049H339.4V167.829H343.6V151.029C343.6 146.409 339.82 142.629 335.2 142.629Z" fill="#E2209E"/>
</g>
<g clip-path="url(#clip1_731_6)">
<path d="M335.2 142.629H326.8C322.18 142.629 318.4 146.409 318.4 151.029V167.829H322.6V185.049H339.4V167.829H343.6V151.029C343.6 146.409 339.82 142.629 335.2 142.629Z" fill="#E2209E"/>
</g>
<g clip-path="url(#clip2_731_6)">
<mask id="path-8-inside-1_731_6" fill="white">
<path d="M301.6 159.009C306.239 159.009 310 155.248 310 150.609C310 145.97 306.239 142.209 301.6 142.209C296.961 142.209 293.2 145.97 293.2 150.609C293.2 155.248 296.961 159.009 301.6 159.009Z"/>
</mask>
<path d="M301.6 159.009C306.239 159.009 310 155.248 310 150.609C310 145.97 306.239 142.209 301.6 142.209C296.961 142.209 293.2 145.97 293.2 150.609C293.2 155.248 296.961 159.009 301.6 159.009Z" stroke="#E2209E" stroke-width="2" mask="url(#path-8-inside-1_731_6)"/>
<mask id="path-9-inside-2_731_6" fill="white">
<path d="M305.8 163.209H297.4C292.78 163.209 289 166.989 289 171.609V188.409H293.2V205.629H310V188.409H314.2V171.609C314.2 166.989 310.42 163.209 305.8 163.209Z"/>
</mask>
<path d="M305.8 163.209H297.4C292.78 163.209 289 166.989 289 171.609V188.409H293.2V205.629H310V188.409H314.2V171.609C314.2 166.989 310.42 163.209 305.8 163.209Z" stroke="#E2209E" stroke-width="2" mask="url(#path-9-inside-2_731_6)"/>
<mask id="path-10-inside-3_731_6" fill="white">
<path d="M360.4 159.009C365.039 159.009 368.8 155.248 368.8 150.609C368.8 145.97 365.039 142.209 360.4 142.209C355.761 142.209 352 145.97 352 150.609C352 155.248 355.761 159.009 360.4 159.009Z"/>
</mask>
<path d="M360.4 159.009C365.039 159.009 368.8 155.248 368.8 150.609C368.8 145.97 365.039 142.209 360.4 142.209C355.761 142.209 352 145.97 352 150.609C352 155.248 355.761 159.009 360.4 159.009Z" stroke="#E2209E" stroke-width="2" mask="url(#path-10-inside-3_731_6)"/>
<mask id="path-11-inside-4_731_6" fill="white">
<path d="M364.6 163.209H356.2C351.58 163.209 347.8 166.989 347.8 171.609V188.409H352V205.629H368.8V188.409H373V171.609C373 166.989 369.22 163.209 364.6 163.209Z"/>
</mask>
<path d="M364.6 163.209H356.2C351.58 163.209 347.8 166.989 347.8 171.609V188.409H352V205.629H368.8V188.409H373V171.609C373 166.989 369.22 163.209 364.6 163.209Z" stroke="#E2209E" stroke-width="2" mask="url(#path-11-inside-4_731_6)"/>
<mask id="path-12-inside-5_731_6" fill="white">
<path d="M331 138.429C335.639 138.429 339.4 134.668 339.4 130.029C339.4 125.39 335.639 121.629 331 121.629C326.361 121.629 322.6 125.39 322.6 130.029C322.6 134.668 326.361 138.429 331 138.429Z"/>
</mask>
<path d="M331 138.429C335.639 138.429 339.4 134.668 339.4 130.029C339.4 125.39 335.639 121.629 331 121.629C326.361 121.629 322.6 125.39 322.6 130.029C322.6 134.668 326.361 138.429 331 138.429Z" stroke="#E2209E" stroke-width="2" mask="url(#path-12-inside-5_731_6)"/>
<mask id="path-13-inside-6_731_6" fill="white">
<path d="M335.2 142.629H326.8C322.18 142.629 318.4 146.409 318.4 151.029V167.829H322.6V185.049H339.4V167.829H343.6V151.029C343.6 146.409 339.82 142.629 335.2 142.629Z"/>
</mask>
<path d="M335.2 142.629H326.8C322.18 142.629 318.4 146.409 318.4 151.029V167.829H322.6V185.049H339.4V167.829H343.6V151.029C343.6 146.409 339.82 142.629 335.2 142.629Z" stroke="#E2209E" stroke-width="2" mask="url(#path-13-inside-6_731_6)"/>
</g>
<path d="M485.9 835.442C485.9 835.442 489.895 800.588 485.254 758.384C482.998 737.87 486.603 710.227 488.8 683.554C491.821 646.87 488.36 614.149 485.9 606.114C480.949 589.944 488.424 557.31 488.8 528.482C489.129 503.177 485.254 463.851 485.254 463.851C485.254 463.851 453.036 475.5 441.057 475.5C430.587 475.5 386.789 467.468 371.938 468.539C357.759 469.562 323.363 459.021 308.498 459.021C294.359 459.021 274.592 470.173 253.128 465.982C242.214 463.851 234.486 475.399 222.515 475.5C209.194 475.613 201.762 465.797 188.442 465.982C177.197 466.138 171.023 468.539 159.692 468.539C147.425 468.539 138.92 465.982 126.71 466.728C113.806 467.517 112.167 467.734 112.167 467.734C114.249 498.969 124.706 523.075 128.167 552.482C130.128 581.902 110.313 600.936 112.167 628.737C113.678 651.408 118.936 661.534 120.668 688.775C121.542 702.513 120.807 716.104 122.508 745.429C124.179 774.251 114.752 826.661 115.508 837.999L146.23 837.999L173.382 832.459L206.923 835.442L235.939 832.459L268.415 835.442C268.415 835.442 291.042 839.704 306.216 835.442C321.165 831.243 325.648 831.606 345.081 835.442C361.382 838.659 448.366 832.885 463.806 835.442C474.043 837.137 485.9 835.442 485.9 835.442Z" fill="#161616"/>
<line x1="0.707107" y1="639.294" x2="354.707" y2="993.294" stroke="black" stroke-width="2"/>
<path d="M253.714 660.344L252.665 666.91H235.065V678.621C237.299 677.515 239.736 676.963 242.376 676.963C244.858 676.963 247.08 677.572 249.044 678.79C251.029 679.986 252.586 681.724 253.714 684.003C254.842 686.259 255.407 688.922 255.407 691.99C255.407 695.127 254.673 697.925 253.207 700.384C251.762 702.821 249.709 704.728 247.047 706.104C244.407 707.48 241.36 708.169 237.908 708.169C234.817 708.169 232.019 707.605 229.514 706.476C227.032 705.326 224.889 703.724 223.084 701.67L228.296 696.83C229.514 698.274 230.891 699.369 232.425 700.113C233.959 700.835 235.618 701.196 237.4 701.196C240.108 701.196 242.24 700.384 243.797 698.759C245.377 697.112 246.167 694.867 246.167 692.024C246.167 688.978 245.535 686.767 244.271 685.39C243.008 684.014 241.281 683.326 239.093 683.326C238.055 683.326 237.028 683.45 236.013 683.698C235.02 683.946 233.948 684.341 232.797 684.883H226.536V660.344H253.714ZM278.48 659.329C281.594 659.329 284.313 659.859 286.637 660.919C288.961 661.98 290.743 663.413 291.984 665.218C293.225 667.023 293.846 669.02 293.846 671.209C293.846 674.052 292.988 676.432 291.274 678.35C289.559 680.268 287.28 681.588 284.437 682.31C287.731 682.694 290.371 683.833 292.357 685.729C294.342 687.624 295.335 690.343 295.335 693.886C295.335 696.548 294.613 698.963 293.169 701.129C291.747 703.295 289.717 705.01 287.077 706.273C284.437 707.537 281.379 708.169 277.904 708.169C274.7 708.169 271.744 707.593 269.037 706.443C266.352 705.292 264.061 703.622 262.166 701.433L267.412 696.695C268.721 698.207 270.221 699.335 271.914 700.079C273.628 700.824 275.456 701.196 277.397 701.196C280.082 701.196 282.203 700.508 283.76 699.132C285.339 697.755 286.129 695.837 286.129 693.378C286.129 688.278 283.286 685.729 277.6 685.729H273.437L274.486 679.366H277.431C279.687 679.366 281.526 678.779 282.947 677.606C284.392 676.432 285.114 674.74 285.114 672.529C285.114 671.197 284.786 670.047 284.132 669.076C283.5 668.106 282.62 667.362 281.492 666.843C280.364 666.324 279.078 666.064 277.634 666.064C275.783 666.064 274.091 666.414 272.557 667.113C271.045 667.79 269.544 668.828 268.055 670.227L263.418 665.319C267.57 661.326 272.591 659.329 278.48 659.329ZM321.048 659.329C326.396 659.329 330.458 661.438 333.233 665.658C336.008 669.855 337.396 675.857 337.396 683.664C337.396 688.854 336.775 693.276 335.534 696.932C334.316 700.587 332.488 703.374 330.051 705.292C327.614 707.21 324.613 708.169 321.048 708.169C315.701 708.169 311.639 706.048 308.864 701.806C306.088 697.564 304.701 691.516 304.701 683.664C304.701 675.857 306.088 669.855 308.864 665.658C311.639 661.438 315.701 659.329 321.048 659.329ZM321.048 665.963C318.431 665.963 316.49 667.362 315.227 670.159C313.963 672.935 313.331 677.436 313.331 683.664C313.331 688.087 313.546 691.573 313.974 694.123L326.43 668.501C325.843 667.598 325.11 666.955 324.23 666.572C323.35 666.166 322.289 665.963 321.048 665.963ZM321.048 701.535C322.808 701.535 324.241 700.948 325.347 699.775C326.475 698.579 327.321 696.672 327.885 694.055C328.449 691.415 328.731 687.951 328.731 683.664C328.731 680.122 328.596 677.188 328.325 674.864L316.208 699.707C316.772 700.339 317.449 700.802 318.239 701.095C319.029 701.388 319.965 701.535 321.048 701.535ZM345.814 706.544L372.011 658.889L376.986 661.258L350.755 708.913L345.814 706.544ZM351.737 659.329C353.745 659.329 355.471 659.78 356.915 660.683C358.382 661.585 359.499 662.849 360.266 664.473C361.056 666.098 361.451 667.948 361.451 670.024C361.451 672.077 361.056 673.916 360.266 675.541C359.499 677.166 358.382 678.441 356.915 679.366C355.471 680.268 353.745 680.719 351.737 680.719C349.729 680.719 347.98 680.268 346.491 679.366C345.024 678.441 343.896 677.166 343.106 675.541C342.339 673.916 341.955 672.077 341.955 670.024C341.955 667.993 342.339 666.166 343.106 664.541C343.896 662.916 345.024 661.642 346.491 660.716C347.98 659.791 349.729 659.329 351.737 659.329ZM351.737 664.135C349.435 664.135 348.285 666.098 348.285 670.024C348.285 671.874 348.567 673.318 349.131 674.356C349.717 675.394 350.586 675.913 351.737 675.913C352.91 675.913 353.768 675.428 354.309 674.458C354.851 673.465 355.121 671.987 355.121 670.024C355.121 667.993 354.851 666.504 354.309 665.556C353.768 664.609 352.91 664.135 351.737 664.135ZM371.638 686.169C373.647 686.169 375.373 686.62 376.817 687.523C378.284 688.425 379.4 689.689 380.168 691.313C380.957 692.938 381.352 694.788 381.352 696.864C381.352 698.917 380.957 700.756 380.168 702.381C379.4 704.006 378.284 705.28 376.817 706.206C375.373 707.108 373.647 707.559 371.638 707.559C369.63 707.559 367.881 707.108 366.392 706.206C364.926 705.28 363.797 704.006 363.008 702.381C362.24 700.756 361.857 698.917 361.857 696.864C361.857 694.833 362.24 693.006 363.008 691.381C363.797 689.756 364.926 688.482 366.392 687.556C367.881 686.631 369.63 686.169 371.638 686.169ZM371.638 691.009C370.465 691.009 369.596 691.505 369.032 692.498C368.468 693.468 368.186 694.924 368.186 696.864C368.186 698.714 368.468 700.158 369.032 701.196C369.619 702.234 370.488 702.753 371.638 702.753C372.812 702.753 373.669 702.268 374.211 701.298C374.752 700.305 375.023 698.827 375.023 696.864C375.023 694.833 374.752 693.355 374.211 692.43C373.669 691.483 372.812 691.009 371.638 691.009Z" fill="#FFE500"/>
<path d="M269.697 746.519C269.261 746.677 268.764 746.789 268.208 746.857C267.651 746.917 266.993 746.947 266.233 746.947C266.986 747.271 267.546 747.681 267.914 748.177C268.283 748.666 268.467 749.271 268.467 749.993C268.467 750.768 268.268 751.464 267.869 752.081C267.478 752.69 266.914 753.168 266.177 753.513C265.447 753.852 264.59 754.021 263.605 754.021C263.041 754.021 262.533 753.965 262.082 753.852C261.939 753.935 261.822 754.055 261.732 754.213C261.649 754.371 261.608 754.533 261.608 754.698C261.608 754.954 261.706 755.157 261.901 755.307C262.104 755.45 262.476 755.522 263.018 755.522H265.049C265.914 755.522 266.681 755.668 267.35 755.962C268.027 756.255 268.55 756.661 268.919 757.18C269.295 757.692 269.483 758.267 269.483 758.906C269.483 759.711 269.246 760.399 268.772 760.971C268.306 761.55 267.614 761.99 266.696 762.291C265.778 762.592 264.658 762.742 263.334 762.742C261.927 762.742 260.818 762.599 260.006 762.313C259.201 762.028 258.633 761.61 258.302 761.061C257.971 760.52 257.806 759.831 257.806 758.997H260.457C260.457 759.41 260.536 759.734 260.694 759.967C260.859 760.208 261.153 760.384 261.574 760.497C261.995 760.617 262.601 760.678 263.39 760.678C264.526 760.678 265.331 760.542 265.805 760.271C266.279 760.008 266.515 759.621 266.515 759.109C266.515 758.681 266.331 758.346 265.963 758.105C265.602 757.865 265.094 757.744 264.44 757.744H262.465C261.691 757.744 261.044 757.639 260.525 757.428C260.013 757.218 259.633 756.936 259.385 756.582C259.137 756.229 259.013 755.838 259.013 755.409C259.013 754.98 259.126 754.574 259.351 754.19C259.585 753.807 259.915 753.48 260.344 753.209C259.615 752.825 259.084 752.363 258.753 751.821C258.422 751.272 258.257 750.606 258.257 749.824C258.257 748.974 258.475 748.226 258.911 747.579C259.348 746.932 259.953 746.432 260.728 746.079C261.51 745.725 262.401 745.548 263.402 745.548C264.274 745.556 265.034 745.503 265.681 745.39C266.335 745.278 266.895 745.127 267.362 744.939C267.835 744.751 268.366 744.503 268.952 744.195L269.697 746.519ZM263.458 747.534C262.766 747.534 262.228 747.737 261.845 748.143C261.469 748.549 261.281 749.102 261.281 749.802C261.281 750.516 261.472 751.08 261.856 751.494C262.24 751.9 262.777 752.103 263.469 752.103C264.146 752.103 264.665 751.904 265.026 751.505C265.387 751.099 265.568 750.52 265.568 749.768C265.568 748.279 264.865 747.534 263.458 747.534ZM282.262 745.548C282.623 745.548 282.95 745.578 283.243 745.639C283.544 745.691 283.841 745.77 284.135 745.876L283.604 750.535H281.619V748.2C280.859 748.26 280.194 748.602 279.622 749.226C279.058 749.851 278.61 750.697 278.279 751.765V755.759H280.66V757.823H273.62V755.759H275.301V747.929H273.62V745.876H277.569L278.121 748.617C278.565 747.587 279.118 746.819 279.78 746.316C280.449 745.804 281.277 745.548 282.262 745.548ZM293.326 745.537C294.5 745.537 295.504 745.797 296.339 746.316C297.173 746.827 297.805 747.557 298.234 748.504C298.67 749.444 298.888 750.55 298.888 751.821C298.888 753.115 298.67 754.239 298.234 755.195C297.798 756.142 297.158 756.876 296.316 757.395C295.481 757.906 294.481 758.162 293.315 758.162C292.142 758.162 291.138 757.91 290.303 757.406C289.468 756.902 288.832 756.176 288.396 755.228C287.96 754.281 287.742 753.152 287.742 751.844C287.742 750.595 287.96 749.497 288.396 748.549C288.84 747.594 289.479 746.853 290.314 746.327C291.156 745.8 292.16 745.537 293.326 745.537ZM293.326 747.782C292.484 747.782 291.86 748.113 291.453 748.775C291.047 749.429 290.844 750.452 290.844 751.844C290.844 753.25 291.047 754.281 291.453 754.935C291.86 755.589 292.48 755.917 293.315 755.917C294.15 755.917 294.77 755.589 295.177 754.935C295.583 754.273 295.786 753.235 295.786 751.821C295.786 750.445 295.583 749.429 295.177 748.775C294.77 748.113 294.154 747.782 293.326 747.782ZM314.748 745.876L312.92 757.823H309.422L308.215 749.531L306.929 757.823H303.499L301.593 745.876H304.391L305.429 755.973L306.907 747.387H309.648L311.002 755.973L312.062 745.876H314.748ZM328.384 757.158C327.918 757.466 327.365 757.71 326.726 757.891C326.094 758.071 325.425 758.162 324.718 758.162C323.762 758.162 322.954 757.992 322.292 757.654C321.638 757.316 321.145 756.838 320.814 756.221C320.483 755.597 320.318 754.86 320.318 754.01V747.985H317.723V745.876H320.318V743.247L323.296 742.886V745.876H327.245L326.94 747.985H323.296V753.999C323.296 754.623 323.447 755.078 323.747 755.364C324.048 755.642 324.533 755.781 325.203 755.781C325.97 755.781 326.688 755.601 327.358 755.24L328.384 757.158ZM335.906 747.218C336.387 746.662 336.937 746.244 337.553 745.966C338.178 745.68 338.836 745.537 339.528 745.537C340.611 745.537 341.431 745.845 341.987 746.462C342.551 747.071 342.833 747.944 342.833 749.08V757.823H339.855V749.745C339.855 749.023 339.742 748.512 339.516 748.211C339.298 747.91 338.922 747.76 338.388 747.76C337.937 747.76 337.501 747.91 337.079 748.211C336.658 748.512 336.267 748.91 335.906 749.407V757.823H332.928V741.115L335.906 740.821V747.218Z" fill="#07CBF5"/>
<g clip-path="url(#clip3_731_6)">
<path d="M263.38 583.907H271.007C272.21 583.907 273.186 584.883 273.186 586.086V611.146C273.186 612.349 272.211 613.325 271.007 613.325H263.38C262.177 613.325 261.201 612.349 261.201 611.146V586.086C261.201 584.883 262.177 583.907 263.38 583.907Z" fill="#E2209E"/>
<path d="M322.215 568.653H329.842C331.045 568.653 332.021 569.629 332.021 570.832V611.145C332.021 612.348 331.045 613.324 329.842 613.324H322.215C321.011 613.324 320.036 612.349 320.036 611.145V570.832C320.036 569.629 321.011 568.653 322.215 568.653Z" fill="#E2209E"/>
<path d="M282.992 574.102H290.619C291.822 574.102 292.798 575.077 292.798 576.281V611.146C292.798 612.349 291.822 613.325 290.619 613.325H282.992C281.788 613.325 280.813 612.349 280.813 611.146V576.281C280.813 575.077 281.788 574.102 282.992 574.102Z" fill="#E2209E"/>
<path d="M302.603 588.265H310.23C311.434 588.265 312.409 589.24 312.409 590.444V611.145C312.409 612.348 311.434 613.324 310.23 613.324H302.603C301.4 613.324 300.424 612.348 300.424 611.145V590.444C300.424 589.24 301.4 588.265 302.603 588.265Z" fill="#E2209E"/>
<mask id="path-22-inside-7_731_6" fill="white">
<path d="M321.738 539.35L322.526 540.137C323.378 540.988 323.378 542.368 322.527 543.219C322.527 543.219 322.526 543.219 322.526 543.22L306.523 559.226C305.673 560.076 304.293 560.076 303.442 559.226L285.771 541.555C284.92 540.704 283.541 540.703 282.69 541.554C282.689 541.554 282.689 541.555 282.689 541.555L258.377 565.868C257.527 566.718 257.527 568.098 258.377 568.949L263.596 574.169C264.447 575.02 265.826 575.02 266.678 574.169L266.678 574.169L282.689 558.157C283.54 557.306 284.919 557.306 285.771 558.156L285.771 558.157L303.442 575.828C304.293 576.679 305.673 576.679 306.523 575.828L330.828 551.525C331.678 550.674 333.058 550.674 333.909 551.525L334.763 552.379C335.613 553.231 336.993 553.231 337.844 552.38C338.149 552.076 338.357 551.688 338.441 551.266L341.697 534.984C341.932 533.804 341.167 532.656 339.986 532.42C339.705 532.364 339.415 532.364 339.133 532.42L322.851 535.677C321.671 535.915 320.908 537.064 321.146 538.244C321.231 538.662 321.436 539.047 321.738 539.35Z"/>
</mask>
<path d="M321.738 539.35L322.526 540.137C323.378 540.988 323.378 542.368 322.527 543.219C322.527 543.219 322.526 543.219 322.526 543.22L306.523 559.226C305.673 560.076 304.293 560.076 303.442 559.226L285.771 541.555C284.92 540.704 283.541 540.703 282.69 541.554C282.689 541.554 282.689 541.555 282.689 541.555L258.377 565.868C257.527 566.718 257.527 568.098 258.377 568.949L263.596 574.169C264.447 575.02 265.826 575.02 266.678 574.169L266.678 574.169L282.689 558.157C283.54 557.306 284.919 557.306 285.771 558.156L285.771 558.157L303.442 575.828C304.293 576.679 305.673 576.679 306.523 575.828L330.828 551.525C331.678 550.674 333.058 550.674 333.909 551.525L334.763 552.379C335.613 553.231 336.993 553.231 337.844 552.38C338.149 552.076 338.357 551.688 338.441 551.266L341.697 534.984C341.932 533.804 341.167 532.656 339.986 532.42C339.705 532.364 339.415 532.364 339.133 532.42L322.851 535.677C321.671 535.915 320.908 537.064 321.146 538.244C321.231 538.662 321.436 539.047 321.738 539.35Z" stroke="#E2209E" stroke-width="2" mask="url(#path-22-inside-7_731_6)"/>
</g>
<g filter="url(#filter0_d_731_6)">
<g clip-path="url(#clip4_731_6)">
<g filter="url(#filter1_d_731_6)">
<path d="M897.5 383.5C900.075 372.517 909 336 928.276 311.362C940.993 295.109 929.625 263.206 931.822 236.533C934.844 199.849 931.382 167.127 928.922 159.093C923.971 142.922 931.447 110.288 931.822 81.4606C932.152 56.1555 928.276 0.829773 928.276 0.829773C928.276 0.829773 896.058 12.4787 884.079 12.4787C873.609 12.4787 829.811 20.4466 814.96 21.5178C800.781 22.5405 766.386 11.9997 751.52 11.9997C737.382 11.9997 717.615 23.1512 696.15 18.9606C685.236 16.8298 677.509 28.3773 665.537 28.4787C652.216 28.5914 644.785 26.7759 631.464 26.9606C620.22 27.1165 614.046 29.5178 602.714 29.5178C590.447 29.5178 581.942 34.9606 569.733 35.7066C556.829 36.4951 552.189 38.7125 552.189 38.7125C554.271 69.9478 551.728 52.0537 555.189 81.4606C557.15 110.88 553.335 153.915 555.189 181.716C556.7 204.387 561.958 214.513 563.69 241.753C564.564 255.492 556.829 285.083 558.53 314.408C560.202 343.229 557.774 379.639 558.53 390.978L589.252 390.977L616.404 385.437L649.945 388.42L678.961 385.437L711.438 388.42C711.438 388.42 734.064 392.682 749.238 388.42C764.187 384.221 768.67 384.585 788.103 388.42C804.405 391.638 841.06 385.863 856.5 388.42C866.737 390.116 896.767 386.626 897.5 383.5Z" fill="#161616"/>
</g>
<line x1="593.707" y1="-179.707" x2="1247.71" y2="474.293" stroke="black" stroke-width="2"/>
</g>
<path d="M738.53 219.543L720.186 261.039L711.758 258.433L729.493 220.22H708.441V213.316H738.53V219.543ZM767.391 229.054C769.85 229.054 772.073 229.641 774.059 230.814C776.044 231.988 777.613 233.725 778.763 236.027C779.937 238.328 780.523 241.081 780.523 244.285C780.523 247.512 779.846 250.411 778.493 252.983C777.161 255.533 775.288 257.53 772.874 258.974C770.46 260.418 767.696 261.14 764.582 261.14C760.701 261.14 757.508 260.181 755.003 258.263C752.521 256.323 750.705 253.672 749.554 250.31C748.403 246.948 747.828 243.055 747.828 238.633C747.828 233.398 748.595 228.795 750.129 224.823C751.686 220.852 753.909 217.772 756.797 215.583C759.708 213.395 763.138 212.3 767.086 212.3C770.855 212.3 774.138 213.271 776.936 215.211L773.517 220.762C772.569 220.13 771.554 219.656 770.471 219.34C769.388 219.002 768.294 218.833 767.188 218.833C765.247 218.833 763.533 219.442 762.043 220.66C760.577 221.856 759.403 223.594 758.523 225.873C757.666 228.129 757.169 230.837 757.034 233.996C758.433 232.326 760.013 231.085 761.773 230.273C763.555 229.46 765.428 229.054 767.391 229.054ZM764.649 254.574C766.928 254.574 768.643 253.683 769.794 251.9C770.967 250.118 771.554 247.737 771.554 244.759C771.554 241.487 771.013 239.129 769.929 237.685C768.846 236.218 767.289 235.485 765.259 235.485C763.702 235.485 762.213 235.891 760.791 236.703C759.392 237.516 758.151 238.644 757.068 240.088C757.136 243.428 757.418 246.158 757.914 248.279C758.433 250.377 759.234 251.957 760.317 253.017C761.423 254.055 762.867 254.574 764.649 254.574Z" fill="#FFE500"/>
<path d="M685.374 308.745C685.871 308.745 686.345 308.654 686.796 308.474C687.255 308.293 687.721 308.038 688.195 307.707L689.549 309.613C689.007 310.08 688.36 310.452 687.608 310.73C686.856 311.001 686.07 311.136 685.25 311.136C684.017 311.136 682.949 310.877 682.046 310.358C681.151 309.839 680.463 309.109 679.982 308.169C679.508 307.229 679.271 306.138 679.271 304.897C679.271 303.664 679.512 302.566 679.993 301.603C680.482 300.633 681.181 299.877 682.091 299.335C683.001 298.786 684.069 298.512 685.295 298.512C686.145 298.512 686.916 298.632 687.608 298.873C688.308 299.113 688.951 299.478 689.537 299.967L688.217 301.795C687.292 301.163 686.348 300.847 685.386 300.847C684.461 300.847 683.731 301.178 683.197 301.84C682.67 302.502 682.407 303.521 682.407 304.897C682.407 306.244 682.67 307.221 683.197 307.831C683.731 308.44 684.457 308.745 685.374 308.745ZM699.18 298.512C700.354 298.512 701.358 298.771 702.193 299.29C703.028 299.802 703.659 300.531 704.088 301.479C704.524 302.419 704.742 303.525 704.742 304.796C704.742 306.089 704.524 307.214 704.088 308.169C703.652 309.117 703.012 309.85 702.17 310.369C701.335 310.881 700.335 311.136 699.169 311.136C697.996 311.136 696.992 310.884 696.157 310.38C695.322 309.876 694.686 309.151 694.25 308.203C693.814 307.255 693.596 306.127 693.596 304.818C693.596 303.57 693.814 302.472 694.25 301.524C694.694 300.569 695.333 299.828 696.168 299.301C697.01 298.775 698.015 298.512 699.18 298.512ZM699.18 300.757C698.338 300.757 697.714 301.088 697.308 301.75C696.901 302.404 696.698 303.427 696.698 304.818C696.698 306.225 696.901 307.255 697.308 307.91C697.714 308.564 698.334 308.891 699.169 308.891C700.004 308.891 700.624 308.564 701.031 307.91C701.437 307.248 701.64 306.21 701.64 304.796C701.64 303.419 701.437 302.404 701.031 301.75C700.624 301.088 700.008 300.757 699.18 300.757ZM712.05 307.131C712.05 307.763 712.174 308.214 712.422 308.485C712.67 308.756 713.046 308.891 713.55 308.891C714.009 308.891 714.46 308.752 714.904 308.474C715.355 308.195 715.72 307.834 715.999 307.391V298.85H718.977V310.798H716.382L716.224 309.331C715.803 309.91 715.261 310.358 714.6 310.674C713.938 310.982 713.238 311.136 712.501 311.136C711.365 311.136 710.508 310.817 709.929 310.177C709.357 309.538 709.071 308.643 709.071 307.492V298.85H712.05V307.131ZM723.927 310.798V298.85H726.521L726.736 300.328C727.247 299.726 727.823 299.275 728.462 298.974C729.101 298.666 729.789 298.512 730.527 298.512C731.595 298.512 732.411 298.82 732.975 299.437C733.546 300.054 733.832 300.926 733.832 302.054V310.798H730.854V303.216C730.854 302.585 730.812 302.096 730.73 301.75C730.654 301.396 730.512 301.14 730.301 300.982C730.098 300.817 729.797 300.734 729.398 300.734C728.526 300.734 727.695 301.265 726.905 302.325V310.798H723.927ZM749.093 310.132C748.627 310.441 748.074 310.685 747.435 310.866C746.803 311.046 746.134 311.136 745.427 311.136C744.472 311.136 743.663 310.967 743.001 310.629C742.347 310.29 741.854 309.813 741.523 309.196C741.192 308.572 741.027 307.834 741.027 306.985V300.96H738.432V298.85H741.027V296.221L744.005 295.86V298.85H747.954L747.649 300.96H744.005V306.973C744.005 307.598 744.156 308.053 744.457 308.338C744.757 308.617 745.243 308.756 745.912 308.756C746.679 308.756 747.397 308.575 748.067 308.214L749.093 310.132ZM762.392 298.523C762.753 298.523 763.08 298.553 763.373 298.613C763.674 298.666 763.971 298.745 764.265 298.85L763.734 303.51H761.749V301.174C760.989 301.234 760.323 301.577 759.752 302.201C759.188 302.825 758.74 303.671 758.409 304.739V308.733H760.79V310.798H753.75V308.733H755.431V300.903H753.75V298.85H757.698L758.251 301.592C758.695 300.561 759.248 299.794 759.91 299.29C760.579 298.779 761.406 298.523 762.392 298.523ZM773.434 292.826C773.795 292.826 774.114 292.905 774.393 293.062C774.671 293.213 774.889 293.423 775.047 293.694C775.205 293.965 775.284 294.266 775.284 294.597C775.284 294.928 775.205 295.229 775.047 295.499C774.889 295.77 774.671 295.985 774.393 296.142C774.114 296.3 773.795 296.379 773.434 296.379C773.073 296.379 772.749 296.3 772.463 296.142C772.185 295.985 771.967 295.77 771.809 295.499C771.651 295.229 771.572 294.928 771.572 294.597C771.572 294.266 771.651 293.965 771.809 293.694C771.967 293.423 772.185 293.213 772.463 293.062C772.749 292.905 773.073 292.826 773.434 292.826ZM769 298.85H775.363V308.688H778.51V310.798H768.887V308.688H772.384V300.96H769V298.85ZM785.886 305.732C785.968 306.808 786.284 307.605 786.833 308.124C787.39 308.643 788.101 308.902 788.966 308.902C789.515 308.902 790.041 308.816 790.545 308.643C791.049 308.47 791.557 308.214 792.068 307.876L793.309 309.579C792.73 310.068 792.053 310.452 791.278 310.73C790.504 311.001 789.669 311.136 788.774 311.136C787.503 311.136 786.42 310.873 785.525 310.347C784.637 309.82 783.964 309.083 783.505 308.135C783.054 307.188 782.828 306.089 782.828 304.841C782.828 303.645 783.05 302.569 783.494 301.614C783.945 300.652 784.592 299.896 785.434 299.347C786.284 298.79 787.285 298.512 788.435 298.512C789.518 298.512 790.462 298.752 791.267 299.234C792.072 299.715 792.692 300.411 793.129 301.321C793.565 302.223 793.783 303.299 793.783 304.548C793.783 304.976 793.764 305.371 793.727 305.732H785.886ZM788.447 300.61C787.702 300.61 787.1 300.877 786.642 301.411C786.19 301.938 785.927 302.742 785.852 303.826H790.884C790.869 302.795 790.654 302.002 790.241 301.445C789.834 300.888 789.236 300.61 788.447 300.61ZM802.749 308.936C803.464 308.936 804.028 308.816 804.441 308.575C804.863 308.327 805.073 307.981 805.073 307.537C805.073 307.229 805.002 306.977 804.859 306.781C804.716 306.586 804.441 306.402 804.035 306.229C803.637 306.048 803.031 305.849 802.219 305.631C801.391 305.42 800.699 305.172 800.143 304.886C799.586 304.593 799.154 304.217 798.845 303.758C798.537 303.292 798.383 302.72 798.383 302.043C798.383 301.351 798.578 300.738 798.97 300.204C799.368 299.67 799.94 299.256 800.684 298.963C801.437 298.662 802.324 298.512 803.347 298.512C805.167 298.512 806.72 298.978 808.006 299.911L806.788 301.727C805.697 301.035 804.573 300.689 803.415 300.689C802.076 300.689 801.406 301.073 801.406 301.84C801.406 302.103 801.485 302.321 801.643 302.494C801.809 302.667 802.091 302.833 802.49 302.991C802.896 303.149 803.516 303.344 804.351 303.577C805.208 303.818 805.908 304.081 806.45 304.367C806.999 304.653 807.424 305.033 807.724 305.507C808.033 305.98 808.187 306.586 808.187 307.323C808.187 308.15 807.939 308.854 807.442 309.433C806.953 310.004 806.299 310.433 805.479 310.719C804.659 310.997 803.753 311.136 802.76 311.136C801.677 311.136 800.711 310.982 799.861 310.674C799.011 310.365 798.278 309.94 797.661 309.399L799.206 307.661C799.695 308.053 800.241 308.365 800.842 308.598C801.444 308.823 802.08 308.936 802.749 308.936Z" fill="#07CBF5"/>
<mask id="path-27-inside-8_731_6" fill="white">
<path d="M736.125 101.991C736.125 102.437 736.138 104.36 736.176 105.054L736.425 114.532L709.875 136.388L709.875 146.693L736.881 134.455L737.118 150.42L728.25 157.685L728.25 166.234L743.701 162.853C743.79 162.828 743.877 162.799 743.962 162.766C743.97 162.764 743.979 162.764 743.987 162.766C744.072 162.8 744.158 162.829 744.246 162.853L759.75 166.28L759.75 157.785L750.727 150.328L751.083 134.452L778.125 146.694L778.125 136.359L751.588 114.538L751.841 105.06C751.878 104.357 751.891 102.435 751.891 101.999C751.891 98.004 751.343 94.7359 750.261 92.2848C748.43 88.1275 745.552 87.5073 744 87.5073C739.068 87.5073 736.125 92.9214 736.125 101.991Z"/>
</mask>
<path d="M736.125 101.991C736.125 102.437 736.138 104.36 736.176 105.054L736.425 114.532L709.875 136.388L709.875 146.693L736.881 134.455L737.118 150.42L728.25 157.685L728.25 166.234L743.701 162.853C743.79 162.828 743.877 162.799 743.962 162.766C743.97 162.764 743.979 162.764 743.987 162.766C744.072 162.8 744.158 162.829 744.246 162.853L759.75 166.28L759.75 157.785L750.727 150.328L751.083 134.452L778.125 146.694L778.125 136.359L751.588 114.538L751.841 105.06C751.878 104.357 751.891 102.435 751.891 101.999C751.891 98.004 751.343 94.7359 750.261 92.2848C748.43 88.1275 745.552 87.5073 744 87.5073C739.068 87.5073 736.125 92.9214 736.125 101.991Z" stroke="#E2209E" stroke-width="2" mask="url(#path-27-inside-8_731_6)"/>
<g clip-path="url(#clip5_731_6)">
<path d="M736.125 101.991C736.125 102.437 736.138 104.36 736.176 105.054L736.425 114.532L709.875 136.388L709.875 146.693L736.881 134.455L737.118 150.42L728.25 157.685L728.25 166.234L743.701 162.853C743.79 162.828 743.877 162.799 743.962 162.766C743.97 162.764 743.979 162.764 743.987 162.766C744.072 162.8 744.158 162.829 744.246 162.853L759.75 166.28L759.75 157.785L750.727 150.328L751.083 134.452L778.125 146.694L778.125 136.359L751.588 114.538L751.841 105.06C751.878 104.357 751.891 102.435 751.891 101.999C751.891 98.004 751.343 94.7359 750.261 92.2848C748.43 88.1275 745.552 87.5073 744 87.5073C739.068 87.5073 736.125 92.9214 736.125 101.991Z" fill="#E2209E"/>
</g>
</g>
<path d="M898.923 790.081C898.923 790.081 902.918 755.228 898.276 713.023C896.02 692.51 899.625 664.867 901.822 638.194C904.844 601.51 901.382 568.788 898.923 560.754C893.972 544.583 901.447 511.949 901.822 483.122C902.152 457.816 898.276 418.491 898.276 418.491C898.276 418.491 866.058 430.14 854.079 430.14C843.609 430.14 799.811 422.108 784.96 423.179C770.782 424.201 736.386 413.661 721.52 413.661C707.382 413.661 687.615 424.812 666.151 420.622C655.236 418.491 647.509 430.038 635.538 430.14C622.217 430.252 614.785 420.437 601.464 420.622C590.22 420.777 584.046 423.179 572.715 423.179C560.448 423.179 551.942 420.622 539.733 421.368C526.829 422.156 525.189 422.373 525.189 422.373C527.272 453.609 521.729 453.715 525.189 483.122C527.151 512.541 523.336 555.576 525.189 583.377C526.701 606.048 531.958 616.174 533.691 643.414C534.564 657.153 526.829 686.744 528.53 716.069C530.202 744.89 528.53 823.639 529.286 834.977L559.252 808.638L586.405 795.098L619.946 790.081L648.961 787.098L681.438 790.081C681.438 790.081 704.065 794.343 719.238 790.081C734.187 785.882 738.671 786.246 758.103 790.081C774.405 793.299 861.388 787.524 876.828 790.081C887.065 791.777 898.923 790.081 898.923 790.081Z" fill="#161616"/>
<path d="M671.346 613.965C674.595 613.965 677.382 614.563 679.706 615.759C682.03 616.933 683.79 618.523 684.986 620.532C686.182 622.54 686.78 624.774 686.78 627.233C686.78 629.896 686.16 632.491 684.919 635.018C683.7 637.522 681.703 640.298 678.928 643.344C676.152 646.39 672.226 650.203 667.149 654.784H687.863L686.882 661.79H656.928V655.258C662.614 649.775 666.879 645.476 669.722 642.362C672.587 639.226 674.618 636.563 675.814 634.375C677.01 632.186 677.608 630.031 677.608 627.91C677.608 625.744 676.987 624.052 675.746 622.833C674.528 621.592 672.813 620.972 670.602 620.972C668.661 620.972 667.003 621.344 665.626 622.089C664.272 622.833 662.93 624.063 661.599 625.778L655.98 621.513C657.83 619.031 659.996 617.158 662.479 615.895C664.961 614.609 667.916 613.965 671.346 613.965ZM729.924 614.981L732.564 661.79H724.306L723.426 640.23C723.335 638.064 723.29 635.83 723.29 633.529C723.29 629.941 723.414 626.432 723.662 623.002L717.469 653.667H709.955L703.321 623.002C703.614 626.771 703.761 630.753 703.761 634.95C703.761 637.274 703.738 639.057 703.693 640.298L703.05 661.79H694.927L697.567 614.981H707.856L713.881 645.882L719.635 614.981H729.924ZM750.459 623.409H758.142V637.15H771.646V644.19H758.142V657.932H750.459V644.19H737.056V637.15H750.459V623.409Z" fill="#FFE500"/>
<path d="M631.225 710.596C631.94 710.596 632.504 710.476 632.918 710.235C633.339 709.987 633.549 709.641 633.549 709.197C633.549 708.889 633.478 708.637 633.335 708.442C633.192 708.246 632.918 708.062 632.512 707.889C632.113 707.708 631.507 707.509 630.695 707.291C629.868 707.08 629.176 706.832 628.619 706.546C628.063 706.253 627.63 705.877 627.322 705.418C627.013 704.952 626.859 704.38 626.859 703.703C626.859 703.011 627.055 702.398 627.446 701.864C627.844 701.33 628.416 700.916 629.161 700.623C629.913 700.322 630.8 700.172 631.823 700.172C633.643 700.172 635.197 700.638 636.483 701.571L635.264 703.387C634.174 702.695 633.049 702.349 631.891 702.349C630.552 702.349 629.883 702.733 629.883 703.5C629.883 703.763 629.962 703.981 630.12 704.154C630.285 704.327 630.567 704.493 630.966 704.651C631.372 704.809 631.993 705.004 632.827 705.237C633.685 705.478 634.384 705.741 634.926 706.027C635.475 706.313 635.9 706.693 636.201 707.167C636.509 707.641 636.663 708.246 636.663 708.983C636.663 709.81 636.415 710.514 635.919 711.093C635.43 711.665 634.775 712.093 633.956 712.379C633.136 712.657 632.229 712.796 631.237 712.796C630.154 712.796 629.187 712.642 628.337 712.334C627.487 712.026 626.754 711.601 626.137 711.059L627.683 709.322C628.172 709.713 628.717 710.025 629.319 710.258C629.92 710.484 630.556 710.596 631.225 710.596ZM646.498 700.172C647.671 700.172 648.675 700.431 649.51 700.95C650.345 701.462 650.977 702.191 651.406 703.139C651.842 704.079 652.06 705.185 652.06 706.456C652.06 707.75 651.842 708.874 651.406 709.829C650.969 710.777 650.33 711.51 649.488 712.029C648.653 712.541 647.652 712.796 646.487 712.796C645.313 712.796 644.309 712.545 643.474 712.041C642.639 711.537 642.004 710.811 641.568 709.863C641.131 708.915 640.913 707.787 640.913 706.479C640.913 705.23 641.131 704.132 641.568 703.184C642.011 702.229 642.651 701.488 643.486 700.962C644.328 700.435 645.332 700.172 646.498 700.172ZM646.498 702.417C645.656 702.417 645.031 702.748 644.625 703.41C644.219 704.064 644.016 705.087 644.016 706.479C644.016 707.885 644.219 708.915 644.625 709.57C645.031 710.224 645.652 710.551 646.487 710.551C647.322 710.551 647.942 710.224 648.348 709.57C648.754 708.908 648.957 707.87 648.957 706.456C648.957 705.08 648.754 704.064 648.348 703.41C647.942 702.748 647.325 702.417 646.498 702.417ZM662.075 708.983C662.075 709.938 662.639 710.416 663.767 710.416C664.339 710.416 664.937 710.292 665.561 710.044L666.295 712.074C665.362 712.556 664.283 712.796 663.057 712.796C661.771 712.796 660.789 712.432 660.112 711.702C659.435 710.973 659.097 709.961 659.097 708.667V697.848H655.52V695.738H662.075V708.983ZM678.171 695.422L681.15 695.738V712.458H678.51L678.329 711.048C677.938 711.597 677.461 712.026 676.896 712.334C676.34 712.642 675.708 712.796 675.001 712.796C673.534 712.796 672.425 712.232 671.673 711.104C670.928 709.976 670.556 708.43 670.556 706.467C670.556 705.249 670.744 704.166 671.12 703.218C671.504 702.263 672.053 701.518 672.767 700.984C673.482 700.443 674.32 700.172 675.283 700.172C676.441 700.172 677.404 700.574 678.171 701.379V695.422ZM676.084 702.394C675.309 702.394 674.712 702.729 674.29 703.399C673.869 704.068 673.659 705.095 673.659 706.479C673.659 707.923 673.847 708.964 674.223 709.604C674.606 710.243 675.155 710.563 675.87 710.563C676.75 710.563 677.517 710.044 678.171 709.006V703.568C677.592 702.786 676.896 702.394 676.084 702.394ZM709.709 700.183C710.07 700.183 710.398 700.213 710.691 700.273C710.992 700.326 711.289 700.405 711.582 700.51L711.052 705.17H709.066V702.834C708.307 702.895 707.641 703.237 707.069 703.861C706.505 704.485 706.058 705.332 705.727 706.4V710.393H708.107V712.458H701.067V710.393H702.748V702.564H701.067V700.51H705.016L705.569 703.252C706.013 702.221 706.565 701.454 707.227 700.95C707.897 700.439 708.724 700.183 709.709 700.183ZM718.348 707.392C718.431 708.468 718.747 709.265 719.296 709.784C719.852 710.303 720.563 710.563 721.428 710.563C721.977 710.563 722.504 710.476 723.008 710.303C723.512 710.13 724.019 709.874 724.531 709.536L725.772 711.24C725.193 711.728 724.516 712.112 723.741 712.39C722.966 712.661 722.131 712.796 721.236 712.796C719.965 712.796 718.882 712.533 717.987 712.007C717.1 711.48 716.426 710.743 715.968 709.795C715.516 708.848 715.291 707.75 715.291 706.501C715.291 705.305 715.513 704.23 715.956 703.274C716.408 702.312 717.054 701.556 717.897 701.007C718.747 700.45 719.747 700.172 720.898 700.172C721.981 700.172 722.925 700.413 723.73 700.894C724.534 701.375 725.155 702.071 725.591 702.981C726.027 703.884 726.246 704.959 726.246 706.208C726.246 706.636 726.227 707.031 726.189 707.392H718.348ZM720.909 702.27C720.164 702.27 719.563 702.537 719.104 703.071C718.653 703.598 718.389 704.403 718.314 705.486H723.346C723.331 704.455 723.117 703.662 722.703 703.105C722.297 702.549 721.699 702.27 720.909 702.27ZM740.198 709.31C740.198 709.754 740.262 710.085 740.39 710.303C740.525 710.514 740.747 710.672 741.056 710.777L740.412 712.774C739.751 712.706 739.198 712.545 738.754 712.289C738.318 712.026 737.983 711.649 737.75 711.161C737.314 711.695 736.753 712.101 736.069 712.379C735.384 712.657 734.655 712.796 733.88 712.796C733.083 712.796 732.383 712.642 731.782 712.334C731.18 712.018 730.717 711.578 730.394 711.014C730.071 710.45 729.909 709.799 729.909 709.062C729.909 708.22 730.131 707.501 730.575 706.907C731.018 706.313 731.669 705.862 732.526 705.553C733.384 705.245 734.422 705.091 735.64 705.091H737.31V704.448C737.31 703.756 737.096 703.248 736.667 702.925C736.238 702.594 735.606 702.428 734.771 702.428C734.365 702.428 733.873 702.485 733.293 702.597C732.714 702.703 732.135 702.853 731.556 703.049L730.845 701.007C731.575 700.736 732.323 700.529 733.09 700.386C733.865 700.243 734.583 700.172 735.245 700.172C736.892 700.172 738.13 700.525 738.957 701.232C739.784 701.932 740.198 702.94 740.198 704.256V709.31ZM734.85 710.642C735.317 710.642 735.776 710.514 736.227 710.258C736.686 709.995 737.047 709.637 737.31 709.186V706.862H736.137C735.053 706.862 734.26 707.035 733.756 707.381C733.252 707.72 733 708.223 733 708.893C733 709.457 733.158 709.889 733.474 710.19C733.79 710.491 734.249 710.642 734.85 710.642ZM752.447 695.422L755.426 695.738V712.458H752.786L752.605 711.048C752.214 711.597 751.736 712.026 751.172 712.334C750.616 712.642 749.984 712.796 749.277 712.796C747.81 712.796 746.701 712.232 745.949 711.104C745.204 709.976 744.832 708.43 744.832 706.467C744.832 705.249 745.02 704.166 745.396 703.218C745.779 702.263 746.328 701.518 747.043 700.984C747.758 700.443 748.596 700.172 749.559 700.172C750.717 700.172 751.68 700.574 752.447 701.379V695.422ZM750.36 702.394C749.585 702.394 748.987 702.729 748.566 703.399C748.145 704.068 747.934 705.095 747.934 706.479C747.934 707.923 748.122 708.964 748.498 709.604C748.882 710.243 749.431 710.563 750.146 710.563C751.026 710.563 751.793 710.044 752.447 709.006V703.568C751.868 702.786 751.172 702.394 750.36 702.394ZM762.914 707.392C762.996 708.468 763.312 709.265 763.861 709.784C764.418 710.303 765.129 710.563 765.994 710.563C766.543 710.563 767.069 710.476 767.573 710.303C768.077 710.13 768.585 709.874 769.096 709.536L770.337 711.24C769.758 711.728 769.081 712.112 768.306 712.39C767.532 712.661 766.697 712.796 765.802 712.796C764.531 712.796 763.448 712.533 762.553 712.007C761.665 711.48 760.992 710.743 760.533 709.795C760.082 708.848 759.856 707.75 759.856 706.501C759.856 705.305 760.078 704.23 760.522 703.274C760.973 702.312 761.62 701.556 762.462 701.007C763.312 700.45 764.313 700.172 765.463 700.172C766.546 700.172 767.49 700.413 768.295 700.894C769.1 701.375 769.72 702.071 770.157 702.981C770.593 703.884 770.811 704.959 770.811 706.208C770.811 706.636 770.792 707.031 770.755 707.392H762.914ZM765.475 702.27C764.73 702.27 764.128 702.537 763.669 703.071C763.218 703.598 762.955 704.403 762.88 705.486H767.912C767.896 704.455 767.682 703.662 767.268 703.105C766.862 702.549 766.264 702.27 765.475 702.27ZM783.985 700.183C784.346 700.183 784.673 700.213 784.967 700.273C785.268 700.326 785.565 700.405 785.858 700.51L785.328 705.17H783.342V702.834C782.582 702.895 781.917 703.237 781.345 703.861C780.781 704.485 780.333 705.332 780.003 706.4V710.393H782.383V712.458H775.343V710.393H777.024V702.564H775.343V700.51H779.292L779.845 703.252C780.288 702.221 780.841 701.454 781.503 700.95C782.172 700.439 783 700.183 783.985 700.183ZM794.632 710.596C795.347 710.596 795.911 710.476 796.324 710.235C796.746 709.987 796.956 709.641 796.956 709.197C796.956 708.889 796.885 708.637 796.742 708.442C796.599 708.246 796.324 708.062 795.918 707.889C795.52 707.708 794.914 707.509 794.102 707.291C793.274 707.08 792.583 706.832 792.026 706.546C791.469 706.253 791.037 705.877 790.728 705.418C790.42 704.952 790.266 704.38 790.266 703.703C790.266 703.011 790.461 702.398 790.853 701.864C791.251 701.33 791.823 700.916 792.567 700.623C793.32 700.322 794.207 700.172 795.23 700.172C797.05 700.172 798.603 700.638 799.89 701.571L798.671 703.387C797.58 702.695 796.456 702.349 795.298 702.349C793.959 702.349 793.29 702.733 793.29 703.5C793.29 703.763 793.368 703.981 793.526 704.154C793.692 704.327 793.974 704.493 794.373 704.651C794.779 704.809 795.399 705.004 796.234 705.237C797.092 705.478 797.791 705.741 798.333 706.027C798.882 706.313 799.307 706.693 799.607 707.167C799.916 707.641 800.07 708.246 800.07 708.983C800.07 709.81 799.822 710.514 799.325 711.093C798.837 711.665 798.182 712.093 797.362 712.379C796.543 712.657 795.636 712.796 794.643 712.796C793.56 712.796 792.594 712.642 791.744 712.334C790.894 712.026 790.161 711.601 789.544 711.059L791.09 709.322C791.578 709.713 792.124 710.025 792.725 710.258C793.327 710.484 793.963 710.596 794.632 710.596Z" fill="#07CBF5"/>
<g clip-path="url(#clip6_731_6)">
<mask id="path-32-inside-9_731_6" fill="white">
<path d="M724.682 523.644C721.386 521.822 717.882 520.434 714.412 518.995C712.399 518.162 710.474 517.19 708.774 515.837C705.425 513.165 706.067 508.828 709.988 507.111C711.098 506.625 712.261 506.469 713.44 506.399C717.986 506.156 722.306 506.989 726.417 508.967C728.464 509.956 729.141 509.644 729.835 507.51C730.564 505.254 731.171 502.964 731.847 500.692C732.299 499.165 731.743 498.159 730.303 497.517C727.666 496.354 724.96 495.522 722.115 495.071C718.402 494.498 718.402 494.481 718.385 490.751C718.367 485.494 718.367 485.494 713.093 485.494C712.33 485.494 711.567 485.477 710.803 485.494C708.34 485.563 707.924 485.997 707.854 488.478C707.819 489.588 707.854 490.699 707.837 491.826C707.819 495.123 707.802 495.071 704.645 496.216C697.011 498.991 692.292 504.196 691.789 512.523C691.338 519.897 695.19 524.876 701.244 528.502C704.974 530.74 709.103 532.058 713.059 533.81C714.603 534.487 716.077 535.268 717.361 536.343C721.161 539.483 720.467 544.705 715.956 546.683C713.545 547.741 710.994 548.002 708.375 547.672C704.332 547.169 700.464 546.111 696.82 544.22C694.686 543.109 694.062 543.404 693.333 545.712C692.709 547.707 692.153 549.719 691.598 551.732C690.852 554.438 691.13 555.08 693.715 556.346C697.011 557.943 700.533 558.758 704.124 559.33C706.935 559.781 707.021 559.903 707.056 562.818C707.073 564.136 707.073 565.472 707.091 566.79C707.108 568.456 707.906 569.427 709.624 569.462C711.567 569.497 713.527 569.497 715.47 569.445C717.066 569.41 717.882 568.543 717.882 566.929C717.882 565.125 717.968 563.303 717.899 561.499C717.812 559.66 718.61 558.723 720.38 558.237C724.457 557.127 727.927 554.941 730.598 551.68C738.024 542.658 735.196 529.456 724.682 523.644Z"/>
</mask>
<path d="M724.682 523.644C721.386 521.822 717.882 520.434 714.412 518.995C712.399 518.162 710.474 517.19 708.774 515.837C705.425 513.165 706.067 508.828 709.988 507.111C711.098 506.625 712.261 506.469 713.44 506.399C717.986 506.156 722.306 506.989 726.417 508.967C728.464 509.956 729.141 509.644 729.835 507.51C730.564 505.254 731.171 502.964 731.847 500.692C732.299 499.165 731.743 498.159 730.303 497.517C727.666 496.354 724.96 495.522 722.115 495.071C718.402 494.498 718.402 494.481 718.385 490.751C718.367 485.494 718.367 485.494 713.093 485.494C712.33 485.494 711.567 485.477 710.803 485.494C708.34 485.563 707.924 485.997 707.854 488.478C707.819 489.588 707.854 490.699 707.837 491.826C707.819 495.123 707.802 495.071 704.645 496.216C697.011 498.991 692.292 504.196 691.789 512.523C691.338 519.897 695.19 524.876 701.244 528.502C704.974 530.74 709.103 532.058 713.059 533.81C714.603 534.487 716.077 535.268 717.361 536.343C721.161 539.483 720.467 544.705 715.956 546.683C713.545 547.741 710.994 548.002 708.375 547.672C704.332 547.169 700.464 546.111 696.82 544.22C694.686 543.109 694.062 543.404 693.333 545.712C692.709 547.707 692.153 549.719 691.598 551.732C690.852 554.438 691.13 555.08 693.715 556.346C697.011 557.943 700.533 558.758 704.124 559.33C706.935 559.781 707.021 559.903 707.056 562.818C707.073 564.136 707.073 565.472 707.091 566.79C707.108 568.456 707.906 569.427 709.624 569.462C711.567 569.497 713.527 569.497 715.47 569.445C717.066 569.41 717.882 568.543 717.882 566.929C717.882 565.125 717.968 563.303 717.899 561.499C717.812 559.66 718.61 558.723 720.38 558.237C724.457 557.127 727.927 554.941 730.598 551.68C738.024 542.658 735.196 529.456 724.682 523.644Z" stroke="#E2209E" stroke-width="2" mask="url(#path-32-inside-9_731_6)"/>
<g clip-path="url(#clip7_731_6)">
<path d="M724.682 523.644C721.386 521.822 717.882 520.434 714.412 518.995C712.399 518.162 710.474 517.19 708.774 515.837C705.425 513.165 706.067 508.828 709.988 507.111C711.098 506.625 712.261 506.469 713.44 506.399C717.986 506.156 722.306 506.989 726.417 508.967C728.464 509.956 729.141 509.644 729.835 507.51C730.564 505.254 731.171 502.964 731.847 500.692C732.299 499.165 731.743 498.159 730.303 497.517C727.666 496.354 724.96 495.522 722.115 495.071C718.402 494.498 718.402 494.481 718.385 490.751C718.367 485.494 718.367 485.494 713.093 485.494C712.33 485.494 711.567 485.477 710.803 485.494C708.34 485.563 707.924 485.997 707.854 488.478C707.819 489.588 707.854 490.699 707.837 491.826C707.819 495.123 707.802 495.071 704.645 496.216C697.011 498.991 692.292 504.196 691.789 512.523C691.338 519.897 695.19 524.876 701.244 528.502C704.974 530.74 709.103 532.058 713.059 533.81C714.603 534.487 716.077 535.268 717.361 536.343C721.161 539.483 720.467 544.705 715.956 546.683C713.545 547.741 710.994 548.002 708.375 547.672C704.332 547.169 700.464 546.111 696.82 544.22C694.686 543.109 694.062 543.404 693.333 545.712C692.709 547.707 692.153 549.719 691.598 551.732C690.852 554.438 691.13 555.08 693.715 556.346C697.011 557.943 700.533 558.758 704.124 559.33C706.935 559.781 707.021 559.903 707.056 562.818C707.073 564.136 707.073 565.472 707.091 566.79C707.108 568.456 707.906 569.427 709.624 569.462C711.567 569.497 713.527 569.497 715.47 569.445C717.066 569.41 717.882 568.543 717.882 566.929C717.882 565.125 717.968 563.303 717.899 561.499C717.812 559.66 718.61 558.723 720.38 558.237C724.457 557.127 727.927 554.941 730.598 551.68C738.024 542.658 735.196 529.456 724.682 523.644Z" fill="#E2209E"/>
</g>
</g>
<path d="M551.39 334.909L534.549 328L517 322.5L503.5 338.364L500.002 376.365L496.116 395.366L478 418L437.818 433.367L424.432 445.89L424 471.368L436.728 489.3L464 493L491.366 497.71L543.185 488.21L557.436 474.823L574.709 461.004L586.369 433.367L591.551 408.753V388.025L588.5 370.5L568.664 338.364L551.39 334.909Z" fill="black" stroke="black"/>
<path d="M522.729 357.395C519.569 349.354 530.138 341.915 537.749 346.843C539.467 347.955 541.128 349.135 542.731 350.38L538.176 362.949L522.729 357.395Z" fill="#BDA41C"/>
<path d="M456.381 470.215C447.661 466.967 449.716 455.266 459.277 453.596C461.865 453.147 464.458 452.576 467.052 451.881L470.943 462.548L465.048 472.884C462.087 472.153 459.192 471.26 456.381 470.215Z" fill="#BDA41C"/>
<path d="M522.729 357.395L542.731 350.38C553.744 358.938 561.953 370.594 565.68 384.505C575.685 421.843 549.858 461.003 507.792 472.274C493.098 476.211 478.389 476.184 465.048 472.884L467.052 451.881C508.969 440.649 534.913 401.318 524.938 364.108C524.322 361.806 523.582 359.567 522.729 357.395Z" fill="#FFE500"/>
<path d="M503.906 457.768C491.085 461.204 478.252 461.62 466.327 459.479L465.048 472.884C478.389 476.184 493.098 476.211 507.792 472.274C549.858 461.003 575.685 421.843 565.68 384.505C565.024 382.058 564.228 379.682 563.304 377.379C568.328 412.367 543.206 447.238 503.906 457.768Z" fill="#D2B82F"/>
<path d="M548.744 374.675C553.694 393.149 550.271 412.647 539.105 429.575C527.94 446.504 510.327 458.899 489.513 464.476C486.441 465.299 483.299 465.969 480.176 466.465C479.185 466.623 478.288 466.031 478.172 465.147C478.057 464.26 478.766 463.415 479.757 463.257C482.741 462.783 485.742 462.144 488.678 461.357C508.553 456.032 525.37 444.198 536.029 428.036C546.689 411.874 549.956 393.258 545.229 375.618C544.749 373.823 544.175 372.02 543.525 370.259C543.217 369.421 543.734 368.475 544.682 368.146C545.631 367.817 546.65 368.228 546.96 369.066C547.64 370.909 548.24 372.796 548.744 374.675Z" fill="#74640E"/>
<defs>
<filter id="filter0_d_731_6" x="548.189" y="0.830078" width="390.219" height="398.147" filterUnits="userSpaceOnUse" color-interpolation-filters="sRGB">
<feFlood flood-opacity="0" result="BackgroundImageFix"/>
<feColorMatrix in="SourceAlpha" type="matrix" values="0 0 0 0 0 0 0 0 0 0 0 0 0 0 0 0 0 0 127 0" result="hardAlpha"/>
<feOffset dy="4"/>
<feGaussianBlur stdDeviation="2"/>
<feComposite in2="hardAlpha" operator="out"/>
<feColorMatrix type="matrix" values="0 0 0 0 0 0 0 0 0 0 0 0 0 0 0 0 0 0 0.25 0"/>
<feBlend mode="normal" in2="BackgroundImageFix" result="effect1_dropShadow_731_6"/>
<feBlend mode="normal" in="SourceGraphic" in2="effect1_dropShadow_731_6" result="shape"/>
</filter>
<filter id="filter1_d_731_6" x="548.189" y="0.830078" width="390.219" height="398.147" filterUnits="userSpaceOnUse" color-interpolation-filters="sRGB">
<feFlood flood-opacity="0" result="BackgroundImageFix"/>
<feColorMatrix in="SourceAlpha" type="matrix" values="0 0 0 0 0 0 0 0 0 0 0 0 0 0 0 0 0 0 127 0" result="hardAlpha"/>
<feOffset dy="4"/>
<feGaussianBlur stdDeviation="2"/>
<feComposite in2="hardAlpha" operator="out"/>
<feColorMatrix type="matrix" values="0 0 0 0 0 0 0 0 0 0 0 0 0 0 0 0 0 0 0.25 0"/>
<feBlend mode="normal" in2="BackgroundImageFix" result="effect1_dropShadow_731_6"/>
<feBlend mode="normal" in="SourceGraphic" in2="effect1_dropShadow_731_6" result="shape"/>
</filter>
<clipPath id="clip0_731_6">
<rect width="84" height="31" fill="white" transform="translate(289 175)"/>
</clipPath>
<clipPath id="clip1_731_6">
<rect width="26" height="51" fill="white" transform="translate(318 155)"/>
</clipPath>
<clipPath id="clip2_731_6">
<rect width="84" height="84" fill="white" transform="translate(289 121.629)"/>
</clipPath>
<clipPath id="clip3_731_6">
<rect width="84" height="84" fill="white" transform="translate(257.739 530.851)"/>
</clipPath>
<clipPath id="clip4_731_6">
<rect width="382.219" height="390.148" fill="white" transform="translate(552.189 0.830078)"/>
</clipPath>
<clipPath id="clip5_731_6">
<rect width="78" height="33" fill="white" transform="translate(745 166) rotate(-90)"/>
</clipPath>
<clipPath id="clip6_731_6">
<rect width="84" height="84" fill="white" transform="translate(671 485.487)"/>
</clipPath>
<clipPath id="clip7_731_6">
<rect width="44" height="47" fill="white" transform="translate(691 522.001)"/>
</clipPath>
</defs>
</svg>
