<svg width="85" height="85" viewBox="0 0 85 85" fill="none" xmlns="http://www.w3.org/2000/svg">
<g clip-path="url(#clip0_727_1643)">
<path d="M6.38029 53.9072H14.007C15.2105 53.9072 16.1861 54.8828 16.1861 56.0863V81.1455C16.1861 82.3489 15.2106 83.3246 14.007 83.3246H6.38029C5.17687 83.3246 4.20117 82.3491 4.20117 81.1455V56.0863C4.20134 54.8829 5.17687 53.9072 6.38029 53.9072Z" fill="#E2209E"/>
<path d="M65.2148 38.6533H72.8415C74.0449 38.6533 75.0206 39.6289 75.0206 40.8324V81.1449C75.0206 82.3484 74.0451 83.3241 72.8415 83.3241H65.2148C64.0113 83.3241 63.0356 82.3485 63.0356 81.1449V40.8324C63.0358 39.6289 64.0113 38.6533 65.2148 38.6533Z" fill="#E2209E"/>
<path d="M25.9919 44.1016H33.6186C34.822 44.1016 35.7977 45.0771 35.7977 46.2807V81.1456C35.7977 82.349 34.8222 83.3247 33.6186 83.3247H25.9919C24.7884 83.3247 23.8127 82.3491 23.8127 81.1456V46.2807C23.8127 45.0773 24.7884 44.1016 25.9919 44.1016Z" fill="#E2209E"/>
<path d="M45.6034 58.2646H53.2302C54.4336 58.2646 55.4093 59.2402 55.4093 60.4438V81.1447C55.4093 82.3481 54.4338 83.3238 53.2302 83.3238H45.6034C44.4 83.3238 43.4243 82.3483 43.4243 81.1447V60.4436C43.4243 59.2402 44.3999 58.2646 45.6034 58.2646Z" fill="#E2209E"/>
<mask id="path-5-inside-1_727_1643" fill="white">
<path d="M64.7375 9.3496L65.5263 10.1373C66.3775 10.9881 66.3778 12.3677 65.527 13.2189C65.5268 13.2191 65.5265 13.2194 65.5263 13.2196L49.5234 29.2258C48.6726 30.0765 47.2931 30.0765 46.4422 29.2258L28.7713 11.5548C27.9204 10.7036 26.5408 10.7033 25.6896 11.5541C25.6895 11.5543 25.6891 11.5546 25.689 11.5548L1.37727 35.8677C0.526588 36.7185 0.526588 38.098 1.37727 38.9488L6.59602 44.1687C7.44687 45.0199 8.82649 45.0202 9.67766 44.1694L9.67832 44.1687L25.689 28.1571C26.5398 27.3059 27.9194 27.3056 28.7706 28.1564L28.7713 28.1571L46.4422 45.8281C47.2931 46.6787 48.6726 46.6787 49.5234 45.8281L73.8275 21.5251C74.6784 20.6744 76.0579 20.6744 76.9087 21.5251L77.7628 22.3792C78.6135 23.2305 79.9931 23.231 80.8445 22.3803C81.1491 22.076 81.3567 21.688 81.441 21.2657L84.6965 4.98382C84.9323 3.8037 84.1666 2.6559 82.9865 2.42014C82.7048 2.36386 82.4146 2.36386 82.1329 2.42014L65.851 5.67667C64.6714 5.91489 63.9082 7.06433 64.1464 8.24396C64.2309 8.6625 64.4364 9.0469 64.7375 9.3496Z"/>
</mask>
<path d="M64.7375 9.3496L65.5263 10.1373C66.3775 10.9881 66.3778 12.3677 65.527 13.2189C65.5268 13.2191 65.5265 13.2194 65.5263 13.2196L49.5234 29.2258C48.6726 30.0765 47.2931 30.0765 46.4422 29.2258L28.7713 11.5548C27.9204 10.7036 26.5408 10.7033 25.6896 11.5541C25.6895 11.5543 25.6891 11.5546 25.689 11.5548L1.37727 35.8677C0.526588 36.7185 0.526588 38.098 1.37727 38.9488L6.59602 44.1687C7.44687 45.0199 8.82649 45.0202 9.67766 44.1694L9.67832 44.1687L25.689 28.1571C26.5398 27.3059 27.9194 27.3056 28.7706 28.1564L28.7713 28.1571L46.4422 45.8281C47.2931 46.6787 48.6726 46.6787 49.5234 45.8281L73.8275 21.5251C74.6784 20.6744 76.0579 20.6744 76.9087 21.5251L77.7628 22.3792C78.6135 23.2305 79.9931 23.231 80.8445 22.3803C81.1491 22.076 81.3567 21.688 81.441 21.2657L84.6965 4.98382C84.9323 3.8037 84.1666 2.6559 82.9865 2.42014C82.7048 2.36386 82.4146 2.36386 82.1329 2.42014L65.851 5.67667C64.6714 5.91489 63.9082 7.06433 64.1464 8.24396C64.2309 8.6625 64.4364 9.0469 64.7375 9.3496Z" stroke="#E2209E" stroke-width="2" mask="url(#path-5-inside-1_727_1643)"/>
</g>
<defs>
<clipPath id="clip0_727_1643">
<rect width="84" height="84" fill="white" transform="translate(0.739258 0.850586)"/>
</clipPath>
</defs>
</svg>
