<svg width="38" height="38" viewBox="0 0 38 38" fill="none" xmlns="http://www.w3.org/2000/svg">
<g clip-path="url(#clip0_671_64)">
<path d="M28.7656 11.4688H35.8281C36.7656 13.5781 37.3438 15.875 37.4375 18.3125H29.3438C29.3125 15.75 29.0938 13.4844 28.7656 11.4688ZM25.6875 1.79688C29.7344 3.375 33.0625 6.34375 35.1406 10.1094H28.5469C27.7969 6.28125 26.6562 3.5625 25.6875 1.79688ZM19.7812 10.1094V0.5625C21.2344 0.625 22.6406 0.859375 24 1.23438C25.0312 2.95312 26.3437 5.84375 27.1875 10.1094H19.7812ZM10.7969 26.5312C10.4844 24.5312 10.25 22.2812 10.2188 19.6875H18.4062V26.5312H10.7969ZM10.7812 11.4688H18.4062V18.3125H10.2031C10.25 15.7344 10.4688 13.4844 10.7812 11.4688ZM14.2031 1.20313C15.5469 0.84375 16.9531 0.609375 18.4062 0.5625V10.1094H11C11.8438 5.8125 13.1719 2.92188 14.2031 1.20313ZM2.84375 10.1094C4.96875 6.28125 8.39062 3.29688 12.5312 1.73438C11.5625 3.5 10.4062 6.23438 9.64062 10.1094H2.84375ZM8.84375 18.3125H0.578125C0.671875 15.875 1.21875 13.5781 2.15625 11.4688H9.42188C9.09375 13.4844 8.875 15.75 8.84375 18.3125ZM9.42188 26.5312H2.20312C1.25 24.4219 0.65625 22.125 0.5625 19.6875H8.85938C8.875 22.2656 9.10938 24.5156 9.42188 26.5312ZM9.65625 27.8906C10.4219 31.7969 11.5938 34.5312 12.5625 36.2812C8.40625 34.7344 4.98438 31.7344 2.85938 27.8906H9.65625ZM18.4062 27.8906V37.4375C16.9688 37.3906 15.5781 37.1562 14.25 36.8125C13.2188 35.125 11.875 32.2188 11.0312 27.8906H18.4062ZM27.1562 27.8906C26.3125 32.1875 24.9844 35.0781 23.9531 36.7812C22.625 37.1562 21.2188 37.3594 19.7812 37.4219V27.8906H27.1562ZM19.7812 19.6875H27.9688C27.9375 22.2656 27.7188 24.5156 27.3906 26.5312H19.7812V19.6875ZM27.9688 18.3125H19.7812V11.4688H27.4062C27.7188 13.4844 27.9375 15.7344 27.9688 18.3125ZM29.3281 19.6875H37.4219C37.3281 22.125 36.7344 24.4219 35.7812 26.5312H28.75C29.0781 24.5156 29.2969 22.2656 29.3281 19.6875ZM35.125 27.8906C33.0469 31.6719 29.7031 34.6406 25.6406 36.2188C26.6094 34.4844 27.7656 31.7656 28.5156 27.8906H35.125Z" fill="#07CBF5"/>
</g>
<defs>
<clipPath id="clip0_671_64">
<rect width="38" height="38" fill="white"/>
</clipPath>
</defs>
</svg>
