<svg width="718" height="377" viewBox="0 0 718 377" fill="none" xmlns="http://www.w3.org/2000/svg">
<path d="M717.5 373.058C717.5 373.058 708.94 310.559 701.5 296.5C692.923 280.293 708.98 174.838 701 158.559C691.701 139.587 700.144 95.1064 689.5 76.3831C683.167 65.2438 675 3.05847 675 3.05847C675 3.05847 448 0.558591 425.5 0.55859C405.834 0.55859 432.394 -0.698124 404.5 0.55859C377.868 1.75842 396.922 3.05847 369 3.05847C342.444 3.05847 305.316 7.97479 265 3.05847C244.5 0.558588 229.985 5.93972 207.5 6.05859C182.479 6.19085 168.52 2.84182 143.5 3.05846C122.38 3.24133 110.784 6.05859 89.5 6.05859C66.459 6.05859 38.0861 3.17272 15 6.05859C-9 9.05871 3 3.05846 3 3.05846C6.91156 39.7035 11.5 48 18 82.5C21.6842 117.015 23.5185 141.884 27 174.5C29.8391 201.097 23.7465 246.041 27 278C30.2535 309.959 38.1355 348.223 41 375.058L79.5 376.059L130.5 369.559L193.5 373.058L248 369.559L309 373.058C309 373.058 351.5 378.059 380 373.058C408.079 368.132 416.5 368.559 453 373.058C483.62 376.833 647 370.058 676 373.058C695.228 375.048 717.5 373.058 717.5 373.058Z" fill="#161616"/>
</svg>
