<svg width="945" height="947" viewBox="0 0 945 947" fill="none" xmlns="http://www.w3.org/2000/svg">
<path d="M423.37 186.717C446.563 163.54 484.166 163.54 507.358 186.717L751.128 430.321C774.321 453.497 774.321 491.075 751.128 514.251L507.358 757.855C484.166 781.032 446.563 781.032 423.37 757.855L179.6 514.251C156.408 491.074 156.408 453.497 179.6 430.321L423.37 186.717Z" fill="url(#paint0_linear_16_1099)"/>
<path fill-rule="evenodd" clip-rule="evenodd" d="M714.514 281.589L663.655 238.746C658.444 245.116 652.861 251.291 646.906 257.241C550.683 353.416 394.419 353.407 298.195 257.249L232.468 290.264C242.56 333.501 264.472 374.538 298.203 408.246C329.998 440.02 368.192 461.331 408.57 472.18C368.193 483.03 330 504.341 298.206 536.114C262.231 572.064 239.69 616.357 230.598 662.771L281.457 705.614C286.668 699.245 292.251 693.069 298.206 687.12C394.429 590.944 550.693 590.953 646.917 687.111L712.644 654.096C702.552 610.859 680.64 569.822 646.908 536.114C615.113 504.341 576.92 483.029 536.542 472.18C576.919 461.33 615.112 440.019 646.906 408.246C682.881 372.296 705.422 328.003 714.514 281.589Z" fill="#FFE500"/>
<path fill-rule="evenodd" clip-rule="evenodd" d="M661.31 213.485L734.013 274.728L731.999 285.01C722.246 334.79 698.059 382.307 659.504 420.836C637.861 442.465 613.425 459.585 587.365 472.18C613.426 484.774 637.862 501.895 659.506 523.525C695.655 559.648 719.168 603.672 729.995 650.052L733.182 663.707L643.419 708.795L634.318 699.701C545.052 610.495 400.07 610.488 310.805 699.708C305.272 705.236 300.085 710.973 295.249 716.884L283.801 730.876L211.099 669.632L213.113 659.351C222.865 609.57 247.052 562.053 285.607 523.525C307.251 501.896 331.686 484.775 357.746 472.181C331.685 459.586 307.249 442.466 285.605 420.836C249.457 384.712 225.943 340.689 215.117 294.309L211.929 280.654L301.692 235.566L310.793 244.66C400.059 333.866 545.042 333.872 634.307 244.652C639.839 239.124 645.026 233.387 649.862 227.477L661.31 213.485ZM380.097 462.628C389.425 466.408 398.935 469.592 408.57 472.181C398.935 474.769 389.425 477.954 380.097 481.734C350.33 493.796 322.413 511.923 298.205 536.114C262.231 572.064 239.69 616.358 230.597 662.772L281.456 705.614C283.019 703.704 284.616 701.81 286.246 699.936C290.05 695.56 294.037 691.285 298.205 687.12C394.429 590.945 550.693 590.953 646.917 687.111L712.644 654.096C702.551 610.859 680.639 569.822 646.908 536.114C622.7 511.922 594.782 493.795 565.015 481.733C555.686 477.953 546.176 474.769 536.542 472.18C546.176 469.591 555.686 466.407 565.015 462.627C594.781 450.565 622.698 432.438 646.906 408.247C682.88 372.297 705.421 328.003 714.514 281.589L663.655 238.747C662.092 240.657 660.495 242.55 658.865 244.425C655.061 248.8 651.074 253.076 646.906 257.241C550.682 353.416 394.418 353.408 298.195 257.249L232.467 290.264C242.56 333.501 264.472 374.538 298.203 408.247C322.412 432.439 350.33 450.566 380.097 462.628Z" fill="black"/>
<path d="M281.4 705.612C262.11 729.194 224.087 713.416 227.427 683.15C228.178 676.321 229.219 669.525 230.542 662.768L255.659 684.093L281.4 705.612Z" fill="#BDA41C"/>
<path d="M611.178 575.346C640.888 605.035 665.653 634.831 677.318 672.224L712.951 654.42C702.607 610.932 682.74 571.884 648.691 537.858C551.218 440.452 394.907 439.719 298.344 536.215C292.017 542.538 286.117 549.128 280.627 555.941C377.701 477.732 520.114 484.344 611.178 575.346Z" fill="#D2B82F"/>
<path d="M717.574 683.151C720.914 713.416 682.89 729.194 663.609 705.62C658.397 699.235 652.814 693.06 646.86 687.11L677.318 671.037L712.588 654.095C714.831 663.689 716.493 673.396 717.574 683.151Z" fill="#BDA41C"/>
<path d="M335.662 370.759C306.23 341.347 285.8 306.355 274.365 269.191L232.413 290.264C242.506 333.5 264.418 374.538 298.149 408.246C394.712 504.743 550.29 504.743 646.852 408.246C653.179 401.923 659.083 395.337 664.579 388.53C567.592 466.826 425.876 460.91 335.662 370.759Z" fill="#D2B82F"/>
<path d="M650.886 342.988C603.11 390.732 539.757 417.025 472.499 417.024C405.241 417.024 341.887 390.727 294.107 342.98C287.055 335.933 280.358 328.409 274.204 320.617C272.252 318.145 272.679 314.558 275.147 312.611C277.621 310.66 281.208 311.083 283.159 313.554C289.038 320.997 295.435 328.186 302.174 334.919C347.798 380.513 408.287 405.623 472.498 405.624C536.709 405.625 597.195 380.517 642.816 334.928C647.456 330.29 651.984 325.379 656.272 320.33C658.313 317.933 661.912 317.636 664.314 319.673C666.716 321.711 667.011 325.308 664.971 327.709C660.485 332.991 655.745 338.133 650.886 342.988Z" fill="#74640E"/>
<path d="M663.599 238.745C682.889 215.164 720.912 230.941 717.572 261.207C716.821 268.036 715.78 274.832 714.457 281.589L689.194 261.208L663.599 238.745Z" fill="#BDA41C"/>
<path d="M227.426 261.207C224.086 230.941 262.11 215.164 281.391 238.737C286.603 245.123 292.186 251.298 298.14 257.248L279.414 268.657L232.412 290.263C230.169 280.669 228.507 270.962 227.426 261.207Z" fill="#BDA41C"/>
<g clip-path="url(#clip0_16_1099)">
<path d="M291.508 603.105C339.284 555.362 402.637 529.069 469.895 529.069C537.153 529.07 600.507 555.366 648.286 603.113C655.339 610.161 662.036 617.685 668.19 625.476C670.142 627.948 669.714 631.536 667.246 633.482C664.773 635.433 661.186 635.011 659.235 632.54C653.356 625.096 646.958 617.908 640.22 611.174C594.596 565.581 534.106 540.47 469.895 540.469C405.685 540.469 345.198 565.576 299.578 611.166C294.937 615.803 290.41 620.714 286.121 625.763C284.081 628.16 280.482 628.458 278.08 626.42C275.678 624.383 275.383 620.786 277.422 618.385C281.909 613.102 286.649 607.961 291.508 603.105Z" fill="#74640E"/>
</g>
<defs>
<linearGradient id="paint0_linear_16_1099" x1="465" y1="145" x2="465.446" y2="800" gradientUnits="userSpaceOnUse">
<stop stop-color="#282B34"/>
<stop offset="1" stop-color="#282B34"/>
</linearGradient>
<clipPath id="clip0_16_1099">
<rect width="412.017" height="412.017" fill="white" transform="matrix(-0.707348 0.706866 -0.707348 -0.706866 761.332 654.855)"/>
</clipPath>
</defs>
</svg>
