<svg width="56" height="79" viewBox="0 0 56 79" fill="none" xmlns="http://www.w3.org/2000/svg">
<path d="M4.27586 38.5467C5.41301 33.4685 9.24504 30.0103 12.8434 30.8048L14.7127 31.0852C14.9464 31.1007 15.1644 31.1319 15.3981 31.1942C18.9965 32.0042 20.9748 36.7709 19.8377 41.8491C18.7005 46.9274 14.8685 50.3855 11.2701 49.5911L9.40082 49.3107C9.16716 49.2951 8.94907 49.264 8.71541 49.2017C5.11704 48.3916 3.13871 43.625 4.27586 38.5467Z" fill="#07CBF5"/>
<path d="M38.1878 55.0587L37.7984 72.4898C37.7984 72.4898 34.5427 77.4278 24.3395 78.0353C16.7378 78.4871 14.1052 76.7113 14.1052 76.7113L15.367 67.91L16.5976 59.3269L35.0879 55.6818L38.1878 55.0743V55.0587Z" fill="#FD8753"/>
<path d="M35.0724 55.6663C35.0101 56.1336 34.8231 56.6944 34.5272 57.3331C30.4303 65.9474 19.7287 67.5985 15.3359 67.8789L16.5665 59.2958L35.0568 55.6507L35.0724 55.6663Z" fill="black"/>
<path d="M13.5756 19.4956C13.5756 19.4956 3.94878 41.1482 7.28234 53.3608C10.6159 65.5735 21.7381 63.7354 28.4052 61.4144C35.0724 59.1089 38.1878 55.0432 38.1878 55.0432C38.1878 55.0432 44.3876 57.1929 48.5779 51.4448C52.7683 45.6968 50.2603 39.0452 46.7242 37.5031C43.1882 35.9609 38.9511 38.4845 38.9511 38.4845L42.3003 32.1912C42.3003 32.1912 28.6078 0.0394993 13.5912 19.4801L13.5756 19.4956Z" fill="#FD8753"/>
<path d="M14.4013 47.1766C14.4013 47.1766 14.557 47.1766 14.6349 47.1455C15.0399 47.0208 15.2736 46.5847 15.149 46.1797C13.9339 42.2386 16.8936 37.9392 16.9248 37.8925C17.174 37.5342 17.0806 37.0513 16.7379 36.8021C16.3796 36.5528 15.8967 36.6463 15.6475 36.989C15.5073 37.1915 12.2048 41.9426 13.6535 46.6314C13.7626 46.9585 14.0586 47.1766 14.4013 47.1766Z" fill="black"/>
<path d="M39.8704 48.7499C40.0729 48.7499 40.2754 48.672 40.4156 48.5162L46.3194 42.2697C46.5998 41.9737 46.5842 41.4908 46.2883 41.2104C45.9923 40.9301 45.5094 40.9456 45.229 41.2416L39.3252 47.4881C39.0448 47.7841 39.0604 48.267 39.3563 48.5474C39.4965 48.6876 39.6834 48.7499 39.8704 48.7499Z" fill="black"/>
<path d="M46.1166 47.0676C46.4749 47.0676 46.802 46.8028 46.8643 46.4289C46.9266 46.0239 46.6462 45.6345 46.2412 45.5722L42.16 44.9491C41.7549 44.8868 41.3655 45.1671 41.3032 45.5722C41.2409 45.9772 41.5213 46.3666 41.9263 46.4289L46.0076 47.052C46.0076 47.052 46.0854 47.052 46.1166 47.052V47.0676Z" fill="black"/>
<path d="M38.9512 38.5C38.9512 38.5 36.708 39.9643 35.088 37.4252C33.4679 34.8861 37.0196 27.3467 37.0196 27.3467C37.0196 27.3467 30.3057 28.8732 26.1466 26.6457C21.9874 24.4181 19.9468 18.3118 19.9468 18.3118C19.9468 18.3118 16.8936 24.6829 7.71854 21.879C-1.45653 19.0751 -3.20119 6.58199 6.5814 4.04287C16.3796 1.48819 21.7226 5.83431 21.7226 5.83431C21.7226 5.83431 22.9688 -3.23174 35.0724 1.23897C46.1012 5.32024 47.9705 19.1373 47.9705 19.1373C47.9705 19.1373 54.5908 19.4489 55.8682 26.6457C57.1455 33.858 48.7182 39.0608 48.7182 39.0608C48.7182 39.0608 43.9359 36.2569 38.9512 38.4845V38.5Z" fill="#FFE500"/>
<path d="M24.2305 39.0764C24.62 39.0764 24.9471 38.796 25.0094 38.391L25.5235 34.3409C25.5702 33.9203 25.2742 33.5309 24.8536 33.4686C24.4175 33.4062 24.0436 33.7178 23.9813 34.1384L23.4673 38.1885C23.4205 38.6091 23.7165 38.9985 24.1371 39.0608C24.1682 39.0608 24.1994 39.0608 24.2305 39.0608V39.0764Z" fill="black"/>
<path d="M12.2203 38.1105C12.5942 38.1105 12.9369 37.8301 12.9836 37.4407L13.5756 33.4062C13.6379 32.9856 13.3419 32.5806 12.9213 32.5183C12.5007 32.4715 12.0957 32.7519 12.0334 33.1725L11.4415 37.2071C11.3792 37.6277 11.6751 38.0327 12.0957 38.095C12.1269 38.095 12.1736 38.095 12.2048 38.095L12.2203 38.1105Z" fill="black"/>
<path d="M28.0002 31.3188C28.1248 31.3188 28.2339 31.2877 28.3585 31.2254C28.7479 31.0229 28.8881 30.5555 28.7012 30.1817C27.2057 27.2687 23.5139 28.0164 23.3581 28.0632C22.9375 28.1566 22.6727 28.5616 22.7662 28.9822C22.8597 29.4028 23.2647 29.6677 23.6853 29.5898C23.7943 29.5586 26.3646 29.0446 27.3148 30.8983C27.455 31.1631 27.7198 31.3188 28.0158 31.3188H28.0002Z" fill="black"/>
<path d="M16.2706 28.8265C16.4263 28.8265 16.5821 28.7798 16.7067 28.6863C17.065 28.4371 17.1585 27.9541 16.9092 27.5959C16.2862 26.6924 15.4917 26.1783 14.5415 26.0537C12.6255 25.8045 10.8341 27.3778 10.7562 27.4557C10.4291 27.7361 10.3979 28.2346 10.6939 28.5461C10.9743 28.8732 11.4727 28.9044 11.7843 28.6084C12.1581 28.2813 13.342 27.4712 14.3546 27.5959C14.853 27.6582 15.258 27.9386 15.6163 28.4682C15.7721 28.6863 16.0058 28.8109 16.255 28.8109L16.2706 28.8265Z" fill="black"/>
<path d="M34.1534 44.9023C33.4992 50.0584 35.9137 54.6226 39.5588 55.0899C43.2039 55.5572 46.7088 51.7563 47.363 46.5846C48.0173 41.413 45.6028 36.8644 41.9577 36.3971C38.3126 35.9298 34.8077 39.7306 34.1534 44.9023Z" fill="#07CBF5"/>
<path d="M41.9734 36.4126L44.4969 36.9267L42.098 55.604L39.5744 55.1055L36.8172 52.1302L36.0072 41.7712L41.9734 36.4126Z" fill="#07CBF5"/>
<path d="M36.6925 45.4164C36.0382 50.5725 38.4527 55.1366 42.0978 55.604C45.7429 56.0713 49.2478 52.2704 49.9021 47.0987C50.5563 41.927 48.1418 37.3784 44.4967 36.9111C40.8516 36.4438 37.3467 40.2447 36.6925 45.4008V45.4164Z" fill="white"/>
<path d="M46.3191 13.2491C46.3191 13.2491 49.1075 16.5826 49.8863 19.5268C50.6652 22.4709 46.101 41.0391 46.101 41.0391L40.3374 39.7306L46.3191 13.2491Z" fill="white"/>
<path d="M19.5573 53.2985C22.2366 53.2985 24.1838 51.3202 24.9004 50.1051C25.1185 49.7313 24.9938 49.264 24.6356 49.0459C24.2617 48.8278 23.7944 48.9524 23.5607 49.3107C23.4828 49.4353 21.6447 52.4262 18.4981 51.6006C18.0931 51.4915 17.6569 51.7408 17.5479 52.1614C17.4388 52.582 17.6881 53.0025 18.1086 53.1116C18.6071 53.2362 19.1056 53.2985 19.5573 53.2985Z" fill="black"/>
</svg>
