<svg width="55" height="75" viewBox="0 0 55 75" fill="none" xmlns="http://www.w3.org/2000/svg">
<path fill-rule="evenodd" clip-rule="evenodd" d="M53.9922 35.1536C57.573 36.9934 51.2038 51.7122 41.0219 60.9098C33.0878 68.0769 28.0991 46.4039 18.4388 51.745C12.1594 55.2169 13.3768 46.683 13.3768 46.683C13.3768 46.683 26.3961 40.6303 25.7506 37.684C25.7506 37.684 21.9311 39.2176 18.4387 44.0752C14.9464 48.9328 13.3767 53.4324 13.3767 53.4324C13.2594 52.8626 16.2896 45.8903 16.1891 45.287C15.2004 39.9414 15.5858 50.6106 16.1891 44.0752C16.6715 38.6953 -0.866444 48.1085 2.69036 40.4961C3.21051 39.3829 0.54416 38.8278 1.07224 37.684C2.32905 34.8855 3.58588 32.0702 4.75889 29.1712C5.52974 27.2609 6.25036 25.317 6.90389 23.3564C8.17746 19.5692 9.16614 15.715 9.61859 11.9111C9.75265 10.9727 9.83638 10.1013 9.86989 9.19638C9.97043 7.4201 9.9537 5.62707 9.78613 3.86754C9.78613 3.86754 23.2423 -5.39931 38.1732 4.75568C42.1279 7.45362 44.3232 10.4532 45.6303 13.5365C46.9502 16.6674 47.3564 19.8686 47.7373 22.8698C47.7723 23.1455 47.807 23.4195 47.8423 23.6916C48.4455 28.5009 49.1828 32.707 53.9922 35.1536Z" fill="#FFE500"/>
<path d="M35.14 49.0957L36.4471 67.4618C36.4471 67.4618 33.5146 72.975 22.8233 74.6172C14.8636 75.8405 12.0316 71.9025 12.0316 71.9025L12.8191 55.6813L31.9226 50.0341L35.1232 49.0789L35.14 49.0957Z" fill="#FD8753"/>
<path d="M31.939 50.0509C31.939 50.5536 31.7882 51.1569 31.5369 51.8607C28.0848 61.3286 16.9913 64.1104 12.3831 64.8477L12.8355 55.6981L31.939 50.0509Z" fill="black"/>
<path d="M5.7473 14.123C5.7473 14.123 -2.24602 37.8515 2.46281 50.3693C7.17164 62.8871 18.7007 59.854 25.4875 56.7706C32.2742 53.6873 35.1398 49.1125 35.1398 49.1125C35.1398 49.1125 41.8762 50.7547 45.7137 44.3031C49.5511 37.8515 46.2499 31.0983 42.379 29.8247C38.508 28.5512 34.3019 31.6345 34.3019 31.6345L37.2009 24.697C37.2009 24.697 19.6224 -7.77889 5.73053 14.1566L5.7473 14.123Z" fill="#FD8753"/>
<path d="M34.3188 31.6178C34.3188 31.6178 24.7001 34.5504 16.8241 24.2781C8.94812 14.0058 9.1324 9.46453 9.1324 9.46453L3.43494 21.3958C3.43494 21.3958 1.15589 13.7209 3.80356 8.42558C6.45123 3.13024 9.80274 3.85079 9.80274 3.85079L31.9728 7.16877L39.3461 23.9764L34.3188 31.6011V31.6178Z" fill="#FFE500"/>
<path d="M13.573 49.1461C13.2546 49.1461 13.0535 49.1126 13.0199 49.1126C12.5675 49.0455 12.2491 48.6098 12.3162 48.1574C12.3832 47.7049 12.8189 47.3866 13.2714 47.4536C13.4054 47.4536 16.2542 47.8222 18.6505 44.387C18.9186 44.0016 19.438 43.9178 19.8235 44.1859C20.2089 44.454 20.2927 44.9735 20.0245 45.3589C17.645 48.7607 14.7627 49.1461 13.573 49.1461Z" fill="black"/>
<path d="M9.26637 43.1804C8.93122 43.1804 8.62965 42.9793 8.49559 42.6609C6.50146 37.8683 9.50102 32.5395 9.63508 32.3049C9.86969 31.9027 10.3724 31.7686 10.7746 31.9865C11.1768 32.2211 11.3108 32.7238 11.093 33.126C11.0595 33.1762 8.37826 37.9856 10.0372 42.0074C10.2216 42.4431 10.0205 42.9291 9.58476 43.0966C9.48422 43.1469 9.36691 43.1637 9.26637 43.1637V43.1804Z" fill="black"/>
<path d="M14.2268 32.1541C14.0425 32.1541 13.8749 32.1038 13.7241 31.9865C13.3555 31.7016 13.2884 31.1822 13.5565 30.8135C13.6235 30.7297 15.0479 28.8696 17.0421 28.8361C18.1648 28.8361 19.3043 29.4226 20.2427 30.6292C20.5276 30.9978 20.4606 31.5173 20.1087 31.8022C19.74 32.0871 19.2205 32.02 18.9357 31.6681C18.3324 30.8973 17.7123 30.5119 17.0923 30.5119C16.1036 30.5119 15.1819 31.4503 14.8971 31.8189C14.7295 32.0368 14.4782 32.1541 14.2268 32.1541Z" fill="black"/>
<path d="M6.66902 32.1706C6.33388 32.1706 6.01545 31.9695 5.89815 31.6344C5.78085 31.3328 5.29491 30.4446 4.67489 30.3273C4.1219 30.2268 3.4516 30.7798 2.99915 31.2825C2.68076 31.6344 2.16124 31.6512 1.80934 31.3328C1.47419 31.0144 1.44073 30.4949 1.75912 30.143C2.83159 28.97 3.92079 28.484 4.97651 28.6683C6.61874 28.97 7.37279 30.7965 7.45657 30.9976C7.62415 31.4333 7.40635 31.9193 6.98742 32.0868C6.88688 32.1204 6.78634 32.1371 6.6858 32.1371L6.66902 32.1706Z" fill="black"/>
<path d="M18.4495 25.3507C18.2652 25.3507 18.0808 25.2836 17.9132 25.1663C16.824 24.2782 15.8855 23.8593 15.232 24.0101C14.7125 24.1274 14.478 24.5966 14.4612 24.6133C14.2601 25.0323 13.7574 25.2166 13.3552 25.0155C12.9362 24.8312 12.7519 24.3452 12.9362 23.9263C12.9865 23.809 13.506 22.6863 14.8131 22.3846C16.0196 22.0998 17.4273 22.6025 18.969 23.876C19.3209 24.1777 19.3711 24.6971 19.0862 25.0491C18.9186 25.2501 18.6841 25.3507 18.4327 25.3507H18.4495Z" fill="black"/>
<path d="M3.01593 25.0992C2.84836 25.0992 2.68082 25.0489 2.53 24.9484C2.16134 24.6803 2.06072 24.1608 2.34559 23.7754C3.03265 22.8202 5.07705 21.5299 7.89229 23.4067C8.27771 23.6581 8.37828 24.1775 8.12692 24.563C7.87556 24.9484 7.33932 25.0489 6.97065 24.7976C4.75868 23.3229 3.75321 24.6803 3.70294 24.7473C3.53536 24.9819 3.28405 25.0992 3.01593 25.0992Z" fill="black"/>
<path d="M36.2289 42.3426C36.0446 42.3426 35.8603 42.2923 35.7094 42.1583C35.3408 41.8734 35.2737 41.3539 35.5586 40.9852L41.1388 33.8298C41.4237 33.4612 41.96 33.3941 42.3119 33.679C42.6805 33.9639 42.7475 34.4834 42.4626 34.852L36.8825 42.0074C36.7149 42.2253 36.4635 42.3258 36.2289 42.3258V42.3426Z" fill="black"/>
<path d="M42.6304 39.963L38.2399 39.7116C37.7707 39.6781 37.4188 39.2927 37.4523 38.8235C37.4858 38.371 37.8378 38.0359 38.3405 38.0359L42.6974 38.2872C43.1666 38.3208 43.5184 38.7062 43.4849 39.1754C43.4682 39.6278 43.0827 39.963 42.647 39.963H42.6304Z" fill="black"/>
</svg>
