<svg width="54" height="82" viewBox="0 0 54 82" fill="none" xmlns="http://www.w3.org/2000/svg">
<path d="M5.53318 23.6154C5.53318 23.6154 -5.54575 4.93117 3.65013 0.927399C12.846 -3.07638 23.797 7.17987 23.797 7.17987C23.797 7.17987 44.346 9.00808 52.1342 20.0139C59.9406 31.0197 40.7262 50.289 40.7262 50.289L5.51491 23.6154H5.53318Z" fill="#5E1DBB"/>
<path d="M37.1063 54.4573L38.2764 73.3793C38.2764 73.3793 35.205 79.0284 24.1809 80.6007C15.9722 81.7708 12.9557 80.0888 12.9557 80.0888L13.5224 70.4358L14.0892 61.0206L33.8155 55.3897L37.1246 54.439L37.1063 54.4573Z" fill="#FD8753"/>
<path d="M33.7972 55.408C33.7972 55.9199 33.6144 56.5414 33.3585 57.2727C29.7021 66.9805 18.2575 69.7411 13.5042 70.4541L14.0709 61.0388L33.7972 55.408Z" fill="black"/>
<path d="M7.19687 18.1491C7.19687 18.1491 -1.28602 42.4825 3.44903 55.4445C8.16581 68.3882 20.0674 65.3717 27.0877 62.2637C34.1081 59.1558 37.1063 54.4755 37.1063 54.4755C37.1063 54.4755 44.017 56.2489 48.039 49.6308C52.0611 43.0127 48.7337 36.0289 44.7665 34.6944C40.7993 33.3415 36.4299 36.4677 36.4299 36.4677L39.483 29.356C39.483 29.356 21.7311 -4.26476 7.19687 18.1673V18.1491Z" fill="#FD8753"/>
<path d="M37.7097 46.7787C37.9108 46.7787 38.1119 46.7056 38.2947 46.5776L46.4485 39.9229C46.8324 39.6121 46.9056 39.0271 46.5765 38.6432C46.2657 38.2592 45.6807 38.1861 45.2967 38.5152L37.1429 45.1699C36.759 45.4807 36.6859 46.0657 37.015 46.4496C37.1978 46.669 37.4537 46.7787 37.728 46.7787H37.7097Z" fill="black"/>
<path d="M45.4795 46.1939C45.9 46.1939 46.2839 45.8831 46.3753 45.4443C46.4668 44.9507 46.156 44.4753 45.6441 44.3657L39.94 43.2687C39.4464 43.159 38.9711 43.4881 38.8614 44C38.77 44.4936 39.0808 44.969 39.5927 45.0787L45.2967 46.1756C45.2967 46.1756 45.4064 46.1756 45.4795 46.1756V46.1939Z" fill="black"/>
<path d="M23.5958 28.3322C23.8152 28.3322 24.0163 28.2591 24.1991 28.1128C24.583 27.7837 24.6196 27.1987 24.2905 26.8148C21.4568 23.5606 17.9649 24.4198 16.5206 25.3157C16.1002 25.5899 15.9539 26.1383 16.2282 26.5771C16.5024 26.9976 17.0508 27.1256 17.4896 26.8696C17.7821 26.6868 20.4513 25.206 22.9194 28.0214C23.1022 28.2225 23.3581 28.3322 23.6141 28.3322H23.5958Z" fill="black"/>
<path d="M5.20413 27.5461C5.42351 27.5461 5.6612 27.473 5.82574 27.3084C7.65395 25.5899 9.77466 26.6503 9.79295 26.6503C10.25 26.8697 10.7985 26.7051 11.0178 26.2481C11.2555 25.791 11.0727 25.2426 10.6156 25.0232C10.4877 24.95 7.32486 23.3961 4.56427 25.9738C4.19863 26.3212 4.18034 26.8879 4.5277 27.2719C4.71052 27.473 4.94818 27.5644 5.20413 27.5644V27.5461Z" fill="black"/>
<path d="M9.50037 45.3712C9.61006 45.3712 9.71975 45.3712 9.81116 45.3164C10.2865 45.1336 10.5242 44.6217 10.3596 44.1463C7.96468 37.5831 11.0909 33.7621 11.2189 33.6158C11.548 33.2319 11.4931 32.6652 11.1092 32.3361C10.7253 32.007 10.1585 32.0619 9.82946 32.4275C9.66492 32.6103 5.84395 37.1626 8.64111 44.7862C8.76908 45.1518 9.13473 45.3895 9.50037 45.3895V45.3712Z" fill="black"/>
<path d="M5.84395 36.6323C6.26443 36.6323 6.64837 36.3398 6.73978 35.901L7.65388 31.4951C7.76357 31.0014 7.4345 30.5078 6.94088 30.4164C6.44727 30.3067 5.95363 30.6358 5.86222 31.1294L4.94811 35.5354C4.83842 36.029 5.1675 36.5226 5.66111 36.614C5.71596 36.614 5.7891 36.6323 5.84395 36.6323Z" fill="black"/>
<path d="M19.6835 36.9614C20.1039 36.9614 20.4878 36.6689 20.5793 36.2301L21.4934 31.8241C21.6031 31.3305 21.274 30.8369 20.7804 30.7455C20.2867 30.6358 19.7931 30.9649 19.7017 31.4585L18.7876 35.8645C18.6779 36.3581 19.007 36.8517 19.5006 36.9431C19.5555 36.9431 19.6286 36.9614 19.6835 36.9614Z" fill="black"/>
<path d="M5.53315 23.6154C5.53315 23.6154 7.36136 19.6848 12.0781 19.3557C16.7949 19.0266 19.7566 22.1894 19.7566 22.1894C19.7566 22.1894 18.166 30.2701 24.8573 34.0911C31.5302 37.912 36.4298 36.4312 36.4298 36.4312L40.9821 34.4933L43.9803 27.4729L29.6106 13.7797L11.6028 5.64417L3.21132 14.255L5.51488 23.5971L5.53315 23.6154Z" fill="#5E1DBB"/>
<path d="M14.7291 52.6109C15.4604 52.6109 19.8298 52.428 21.53 48.1318C21.7128 47.6564 21.4935 47.1263 21.0181 46.9434C20.5428 46.7606 20.0126 46.98 19.8298 47.4553C18.4952 50.8375 14.8388 50.7826 14.6925 50.7826C14.1989 50.7826 13.7601 51.1666 13.7601 51.6602C13.7601 52.1721 14.1441 52.5926 14.6377 52.5926C14.6377 52.5926 14.6925 52.5926 14.7474 52.5926L14.7291 52.6109Z" fill="black"/>
</svg>
