<svg width="54" height="72" viewBox="0 0 54 72" fill="none" xmlns="http://www.w3.org/2000/svg">
<path d="M8.1564 15.6692C8.1564 15.6692 -2.35156 2.72219 0.486361 1.0041C3.32428 -0.698647 6.0088 1.90917 6.0088 1.90917C6.0088 1.90917 27.4235 -1.46565 35.2317 0.758661C43.0398 2.98297 48.2707 15.7613 48.2707 15.7613C48.2707 15.7613 52.1825 15.3931 53.8392 20.7468C55.4959 26.1005 43.9755 52.378 36.5969 50.9974C29.2337 49.6168 8.12574 15.6692 8.12574 15.6692H8.1564Z" fill="#FFE500"/>
<path d="M36.5509 46.7636L36.9191 64.6501C36.9191 64.6501 33.805 69.8504 23.3584 70.9242C15.581 71.7219 12.8044 70.0038 12.8044 70.0038L13.7095 60.9225L14.5993 52.0712L33.4062 47.5306L36.5662 46.7636H36.5509Z" fill="#FD8753"/>
<path d="M33.3908 47.5306C33.3601 48.0215 33.176 48.6044 32.8999 49.264C29.0802 58.284 18.1735 60.4163 13.6942 60.9225L14.5839 52.0713L33.3908 47.5306Z" fill="black"/>
<path d="M9.76719 11.3893C9.76719 11.3893 0.839257 34.0006 4.78166 46.3801C8.7394 58.7595 20.0603 56.3818 26.7946 53.728C33.5289 51.0741 36.5356 46.7789 36.5356 46.7789C36.5356 46.7789 42.9784 48.7118 47.0282 42.6371C51.078 36.5624 48.2094 29.8588 44.5125 28.4322C40.8155 27.0055 36.597 29.7821 36.597 29.7821L39.757 23.1859C39.757 23.1859 24.3249 -9.18173 9.76719 11.4047V11.3893Z" fill="#FD8753"/>
<path d="M9.76713 11.3893C9.76713 11.3893 16.7315 8.58211 19.6921 11.0365C22.6681 13.4909 26.1657 34.2154 36.5969 29.7668C47.0282 25.3181 41.6285 12.0336 41.6285 12.0336C41.6285 12.0336 15.3816 -10.4396 9.75177 11.3893H9.76713Z" fill="#FFE500"/>
<path d="M37.4099 39.7378C37.2258 39.7378 37.0264 39.6611 36.873 39.5231C36.5662 39.2316 36.5662 38.7407 36.8576 38.4339L42.4875 32.6047C42.7789 32.2979 43.2698 32.2979 43.5766 32.5893C43.8834 32.8808 43.8834 33.3717 43.592 33.6785L37.9621 39.5077C37.8087 39.6611 37.6093 39.7378 37.4099 39.7378Z" fill="black"/>
<path d="M43.0397 39.6765C42.8556 39.6765 42.6716 39.6151 42.5182 39.477L39.6496 36.8385C39.3428 36.5471 39.3121 36.0715 39.6036 35.7494C39.895 35.4426 40.3706 35.4119 40.6927 35.7034L43.5613 38.3419C43.8681 38.6333 43.8988 39.1089 43.6074 39.431C43.454 39.5998 43.2545 39.6765 43.0397 39.6765Z" fill="black"/>
<path d="M8.29444 21.5445C8.12569 21.5445 7.97231 21.4985 7.83425 21.3911C7.49677 21.1303 7.4354 20.6701 7.68084 20.3326C7.7422 20.2559 9.1995 18.3384 12.8965 18.8753C13.3106 18.9367 13.6021 19.3202 13.5408 19.7497C13.4794 20.1639 13.0806 20.4553 12.6664 20.394C9.93583 19.9951 8.93874 21.207 8.89272 21.253C8.73932 21.4371 8.50923 21.5445 8.27913 21.5445H8.29444Z" fill="black"/>
<path d="M25.1379 21.7592C24.9691 21.7592 24.785 21.6979 24.647 21.5752C22.6988 19.9491 20.4745 20.5167 20.3671 20.5474C19.9682 20.6548 19.5387 20.4093 19.4314 20.0105C19.324 19.5963 19.5541 19.1821 19.9683 19.0747C20.091 19.044 23.0516 18.2617 25.6288 20.4093C25.9509 20.6854 25.9969 21.161 25.7208 21.4831C25.5674 21.6672 25.3526 21.7592 25.1379 21.7592Z" fill="black"/>
<path d="M9.04615 30.4571C8.55527 30.4264 8.24846 30.0429 8.27915 29.6287L8.61663 25.4715C8.64731 25.0574 9.0001 24.7352 9.44496 24.7659C9.85914 24.7966 10.1813 25.1647 10.1506 25.5943L9.81315 29.7514C9.78247 30.1503 9.44499 30.4571 9.04615 30.4571Z" fill="black"/>
<path d="M21.3488 30.9633C20.8579 30.9326 20.5511 30.5491 20.5818 30.1349L20.9193 25.9777C20.95 25.5482 21.3028 25.2414 21.7477 25.2721C22.1619 25.3028 22.484 25.6709 22.4533 26.1005L22.1158 30.2576C22.0851 30.6565 21.7477 30.9633 21.3488 30.9633Z" fill="black"/>
<path d="M12.0221 40.3821C11.7307 40.3821 11.4546 40.2134 11.3165 39.9219C8.70868 34.0773 12.6204 29.3679 12.7891 29.1685C13.0652 28.8463 13.5408 28.8003 13.863 29.0764C14.1851 29.3526 14.2311 29.8281 13.955 30.1503C13.8169 30.319 10.5035 34.3381 12.7124 39.2776C12.8812 39.6611 12.7124 40.1213 12.3289 40.29C12.2216 40.3361 12.1142 40.3514 12.0221 40.3514V40.3821Z" fill="black"/>
<path d="M16.9004 44.1251C16.4708 44.1251 16.1334 43.7876 16.1334 43.3581C16.1334 42.9285 16.4708 42.5911 16.9004 42.5911C17.0077 42.5911 19.6002 42.545 20.536 40.3207C20.7047 39.9219 21.1496 39.7378 21.5331 39.9065C21.9166 40.0753 22.1006 40.5202 21.9472 40.9037C20.6126 44.0791 17.0384 44.1251 16.9004 44.1251Z" fill="black"/>
</svg>
