<svg width="54" height="75" viewBox="0 0 54 75" fill="none" xmlns="http://www.w3.org/2000/svg">
<path d="M6.56409 33.4762C6.56409 33.4762 -0.049447 23.3653 0.000279011 18.4093C0.050005 13.4533 16.5756 -4.00057 33.8637 0.839429C51.1517 5.696 55.6768 26.6306 53.4888 35.946C47.8532 59.9636 26.786 52.7865 26.786 52.7865C26.786 52.7865 -5.63535 48.4438 6.56409 33.4597V33.4762Z" fill="white"/>
<path d="M13.5092 58.4387L13.5589 58.8697L14.9347 67.091L15.979 73.5388C15.979 73.5388 15.6143 75.1135 23.0898 73.7046C33.1178 71.7818 35.8528 67.0413 35.8528 67.0413L34.4439 51.792L31.4437 52.7534L13.4927 58.4221L13.5092 58.4387Z" fill="#955234"/>
<path d="M13.5755 58.8696L14.9512 67.091C19.7912 65.8976 28.4767 62.682 31.1619 54.5103C31.3608 53.8473 31.4768 53.2672 31.4768 52.7865L13.5921 58.737V58.8696H13.5755Z" fill="black"/>
<path d="M5.56972 19.7022C5.56972 19.7022 -1.22618 42.3773 3.63039 54.0463C8.48696 65.7319 19.2775 62.4831 25.5761 59.3504C31.8913 56.2177 34.4605 51.792 34.4605 51.792C34.4605 51.792 40.8751 53.1346 44.2897 46.9023C47.7207 40.67 44.3725 34.4045 40.6763 33.3271C36.98 32.2497 33.1013 35.2996 33.1013 35.2996L35.6207 28.6529C35.6207 28.6529 17.9681 -1.46447 5.55313 19.7022H5.56972Z" fill="#955234"/>
<path d="M9.79626 47.068C9.48133 47.068 9.18299 46.8857 9.03381 46.5873C6.99505 42.112 9.66364 36.957 9.77967 36.7416C9.99515 36.3438 10.4924 36.178 10.9068 36.3935C11.3046 36.609 11.4704 37.1062 11.2549 37.504C11.2383 37.5538 8.85146 42.1617 10.5587 45.8911C10.741 46.3055 10.5587 46.8028 10.1443 46.9851C10.0283 47.0348 9.91229 47.068 9.79626 47.068Z" fill="black"/>
<path d="M35.2395 45.4105C35.0737 45.4105 34.9079 45.3608 34.7588 45.2448C34.3941 44.9796 34.3113 44.4492 34.5765 44.0845L39.6319 37.1395C39.8971 36.7748 40.4275 36.6919 40.7922 36.9571C41.1569 37.2223 41.2397 37.7527 40.9745 38.1174L35.9191 45.0625C35.7533 45.2779 35.5046 45.4105 35.256 45.4105H35.2395Z" fill="black"/>
<path d="M41.2066 42.9739L37.0628 42.8745C36.5987 42.8745 36.2505 42.4767 36.2505 42.0291C36.2505 41.565 36.6318 41.2666 37.0959 41.2169L41.2231 41.3164C41.6873 41.3164 42.0354 41.7142 42.0354 42.1617C42.0354 42.6093 41.6541 42.9739 41.2066 42.9739Z" fill="black"/>
<path d="M14.686 55.0407C14.4374 55.0407 14.1887 55.0076 13.9401 54.9247C12.1002 54.3445 11.0228 51.7091 10.9068 51.4107C10.7576 51.0129 10.9234 50.5488 11.3212 50.3665L19.3768 46.4879C19.6751 46.3387 20.0398 46.3884 20.2884 46.6039C20.537 46.8193 20.6365 47.1675 20.5371 47.4824C20.4708 47.6979 18.7635 52.8031 16.1943 54.5269C15.7136 54.8584 15.1998 55.0241 14.686 55.0241V55.0407ZM12.7798 51.5102C13.1942 52.2892 13.8075 53.1511 14.4373 53.3335C14.6196 53.3832 14.8849 53.4163 15.2661 53.1677C16.4264 52.3887 17.4872 50.4825 18.1999 48.9078L12.7964 51.5102H12.7798Z" fill="black"/>
<path d="M20.3713 29.5313C20.1061 29.5313 19.8575 29.4153 19.6917 29.1833C19.1116 28.3545 18.4652 27.907 17.769 27.8241C16.6087 27.7081 15.5479 28.6363 15.5313 28.6529C15.1998 28.9512 14.6694 28.9346 14.3545 28.6031C14.0396 28.2716 14.0561 27.7412 14.4042 27.4428C14.4705 27.3765 15.9954 25.9842 17.9348 26.1831C19.1282 26.3157 20.1724 26.9953 21.0343 28.2385C21.2995 28.6197 21.2001 29.1335 20.8354 29.3987C20.6863 29.4982 20.5205 29.5479 20.3547 29.5479L20.3713 29.5313Z" fill="black"/>
<path d="M4.12756 29.6142C3.97838 29.6142 3.82924 29.5811 3.69664 29.4816C3.31541 29.233 3.19937 28.7357 3.43143 28.3379C3.54745 28.1556 4.57513 26.5809 6.18294 26.4483C6.82938 26.382 7.8239 26.5643 8.835 27.708C9.13336 28.0561 9.11677 28.57 8.76868 28.8849C8.4206 29.1833 7.90678 29.1501 7.59185 28.8186C7.14432 28.3213 6.69675 28.0893 6.31552 28.1224C5.63593 28.1722 5.00606 28.9512 4.80716 29.2496C4.65798 29.4982 4.37623 29.6308 4.11102 29.6308L4.12756 29.6142Z" fill="black"/>
<path d="M33.1179 35.2995C33.1179 35.2995 23.1229 31.6861 18.8465 25.3709C14.5866 19.0391 14.0231 15.6744 14.0231 15.6744C14.0231 15.6744 13.2109 20.2823 9.92895 21.7741C6.64703 23.2493 4.52542 23.6471 4.52542 23.6471L3.14964 30.2275L2.6524 15.0113C2.6524 15.0113 11.2881 8.86188 12.5313 8.7127C13.7744 8.54695 29.8028 9.35917 30.8139 10.1879C31.825 11.0167 38.3391 22.5531 38.3391 22.5531L39.3833 28.0064L33.1013 35.3327L33.1179 35.2995Z" fill="white"/>
<path d="M5.27129 38.051C5.27129 38.051 5.1553 38.051 5.10557 38.0344C4.65804 37.9349 4.35966 37.504 4.45911 37.0565L5.27129 33.095L4.11105 31.9347C3.77954 31.6032 3.79611 31.0893 4.11105 30.7578C4.44255 30.4263 4.95637 30.4429 5.28788 30.7578L6.74652 32.233C6.94542 32.4319 7.02827 32.7137 6.97854 32.9789L6.08351 37.3714C6.00064 37.7692 5.65252 38.0344 5.27129 38.0344V38.051Z" fill="black"/>
<path d="M19.0122 37.9185C19.0122 37.9185 18.8962 37.9185 18.8465 37.9019C18.3989 37.8024 18.1006 37.3715 18.2001 36.924L19.0122 32.979L17.3216 31.3546C16.9901 31.0397 16.9735 30.5093 17.305 30.1778C17.6199 29.8463 18.1503 29.8463 18.4818 30.1612L20.504 32.1005C20.7029 32.2994 20.8024 32.5812 20.7361 32.863L19.841 37.2555C19.7581 37.6533 19.4101 37.9185 19.0288 37.9185H19.0122Z" fill="black"/>
<path d="M39.58 51.29C39.58 52.55 38.55 53.58 37.29 53.58C36.03 53.58 35 52.55 35 51.29C35 50.03 36.03 49 37.29 49C38.55 49 39.58 50.03 39.58 51.29Z" fill="#07CBF5"/>
</svg>
