<svg width="54" height="95" viewBox="0 0 54 95" fill="none" xmlns="http://www.w3.org/2000/svg">
<path d="M6.66932 28.1924C6.66932 28.1924 0.808881 11.1624 5.8627 3.66858C10.3897 -3.01824 32.5969 0.522799 40.4986 5.66144C48.4004 10.7836 48.6638 17.5198 48.6638 17.5198C48.6638 17.5198 52.5323 18.541 53.4377 21.8679C54.3431 25.1948 51.4623 30.6794 51.4623 30.6794C51.4623 30.6794 47.5444 25.7054 41.9308 28.8676C36.3173 32.0464 6.66932 28.1759 6.66932 28.1759V28.1924Z" fill="#5E1DBB"/>
<path d="M37.0581 52.5845L37.947 67.4569C37.947 67.4569 32.3499 72.052 26.1273 72.3649C17.7317 72.7931 14.5546 66.4028 14.5546 66.4028L14.6204 51.2339L37.0581 52.6009V52.5845Z" fill="#FD8753"/>
<path d="M36.5149 54.742C36.5149 54.742 33.9304 64.9369 24.3001 63.817C16.5301 62.9276 14.0772 52.5845 14.0772 52.5845L36.5313 54.7256L36.5149 54.742Z" fill="black"/>
<path d="M9.08919 18.6892C9.08919 18.6892 5.40171 42.0437 13.3034 52.8974C21.2216 63.7512 30.9013 60.1607 35.1814 56.6361C40.9595 51.8763 41.9472 45.5189 41.9472 45.5189C41.9472 45.5189 50.1453 46.8694 52.6311 40.1332C55.2485 33.0511 49.9807 27.5995 45.8981 27.4019C41.8156 27.2042 41.3711 27.9618 41.3711 27.9618L42.3094 20.468C42.3094 20.468 16.6288 -6.22985 9.07276 18.7057L9.08919 18.6892Z" fill="#FD8753"/>
<path d="M13.3858 29.4277C13.3858 29.4277 0.858227 24.569 0.232673 34.171C-0.508114 45.2882 12.7273 44.9424 12.7273 44.9424L13.3858 29.4277Z" fill="#FD8753"/>
<path d="M43.4124 28.6206C43.4124 28.6206 39.1652 30.5641 29.8642 24.2232C20.5467 17.8822 22.9337 9.94367 22.9337 9.94367C22.9337 9.94367 10.7683 18.1457 8.31551 27.9618C5.86268 37.7944 3.54153 5.2168 17.6659 5.3815C31.7902 5.5462 53.2073 14.0282 43.4289 28.6206H43.4124Z" fill="#5E1DBB"/>
<path d="M43.116 39.8861C42.9185 39.8861 42.7374 39.8202 42.5892 39.6885C42.2435 39.392 42.1942 38.865 42.4905 38.5191L47.8241 32.277C48.1204 31.9311 48.6472 31.8982 48.9765 32.1781C49.3222 32.4746 49.3716 33.0017 49.0752 33.3311L43.7416 39.5732C43.577 39.7708 43.3465 39.8697 43.116 39.8697V39.8861Z" fill="black"/>
<path d="M48.993 37.992C48.993 37.992 48.9436 37.992 48.9107 37.992L44.9927 37.5968C44.5318 37.5473 44.2026 37.152 44.252 36.6909C44.3014 36.2297 44.7293 35.9003 45.1574 35.9498L49.0753 36.345C49.5362 36.3944 49.8655 36.7897 49.8161 37.2509C49.7667 37.6791 49.421 37.992 48.993 37.992Z" fill="black"/>
<path d="M30.5722 32.244C30.1277 32.244 29.7491 31.8817 29.7491 31.437L29.6997 27.5336C29.6997 27.0724 30.0618 26.7101 30.5063 26.6936C30.9672 26.6936 31.3294 27.056 31.3459 27.5007L31.3953 31.404C31.3953 31.8652 31.0331 32.2276 30.5886 32.244H30.5722Z" fill="black"/>
<path d="M16.0691 32.9687C15.6082 32.9687 15.246 32.5899 15.246 32.1287L15.2954 28.2253C15.2954 27.7642 15.7234 27.4677 16.1349 27.4183C16.5959 27.4183 16.9581 27.7971 16.9416 28.2583L16.8922 32.1616C16.8922 32.6063 16.5136 32.9687 16.0691 32.9687Z" fill="black"/>
<path d="M7.64057 39.4908C7.37718 39.4908 7.13025 39.3755 6.96563 39.145L2.42216 32.8369C2.15877 32.4746 2.24106 31.9476 2.60322 31.684C2.96538 31.4205 3.49219 31.5029 3.75558 31.8652L8.29909 38.1732C8.56248 38.5356 8.48015 39.0626 8.11798 39.3261C7.96983 39.4249 7.80519 39.4743 7.64057 39.4743V39.4908Z" fill="black"/>
<path d="M2.4386 37.7615C2.02705 37.7615 1.68136 37.465 1.63198 37.0532C1.56613 36.6085 1.87889 36.1803 2.33983 36.1309L5.945 35.6368C6.38947 35.5545 6.81748 35.8839 6.86686 36.345C6.93271 36.7897 6.61995 37.2179 6.15901 37.2673L2.55384 37.7615C2.55384 37.7615 2.48798 37.7615 2.4386 37.7615Z" fill="black"/>
<path d="M23.477 44.1024C23.2136 44.1024 22.9666 43.9871 22.802 43.7565C19.5096 39.112 22.0941 33.0675 22.2094 32.804C22.3904 32.3922 22.8678 32.1946 23.2959 32.3757C23.7074 32.5569 23.905 33.051 23.7239 33.4628C23.7074 33.5122 21.4027 38.9144 24.1519 42.8013C24.4153 43.1636 24.3329 43.6906 23.9543 43.9542C23.8062 44.053 23.6416 44.1024 23.477 44.1024Z" fill="black"/>
<path d="M28.9423 48.8787C27.6418 48.8787 26.44 48.1705 26.259 48.0717C26.0285 47.9235 25.8804 47.6764 25.8639 47.4129C25.8639 47.1329 25.9791 46.8859 26.1932 46.7212L30.7037 43.3613C30.9506 43.1801 31.2799 43.1471 31.5433 43.2789C31.8231 43.4107 32.0042 43.6742 32.0206 43.9872C32.1359 46.293 31.6091 47.8247 30.4403 48.5164C29.9629 48.7964 29.4526 48.9117 28.9423 48.9117V48.8787ZM28.3497 47.1494C28.7941 47.2482 29.255 47.2811 29.6007 47.067C29.9464 46.8529 30.1934 46.3753 30.3086 45.6836L28.3497 47.1494Z" fill="black"/>
<path d="M13.748 25.2443C13.4517 25.2443 13.1719 25.096 13.0237 24.816C12.8097 24.4208 12.9578 23.9102 13.3529 23.6961L16.6783 21.9009C17.0734 21.6868 17.5837 21.835 17.7977 22.2302C18.0117 22.6255 17.8635 23.1361 17.4684 23.3502L14.1431 25.1455C14.0114 25.2113 13.8797 25.2443 13.748 25.2443Z" fill="black"/>
<path d="M31.8561 24.8984C31.7574 24.8984 31.6585 24.882 31.5598 24.849L26.5883 22.9055C26.1603 22.7408 25.9627 22.2632 26.1274 21.835C26.292 21.4068 26.7694 21.2091 27.1974 21.3738L32.1689 23.3173C32.5969 23.482 32.7945 23.9596 32.6298 24.3879C32.4981 24.7173 32.1854 24.9149 31.8561 24.9149V24.8984Z" fill="black"/>
<path d="M48.2358 34.3357C48.2358 34.3357 49.5692 37.218 47.9724 38.4368C46.3921 39.6555 44.5154 38.6673 44.5154 38.6673L48.2194 34.3193L48.2358 34.3357Z" fill="#07CBF5"/>
<path d="M3.29465 34.0063C3.29465 34.0063 1.73074 36.7733 3.21231 38.1238C4.69389 39.4579 6.63643 38.6344 6.63643 38.6344L3.29465 34.0063Z" fill="#07CBF5"/>
<path d="M25.5676 82.494C11.789 82.494 4.11767 39.7214 3.78843 37.8767C3.70612 37.4321 4.00244 37.0039 4.46337 36.9215C4.90785 36.8227 5.33588 37.1356 5.41819 37.5968C7.55825 49.7352 15.2789 80.847 25.5676 80.847C25.6828 80.847 25.8145 80.847 25.9298 80.847C40.3834 79.8259 46.1615 37.498 46.2109 37.0697C46.2767 36.6086 46.6883 36.2957 47.1328 36.3615C47.5772 36.4274 47.9065 36.8392 47.8406 37.2838C47.5937 39.0791 41.8155 81.374 26.0285 82.494C25.8639 82.494 25.7157 82.494 25.5511 82.494H25.5676Z" fill="#07CBF5"/>
</svg>
