<svg width="54" height="73" viewBox="0 0 54 73" fill="none" xmlns="http://www.w3.org/2000/svg">
<path d="M10.875 5.4226C10.875 5.4226 2.60278 14.7724 7.14506 25.0837C11.6873 35.395 16.5612 6.35095 16.5612 6.35095L10.8584 5.4226H10.875Z" fill="white"/>
<path d="M38.6757 47.447L38.9907 65.9974C38.9907 65.9974 35.7414 71.3851 24.8996 72.4461C16.8263 73.2418 13.9584 71.468 13.9584 71.468L14.9199 62.0519L15.8814 52.8679L35.4099 48.2262L38.6923 47.447H38.6757Z" fill="#FD8753"/>
<path d="M35.3934 48.2262C35.3602 48.7401 38.3774 50.3315 38.0956 51.0112C34.1003 60.3444 19.2136 65.0359 14.5552 65.5332L15.8649 52.8513L35.3934 48.2096V48.2262Z" fill="black"/>
<path d="M14.3894 6.35094C11.8365 8.42315 10.0627 11.2745 9.00169 14.3911C6.58135 21.5527 1.69097 38.263 4.89046 48.5245C9.05146 61.8364 21.0703 59.3497 28.1987 56.5315C35.3436 53.7133 38.5431 49.1048 38.5431 49.1048C38.5431 49.1048 45.3731 51.2101 49.6667 44.7117C53.9769 38.2132 50.9432 30.9853 47.0309 29.427C43.1185 27.8687 38.626 30.8361 38.626 30.8361L41.9912 23.7741C41.9912 23.7741 28.4639 -5.13739 14.3728 6.35094H14.3894Z" fill="#FD8753"/>
<path d="M39.6372 39.9042C39.3886 39.9042 39.1399 39.7881 38.9741 39.5726C38.6923 39.2079 38.7752 38.6774 39.1399 38.4122L45.9202 33.356C46.2849 33.0908 46.7988 33.157 47.0806 33.5217C47.3458 33.8865 47.2795 34.417 46.9148 34.6822L40.1345 39.7384C39.9853 39.8544 39.8196 39.9042 39.6372 39.9042Z" fill="black"/>
<path d="M47.2629 39.6721C47.2629 39.6721 47.1303 39.6721 47.064 39.6555L41.5436 38.3293C41.096 38.2298 40.8308 37.7822 40.9303 37.3346C41.0297 36.887 41.4773 36.6052 41.9249 36.7213L47.4619 38.0474C47.9095 38.1469 48.1747 38.5945 48.0752 39.0421C47.9923 39.4234 47.6442 39.6721 47.2629 39.6721Z" fill="black"/>
<path d="M8.9353 28.018C8.9353 28.018 8.80268 28.018 8.73637 27.9848C8.28878 27.8688 8.02356 27.4212 8.1396 26.9736L9.23373 22.6965C9.34978 22.2489 9.79735 21.9837 10.2449 22.0998C10.6925 22.2158 10.9578 22.6634 10.8418 23.111L9.74764 27.388C9.64817 27.7693 9.3166 28.018 8.95189 28.018H8.9353Z" fill="black"/>
<path d="M20.6889 28.6479C20.6889 28.6479 20.5563 28.6479 20.49 28.6148C20.0424 28.4987 19.7772 28.0511 19.8932 27.6036L20.9873 23.3265C21.1034 22.8789 21.551 22.6137 21.9985 22.7297C22.4461 22.8458 22.7114 23.2933 22.5954 23.7409L21.5012 28.018C21.4018 28.3993 21.0702 28.6479 20.7055 28.6479H20.6889Z" fill="black"/>
<path d="M8.2557 18.6848C7.84126 18.6848 7.47655 18.3698 7.42682 17.9387C7.37708 17.4911 7.70859 17.0767 8.15619 17.027L11.6707 16.6457C12.1183 16.6125 12.5327 16.9275 12.5824 17.3751C12.6322 17.8227 12.3006 18.2371 11.853 18.2869L8.33857 18.6682C8.33857 18.6682 8.27228 18.6682 8.2557 18.6682V18.6848Z" fill="black"/>
<path d="M24.22 21.5195C24.1205 21.5195 24.0045 21.5029 23.905 21.4532L19.1141 19.4473C18.6996 19.2649 18.5007 18.7842 18.6665 18.3698C18.8489 17.9553 19.3296 17.7398 19.744 17.9221L24.535 19.9281C24.9494 20.1104 25.1484 20.5912 24.9826 21.0056C24.85 21.3206 24.535 21.5195 24.22 21.5195Z" fill="black"/>
<path d="M38.6591 30.8361C38.6591 30.8361 36.7361 38.5613 35.2607 37.6164C33.7853 36.6715 32.3928 25.5479 33.5035 20.558C34.6142 15.5681 35.4099 13.0649 35.4099 13.0649C35.4099 13.0649 15.1354 11.2579 9.79742 6.45039C4.45941 1.62629 15.7322 -1.47372 27.2868 0.714534C38.8249 2.90279 43.3837 7.22955 43.3837 7.22955C43.3837 7.22955 50.6116 6.15201 53.3138 10.5617C56.016 14.9713 49.8656 31.7313 49.8656 31.7313C49.8656 31.7313 48.0421 27.5206 38.6591 30.8196V30.8361Z" fill="#FFFFFB"/>
<path d="M0 38.81C0 38.81 5.66955 32.5436 8.53749 33.472C11.422 34.4169 12.4664 38.6277 12.4664 38.6277C12.4664 38.6277 15.8814 33.8864 19.6611 35.2292C23.4408 36.572 31.5307 37.0528 31.6136 38.3624C31.6965 39.672 29.359 40.1362 29.359 40.1362C29.359 40.1362 10.3113 42.341 0 38.81Z" fill="white"/>
<path d="M38.6592 30.8362C38.6592 30.8362 38.3276 43.3523 38.5597 49.1048C38.8084 54.8407 22.8441 63.7925 11.8199 58.8524C0.795791 53.9123 3.8129 39.4566 3.8129 39.4566L13.6435 40.3683C13.6435 40.3683 15.9146 39.0918 18.4841 38.5614C21.0537 38.0309 24.4853 39.44 24.4853 39.44L38.6592 30.8527V30.8362Z" fill="#FFFFFB"/>
<path d="M15.1851 43.2694C14.7706 43.2694 14.4059 42.9545 14.3562 42.5234C14.3065 42.0758 14.638 41.6614 15.0856 41.6116C15.1188 41.6116 18.4177 41.2303 19.6279 38.81C19.8268 38.3956 20.3242 38.2298 20.7386 38.4453C21.1531 38.6442 21.3188 39.1416 21.1033 39.556C19.4953 42.7887 15.4172 43.2363 15.2514 43.2529C15.2183 43.2529 15.1851 43.2529 15.1685 43.2529L15.1851 43.2694Z" fill="black"/>
<path d="M12.1348 37.3014C11.8365 37.3014 11.538 37.1356 11.3888 36.8372C8.63694 31.3335 12.599 25.5479 12.7648 25.3158C13.0301 24.9345 13.5439 24.8516 13.9252 25.1169C14.3065 25.3821 14.3894 25.896 14.1241 26.2773C14.091 26.327 10.5599 31.4992 12.8808 36.1078C13.0797 36.5223 12.914 37.0196 12.5161 37.2186C12.4001 37.2849 12.2674 37.3014 12.1514 37.3014H12.1348Z" fill="black"/>
</svg>
