<svg width="54" height="77" viewBox="0 0 54 77" fill="none" xmlns="http://www.w3.org/2000/svg">
<path d="M8.54627 28.1656C8.54627 28.1656 -3.95966 12.7067 1.28476 6.55861C6.52918 0.410538 14.6459 6.55861 14.6459 6.55861C14.6459 6.55861 15.0978 -0.702896 23.1822 0.0555272C31.2667 0.797814 36.14 9.43094 36.14 9.43094C36.14 9.43094 43.2563 2.31466 48.1295 9.43094C53.0028 16.5472 49.6302 28.1656 49.6302 28.1656C49.6302 28.1656 55.2458 27.3265 53.7451 33.9264C52.2444 40.5263 43.4015 47.336 43.4015 47.336L8.53013 28.1656H8.54627Z" fill="#E2209E"/>
<path d="M35.9141 52.5159L36.1561 69.9596C36.1561 69.9596 33.074 75.0104 22.8918 75.9786C15.3075 76.7047 12.6127 75.0104 12.6127 75.0104L13.5486 66.1675L14.4846 57.5344L32.8481 53.2259L35.9302 52.4997L35.9141 52.5159Z" fill="#FD8753"/>
<path d="M32.832 53.242C32.7998 53.7261 32.6223 54.2909 32.3479 54.9363C28.5558 63.6986 17.9217 65.7157 13.5326 66.1675L14.4685 57.5343L32.832 53.2259V53.242Z" fill="black"/>
<path d="M10.0309 17.8381C10.0309 17.8381 1.17182 39.8324 4.9478 51.9188C8.72379 64.0052 19.7774 61.7783 26.3612 59.2287C32.9449 56.6791 35.9141 52.5159 35.9141 52.5159C35.9141 52.5159 42.1912 54.4361 46.177 48.5462C50.1628 42.6564 47.4195 36.0887 43.8211 34.6687C40.2226 33.2487 36.0916 35.9274 36.0916 35.9274L39.2221 29.5211C39.2221 29.5211 24.3925 -2.13905 10.047 17.822L10.0309 17.8381Z" fill="#FD8753"/>
<path d="M36.8499 45.448C37.0112 45.448 37.1887 45.3996 37.334 45.2866L43.9016 40.4295C44.2566 40.1713 44.3373 39.6549 44.063 39.2999C43.8048 38.9449 43.2884 38.8642 42.9334 39.1386L36.3658 43.9957C36.0108 44.2539 35.9301 44.7703 36.2044 45.1253C36.3658 45.335 36.6078 45.448 36.8499 45.448Z" fill="black"/>
<path d="M43.9987 45.2544C44.3698 45.2544 44.6925 45.0123 44.7894 44.6412C44.9023 44.2055 44.628 43.7698 44.1923 43.673L38.9963 42.4143C38.5606 42.3014 38.1249 42.5757 38.0281 43.0114C37.9151 43.4471 38.1895 43.8828 38.6252 43.9796L43.8212 45.2382C43.8212 45.2382 43.9503 45.2544 44.0148 45.2544H43.9987Z" fill="black"/>
<path d="M24.1827 28.0688C24.2795 28.0688 24.3602 28.0688 24.457 28.0204C24.8765 27.8752 25.1024 27.4072 24.9411 26.9877C23.6179 23.2762 20.3744 22.8244 18.8414 23.0987C18.4057 23.1794 18.1153 23.599 18.196 24.0346C18.2766 24.4703 18.68 24.7608 19.1319 24.6801C19.261 24.664 22.2301 24.196 23.4242 27.5202C23.5372 27.8429 23.8599 28.0527 24.1827 28.0527V28.0688Z" fill="black"/>
<path d="M7.83626 26.3583C8.01377 26.3583 8.20741 26.2938 8.35264 26.1647C9.51448 25.1803 10.0631 24.9383 10.2245 24.8899C10.4827 24.9706 10.7731 24.906 10.9829 24.7285C11.3218 24.4381 11.3541 23.9217 11.0475 23.5828C10.1115 22.5339 8.06218 24.2767 7.28762 24.9383C6.94875 25.2288 6.90033 25.729 7.19079 26.0679C7.35216 26.2615 7.57808 26.3583 7.804 26.3583H7.83626Z" fill="black"/>
<path d="M12.9991 42.9145C13.1766 42.9145 13.338 42.8661 13.4832 42.7532C13.8382 42.4788 13.9027 41.9786 13.6284 41.6236C11.9663 39.4451 15.0323 35.2819 16.3716 33.878C16.6782 33.5553 16.6621 33.0389 16.3394 32.7323C16.0166 32.4257 15.5003 32.4418 15.1937 32.7646C14.9678 33.0066 9.51357 38.8804 12.3536 42.5918C12.515 42.8016 12.757 42.9145 12.9991 42.9145Z" fill="black"/>
<path d="M8.56296 35.1205C8.96638 35.1205 9.30526 34.83 9.35367 34.4266L9.93459 30.3279C9.99914 29.8922 9.69253 29.4727 9.25684 29.4081C8.82115 29.3436 8.4016 29.6502 8.33705 30.0859L7.75613 34.1846C7.69158 34.6203 7.99819 35.0398 8.43388 35.1044C8.46615 35.1044 8.51456 35.1044 8.54684 35.1044L8.56296 35.1205Z" fill="black"/>
<path d="M21.5847 35.1367C22.0043 35.1367 22.3593 34.814 22.3915 34.3783L22.6497 30.2473C22.682 29.7955 22.3431 29.4243 21.8913 29.392C21.4717 29.3598 21.0683 29.6987 21.0361 30.1505L20.7779 34.2815C20.7456 34.7333 21.0845 35.1044 21.5363 35.1367C21.5524 35.1367 21.5686 35.1367 21.5847 35.1367Z" fill="black"/>
<path d="M8.27194 22.7921C8.27194 22.7921 10.1115 19.2582 14.4684 19.1775C18.8253 19.0968 21.4072 22.1144 21.4072 22.1144C21.4072 22.1144 19.5999 29.4727 25.5705 33.2809C31.541 37.0892 36.1077 35.9435 36.1077 35.9435L40.3839 34.3621L43.4499 28.0527L30.8633 14.8367L14.6782 6.57474L6.59372 14.1106L8.30421 22.7921H8.27194Z" fill="#E2209E"/>
<path d="M15.6786 49.8049C16.792 49.8049 20.2453 49.5144 21.8267 46.0128C22.0042 45.6094 21.8267 45.1253 21.4232 44.9478C21.0198 44.7703 20.5357 44.9478 20.3582 45.3512C18.9705 48.4171 15.5979 48.2074 15.4527 48.1912C15.0008 48.1428 14.6297 48.4978 14.5813 48.9335C14.549 49.3692 14.8717 49.7565 15.3236 49.8049C15.3558 49.8049 15.4688 49.8049 15.6624 49.8049H15.6786Z" fill="black"/>
<path d="M12 32.5C12 35.7007 9.8352 38 7.5 38C5.1648 38 3 35.7007 3 32.5C3 29.2993 5.1648 27 7.5 27C9.8352 27 12 29.2993 12 32.5Z" stroke="#07CBF5" stroke-width="2"/>
<path d="M27 32.5C27 35.6144 24.6876 38 22 38C19.3124 38 17 35.6144 17 32.5C17 29.3856 19.3124 27 22 27C24.6876 27 27 29.3856 27 32.5Z" stroke="#07CBF5" stroke-width="2"/>
<line x1="12" y1="32" x2="17" y2="32" stroke="#07CBF5" stroke-width="2"/>
<path d="M43 35C43.548 35.0685 44.0478 34.6798 44.1163 34.1318C44.1848 33.5838 43.7961 33.084 43.2481 33.0155L43 35ZM27 33L43 35L43.2481 33.0155L27.2481 31.0155L27 33Z" fill="#07CBF5"/>
</svg>
