<svg width="54" height="74" viewBox="0 0 54 74" fill="none" xmlns="http://www.w3.org/2000/svg">
<path d="M6.27124 15.9461C6.27124 15.9461 6.56374 2.03458 27.2685 0.133125C47.9733 -1.76833 54.994 17.295 53.8889 19.3265C52.7838 21.3579 51.0449 22.1055 51.0449 22.1055C51.0449 22.1055 51.5487 36.0008 43.1303 38.5198C34.7118 41.0226 25.3021 35.6433 25.3021 35.6433L6.27124 15.9623V15.9461Z" fill="#5E1DBB"/>
<path d="M31.1365 50.2699V67.3505C31.1365 67.3505 28.0487 72.2585 18.0538 73.0711C10.6105 73.6724 7.99396 71.9822 7.99396 71.9822L9.0341 63.3363L10.058 54.9016L28.1137 50.9361L31.1365 50.2699Z" fill="#955234"/>
<path d="M28.1136 50.9361C28.0649 51.4074 27.8861 51.96 27.6098 52.5776C23.7744 61.1098 13.3245 62.9462 9.03406 63.32L10.0579 54.8854L28.1136 50.9199V50.9361Z" fill="black"/>
<path d="M6.2713 15.9461C6.2713 15.9461 -2.71589 37.3659 0.826997 49.2622C4.36988 61.1585 15.2098 59.1271 21.6942 56.7218C28.1787 54.3166 31.1365 50.2699 31.1365 50.2699C31.1365 50.2699 37.2472 52.2363 41.2452 46.5157C45.2268 40.795 42.6265 34.3269 39.1323 32.8967C35.6382 31.4665 31.5428 34.0343 31.5428 34.0343L34.6956 27.8099C34.6956 27.8099 20.6054 -3.40979 6.28757 15.9623L6.2713 15.9461Z" fill="#955234"/>
<path d="M7.65261 43.1028C7.31132 43.1028 7.00259 42.8915 6.88882 42.5503C5.36116 37.9673 8.49778 33.2217 8.64404 33.0267C8.88782 32.6529 9.39163 32.5554 9.76542 32.7992C10.1392 33.043 10.2366 33.5467 9.99287 33.9205C9.96037 33.9693 7.16512 38.211 8.43276 42.0302C8.57903 42.4527 8.35149 42.9078 7.91269 43.0541C7.83143 43.0866 7.73387 43.1028 7.65261 43.1028Z" fill="black"/>
<path d="M32.648 44.1267C32.453 44.1267 32.258 44.0617 32.1118 43.9154C31.7705 43.6066 31.7542 43.1028 32.0467 42.7615L37.6861 36.5208C37.9949 36.1958 38.4986 36.1633 38.8399 36.4559C39.1812 36.7646 39.1975 37.2684 38.905 37.6097L33.2656 43.8504C33.1031 44.0292 32.8918 44.1267 32.6643 44.1267H32.648Z" fill="black"/>
<path d="M38.7261 42.3552C38.7261 42.3552 38.6612 42.3552 38.6125 42.3552L34.5982 41.8352C34.1594 41.7702 33.8344 41.3639 33.8994 40.9251C33.9644 40.4863 34.3545 40.1612 34.8095 40.2262L38.8237 40.7463C39.2625 40.8113 39.5876 41.2176 39.5226 41.6564C39.4738 42.0627 39.1163 42.3715 38.71 42.3715L38.7261 42.3552Z" fill="black"/>
<path d="M17.1112 34.9606C17.1112 34.9606 17.0462 34.9606 17.0299 34.9606C16.5911 34.9119 16.2661 34.5056 16.3148 34.0668L16.7374 30.0851C16.7862 29.6463 17.1924 29.305 17.6312 29.37C18.07 29.4188 18.3951 29.8251 18.3463 30.2639L17.9238 34.2456C17.875 34.6681 17.5337 34.9769 17.1112 34.9769V34.9606Z" fill="black"/>
<path d="M5.3286 34.2619C5.3286 34.2619 5.2636 34.2619 5.23109 34.2619C4.7923 34.2131 4.46727 33.8068 4.53228 33.3518L5.01981 29.3863C5.06857 28.9475 5.50736 28.6225 5.92991 28.6875C6.36871 28.7363 6.69373 29.1426 6.62872 29.5976L6.14119 33.5631C6.09244 33.9694 5.7349 34.2781 5.3286 34.2781V34.2619Z" fill="black"/>
<path d="M20.6541 27.2735C20.3615 27.2735 20.0852 27.1273 19.939 26.851C18.9801 25.0796 16.4286 25.6484 16.4124 25.6646C15.9736 25.7784 15.5348 25.5021 15.4373 25.0633C15.3398 24.6245 15.5998 24.1857 16.0386 24.0882C16.1849 24.0557 19.8252 23.2269 21.3854 26.0872C21.5967 26.4772 21.4504 26.981 21.0603 27.1923C20.9303 27.2573 20.8003 27.2898 20.6703 27.2898L20.6541 27.2735Z" fill="black"/>
<path d="M3.37844 26.4284C3.18342 26.4284 2.98847 26.3634 2.8422 26.2334C2.50091 25.9409 2.46834 25.4208 2.77713 25.0958C3.71973 24.0232 6.04382 22.4468 8.1403 24.1045C8.49783 24.3807 8.54652 24.8845 8.27024 25.242C7.99396 25.5996 7.47398 25.6484 7.13269 25.3721C5.73504 24.267 4.07727 26.0872 3.99601 26.1684C3.83349 26.3472 3.60598 26.4447 3.3947 26.4447L3.37844 26.4284Z" fill="black"/>
<path d="M35.0208 35.562C35.0208 35.562 28.2601 34.3269 26.1148 29.5489C22.9132 22.4143 27.1874 19.3752 27.1874 19.3752C27.1874 19.3752 22.2794 20.4803 18.2489 18.3514C13.2596 15.7186 12.4146 11.7369 12.4146 11.7369L6.30391 15.9461C6.30391 15.9461 4.49994 6.92636 10.1393 5.25242C15.7787 3.59474 22.3768 8.76281 22.3768 8.76281L43.0492 24.4783L41.0989 34.3106C41.0989 34.3106 39.9451 33.8556 35.037 35.5295L35.0208 35.562Z" fill="white"/>
<path d="M14.4134 49.6523C14.1859 49.6523 13.9584 49.636 13.7146 49.5873C11.6994 49.181 10.4318 47.1008 10.383 47.0195C10.2692 46.8245 10.2367 46.5969 10.3017 46.3857C10.3667 46.1744 10.5129 45.9794 10.708 45.8819L18.135 42.0789C18.3626 41.9652 18.6389 41.9652 18.8664 42.0789C19.0939 42.1927 19.2565 42.404 19.3052 42.6478C19.3377 42.794 20.0202 46.4344 16.7211 48.8559C15.9736 49.3922 15.2097 49.6685 14.4134 49.6685V49.6523ZM12.3169 46.8732C12.7232 47.3282 13.3246 47.8483 14.0397 47.9946C14.6085 48.1083 15.161 47.9621 15.7461 47.5233C17.2087 46.4507 17.6312 45.0693 17.7287 44.0941L12.3007 46.8732H12.3169Z" fill="black"/>
<path d="M13.3408 4.5698C13.3408 4.5698 23.5307 6.60129 29.0726 18.7576C33.6068 28.6875 35.0044 35.562 35.0044 35.562L43.1303 38.5198L45.5518 19.0501L26.9435 4.27728C26.9435 4.27728 18.2 0.701895 13.3408 4.58607V4.5698Z" fill="#5E1DBB"/>
<path d="M35.7031 36.147C35.2968 36.147 34.9555 35.8545 34.9068 35.4482C34.8418 35.0094 35.1668 34.5868 35.6056 34.5381C35.6544 34.5381 40.7575 33.8068 44.4954 29.9713C48.0545 26.3147 49.761 22.8206 49.7772 22.7718C49.9722 22.3655 50.4598 22.203 50.866 22.3818C51.2723 22.5768 51.4348 23.0643 51.2561 23.4706C51.1911 23.6169 49.4359 27.241 45.6817 31.0927C41.5375 35.3507 36.0769 36.1145 35.8332 36.147C35.8007 36.147 35.7681 36.147 35.7194 36.147H35.7031Z" fill="#07CBF5"/>
<path d="M33.2979 28.2812C32.9566 28.2812 32.6316 28.0537 32.5178 27.7124C32.3878 27.2898 32.6153 26.8348 33.0378 26.6885C33.1191 26.6723 40.7737 24.202 44.7067 21.5854C48.9159 18.7901 52.8975 18.5789 53.06 18.5789C53.4826 18.5789 53.8889 18.9039 53.9051 19.3589C53.9214 19.814 53.5801 20.1878 53.1251 20.2041C53.0926 20.2041 49.4197 20.399 45.6005 22.9506C41.4725 25.6971 33.8505 28.1512 33.5254 28.2487C33.4442 28.2812 33.3629 28.2812 33.2816 28.2812H33.2979Z" fill="#07CBF5"/>
<path d="M29.6249 19.1639C29.3974 19.1639 29.1536 19.0664 28.9911 18.8714C28.7148 18.5301 28.7636 18.01 29.1049 17.7337C29.4949 17.425 38.6772 10.0629 51.451 12.2406C51.8898 12.3219 52.1824 12.7445 52.1174 13.1833C52.0362 13.6221 51.6298 13.9146 51.1748 13.8496C39.1485 11.7694 30.21 18.9202 30.1287 18.9852C29.9825 19.1152 29.7874 19.1639 29.6087 19.1639H29.6249Z" fill="#07CBF5"/>
<path d="M22.3443 9.59167C22.0843 9.59167 21.8404 9.46165 21.6779 9.23413C21.4179 8.86034 21.5154 8.35651 21.8892 8.09648C22.2955 7.8202 31.7865 1.38449 45.3405 4.6836C45.7793 4.79736 46.0393 5.23617 45.9418 5.65872C45.8443 6.09751 45.3893 6.37379 44.9668 6.26002C32.1441 3.13968 22.9131 9.36413 22.8156 9.42914C22.6693 9.52665 22.5068 9.5754 22.3606 9.5754L22.3443 9.59167Z" fill="#07CBF5"/>
</svg>
