<svg width="56" height="77" viewBox="0 0 56 77" fill="none" xmlns="http://www.w3.org/2000/svg">
<path d="M22.9734 7.92247C22.9734 7.92247 32.7552 -0.974289 45.8317 2.46759C58.9082 5.90947 59.6041 19.0378 46.246 26.3608C32.8958 33.6794 23.5369 24.5542 23.5369 24.5542L22.9655 7.927L22.9734 7.92247Z" fill="#E2209E"/>
<path d="M10.0372 53.9168C9.07542 58.2767 6.4627 61.4185 4.18653 60.9216C1.91036 60.4247 0.836313 56.4815 1.79807 52.1054C2.75984 47.7455 5.37266 44.6037 7.64883 45.1006C9.92499 45.5975 10.9989 49.5407 10.0372 53.9168Z" fill="#07CBF5"/>
<path d="M5.13217 40.372C5.13217 40.372 -1.35968 33.4633 0.259286 22.5313C1.36531 15.1257 4.60318 12.6732 4.60318 12.6732C4.60318 12.6732 -0.590238 2.68695 14.3171 3.00754C29.2404 3.32813 41.4547 2.06181 48.1069 14.8853C52.018 22.4511 50.4632 38.8652 50.4632 38.8652L5.13217 40.372Z" fill="#E2209E"/>
<path d="M38.0885 52.0253L37.9763 70.2346C37.9763 70.2346 34.6583 75.4442 24.0148 76.2456C16.0803 76.8387 13.5957 72.7512 13.5957 72.7512L15.6154 56.8341L34.8666 52.7146L38.1045 52.0253H38.0885Z" fill="#FD8753"/>
<path d="M38.0724 50.9032C38.0244 51.4002 37.8321 51.9932 37.5275 52.6504C33.408 61.7231 19.0456 65.4258 14.4612 65.8105L15.5994 56.8181L38.0565 50.9032H38.0724Z" fill="black"/>
<path d="M11.7843 15.3181C11.7843 15.3181 2.10263 38.0798 5.78938 50.791C9.47613 63.4863 21.0653 61.3704 27.99 58.8538C34.9147 56.3212 38.0885 52.0413 38.0885 52.0413C38.0885 52.0413 44.5964 54.1732 48.8763 48.0981C53.1561 42.023 50.415 35.1304 46.6962 33.5755C42.9774 32.0207 38.6014 34.7457 38.6014 34.7457L41.9836 28.1255C41.9836 28.1255 27.1405 -5.2155 11.7843 15.3341V15.3181Z" fill="#FD8753"/>
<path d="M38.6015 34.7296C38.6015 34.7296 28.8878 36.8776 21.915 26.17C14.9422 15.4463 15.4712 10.9902 15.4712 10.9902L8.9472 22.3229C8.9472 22.3229 7.29622 14.5808 10.2937 9.5796C13.3072 4.56241 16.5451 5.5402 16.5451 5.5402L38.1367 10.4933L44.1316 27.6126L38.6015 34.7457V34.7296Z" fill="#E2209E"/>
<path d="M13.0988 44.1869C12.7622 44.1869 12.4415 43.9786 12.3293 43.6419C10.7424 38.785 14.0926 33.7679 14.2368 33.5595C14.4933 33.1908 14.9902 33.0946 15.3429 33.3511C15.7115 33.5915 15.8077 34.1045 15.5513 34.4571C15.5192 34.5052 12.4896 39.0415 13.8361 43.145C13.9804 43.5618 13.7399 44.0106 13.3231 44.1549C13.243 44.1869 13.1629 44.1869 13.0667 44.1869H13.0988Z" fill="black"/>
<path d="M39.7236 45.4212C39.5312 45.4212 39.3388 45.3571 39.1785 45.2128C38.8579 44.9083 38.8259 44.4114 39.1305 44.0747L45.1895 37.4546C45.4941 37.134 45.991 37.102 46.3277 37.4065C46.6482 37.7111 46.6804 38.208 46.3758 38.5446L40.3167 45.1647C40.1564 45.3411 39.948 45.4212 39.7236 45.4212Z" fill="black"/>
<path d="M46.2153 43.5618C46.2153 43.5618 46.1512 43.5618 46.1031 43.5618L41.8393 42.9847C41.4065 42.9206 41.086 42.5199 41.1501 42.0871C41.2142 41.6543 41.6149 41.3337 42.0477 41.3978L46.3115 41.9749C46.7443 42.039 47.0649 42.4397 47.0007 42.8725C46.9527 43.2733 46.6 43.5618 46.2153 43.5618Z" fill="black"/>
<path d="M8.37016 25.7051C8.00148 25.7051 7.66488 25.4326 7.58473 25.0639C7.50459 24.6311 7.77703 24.2144 8.22585 24.1182L11.3676 23.5091C11.7844 23.4289 12.2172 23.7014 12.3134 24.1503C12.3936 24.583 12.121 24.9998 11.6722 25.096L8.53041 25.7051C8.53041 25.7051 8.43427 25.7051 8.37016 25.7051Z" fill="black"/>
<path d="M23.3256 26.6188C23.2294 26.6188 23.1332 26.6027 23.053 26.5707L18.2282 24.7754C17.8114 24.6151 17.603 24.1663 17.7633 23.7495C17.9236 23.3328 18.3885 23.1244 18.7892 23.2847L23.6141 25.08C24.0309 25.2402 24.2392 25.6891 24.0789 26.1058C23.9507 26.4264 23.6462 26.6348 23.3256 26.6348V26.6188Z" fill="black"/>
<path d="M8.5625 35.0181C8.5625 35.0181 8.41821 35.0181 8.33806 34.9861C7.90527 34.8579 7.66489 34.4251 7.79312 33.9923L8.85101 30.2895L7.84116 29.1033C7.55263 28.7667 7.60071 28.2538 7.93733 27.9813C8.27395 27.6927 8.78692 27.7408 9.07545 28.0774L10.3578 29.5842C10.5341 29.7926 10.5982 30.0651 10.518 30.3215L9.33188 34.4411C9.2357 34.7937 8.91514 35.0181 8.5625 35.0181Z" fill="black"/>
<path d="M20.0235 35.8997C20.0235 35.8997 19.8792 35.8998 19.799 35.8677C19.3662 35.7395 19.1258 35.3067 19.254 34.8739L20.312 31.1871L18.8372 29.5201C18.5487 29.1835 18.5648 28.6865 18.9014 28.382C19.238 28.0935 19.7349 28.1095 20.0394 28.4461L21.8188 30.4337C21.9951 30.6421 22.0752 30.9307 21.995 31.1871L20.8249 35.3067C20.7288 35.6593 20.4081 35.8837 20.0555 35.8837L20.0235 35.8997Z" fill="black"/>
<path d="M16.3848 50.1018C15.8558 50.1018 15.3269 49.9896 14.8139 49.7331C14.4132 49.5247 14.2689 49.0438 14.4773 48.6591C14.6857 48.2744 15.1665 48.1141 15.5512 48.3225C17.3465 49.2682 20.6165 46.431 21.6104 45.3731C21.9149 45.0525 22.4278 45.0365 22.7484 45.341C23.069 45.6456 23.085 46.1585 22.7805 46.4791C22.3797 46.9119 19.254 50.1338 16.3687 50.1338L16.3848 50.1018Z" fill="black"/>
<path d="M46.9688 54.9266C47.2413 59.3828 45.5903 63.1176 43.25 63.2619C40.9257 63.4061 38.8098 59.9117 38.5373 55.4396C38.2648 50.9834 39.9159 47.2486 42.2562 47.1043C44.5804 46.96 46.6963 50.4544 46.9688 54.9266Z" fill="#07CBF5"/>
</svg>
