<svg width="591" height="680" viewBox="0 0 591 680" fill="none" xmlns="http://www.w3.org/2000/svg">
<path d="M591 674.575C591 674.575 583.489 561.561 576.96 536.139C569.434 506.834 584.401 316.146 577.399 286.71C569.238 252.406 576.648 171.974 567.307 138.117C561.75 117.975 568.624 5.52985 568.624 5.52985C568.624 5.52985 369.43 1.00946 349.686 1.00946C332.429 1.00946 355.736 -1.26294 331.258 1.00946C307.889 3.17907 324.609 5.52984 300.107 5.52984C276.804 5.52984 244.224 14.4197 208.846 5.52984C190.857 1.00946 178.121 10.7398 158.39 10.9548C136.434 11.1939 124.185 5.13812 102.229 5.52984C83.6964 5.86047 94.5807 10.9548 75.9042 10.9548C55.6857 10.9548 -9.88573 10.9548 10.53 10.9548L8.04297e-06 5.52984C3.43238 71.7925 7.45881 86.7944 13.1626 149.178C16.3955 211.589 10.9851 256.558 14.0401 315.535C16.5314 363.629 11.1851 444.898 14.0401 502.687C16.8951 560.476 9.77148 629.666 12.2851 678.191L46.069 680L90.8218 668.246L146.105 674.575L193.929 668.246L247.457 674.575C247.457 674.575 284.751 683.616 309.759 674.575C334.399 665.667 341.788 666.438 373.817 674.575C400.686 681.4 529.136 669.15 554.584 674.575C571.456 678.171 591 674.575 591 674.575Z" fill="#161616"/>
</svg>
