<svg width="165" height="50" viewBox="0 0 217 72" fill="none" xmlns="http://www.w3.org/2000/svg">
<path d="M216.5 57.7753L215.932 70.3032C215.732 70.2741 215.482 70.2394 215.191 70.202C214.385 70.0986 213.262 69.9746 211.988 69.8919C209.456 69.7275 206.27 69.7217 203.811 70.4001C201.523 71.0317 198.478 71.0376 195.965 70.8744C194.717 70.7934 193.615 70.6718 192.825 70.5704C192.431 70.5198 192.115 70.4742 191.898 70.4415C191.789 70.4251 191.706 70.4119 191.649 70.4029L191.586 70.3926L191.57 70.39L191.567 70.3893L191.566 70.3892L191.464 70.3718L191.363 70.3965C188.764 71.0341 186.471 71.0367 184.058 70.8745C183.351 70.827 182.629 70.7647 181.885 70.7005C180.103 70.5469 178.193 70.3821 176.053 70.3821H176.029L176.005 70.3844L176.053 70.8821L176.005 70.3844L176.005 70.3845L176.003 70.3846L175.996 70.3853L175.967 70.388L175.852 70.3986C175.751 70.4078 175.601 70.4211 175.407 70.4377C175.018 70.4708 174.452 70.5166 173.745 70.5676C172.331 70.6697 170.353 70.7921 168.098 70.8737C163.579 71.0372 157.979 71.0355 153.575 70.3875C148.502 69.6409 144.523 69.8629 140.563 70.2678C139.745 70.3515 138.929 70.4427 138.105 70.5348C134.941 70.8887 131.661 71.2555 127.688 71.2555C123.762 71.2555 118.729 71.0378 114.671 70.8195C112.644 70.7105 110.862 70.6014 109.588 70.5196C108.95 70.4787 108.44 70.4446 108.089 70.4208C107.913 70.4089 107.777 70.3995 107.686 70.3931L107.582 70.3859L107.555 70.384L107.549 70.3835L107.547 70.3834L107.547 70.3834C107.546 70.3834 107.546 70.3834 107.511 70.8821L107.546 70.3834L107.529 70.3821H107.511H80.8278L80.805 70.3802L80.6754 70.3692C80.5615 70.3596 80.3932 70.3455 80.1757 70.3275C79.7406 70.2917 79.1085 70.2404 78.3195 70.179C76.7417 70.056 74.5366 69.8921 72.0268 69.7282C67.0104 69.4006 60.7659 69.0721 55.882 69.0721C50.4494 69.0721 43.5015 69.4004 37.9182 69.728C35.1252 69.8919 32.6711 70.0557 30.9152 70.1787C30.0372 70.2401 29.3337 70.2913 28.8496 70.3272C28.6075 70.3451 28.4203 70.3592 28.2935 70.3689L28.1494 70.3798L28.1127 70.3827L28.1034 70.3834L28.101 70.3836L28.1004 70.3836C28.1003 70.3836 28.1002 70.3836 28.1387 70.8811L28.1002 70.3835L28.0904 70.3845L28.1388 70.8821C28.0904 70.3845 28.0903 70.3845 28.0902 70.3845L28.0897 70.3846L28.0873 70.3848L28.0777 70.3857L28.0394 70.3894L27.8886 70.4038C27.7561 70.4163 27.5607 70.4346 27.3097 70.4576C26.8077 70.5035 26.0833 70.5682 25.1945 70.6432C23.4167 70.7931 20.9819 70.9838 18.3532 71.1473C13.0736 71.4756 7.08153 71.6886 4.02566 71.2603C2.09953 70.9903 1.25324 70.7803 0.898444 70.651L0.903208 70.2401C0.907912 69.8243 0.914424 69.225 0.92166 68.4909C0.936132 67.0228 0.953499 65.0152 0.965078 62.8576C0.988207 58.5477 0.988372 53.6231 0.895274 51.2127C0.657012 45.0436 0.706397 43.2966 0.78306 40.5848C0.833457 38.8021 0.895643 36.6024 0.895643 32.4552C0.895643 29.139 0.786158 26.3791 0.682296 23.761C0.490006 18.9138 0.316988 14.5523 0.893692 8.04587C0.999644 6.8505 0.998893 5.07966 0.97307 3.62513C0.960092 2.89414 0.940631 2.23659 0.924417 1.7618C0.921383 1.67294 0.918462 1.59047 0.915717 1.5151L1.41303 1.51509L5.43985 1.51511C8.00546 1.51514 10.945 1.5915 14.0766 1.67284C18.8808 1.79764 24.137 1.93418 29.1881 1.82486C31.7913 1.76851 33.9772 1.67643 35.9412 1.5937C42.5799 1.31404 46.6827 1.14121 55.7915 2.81672C57.0411 3.04658 58.7086 3.04803 60.6234 2.93829C62.5461 2.82811 64.7603 2.6027 67.1155 2.36266L67.1277 2.36142C71.8487 1.88026 77.1492 1.34003 81.9751 1.51478C84.6091 1.61016 86.9018 1.74171 89.0226 1.8634C95.2575 2.22117 100.007 2.49369 107.575 1.51095C115.37 0.498826 119.791 0.790942 127.642 1.51301C137.43 2.4132 145.171 1.79977 152.289 1.2357C155.553 0.977074 158.685 0.728824 161.824 0.641591C169.086 0.439781 171.772 0.493463 175.105 0.560091C177.039 0.598749 179.19 0.641765 182.581 0.641768C185.852 0.641771 188.058 0.829743 190.041 1.03259C190.331 1.06218 190.616 1.09215 190.9 1.12195C192.561 1.29659 194.166 1.46522 196.218 1.51503C199.098 1.58494 201.216 1.42159 203.162 1.27147C203.664 1.23272 204.155 1.19485 204.645 1.16211C207.025 1.00295 209.419 0.959721 213.068 1.50962C214.268 1.6904 215.123 1.69271 215.691 1.64516C215.743 1.64073 215.794 1.63588 215.842 1.63069C215.834 1.71006 215.825 1.79537 215.816 1.886C215.761 2.44964 215.686 3.21916 215.612 4.0423C215.464 5.67708 215.313 7.55825 215.313 8.43839C215.313 12.7976 215.462 16.8456 215.61 19.8032C215.685 21.2823 215.759 22.4893 215.815 23.3269C215.843 23.7457 215.866 24.0722 215.882 24.2942C215.891 24.4053 215.897 24.4902 215.901 24.5474L215.906 24.6124L215.907 24.6192L216.5 57.7753ZM0.886726 70.8883L0.395645 70.8821C0.76508 70.8867 0.861541 70.8879 0.886722 70.8882C0.886723 70.8882 0.886724 70.8882 0.886726 70.8883ZM0.740735 70.5818C0.740779 70.5818 0.74174 70.5824 0.743462 70.5836C0.741554 70.5824 0.740692 70.5818 0.740735 70.5818Z" stroke="#FFE500"/>
</svg>
