<svg width="100%" height="100%" viewBox="0 0 328 60" fill="none" preserveAspectRatio="none" xmlns="http://www.w3.org/2000/svg">
<path d="M0.598025 0.845923C0.598025 0.845923 2.36346 1.71028 8.22245 0.845923C18.0894 -0.609717 31.4733 2.08817 44.1021 1.93748C61.2791 1.73251 66.5269 0.118164 84.4668 1.93748C91.6427 2.6652 109.21 0.551969 123.934 0.845923C139.693 1.16052 147.256 1.93752 162.505 0.845923C174.369 -0.00336665 181.116 0.243181 193.003 0.845923C214.531 1.93752 229.345 0.351574 244.58 0.118153C261.931 -0.14768 262.071 0.118133 275.974 0.11814C285.933 0.118145 289.417 0.749777 296.605 0.845982C307.469 0.991367 311.006 -0.0815358 322.17 0.846002C325.693 1.13878 327.103 0.845923 327.103 0.845923C327.103 0.845923 328 5.57895 328 7C328 14.2475 327.103 20.496 327.103 20.496L328 48.1517L327.103 59.0684C327.103 59.0684 315.442 57.9768 308.266 59.0684C301.09 60.1601 289.429 59.0684 289.429 59.0684C281.356 60.1601 275.215 59.0684 266.108 59.0684C266.108 59.0684 245.477 60.1601 232.022 59.0684C216.86 57.8382 208.241 59.7962 193.003 59.7962C181.093 59.7962 162.505 59.0684 162.505 59.0684H122.14C122.14 59.0684 99.1792 59.9768 84.4668 59.9768C68.0904 59.9768 42.5324 59.0684 42.5324 59.0684C42.5324 59.0684 15.3984 60.524 5.97997 59.7962C0.0517413 59.3381 0.598025 59.0684 0.598025 59.0684C0.598025 59.0684 0.877918 46.6887 0.598027 42.6933C0.000933121 34.1699 0.598023 35.7146 0.598023 27.046C0.598023 19.23 -0.74753 15.0376 0.598025 6.6681C0.910422 4.72496 0.598025 0.845923 0.598025 0.845923Z" fill="#FFE500"/>
</svg>
