<svg width="328px" height="56px" viewBox="0 0 328 56" fill="none" xmlns="http://www.w3.org/2000/svg">
<path d="M1.13677 1.28952L2.13582 1.28952L8.22244 1.28953C12.1303 1.28955 16.5837 1.34918 21.3204 1.4126C28.5661 1.50962 36.4747 1.61551 44.1077 1.5305C48.0262 1.48686 51.3222 1.41539 54.288 1.35107C64.3378 1.13313 70.5939 0.997465 84.4197 2.30609C88.0518 2.64988 94.2799 2.32325 101.383 1.95073L101.396 1.95005L101.432 1.94814C108.557 1.57452 116.596 1.15289 123.925 1.28944C127.928 1.36402 131.404 1.46664 134.614 1.56141C144.023 1.83917 151.148 2.04948 162.538 1.28842C174.374 0.497621 181.099 0.726737 192.979 1.28897C207.732 1.98714 219.357 1.51277 230.097 1.07455C235.042 0.872791 239.799 0.67869 244.587 0.610225C255.573 0.453129 259.649 0.495004 264.696 0.546854C267.62 0.576885 270.869 0.610262 275.974 0.610264C280.942 0.610266 284.293 0.757246 287.302 0.915563C287.742 0.93868 288.174 0.962057 288.603 0.985266C291.114 1.12105 293.519 1.25107 296.599 1.28954C300.925 1.34358 304.097 1.21771 307.037 1.10109C307.799 1.07085 308.545 1.04124 309.292 1.01554C312.916 0.890843 316.572 0.857035 322.131 1.2881C323.911 1.42612 325.164 1.4267 325.979 1.39157C326.17 1.38334 326.337 1.37315 326.481 1.36229C326.478 1.37824 326.475 1.39441 326.472 1.4108C326.387 1.8502 326.275 2.45033 326.162 3.09255C325.941 4.35467 325.706 5.84677 325.706 6.56319C325.706 9.96622 325.932 13.1248 326.157 15.4316C326.27 16.5855 326.382 17.5273 326.467 18.1815C326.509 18.5086 326.545 18.7638 326.569 18.9377C326.582 19.0246 326.592 19.0912 326.598 19.1363L326.604 19.176L327.499 44.9282L326.648 54.592C326.641 54.5914 326.634 54.5908 326.627 54.5903C326.292 54.5643 325.807 54.5283 325.202 54.4884C323.992 54.4085 322.305 54.3126 320.392 54.2487C316.575 54.1212 311.83 54.1196 308.196 54.6355C304.654 55.1385 299.981 55.1401 296.173 55.0129C294.274 54.9495 292.598 54.8543 291.396 54.7749C290.796 54.7353 290.314 54.6996 289.983 54.6738C289.818 54.661 289.69 54.6506 289.603 54.6434L289.505 54.6352L289.481 54.6331L289.475 54.6326L289.473 54.6325L289.473 54.6325L289.42 54.6278L289.367 54.6345C285.368 55.1391 281.845 55.1399 278.174 55.0129C277.088 54.9754 275.987 54.9265 274.857 54.8763C272.172 54.7572 269.32 54.6306 266.108 54.6306H266.095L266.083 54.6312L266.108 55.1306C266.083 54.6312 266.083 54.6312 266.083 54.6312L266.082 54.6312L266.079 54.6313L266.068 54.6319L266.024 54.634L265.849 54.6423C265.754 54.6467 265.63 54.6525 265.48 54.6592C265.387 54.6634 265.285 54.6679 265.173 54.6728C264.584 54.6986 263.726 54.7344 262.655 54.7742C260.513 54.8537 257.517 54.9491 254.101 55.0127C247.265 55.14 238.763 55.1396 232.06 54.632C224.449 54.0556 218.48 54.2264 212.514 54.5403C211.286 54.605 210.058 54.6756 208.816 54.7471C204.029 55.0226 199.039 55.3098 193.003 55.3098C187.055 55.3098 179.436 55.1402 173.302 54.9704C170.235 54.8855 167.54 54.8006 165.612 54.737C164.648 54.7051 163.876 54.6786 163.345 54.66C163.079 54.6508 162.874 54.6435 162.735 54.6385L162.577 54.6328L162.537 54.6314L162.527 54.631L162.524 54.6309L162.524 54.6309C162.523 54.6309 162.523 54.6309 162.505 55.1306L162.523 54.6309L162.514 54.6306H162.505H122.151L122.146 54.6303L122.096 54.6281L121.901 54.6196C121.729 54.6121 121.475 54.6012 121.146 54.5872C120.489 54.5593 119.535 54.5195 118.343 54.4717C115.96 54.3762 112.629 54.2488 108.838 54.1214C101.257 53.8666 91.8318 53.6116 84.4668 53.6116C76.2707 53.6116 65.7808 53.8666 57.3433 54.1213C53.1239 54.2487 49.4164 54.3761 46.7637 54.4717C45.4374 54.5194 44.3747 54.5593 43.6435 54.5871C43.278 54.6011 42.9953 54.612 42.8039 54.6195L42.5865 54.628L42.5312 54.6302L42.5172 54.6308L42.5137 54.6309L42.5128 54.6309C42.5126 54.6309 42.5125 54.6309 42.5318 55.1154L42.5125 54.6309L42.5074 54.6312L42.5146 54.7766C42.5073 54.6312 42.5072 54.6312 42.5071 54.6312L42.5062 54.6312L42.5025 54.6314L42.4879 54.6321L42.4296 54.635L42.2011 54.6462C42.0003 54.656 41.7045 54.6703 41.3246 54.6882C40.5648 54.7239 39.4687 54.7743 38.1239 54.8327C35.4342 54.9494 31.7501 55.0979 27.7721 55.2252C19.8047 55.4801 10.6942 55.6485 6.01593 55.3111C3.05178 55.0973 1.7328 54.9291 1.16044 54.8189C1.14111 54.8151 1.12283 54.8115 1.10555 54.808L1.10938 54.6378C1.1165 54.3141 1.12635 53.8478 1.13729 53.2765C1.15918 52.134 1.18545 50.5716 1.20296 48.8924C1.23788 45.544 1.2385 41.6999 1.09662 39.8097C0.799012 35.8445 0.800162 34.2374 0.873601 32.6185C0.889022 32.2785 0.90773 31.9367 0.927691 31.5719C1.00375 30.1819 1.09802 28.4591 1.09802 25.2429C1.09802 22.6749 0.931503 20.5082 0.774655 18.4673C0.70761 17.595 0.642333 16.7456 0.592582 15.8977C0.425953 13.0578 0.426185 10.1666 1.09077 6.30844C1.25667 5.34531 1.25389 3.94 1.21488 2.8092C1.19512 2.23671 1.16552 1.72201 1.14086 1.35045C1.13948 1.32969 1.13812 1.30938 1.13677 1.28952ZM0.598025 55.1306C0.949275 55.1391 1.05371 55.1416 1.08475 55.1423C1.08476 55.1423 1.08476 55.1423 1.08476 55.1423L0.598025 55.1306Z" stroke="#FFE500"/>
</svg>
