<svg width="100%" height="100%" viewBox="0 0 306 133" fill="none" xmlns="http://www.w3.org/2000/svg" preserveAspectRatio="none">
                <path fill-rule="evenodd" clip-rule="evenodd" d="M304.498 117.438C304.036 115.49 303.872 113.544 303.667 111.587C303.55 110.473 303.269 109.338 303.314 108.223C303.344 107.451 303.688 106.663 303.885 105.896C304.258 104.442 304.631 102.987 305.004 101.532C305.159 100.931 305.256 100.444 305.12 99.8483C304.801 98.4506 304.483 97.0532 304.164 95.6554C303.953 94.7311 303.567 93.7801 303.524 92.8502C303.481 91.8855 303.797 90.8925 303.931 89.9305C304.123 88.5506 304.315 87.1707 304.507 85.7909C304.794 83.725 304.35 81.6197 304.211 79.5528C303.952 75.6955 303.991 71.8026 304.723 67.956C305.005 66.4698 305.287 64.9829 305.569 63.4964C305.686 62.8852 305.838 62.3451 305.635 61.7433C305.175 60.3817 304.714 59.0197 304.254 57.658C303.916 56.6566 303.363 55.6243 303.225 54.6135C303.106 53.7323 303.34 52.8151 303.398 51.9343C303.492 50.522 303.586 49.1099 303.679 47.6979C303.816 45.645 304.094 43.5927 304.316 41.5411C304.735 37.6828 305.208 33.7932 304.792 29.9338C304.633 28.4574 304.473 26.9807 304.313 25.5039C304.245 24.8751 304.091 24.2495 304.244 23.6227C304.564 22.3033 304.884 20.9832 305.205 19.6638C305.465 18.5906 305.959 17.478 305.997 16.3982C306.026 15.6036 305.623 14.767 305.431 13.9779C305.084 12.548 304.735 11.118 304.388 9.68841C303.906 7.70802 304.36 5.69512 304.501 3.70757C304.564 2.80956 304.628 1.91121 304.691 1.01319C304.718 0.634085 303.765 0.58564 303.114 0.605798C297.728 0.772592 292.342 0.939385 286.956 1.10585C286.59 1.11756 286.215 1.11951 285.85 1.14032C285.844 1.14064 285.841 1.14097 285.835 1.14129C285.056 1.10455 284.253 1.10553 283.475 1.0857C280.085 0.99856 276.694 0.911749 273.303 0.824938C268.861 0.711141 264.426 0.570684 259.988 0.429576C257.211 0.341464 254.435 0.241648 251.655 0.164917C249.931 0.116797 248.192 0.273511 246.483 0.364549C243.106 0.544673 239.729 0.725122 236.352 0.904921C235.423 0.954667 234.422 0.967022 233.501 1.05221C233.265 1.03075 232.958 1.03432 232.763 1.02262C227.316 0.688382 221.831 0.223441 216.353 0.0160053C214.322 -0.0607263 212.114 0.157113 210.099 0.243599C206.815 0.384707 203.53 0.52549 200.246 0.666598C195.636 0.863954 190.976 0.835343 186.348 0.886714L182.028 0.934183C181.744 0.937435 181.458 0.939711 181.173 0.943612C180.405 0.848023 179.451 0.862004 178.668 0.823638C176.99 0.741054 175.313 0.658795 173.636 0.576536C170.668 0.430226 167.703 0.284566 164.737 0.138906C163.151 0.0608738 161.603 0.140857 160.014 0.191252C155.097 0.346992 150.149 0.590517 145.221 0.648716C139.652 0.714718 134.05 0.673101 128.489 0.813233C128.481 0.813233 128.477 0.813559 128.47 0.813559C128.251 0.809982 128.031 0.806081 127.813 0.802504C126.432 0.778444 125.051 0.754384 123.67 0.730324C120.361 0.673101 117.053 0.615877 113.745 0.558654C109 0.47607 104.275 0.730649 99.544 0.889315C98.0326 0.940036 96.5211 0.990757 95.0112 1.04115C94.5968 1.05513 94.1786 1.06456 93.7649 1.08309C93.7449 1.08407 93.7352 1.08407 93.7174 1.08505C93.0816 1.02847 92.2854 1.06131 91.6741 1.04538C90.0706 1.00441 88.4678 0.96312 86.8643 0.921828C82.1926 0.801529 77.5506 0.618803 72.8744 0.700412C67.9012 0.787223 62.9264 0.903296 57.9502 0.957918C52.4504 1.01839 46.932 1.00181 41.4366 1.11431C41.2635 1.07789 40.835 1.08179 40.6812 1.07237L36.6646 0.817135C33.3587 0.606773 30.0536 0.397062 26.7478 0.187026C25.171 0.0868845 23.7866 -0.00805459 22.2046 0.0716032C19.0436 0.230269 15.8825 0.388934 12.7215 0.548249C10.6248 0.653593 8.52813 0.758936 6.43143 0.864279C4.7707 0.947839 1.44777 1.52463 1.28735 2.41582C0.868453 4.74085 0.451044 7.06621 0.0328928 9.39156C-0.0785153 10.009 0.117563 10.6011 0.256452 11.2188C0.581763 12.677 0.907817 14.1356 1.23239 15.5938C1.38687 16.2838 1.65202 16.986 1.64979 17.6799C1.6446 18.917 1.51982 20.1558 1.4552 21.3926C1.35493 23.3167 1.24873 25.234 1.01477 27.1562C0.764472 29.2195 0.347806 31.2916 0.320325 33.3588C0.288388 35.7232 0.251995 38.0882 0.223772 40.4529C0.195548 42.8062 0.17698 45.1602 0.151728 47.5138C0.131675 49.5723 0.527544 51.6378 0.749618 53.6936C1.1648 57.539 1.18337 61.3892 1.60003 65.2346C1.82285 67.3083 2.3888 69.4285 2.18455 71.5045C1.94837 73.8958 1.52873 76.2976 1.476 78.6909C1.42549 80.9919 1.782 83.3072 1.935 85.6065C2.07092 87.6363 1.79611 89.6746 1.68099 91.7037C1.46189 95.5563 1.27026 99.4133 0.778584 103.261C0.583991 104.774 0.391627 106.287 0.197777 107.801C0.119791 108.41 -0.0436074 109.022 0.0633443 109.631C0.487437 112.054 1.03556 114.479 1.33711 116.906C1.6186 119.174 1.59409 121.458 1.71961 123.729C1.83028 125.731 1.20788 127.744 0.854341 129.738C0.693914 130.636 0.534229 131.535 0.373801 132.432C0.303986 132.825 1.33859 132.841 1.95208 132.84C7.35908 132.829 12.7653 132.818 18.1723 132.807C22.8069 132.798 27.4497 132.59 32.0731 132.46C33.4546 132.421 34.8368 132.382 36.2175 132.343C36.5198 132.335 36.8651 132.343 37.163 132.317C37.1734 132.316 37.1778 132.315 37.1867 132.314C39.7246 132.363 42.2654 132.391 44.8048 132.43C49.3658 132.5 53.9157 132.578 58.4798 132.578C68.8756 132.578 79.2588 132.543 89.6525 132.432C99.4111 132.327 109.138 132.185 118.899 132.165C123.258 132.156 127.605 132.175 131.964 132.208C135.075 132.231 138.186 132.255 141.298 132.278L141.676 132.281C141.715 132.283 141.762 132.286 141.832 132.29C142.865 132.343 143.912 132.362 144.948 132.398C148.404 132.518 151.86 132.638 155.316 132.758C156.929 132.814 158.547 132.901 160.167 132.886C165.745 132.831 171.321 132.736 176.899 132.663C186.549 132.538 196.196 132.419 205.844 132.256C210.215 132.183 214.522 132.164 218.896 132.186C222.054 132.202 225.212 132.219 228.37 132.235C228.586 132.236 228.804 132.237 229.022 132.239C229.033 132.24 229.039 132.241 229.054 132.242C229.984 132.329 231.017 132.322 231.964 132.361C235.371 132.501 238.777 132.64 242.183 132.78C243.882 132.849 245.675 133.001 247.383 132.94C250.133 132.842 252.88 132.669 255.62 132.534C258.421 132.395 261.265 132.31 264.05 132.118C263.95 132.117 263.863 132.11 263.846 132.09C263.854 132.1 263.976 132.107 264.118 132.113C264.573 132.083 264.402 132.108 264.179 132.116C264.357 132.123 264.545 132.127 264.574 132.128C265.782 132.192 266.989 132.256 268.196 132.32C271.565 132.498 274.934 132.676 278.302 132.854C279.853 132.936 281.337 133.05 282.895 132.976C285.973 132.829 289.051 132.682 292.131 132.535C294.247 132.434 296.364 132.333 298.48 132.232C299.579 132.18 300.751 131.992 301.729 131.704C302.651 131.451 303.49 131.104 303.626 130.681C304.359 128.381 305.094 126.081 305.828 123.782C306.028 123.158 305.7 122.514 305.552 121.891C305.201 120.407 304.849 118.922 304.498 117.438" fill="#17181A"></path>
              </svg>