<svg width="715" height="377" viewBox="0 0 715 377" fill="none" xmlns="http://www.w3.org/2000/svg">
<path d="M665.829 2.99075C662.713 2.95663 658.502 2.91055 653.394 2.85489L653.388 3.35486C649.674 3.31439 645.484 3.26883 640.896 3.21902L640.902 2.71905C636.995 2.67667 632.798 2.63122 628.359 2.58325L628.354 3.08322L615.91 2.94903L615.915 2.44906C611.887 2.40573 607.719 2.36096 603.44 2.31512L603.434 2.81509C599.362 2.77148 595.189 2.72687 590.937 2.68155L590.943 2.18158C586.843 2.13788 582.67 2.09347 578.445 2.04867L578.44 2.54864C574.324 2.50497 570.158 2.46091 565.962 2.41665L565.967 1.91669C561.831 1.87308 557.667 1.82925 553.491 1.78549L553.486 2.28546C549.329 2.24191 545.162 2.19839 541.003 2.15512L541.008 1.65512C536.832 1.61166 532.664 1.56848 528.522 1.52575L528.517 2.02572C524.322 1.98245 520.154 1.93963 516.032 1.89752L516.037 1.39755C511.823 1.35449 507.656 1.31216 503.559 1.27081L503.554 1.77078C499.32 1.72806 495.159 1.68634 491.095 1.64596L491.1 1.14596C486.817 1.10339 482.641 1.06225 478.599 1.02289L478.594 1.52285C474.259 1.48062 470.078 1.44043 466.083 1.40258L466.088 0.902615C461.714 0.861203 457.563 0.822659 453.679 0.787472L453.674 1.28744C449.102 1.24603 444.899 1.20929 441.134 1.17801L441.138 0.678036C436.177 0.636807 431.979 0.605099 428.702 0.584744L428.699 1.08474C425.952 1.06765 423.854 1.05859 422.5 1.05859C419.847 1.05859 418.03 1.03573 416.805 0.999081L416.82 0.499325C413.661 0.404782 414.496 0.218685 415.018 0.102322C415.669 -0.0426061 415.834 -0.0793493 407.188 0.30386L407.21 0.803372C405.627 0.873562 403.748 0.957821 401.522 1.05807C397.702 1.23022 394.825 1.40429 392.618 1.57605L392.579 1.07754C387.58 1.46646 385.983 1.84475 384.633 2.16479C382.975 2.55758 381.688 2.86254 374.934 2.99148L374.944 3.49139C372.659 3.535 369.753 3.55847 366 3.55847C363.903 3.55847 361.739 3.5892 359.512 3.6434L359.5 3.14355C355.37 3.24404 351.026 3.42501 346.491 3.6401L346.514 4.13955C344.06 4.25595 341.55 4.38229 338.988 4.51129C337.19 4.60177 335.366 4.6936 333.516 4.78424L333.492 4.28485C329.279 4.49127 324.939 4.69122 320.487 4.85461L320.506 5.35427C316.263 5.50997 311.917 5.63256 307.483 5.69598L307.475 5.19604C303.214 5.25695 298.871 5.26318 294.458 5.19158L294.45 5.69152C290.171 5.62213 285.825 5.47967 281.423 5.24313L281.45 4.74386C277.173 4.51403 272.844 4.19528 268.472 3.76824L268.423 4.26589C266.272 4.05578 264.11 3.81951 261.939 3.5548C259.478 3.25463 257.103 3.06872 254.791 2.97405L254.811 2.47448C249.8 2.26934 245.079 2.49044 240.404 2.90615L240.449 3.40417C236.88 3.72146 233.341 4.15206 229.709 4.59399C228.528 4.7377 227.337 4.88259 226.132 5.02517L226.073 4.52862C221.534 5.06576 216.815 5.56753 211.713 5.8424L211.74 6.3417C209.414 6.467 207.008 6.54534 204.503 6.55859C202.66 6.56832 200.877 6.55923 199.145 6.53405L199.153 6.03411C195.383 5.97936 191.855 5.84841 188.479 5.67037L188.453 6.1697C184.754 5.97463 181.238 5.72314 177.786 5.45345L177.825 4.95498C176.132 4.82278 174.455 4.68615 172.778 4.54958C170.917 4.39794 169.056 4.24639 167.177 4.10107L167.139 4.59957C163.691 4.33288 160.184 4.08733 156.497 3.90072L156.522 3.40139C153.145 3.23049 149.618 3.10891 145.847 3.0657L145.842 3.56567C144.116 3.54589 142.34 3.54253 140.504 3.55843C138.143 3.57888 135.902 3.63232 133.752 3.71108L133.734 3.21142C128.867 3.38976 124.473 3.69781 120.239 4.04705L120.28 4.54537C118.264 4.71166 116.277 4.88805 114.29 5.06435C111.812 5.28433 109.335 5.50417 106.806 5.70416L106.767 5.20571C102.541 5.53982 98.1436 5.82079 93.2673 5.96157L93.2817 6.46136C91.1235 6.52367 88.8717 6.55859 86.5 6.55859C84.4648 6.55859 82.3887 6.53613 80.2791 6.49712L80.2883 5.99722C76.2554 5.92269 72.0973 5.78774 67.8651 5.63393L67.8469 6.1336C66.1352 6.0714 64.4128 6.00619 62.6822 5.94064C60.2778 5.84957 57.8574 5.7579 55.4273 5.6729L55.4448 5.17321C51.3112 5.02862 47.1548 4.90346 43.0202 4.83404L43.0118 5.33398C38.836 5.26385 34.6843 5.25063 30.6022 5.33166L30.5923 4.83175C26.3649 4.91564 22.2105 5.10039 18.1796 5.42739L18.22 5.92574C16.1308 6.09524 14.0758 6.303 12.062 6.55471C11.2349 6.65813 10.0623 6.50643 8.81745 6.24996L8.91834 5.76025C6.98047 5.36101 4.70197 4.66714 2.93311 4.08257L2.77619 4.55733C1.92041 4.27453 1.18335 4.01717 0.660039 3.83044C0.633794 3.82107 0.608037 3.81188 0.58289 3.80288C0.805058 5.85555 1.02936 7.81823 1.25611 9.70092L0.759709 9.7607C1.35511 14.7046 1.96729 19.0986 2.60022 23.1222L3.09412 23.0445C3.85688 27.8931 4.64972 32.2028 5.48005 36.2891L4.99006 36.3886C5.90821 40.9073 6.87207 45.153 7.89106 49.5504L8.37812 49.4376C8.60511 50.4171 8.8349 51.4045 9.06763 52.4043C9.81507 55.6158 10.5925 58.956 11.4027 62.5776L10.9147 62.6867C11.806 66.6713 12.7373 70.9976 13.7131 75.8734L14.2034 75.7753C14.6243 77.8784 15.0535 80.0835 15.4913 82.4074L15.4951 82.4271L15.4972 82.4469C15.705 84.3936 15.9069 86.3095 16.1035 88.1979L15.6062 88.2497C16.0168 92.1926 16.4045 96.0153 16.775 99.7462L17.2725 99.6968C17.6622 103.621 18.0328 107.444 18.391 111.198L17.8933 111.245C18.265 115.141 18.6234 118.963 18.9758 122.748L19.4736 122.701C19.6929 125.056 19.9099 127.396 20.1263 129.731C20.2647 131.224 20.4029 132.715 20.5413 134.206L20.0435 134.252C20.3983 138.073 20.7548 141.894 21.121 145.756L21.6187 145.709C21.9773 149.491 22.345 153.312 22.7294 157.207L22.2318 157.256C22.6019 161.008 22.9874 164.829 23.3949 168.753L23.8922 168.701C24.0885 170.591 24.2899 172.505 24.4972 174.447C24.7164 176.501 24.8825 178.662 25.0038 180.916L24.5046 180.942C24.7222 184.983 24.796 189.327 24.7742 193.894L25.2742 193.896C25.2544 198.055 25.1555 202.396 25.0139 206.856L24.5142 206.84C24.3802 211.062 24.2079 215.393 24.0281 219.779L24.5277 219.799C24.4949 220.6 24.4619 221.401 24.4287 222.205C24.2849 225.696 24.1399 229.215 24.0091 232.737L23.5095 232.719C23.3488 237.046 23.2095 241.376 23.1201 245.662L23.62 245.673C23.5287 250.049 23.4894 254.377 23.5325 258.605L23.0325 258.61C23.0776 263.052 23.2135 267.385 23.4751 271.55L23.9741 271.519C24.1119 273.713 24.2847 275.86 24.4974 277.949C24.7015 279.954 24.924 281.985 25.1622 284.036L24.6656 284.093C25.1288 288.08 25.6519 292.144 26.2173 296.253L26.7126 296.185C27.2642 300.194 27.8561 304.245 28.4722 308.311L27.9778 308.386C28.5894 312.421 29.2245 316.469 29.8676 320.5L30.3613 320.422C30.9621 324.189 31.5697 327.941 32.1713 331.656L32.3119 332.525L31.8183 332.605C32.4812 336.7 33.1354 340.745 33.7632 344.71L34.2571 344.632C34.913 348.773 35.5403 352.827 36.1193 356.757L35.6246 356.829C36.2444 361.037 36.8086 365.101 37.2926 368.977L37.7888 368.915C38.0302 370.848 38.2517 372.735 38.4504 374.57L42.8255 374.684L42.8125 375.183L52.4375 375.434L52.4505 374.934L62.0755 375.184L62.0625 375.684L71.6875 375.934L71.7005 375.434L76.4747 375.558L82.8118 374.75L82.875 375.246L95.625 373.621L95.5618 373.125L108.312 371.5L108.375 371.996L121.125 370.371L121.062 369.875L127.437 369.063L127.482 369.057L127.528 369.059L132.778 369.351L132.75 369.85L143.25 370.434L143.278 369.934L153.778 370.518L153.75 371.017L164.25 371.6L164.278 371.101L174.778 371.684L174.75 372.183L185.25 372.767L185.278 372.268L190.498 372.558L197.28 372.122L197.313 372.621L210.938 371.746L210.905 371.247L224.53 370.372L224.563 370.871L238.188 369.996L238.155 369.497L244.968 369.06L244.998 369.058L245.029 369.059L250.112 369.351L250.083 369.85L260.25 370.434L260.279 369.934L270.445 370.518L270.417 371.017L280.583 371.6L280.612 371.101L290.779 371.684L290.75 372.183L300.917 372.767L300.945 372.268L306.029 372.559L306.044 372.56L306.058 372.562L306 373.058L306.058 372.562L306.059 372.562L306.06 372.562L306.064 372.563L306.083 372.565L306.158 372.573L306.232 372.582C306.292 372.589 306.366 372.597 306.454 372.607C306.716 372.636 307.103 372.679 307.606 372.732C308.613 372.838 310.082 372.987 311.932 373.156L311.887 373.654C314.928 373.932 318.995 374.265 323.725 374.558L323.756 374.059C327.37 374.282 331.37 374.481 335.596 374.614L335.58 375.114C339.393 375.233 343.389 375.298 347.449 375.277L347.447 374.777C351.37 374.756 355.352 374.656 359.286 374.446L359.313 374.945C363.341 374.731 367.32 374.402 371.135 373.929L371.073 373.433C373.072 373.185 375.024 372.897 376.914 372.566C379.035 372.194 381.045 371.852 382.963 371.54L383.043 372.034C387.485 371.312 391.435 370.751 395.149 370.344L395.095 369.847C399.357 369.38 403.312 369.115 407.344 369.043L407.353 369.542C411.241 369.472 415.199 369.582 419.574 369.861L419.606 369.362C423.311 369.599 427.311 369.957 431.816 370.431L431.764 370.928C435.439 371.315 439.452 371.778 443.918 372.316L443.978 371.82C445.917 372.053 447.942 372.301 450.061 372.562C451.707 372.765 453.745 372.938 456.136 373.083L456.105 373.582C459.56 373.793 463.736 373.945 468.506 374.05L468.517 373.55C472.296 373.633 476.448 373.686 480.912 373.713L480.909 374.213C484.825 374.237 488.981 374.242 493.332 374.23L493.33 373.73C497.298 373.72 501.429 373.695 505.69 373.66L505.694 374.16C509.729 374.127 513.88 374.084 518.121 374.033L518.115 373.533C522.166 373.485 526.298 373.429 530.488 373.368L530.496 373.868C534.584 373.808 538.726 373.744 542.901 373.676L542.893 373.176C547 373.109 551.139 373.039 555.288 372.968L555.296 373.468C559.425 373.396 563.565 373.324 567.693 373.251L567.684 372.751L569.549 372.718C573.071 372.656 576.583 372.594 580.072 372.533L580.08 373.033C584.258 372.96 588.403 372.889 592.492 372.821L592.483 372.321C596.679 372.252 600.816 372.186 604.871 372.126L604.878 372.625C609.115 372.562 613.261 372.505 617.289 372.456L617.283 371.956C621.55 371.903 625.685 371.86 629.655 371.828L629.659 372.328C634.017 372.293 638.175 372.272 642.09 372.268L642.089 371.768C646.564 371.764 650.723 371.782 654.499 371.827L654.493 372.327C659.279 372.384 663.451 372.486 666.875 372.641L666.897 372.142C669.338 372.253 671.406 372.391 673.051 372.561C674.752 372.737 676.477 372.882 678.209 372.999L678.175 373.498C681.658 373.735 685.166 373.862 688.556 373.914L688.564 373.414C692.216 373.47 695.733 373.438 698.934 373.36L698.946 373.86C703.052 373.761 706.638 373.586 709.33 373.425L709.3 372.926C710.912 372.829 712.202 372.738 713.088 372.671C713.432 372.645 713.715 372.622 713.932 372.604C713.892 372.318 713.836 371.917 713.765 371.412C713.608 370.304 713.377 368.695 713.081 366.691L713.576 366.618C713.079 363.254 712.401 358.78 711.585 353.696L711.092 353.775C710.449 349.774 709.721 345.396 708.929 340.886L709.422 340.8C708.678 336.565 707.878 332.213 707.039 327.946L706.548 328.043C705.678 323.617 704.766 319.286 703.832 315.274L704.319 315.161C703.204 310.372 702.058 306.036 700.914 302.537L700.438 302.692C699.632 300.227 698.834 298.201 698.058 296.734C697.338 295.374 696.801 293.458 696.403 291.109L696.896 291.025C696.373 287.941 696.08 284.024 695.961 279.482L695.461 279.496C695.369 275.981 695.381 272.098 695.469 267.941L695.969 267.952C696.047 264.291 696.185 260.416 696.365 256.392L695.866 256.369C696.033 252.629 696.237 248.761 696.462 244.818L696.962 244.847C697.178 241.057 697.416 237.198 697.66 233.315L697.161 233.284C697.312 230.885 697.466 228.478 697.62 226.073C697.712 224.633 697.804 223.193 697.896 221.756L698.394 221.788C698.641 217.906 698.883 214.047 699.107 210.257L698.608 210.228C698.841 206.288 699.055 202.425 699.235 198.69L699.734 198.714C699.928 194.691 700.083 190.817 700.181 187.156L699.681 187.143C699.792 182.998 699.83 179.13 699.769 175.634L700.269 175.626C700.19 171.083 699.945 167.162 699.476 164.071L698.982 164.146C698.629 161.818 698.154 160.01 697.551 158.779C696.584 156.806 695.81 154.572 695.185 152.138L695.67 152.013C694.625 147.939 693.995 143.262 693.592 138.246L693.094 138.286C692.737 133.837 692.558 129.126 692.426 124.338L692.926 124.325C692.878 122.579 692.836 120.823 692.795 119.064C692.726 116.166 692.657 113.261 692.559 110.389L692.06 110.406C691.897 105.622 691.656 100.937 691.206 96.5295L691.704 96.4787C691.194 91.4799 690.415 86.8302 689.179 82.7929L688.701 82.9392C687.986 80.6012 687.118 78.4825 686.065 76.6302C685.301 75.2851 684.526 73.2555 683.753 70.7483L684.231 70.601C683.218 67.3148 682.189 63.1426 681.18 58.4896L680.692 58.5955C679.859 54.7547 679.04 50.5885 678.255 46.3243L678.747 46.2339C677.997 42.1556 677.277 37.9858 676.606 33.9236L676.113 34.0051C675.399 29.6882 674.741 25.4928 674.158 21.6573L674.652 21.5822C673.914 16.7249 673.298 12.4444 672.845 9.22528L672.35 9.29486C672.08 7.37515 671.869 5.83264 671.725 4.7699C671.653 4.24182 671.598 3.83224 671.561 3.55368L670.4 3.54092L665.823 3.49072L665.829 2.99075Z" stroke="#FFE500" stroke-dasharray="12 12"/>
</svg>
