<svg width="360" height="412" viewBox="0 0 360 412" fill="none" xmlns="http://www.w3.org/2000/svg">
<path d="M-66 7.2711C-66 7.2711 -52.5525 10.2252 -32.1995 13.4488C-8.19503 17.2507 -11.0708 2.85058 4.32689 1.34718C19.7246 -0.156214 29.6499 11.0174 44.306 11.017C50.6663 11.0168 56.7058 5.6444 71.3828 5.64487C87.5561 5.6454 90.2501 13.448 107.727 13.449C123.901 13.4499 143.312 0.555678 153.885 0.555678C175.51 0.555678 189.948 11.2256 203.677 13.449C214.399 15.1853 225.897 0.556352 243.656 0.555678C257.467 0.555153 271.271 10.5474 293.812 13.4487C304.897 14.8756 319.226 -1.55473 341.605 0.555678C363.985 2.66608 373.277 11.2034 393.941 13.4487C414.895 15.7255 421.554 8.2691 445.369 8.59544C462.338 8.82796 472.842 17.7622 492.072 18.5143C508.645 19.1625 526.028 -0.0377686 548.043 5.58127e-05C569.846 0.037517 586.819 17.6949 600.561 18.5143C616.849 19.4856 630 11.5688 630 11.5688V978H-66V7.2711Z" fill="#411580"/>
</svg>
