<svg width="1920" height="477" viewBox="0 0 1920 477" fill="none" xmlns="http://www.w3.org/2000/svg">
<path d="M0 13.5481C0 13.5481 37.0966 19.0523 93.2428 25.0588C159.462 32.1429 151.529 5.31143 194.005 2.51018C236.482 -0.29107 263.862 20.5284 304.292 20.5277C321.838 20.5274 338.499 10.5171 378.987 10.518C423.603 10.519 431.035 25.0574 479.248 25.0592C523.864 25.0609 577.413 1.03538 606.58 1.03538C666.235 1.03538 706.064 20.9165 743.937 25.0592C773.514 28.2945 805.232 1.03664 854.225 1.03538C892.324 1.03441 930.403 19.6527 992.585 25.0588C1023.16 27.7174 1062.69 -2.89689 1124.43 1.03538C1186.16 4.96766 1211.8 20.8751 1268.8 25.0588C1326.61 29.301 1344.98 15.4077 1410.67 16.0157C1457.49 16.449 1486.46 33.096 1539.51 34.4974C1585.23 35.7051 1633.18 -0.0703735 1693.91 0.000103995C1754.06 0.0699048 1800.88 32.9705 1838.79 34.4974C1883.72 36.3071 1920 21.5559 1920 21.5559V477H0V13.5481Z" fill="#411580"/>
</svg>
