<svg width="337" height="364" viewBox="0 0 337 364" fill="none" xmlns="http://www.w3.org/2000/svg">
<path d="M2.00186 7.48615C2.00186 7.48615 28.5208 0 36.534 0C62.7235 0 61.392 2.10202 87.5815 2.10202C108.358 2.10202 126.376 5.6959 142.633 7.48615C154.056 8.74412 163.088 -0.245602 178.166 3.40141C204.289 9.72043 219.954 2.10202 246.729 2.10202C267.251 2.10202 285.763 13.4087 306.285 13.4087C320.748 13.4087 336.313 7.48615 336.313 7.48615V357.454C336.313 357.454 342.819 366.398 315.794 363.377C277.258 359.07 269.751 357.454 246.729 361.762C216.306 367.454 207.693 353.147 178.166 357.454C139.981 363.025 130.188 357.454 87.5815 357.454C67.4507 357.454 64.3633 366.419 38.5358 362.838C30.2481 361.69 0 357.454 0 357.454L2.00186 7.48615Z" fill="#191919"/>
</svg>
