<svg width="1513" height="225" viewBox="0 0 1513 225" fill="none" preserveAspectRatio="none" xmlns="http://www.w3.org/2000/svg">
  <rect x="163" width="1177" height="223" fill="#191919"/>
  <path d="M1511.29 222.63C1511.29 222.63 1506 222.017 1502 222.63C1490.3 224.423 1451.5 226.92 1420 222.63C1390.5 222.63 1337.5 223 1337.5 223L1338 1.00049C1338 1.00049 1354.19 0.768204 1369.6 1.38109C1385 1.99397 1417.84 0.940811 1425 1.99397C1437.5 3.83261 1499 2.38397 1502 1.38109C1505.38 0.252258 1511.29 1.99397 1511.29 1.99397C1511.29 1.99397 1509.93 14.5806 1511.29 21.9845C1512.65 29.3884 1511.07 33.9116 1510.75 42.7154C1510.44 51.3482 1514.28 56.7827 1512.38 67.1482C1510.39 78.0101 1511.46 87.5763 1510.21 98.9849C1509.39 106.389 1513.74 115.273 1512.38 124.158C1510.42 136.969 1512.67 147.425 1510.21 158.956C1508.3 167.841 1515.01 181.668 1512.38 191.534C1510.21 199.678 1511.29 222.63 1511.29 222.63Z" fill="#191919"/>
  <path d="M1.70751 222.62C1.70751 222.62 7.00003 222.004 11 222.62C22.7038 224.421 61.5 226.928 93 222.62C122.5 222.62 166 223 166 223L175 0.0438538C175 0.0438538 158.807 -0.189407 143.404 0.426086C128 1.04158 95.16 -0.0160828 88 1.04158C75.5 2.88806 14 1.43326 11 0.426086C7.62333 -0.707565 1.70751 1.04158 1.70751 1.04158C1.70751 1.04158 3.0656 13.6819 1.70751 21.1175C0.349414 28.553 1.93412 33.0955 2.25076 41.9369C2.56126 50.6066 -1.28026 56.0643 0.621033 66.474C2.61338 77.3823 1.53832 86.9894 2.79398 98.4468C3.60887 105.882 -0.737023 114.805 0.621033 123.728C2.57927 136.593 0.326088 147.093 2.79398 158.674C4.69534 167.597 -2.01118 181.483 0.621033 191.391C2.79398 199.57 1.70751 222.62 1.70751 222.62Z" fill="#191919"/>
</svg>
