<svg width="100%" height="100%" viewBox="0 0 337 343" fill="none" preserveAspectRatio="none" xmlns="http://www.w3.org/2000/svg" >
  <path d="M2 11C2 11 28.4943 0.206665 36.5 0.206665C62.6651 0.206665 61.3349 5.99998 87.5 5.99998C108.257 5.99998 126.259 9.33745 142.5 11C153.912 12.1682 162.937 3.81984 178 7.20667C204.099 13.0749 219.749 5.99998 246.5 5.99998C267.003 5.99998 285.497 16.5 306 16.5C320.449 16.5 336 11 336 11V336C336 336 342.5 344.305 315.5 341.5C277 337.5 269.5 336 246.5 340C216.105 345.286 207.5 332 178 336C139.851 341.173 130.067 336 87.5 336C67.388 336 64.3035 344.325 38.5 341C30.22 339.933 0 336 0 336L2 11Z" fill="#191919"/>
</svg>
