<svg width="379" height="422" viewBox="0 0 379 422" fill="none" xmlns="http://www.w3.org/2000/svg">
<path d="M374.923 377.081C374.923 377.081 378.918 342.228 374.276 300.023C372.02 279.51 375.625 251.867 377.822 225.194C380.844 188.51 377.382 155.788 374.923 147.754C369.972 131.583 377.447 98.9492 377.822 70.1216C378.152 44.8164 374.276 5.49069 374.276 5.49069C374.276 5.49069 342.058 17.1396 330.079 17.1396C319.609 17.1396 275.811 9.10751 260.96 10.1787C246.782 11.2014 212.386 0.660643 197.52 0.660642C183.382 0.660642 163.615 11.8121 142.151 7.62152C131.236 5.49069 123.509 17.0383 111.538 17.1396C98.2167 17.2523 90.7848 7.43686 77.4641 7.62152C66.2198 7.7774 60.0459 10.1787 48.7146 10.1787C36.4476 10.1787 27.9424 7.62152 15.7329 8.36755C2.82892 9.156 1.18918 9.37341 1.18918 9.37341C3.2717 40.6088 -2.27142 40.7146 1.18918 70.1215C3.15064 99.5413 -0.664364 142.576 1.18918 170.377C2.70069 193.048 7.95838 203.174 9.69058 230.414C10.5642 244.153 2.82947 273.744 4.53031 303.069C6.20194 331.89 4.5303 410.639 5.28622 421.977L35.2522 395.638L62.4045 382.098L95.9456 377.081L124.961 374.098L157.438 377.081C157.438 377.081 180.065 381.343 195.238 377.081C210.187 372.882 214.671 373.246 234.103 377.081C250.405 380.299 337.388 374.524 352.828 377.081C363.065 378.777 374.923 377.081 374.923 377.081Z" fill="#161616"/>
</svg>
