<svg width="383" height="391" viewBox="0 0 383 391" fill="none" xmlns="http://www.w3.org/2000/svg">
<g clip-path="url(#clip0_801_636)">
<g filter="url(#filter0_d_801_636)">
<path d="M345.5 383.5C348.075 372.517 357 336 376.276 311.362C388.993 295.109 377.625 263.206 379.822 236.533C382.844 199.849 379.382 167.127 376.922 159.093C371.971 142.922 379.447 110.288 379.822 81.4606C380.152 56.1555 376.276 0.829773 376.276 0.829773C376.276 0.829773 344.058 12.4787 332.079 12.4787C321.609 12.4787 277.811 20.4466 262.96 21.5178C248.781 22.5405 214.386 11.9997 199.52 11.9997C185.382 11.9997 165.615 23.1512 144.15 18.9606C133.236 16.8298 125.509 28.3773 113.537 28.4787C100.216 28.5914 92.7846 26.7759 79.4639 26.9606C68.2196 27.1165 62.0457 29.5178 50.7144 29.5178C38.4474 29.5178 29.9422 34.9606 17.7327 35.7066C4.82871 36.4951 0.188969 38.7125 0.188969 38.7125C2.27149 69.9478 -0.271633 52.0537 3.18897 81.4606C5.15042 110.88 1.33542 153.915 3.18897 181.716C4.70047 204.387 9.95816 214.513 11.6904 241.753C12.564 255.492 4.82926 285.083 6.53009 314.408C8.20172 343.229 5.77417 379.639 6.53009 390.978L37.252 390.977L64.4043 385.437L97.9454 388.42L126.961 385.437L159.438 388.42C159.438 388.42 182.064 392.682 197.238 388.42C212.187 384.221 216.67 384.585 236.103 388.42C252.405 391.638 289.06 385.863 304.5 388.42C314.737 390.116 344.767 386.626 345.5 383.5Z" fill="#161616"/>
</g>
<line x1="41.7071" y1="-179.707" x2="695.707" y2="474.293" stroke="black" stroke-width="2"/>
</g>
<defs>
<filter id="filter0_d_801_636" x="-3.81104" y="0.830078" width="390.219" height="398.147" filterUnits="userSpaceOnUse" color-interpolation-filters="sRGB">
<feFlood flood-opacity="0" result="BackgroundImageFix"/>
<feColorMatrix in="SourceAlpha" type="matrix" values="0 0 0 0 0 0 0 0 0 0 0 0 0 0 0 0 0 0 127 0" result="hardAlpha"/>
<feOffset dy="4"/>
<feGaussianBlur stdDeviation="2"/>
<feComposite in2="hardAlpha" operator="out"/>
<feColorMatrix type="matrix" values="0 0 0 0 0 0 0 0 0 0 0 0 0 0 0 0 0 0 0.25 0"/>
<feBlend mode="normal" in2="BackgroundImageFix" result="effect1_dropShadow_801_636"/>
<feBlend mode="normal" in="SourceGraphic" in2="effect1_dropShadow_801_636" result="shape"/>
</filter>
<clipPath id="clip0_801_636">
<rect width="382.219" height="390.148" fill="white" transform="translate(0.188965 0.830078)"/>
</clipPath>
</defs>
</svg>
