<svg width="378" height="379" viewBox="0 0 378 379" fill="none" xmlns="http://www.w3.org/2000/svg">
<path d="M373.9 376.442C373.9 376.442 377.895 341.588 373.254 299.384C370.998 278.87 374.603 251.227 376.8 224.554C379.821 187.87 376.36 155.149 373.9 147.114C368.949 130.944 376.424 98.3098 376.8 69.4821C377.129 44.1769 373.254 4.8512 373.254 4.8512C373.254 4.8512 341.036 16.5001 329.057 16.5001C318.587 16.5001 274.789 8.46802 259.938 9.53921C245.759 10.5619 211.363 0.0211467 196.498 0.0211465C182.359 0.0211463 162.592 11.1726 141.128 6.98205C130.214 4.85122 122.486 16.3988 110.515 16.5001C97.1942 16.6129 89.7623 6.79739 76.4416 6.98205C65.1973 7.13794 59.0235 9.53921 47.6921 9.53921C35.4251 9.53921 26.9199 6.98205 14.7105 7.72808C1.80646 8.51654 0.166722 8.73394 0.166722 8.73394C2.24924 39.9693 12.7061 64.0751 16.1667 93.4821C18.1282 122.902 -1.68683 141.936 0.16672 169.737C1.67822 192.408 6.93588 202.534 8.66809 229.775C9.54169 243.513 8.80701 257.104 10.5078 286.429C12.1795 315.251 2.75192 367.661 3.50784 378.999L34.2297 378.999L61.382 373.459L94.9232 376.442L123.939 373.459L156.415 376.442C156.415 376.442 179.042 380.704 194.216 376.442C209.165 372.243 213.648 372.606 233.081 376.442C249.382 379.659 336.366 373.885 351.806 376.442C362.043 378.137 373.9 376.442 373.9 376.442Z" fill="#161616"/>
</svg>
