<svg width="106" height="170" viewBox="0 0 106 170" fill="none" xmlns="http://www.w3.org/2000/svg">
<path d="M5.80576 169.812C5.80576 169.812 22.5916 167.74 26.3675 165.939C30.7202 163.863 59.0429 171.62 63.4151 169.688C68.5103 167.437 80.4568 169.481 85.4854 166.904C88.4772 165.371 105.179 163.394 105.179 163.394C105.179 163.394 105.85 108.445 105.85 102.999C105.85 98.2385 106.188 104.668 105.85 97.9156C105.528 91.469 105.179 96.0814 105.179 89.3223C105.179 82.8941 103.858 73.9065 105.179 64.1475C105.85 59.1851 104.405 55.6716 104.373 50.2287C104.337 44.172 105.237 40.7929 105.179 34.7364C105.129 29.624 104.373 26.8169 104.373 21.6649C104.373 16.0875 105.148 9.21934 104.373 3.63099C103.567 -2.17858 105.179 0.726202 105.179 0.726202C95.3366 1.67305 93.1084 2.78376 83.8426 4.35718C74.5727 5.249 67.8935 5.69303 59.1336 6.53578C51.9903 7.22301 39.9195 1.87784 31.3361 2.66542C22.7528 3.45299 12.476 5.36095 5.26862 6.05434L5.00001 15.3739L6.74575 27.7192L5.80577 42.9694L6.74575 56.162L5.80576 70.928C5.80576 70.928 4.46285 81.2158 5.80576 88.1147C7.12886 94.9117 7.01431 96.9501 5.80576 105.785C4.79192 113.197 6.61148 152.746 5.80576 159.766C5.27153 164.421 5.80576 169.812 5.80576 169.812Z" fill="#01A781"/>
<line x1="0.848586" y1="2.47094" x2="101.849" y2="164.471" stroke="black" stroke-width="2"/>
</svg>
