<svg width="103" height="170" viewBox="0 0 103 170" fill="none" xmlns="http://www.w3.org/2000/svg">
<path d="M1.80576 169.812C1.80576 169.812 18.5916 167.74 22.3675 165.939C26.7202 163.863 55.0429 171.62 59.4151 169.688C64.5103 167.437 76.4568 169.481 81.4854 166.904C84.4771 165.371 101.179 163.394 101.179 163.394C101.179 163.394 101.85 108.445 101.85 102.999C101.85 98.2385 102.188 104.668 101.85 97.9156C101.528 91.469 101.179 96.0814 101.179 89.3223C101.179 82.8941 99.8582 73.9065 101.179 64.1474C101.85 59.1851 100.405 55.6716 100.373 50.2287C100.337 44.172 101.237 40.7929 101.179 34.7364C101.129 29.624 100.373 26.8169 100.373 21.6649C100.373 16.0875 101.148 9.21933 100.373 3.63099C99.5671 -2.17859 101.179 0.7262 101.179 0.7262C91.3366 1.67305 89.1084 2.78375 79.8426 4.35718C70.5727 5.249 63.8935 5.69303 55.1337 6.53578C47.9903 7.22301 35.9195 1.87784 27.3361 2.66542C18.7528 3.453 8.47603 5.36095 1.26862 6.05434L1.00001 15.3739L2.74575 27.7192L1.80577 42.9694L2.74575 56.162L1.80576 70.928C1.80576 70.928 0.462846 81.2158 1.80576 88.1147C3.12886 94.9117 3.01431 96.9501 1.80576 105.785C0.791917 113.197 2.61148 152.746 1.80576 159.766C1.27153 164.421 1.80576 169.812 1.80576 169.812Z" fill="#848484"/>
<line x1="0.848586" y1="5.47094" x2="101.849" y2="167.471" stroke="black" stroke-width="2"/>
</svg>
