<svg width="103" height="170" viewBox="0 0 103 170" fill="none" xmlns="http://www.w3.org/2000/svg">
<path d="M0.805759 169.812C0.805759 169.812 17.5916 167.74 21.3675 165.939C25.7202 163.863 54.0429 171.62 58.4151 169.688C63.5103 167.437 75.4568 169.481 80.4854 166.904C83.4772 165.371 100.179 163.394 100.179 163.394C100.179 163.394 100.85 108.445 100.85 102.999C100.85 98.2385 101.188 104.668 100.85 97.9156C100.528 91.469 100.179 96.0814 100.179 89.3223C100.179 82.8941 98.8582 73.9065 100.179 64.1475C100.85 59.1851 99.4048 55.6716 99.3728 50.2287C99.3373 44.172 100.237 40.7929 100.179 34.7364C100.129 29.624 99.3728 26.8169 99.3728 21.6649C99.3728 16.0875 100.148 9.21934 99.3728 3.63099C98.5671 -2.17858 100.179 0.726202 100.179 0.726202C90.3366 1.67305 88.1084 2.78376 78.8426 4.35718C69.5727 5.249 62.8935 5.69303 54.1336 6.53578C46.9903 7.22301 34.9195 1.87784 26.3361 2.66542C17.7528 3.45299 7.47603 5.36095 0.268617 6.05434L8.60282e-06 15.3739L1.74575 27.7192L0.805766 42.9694L1.74575 56.162L0.805764 70.928C0.805764 70.928 -0.537154 81.2158 0.805763 88.1147C2.12886 94.9117 2.01431 96.9501 0.805762 105.785C-0.208083 113.197 1.61148 152.746 0.805759 159.766C0.271531 164.421 0.805759 169.812 0.805759 169.812Z" fill="#464646"/>
<line x1="0.848586" y1="3.47094" x2="101.849" y2="165.471" stroke="black" stroke-width="2"/>
</svg>
