<svg width="133" height="162" viewBox="0 0 133 162" fill="none" xmlns="http://www.w3.org/2000/svg">
<path d="M16.575 155H13.95L4.4 140.175H4.3C4.31667 140.475 4.33333 140.808 4.35 141.175C4.38333 141.542 4.40833 141.942 4.425 142.375C4.44167 142.792 4.45833 143.225 4.475 143.675C4.49167 144.125 4.5 144.575 4.5 145.025V155H2.425V137.15H5.025L14.55 151.925H14.65C14.6333 151.725 14.6167 151.45 14.6 151.1C14.5833 150.733 14.5667 150.333 14.55 149.9C14.5333 149.45 14.5167 148.992 14.5 148.525C14.4833 148.058 14.475 147.625 14.475 147.225V137.15H16.575V155ZM34.2691 148.275C34.2691 149.392 34.1191 150.383 33.8191 151.25C33.5358 152.1 33.1191 152.825 32.5691 153.425C32.0358 154.025 31.3775 154.483 30.5941 154.8C29.8275 155.1 28.9691 155.25 28.0191 155.25C27.1358 155.25 26.3191 155.1 25.5691 154.8C24.8191 154.483 24.1691 154.025 23.6191 153.425C23.0691 152.825 22.6358 152.1 22.3191 151.25C22.0191 150.383 21.8691 149.392 21.8691 148.275C21.8691 146.792 22.1191 145.542 22.6191 144.525C23.1191 143.492 23.8358 142.708 24.7691 142.175C25.7025 141.625 26.8108 141.35 28.0941 141.35C29.3108 141.35 30.3775 141.625 31.2941 142.175C32.2275 142.708 32.9525 143.492 33.4691 144.525C34.0025 145.542 34.2691 146.792 34.2691 148.275ZM24.1441 148.275C24.1441 149.325 24.2775 150.242 24.5441 151.025C24.8275 151.792 25.2608 152.383 25.8441 152.8C26.4275 153.217 27.1691 153.425 28.0691 153.425C28.9691 153.425 29.7108 153.217 30.2941 152.8C30.8775 152.383 31.3025 151.792 31.5691 151.025C31.8525 150.242 31.9941 149.325 31.9941 148.275C31.9941 147.208 31.8525 146.3 31.5691 145.55C31.2858 144.8 30.8525 144.225 30.2691 143.825C29.7025 143.408 28.9608 143.2 28.0441 143.2C26.6775 143.2 25.6858 143.65 25.0691 144.55C24.4525 145.45 24.1441 146.692 24.1441 148.275ZM43.7309 153.45C44.0642 153.45 44.4059 153.425 44.7559 153.375C45.1059 153.308 45.3892 153.242 45.6059 153.175V154.85C45.3725 154.967 45.0392 155.058 44.6059 155.125C44.1725 155.208 43.7559 155.25 43.3559 155.25C42.6559 155.25 42.0059 155.133 41.4059 154.9C40.8225 154.65 40.3475 154.225 39.9809 153.625C39.6142 153.025 39.4309 152.183 39.4309 151.1V143.3H37.5309V142.25L39.4559 141.375L40.3309 138.525H41.6309V141.6H45.5059V143.3H41.6309V151.05C41.6309 151.867 41.8225 152.475 42.2059 152.875C42.6059 153.258 43.1142 153.45 43.7309 153.45ZM61.4391 148.275C61.4391 149.392 61.2891 150.383 60.9891 151.25C60.7057 152.1 60.2891 152.825 59.7391 153.425C59.2057 154.025 58.5474 154.483 57.7641 154.8C56.9974 155.1 56.1391 155.25 55.1891 155.25C54.3057 155.25 53.4891 155.1 52.7391 154.8C51.9891 154.483 51.3391 154.025 50.7891 153.425C50.2391 152.825 49.8057 152.1 49.4891 151.25C49.1891 150.383 49.0391 149.392 49.0391 148.275C49.0391 146.792 49.2891 145.542 49.7891 144.525C50.2891 143.492 51.0057 142.708 51.9391 142.175C52.8724 141.625 53.9807 141.35 55.2641 141.35C56.4807 141.35 57.5474 141.625 58.4641 142.175C59.3974 142.708 60.1224 143.492 60.6391 144.525C61.1724 145.542 61.4391 146.792 61.4391 148.275ZM51.3141 148.275C51.3141 149.325 51.4474 150.242 51.7141 151.025C51.9974 151.792 52.4307 152.383 53.0141 152.8C53.5974 153.217 54.3391 153.425 55.2391 153.425C56.1391 153.425 56.8807 153.217 57.4641 152.8C58.0474 152.383 58.4724 151.792 58.7391 151.025C59.0224 150.242 59.1641 149.325 59.1641 148.275C59.1641 147.208 59.0224 146.3 58.7391 145.55C58.4557 144.8 58.0224 144.225 57.4391 143.825C56.8724 143.408 56.1307 143.2 55.2141 143.2C53.8474 143.2 52.8557 143.65 52.2391 144.55C51.6224 145.45 51.3141 146.692 51.3141 148.275ZM84.8449 150.225C84.8449 151.292 84.5866 152.2 84.0699 152.95C83.5533 153.683 82.8116 154.25 81.8449 154.65C80.8949 155.05 79.7699 155.25 78.4699 155.25C77.8033 155.25 77.1616 155.217 76.5449 155.15C75.9449 155.083 75.3949 154.992 74.8949 154.875C74.3949 154.742 73.9533 154.583 73.5699 154.4V152.25C74.1699 152.517 74.9116 152.758 75.7949 152.975C76.6949 153.192 77.6199 153.3 78.5699 153.3C79.4533 153.3 80.1949 153.183 80.7949 152.95C81.3949 152.717 81.8449 152.383 82.1449 151.95C82.4449 151.517 82.5949 151.008 82.5949 150.425C82.5949 149.842 82.4699 149.35 82.2199 148.95C81.9699 148.55 81.5366 148.183 80.9199 147.85C80.3199 147.5 79.4783 147.133 78.3949 146.75C77.6283 146.467 76.9533 146.167 76.3699 145.85C75.8033 145.517 75.3283 145.142 74.9449 144.725C74.5616 144.308 74.2699 143.833 74.0699 143.3C73.8866 142.767 73.7949 142.15 73.7949 141.45C73.7949 140.5 74.0366 139.692 74.5199 139.025C75.0033 138.342 75.6699 137.817 76.5199 137.45C77.3866 137.083 78.3783 136.9 79.4949 136.9C80.4783 136.9 81.3783 136.992 82.1949 137.175C83.0116 137.358 83.7533 137.6 84.4199 137.9L83.7199 139.825C83.1033 139.558 82.4283 139.333 81.6949 139.15C80.9783 138.967 80.2283 138.875 79.4449 138.875C78.6949 138.875 78.0699 138.983 77.5699 139.2C77.0699 139.417 76.6949 139.725 76.4449 140.125C76.1949 140.508 76.0699 140.958 76.0699 141.475C76.0699 142.075 76.1949 142.575 76.4449 142.975C76.6949 143.375 77.1033 143.733 77.6699 144.05C78.2366 144.367 79.0033 144.708 79.9699 145.075C81.0199 145.458 81.9033 145.875 82.6199 146.325C83.3533 146.758 83.9033 147.283 84.2699 147.9C84.6533 148.517 84.8449 149.292 84.8449 150.225ZM94.7156 141.375C96.349 141.375 97.5573 141.733 98.3406 142.45C99.124 143.167 99.5156 144.308 99.5156 145.875V155H97.9156L97.4906 153.1H97.3906C97.0073 153.583 96.6073 153.992 96.1906 154.325C95.7906 154.642 95.324 154.875 94.7906 155.025C94.274 155.175 93.6406 155.25 92.8906 155.25C92.0906 155.25 91.3656 155.108 90.7156 154.825C90.0823 154.542 89.5823 154.108 89.2156 153.525C88.849 152.925 88.6656 152.175 88.6656 151.275C88.6656 149.942 89.1906 148.917 90.2406 148.2C91.2906 147.467 92.9073 147.067 95.0906 147L97.3656 146.925V146.125C97.3656 145.008 97.124 144.233 96.6406 143.8C96.1573 143.367 95.474 143.15 94.5906 143.15C93.8906 143.15 93.224 143.258 92.5906 143.475C91.9573 143.675 91.3656 143.908 90.8156 144.175L90.1406 142.525C90.724 142.208 91.4156 141.942 92.2156 141.725C93.0156 141.492 93.849 141.375 94.7156 141.375ZM95.3656 148.525C93.699 148.592 92.5406 148.858 91.8906 149.325C91.2573 149.792 90.9406 150.45 90.9406 151.3C90.9406 152.05 91.1656 152.6 91.6156 152.95C92.0823 153.3 92.674 153.475 93.3906 153.475C94.524 153.475 95.4656 153.167 96.2156 152.55C96.9656 151.917 97.3406 150.95 97.3406 149.65V148.45L95.3656 148.525ZM111.604 141.35C113.204 141.35 114.413 141.742 115.229 142.525C116.046 143.292 116.454 144.542 116.454 146.275V155H114.279V146.425C114.279 145.342 114.038 144.533 113.554 144C113.071 143.467 112.313 143.2 111.279 143.2C109.796 143.2 108.771 143.617 108.204 144.45C107.638 145.283 107.354 146.483 107.354 148.05V155H105.154V141.6H106.929L107.254 143.425H107.379C107.679 142.958 108.046 142.575 108.479 142.275C108.929 141.958 109.421 141.725 109.954 141.575C110.488 141.425 111.038 141.35 111.604 141.35ZM130.833 151.3C130.833 152.167 130.617 152.892 130.183 153.475C129.75 154.058 129.133 154.5 128.333 154.8C127.533 155.1 126.583 155.25 125.483 155.25C124.55 155.25 123.742 155.175 123.058 155.025C122.392 154.875 121.8 154.667 121.283 154.4V152.4C121.817 152.667 122.458 152.917 123.208 153.15C123.975 153.367 124.75 153.475 125.533 153.475C126.65 153.475 127.458 153.3 127.958 152.95C128.458 152.583 128.708 152.1 128.708 151.5C128.708 151.167 128.617 150.867 128.433 150.6C128.25 150.333 127.917 150.067 127.433 149.8C126.967 149.533 126.292 149.233 125.408 148.9C124.542 148.567 123.8 148.233 123.183 147.9C122.567 147.567 122.092 147.167 121.758 146.7C121.425 146.233 121.258 145.633 121.258 144.9C121.258 143.767 121.717 142.892 122.633 142.275C123.567 141.658 124.783 141.35 126.283 141.35C127.1 141.35 127.858 141.433 128.558 141.6C129.275 141.75 129.942 141.967 130.558 142.25L129.808 144C129.442 143.833 129.05 143.692 128.633 143.575C128.233 143.442 127.825 143.342 127.408 143.275C126.992 143.192 126.567 143.15 126.133 143.15C125.233 143.15 124.542 143.3 124.058 143.6C123.592 143.883 123.358 144.275 123.358 144.775C123.358 145.142 123.467 145.458 123.683 145.725C123.9 145.975 124.258 146.225 124.758 146.475C125.275 146.708 125.958 146.992 126.808 147.325C127.658 147.642 128.383 147.967 128.983 148.3C129.583 148.633 130.042 149.042 130.358 149.525C130.675 149.992 130.833 150.583 130.833 151.3Z" fill="#FFE500"/>
<path d="M58.7212 111L49.7772 88.016H20.3452L11.5052 111H2.04124L31.0572 36.432H39.4812L68.3932 111H58.7212ZM38.6492 57.232C38.4412 56.6773 38.0946 55.672 37.6092 54.216C37.1239 52.76 36.6386 51.2693 36.1532 49.744C35.7372 48.1493 35.3906 46.936 35.1132 46.104C34.7666 47.4907 34.3852 48.912 33.9692 50.368C33.6226 51.7547 33.2412 53.0373 32.8252 54.216C32.4786 55.3947 32.1666 56.4 31.8892 57.232L23.4652 79.696H46.9692L38.6492 57.232ZM104.655 54.32C111.45 54.32 116.476 55.8107 119.735 58.792C122.994 61.7733 124.623 66.5227 124.623 73.04V111H117.967L116.199 103.096H115.783C114.188 105.107 112.524 106.805 110.791 108.192C109.127 109.509 107.186 110.48 104.967 111.104C102.818 111.728 100.183 112.04 97.0631 112.04C93.7351 112.04 90.7191 111.451 88.0151 110.272C85.3805 109.093 83.3005 107.291 81.7751 104.864C80.2498 102.368 79.4871 99.248 79.4871 95.504C79.4871 89.9573 81.6711 85.6933 86.0391 82.712C90.4071 79.6613 97.1325 77.9973 106.215 77.72L115.679 77.408V74.08C115.679 69.4347 114.674 66.2107 112.663 64.408C110.652 62.6053 107.81 61.704 104.135 61.704C101.223 61.704 98.4498 62.1547 95.8151 63.056C93.1805 63.888 90.7191 64.8587 88.4311 65.968L85.6231 59.104C88.0498 57.7867 90.9271 56.6773 94.2551 55.776C97.5831 54.8053 101.05 54.32 104.655 54.32ZM107.359 84.064C100.426 84.3413 95.6071 85.4507 92.9031 87.392C90.2685 89.3333 88.9511 92.072 88.9511 95.608C88.9511 98.728 89.8871 101.016 91.7591 102.472C93.7005 103.928 96.1618 104.656 99.1431 104.656C103.858 104.656 107.775 103.373 110.895 100.808C114.015 98.1733 115.575 94.152 115.575 88.744V83.752L107.359 84.064Z" fill="#FFE500"/>
</svg>
