<svg width="36" height="36" viewBox="0 0 36 36" fill="none" xmlns="http://www.w3.org/2000/svg">
<path d="M14.0483 16.0236C15.453 18.4937 17.5068 20.5475 19.9768 21.9521L21.3036 20.0946C21.7448 19.4772 22.5774 19.2864 23.2434 19.6502C25.3536 20.8029 27.6856 21.5034 30.1183 21.696C30.8985 21.7578 31.5 22.4088 31.5 23.1914V29.8856C31.5 30.6546 30.9183 31.299 30.1533 31.3776C29.3584 31.4594 28.5565 31.5005 27.75 31.5005C14.9094 31.5005 4.5 21.0911 4.5 8.25049C4.5 7.44389 4.54113 6.64205 4.62284 5.84713C4.70145 5.08211 5.34591 4.50049 6.11498 4.50049H12.8091C13.5917 4.50049 14.2427 5.10205 14.3044 5.88212C14.497 8.31481 15.1975 10.6469 16.3503 12.7571C16.7141 13.4231 16.5232 14.2558 15.9058 14.6968L14.0483 16.0236ZM10.2664 15.0383L13.1163 13.0026C12.3082 11.2582 11.7544 9.40823 11.4709 7.50049H7.5136C7.50454 7.74997 7.5 7.99999 7.5 8.25049C7.5 19.4342 16.5663 28.5005 27.75 28.5005C28.0005 28.5005 28.2505 28.496 28.5 28.4868V24.5295C26.5923 24.246 24.7423 23.6922 22.9978 22.8842L20.9622 25.7342C20.1387 25.4142 19.3434 25.0377 18.5811 24.6096L18.4939 24.56C15.5546 22.8885 13.112 20.4459 11.4405 17.5065L11.3909 17.4194C10.9627 16.6571 10.5863 15.8618 10.2664 15.0383Z" fill="#FFE500"/>
</svg>
