<svg width="715" height="377" viewBox="0 0 715 377" fill="none" xmlns="http://www.w3.org/2000/svg">
<path d="M714.5 373.058C714.5 373.058 705.94 310.559 698.5 296.5C689.923 280.293 705.98 174.838 698 158.559C688.701 139.587 697.144 95.1064 686.5 76.3831C680.167 65.2438 672 3.05847 672 3.05847C672 3.05847 445 0.558591 422.5 0.55859C402.834 0.55859 429.394 -0.698124 401.5 0.55859C374.868 1.75842 393.922 3.05847 366 3.05847C339.444 3.05847 302.316 7.97479 262 3.05847C241.5 0.558588 226.985 5.93972 204.5 6.05859C179.479 6.19085 165.52 2.84182 140.5 3.05846C119.38 3.24133 107.784 6.05859 86.5 6.05859C63.459 6.05859 35.0861 3.17272 12 6.05859C4.5 6.99612 4.44798e-06 3.05846 4.44798e-06 3.05846C3.91156 39.7035 8.5 48 15 82.5C18.6842 117.015 20.5185 141.884 24 174.5C26.8391 201.097 20.7465 246.041 24 278C27.2535 309.959 35.1355 348.223 38 375.058L76.5 376.059L127.5 369.559L190.5 373.058L245 369.559L306 373.058C306 373.058 348.5 378.059 377 373.058C405.079 368.132 413.5 368.559 450 373.058C480.62 376.833 644 370.058 673 373.058C692.228 375.048 714.5 373.058 714.5 373.058Z" fill="#161616"/>
</svg>
