<svg width="66" height="66" viewBox="0 0 66 66" fill="none" xmlns="http://www.w3.org/2000/svg">
<path d="M24.9336 42.8263H11.0296L8.189 51.6472C8.11425 51.9836 7.81524 52.2078 7.47885 52.1704H0.452088C0.040948 52.1704 -0.0711813 51.9462 0.0409479 51.4977L12.0761 16.9993C12.1883 16.6255 12.3004 16.2891 12.4499 15.8406C12.5994 15.0557 12.6742 14.2334 12.6742 13.4111C12.6368 13.2243 12.7863 13.0374 12.9732 13H13.0853H22.6537C22.9153 13 23.1022 13.1121 23.1396 13.299L36.7819 51.4229C36.8941 51.8341 36.7819 52.0209 36.4082 52.0209H28.5965C28.3349 52.0583 28.0732 51.8714 27.9985 51.6098L24.9336 42.6395V42.8263ZM13.1974 35.3884H22.691C22.4668 34.6035 22.1678 33.6691 21.8314 32.6973C21.495 31.6882 21.1586 30.6043 20.8222 29.483C20.4485 28.3243 20.1121 27.203 19.7383 26.0444C19.3645 24.8857 19.0282 23.8018 18.7291 22.7179C18.4301 21.6713 18.1685 20.6995 17.9069 19.8025H17.8321C17.4957 21.4097 17.0846 23.0169 16.5613 24.6241C16.0007 26.4181 15.44 28.2869 14.842 30.1558C14.3561 32.062 13.7581 33.8186 13.1974 35.3884Z" fill="#E2209E"/>
<path d="M58.7966 39.4641H46.9483C47.0978 40.6228 47.4716 41.7815 48.107 42.7906C48.7798 43.7998 49.7142 44.5847 50.8355 45.0332C52.3305 45.6686 53.9751 46.005 55.6196 45.9676C56.9278 45.9303 58.236 45.8181 59.5068 45.5565C60.6654 45.407 61.7867 45.108 62.8333 44.6968C63.0202 44.5473 63.1323 44.6221 63.1323 44.9958V50.7144C63.1323 50.8639 63.0949 51.0134 63.0575 51.1629C62.9828 51.2751 62.908 51.3498 62.7959 51.4246C61.5999 51.9478 60.3664 52.3216 59.0583 52.5459C57.3016 52.8823 55.5449 53.0318 53.7508 52.9944C50.9102 52.9944 48.5181 52.5459 46.5746 51.6862C44.7431 50.9013 43.1359 49.6679 41.8651 48.1355C40.6691 46.6778 39.8094 45.0332 39.2862 43.2392C38.7629 41.4825 38.5013 39.651 38.5013 37.7822C38.5013 35.7639 38.8003 33.7829 39.4357 31.8394C40.0337 29.9705 40.9681 28.2512 42.2389 26.7188C43.4723 25.2237 45.0047 24.0277 46.7614 23.168C48.5181 22.3084 50.6112 22.0094 53.0033 22.0094C54.9842 21.972 56.9652 22.3458 58.7966 23.168C60.3291 23.8408 61.6746 24.85 62.7211 26.1582C63.6929 27.429 64.4778 28.8493 64.9637 30.4191C65.4496 31.9141 65.6739 33.4465 65.6739 34.979C65.6739 35.876 65.6365 36.6609 65.5991 37.3711C65.5244 38.0812 65.487 38.6045 65.4496 38.9409C65.4122 39.2025 65.188 39.4268 64.9264 39.4268C64.7021 39.4268 64.291 39.4641 63.6929 39.5015C63.0949 39.5763 62.3848 39.6136 61.5251 39.6136C60.6654 39.6136 59.7684 39.4641 58.7966 39.4641ZM46.9483 34.0072H54.8347C55.8065 34.0072 56.5167 34.0072 56.9652 33.9698C57.2642 33.9324 57.5632 33.8577 57.8248 33.6708V33.297C57.8248 32.8112 57.7501 32.3626 57.6006 31.9141C56.9278 29.821 54.9469 28.4007 52.7417 28.4755C50.686 28.3634 48.7424 29.4473 47.7706 31.3161C47.3221 32.1758 47.0604 33.0728 46.9483 34.0072Z" fill="#FFE500"/>
</svg>
