<svg width="66" height="66" viewBox="0 0 66 66" fill="none" xmlns="http://www.w3.org/2000/svg">
<g clip-path="url(#clip0_592_11434)">
<path d="M32.8273 44.8906H18.9826L16.1541 53.5965C16.0796 53.9299 15.7819 54.1522 15.447 54.1151H8.45016C8.04077 54.1151 7.92912 53.8929 8.04077 53.4483L20.0247 19.1065C20.1363 18.736 20.248 18.3285 20.3968 17.884C20.5457 17.106 20.6201 16.291 20.6201 15.4759C20.5829 15.2907 20.7318 15.1055 20.9179 15.0684H30.5571C30.8548 15.0684 31.0037 15.1796 31.0409 15.3648L44.6251 53.5224C44.7368 53.9299 44.6251 54.1151 44.2529 54.1151H36.4746C36.2141 54.1522 35.9535 53.9669 35.8791 53.7076L32.8273 44.8906ZM21.1412 37.3702H30.5943C30.371 36.5923 30.0732 35.6661 29.7383 34.7029C29.4033 33.7027 29.0684 32.6283 28.7334 31.517C28.3613 30.3685 28.0263 29.2571 27.6541 28.1087C27.282 26.9603 26.947 25.8859 26.6493 24.8116C26.3515 23.7743 26.091 22.8111 25.8305 21.922H25.7561C25.4211 23.515 25.0117 25.108 24.4907 26.7009C23.9324 28.4792 23.3742 30.3315 22.7787 32.1838C22.2577 34.0731 21.6994 35.8143 21.1412 37.3702ZM52.9245 21.5515C51.6963 21.5886 50.5054 21.107 49.6122 20.2549C48.7562 19.3288 48.3096 18.1062 48.3468 16.8467C48.3096 15.5871 48.7934 14.4016 49.6866 13.5495C50.5798 12.6975 51.7708 12.2529 52.9989 12.2529C54.4504 12.2529 55.5669 12.6975 56.3857 13.5495C57.2045 14.4387 57.6511 15.6241 57.6138 16.8467C57.6511 18.1062 57.2045 19.3288 56.3112 20.2549C55.4553 21.144 54.1899 21.6256 52.9245 21.5515ZM48.7562 53.7076V25.1821C48.7562 24.8116 48.9051 24.6634 49.24 24.6634H56.609C56.9439 24.6634 57.0928 24.8486 57.0928 25.1821V53.7076C57.0928 54.1151 56.9439 54.3004 56.609 54.3004H49.3144C48.9423 54.3004 48.7562 54.0781 48.7562 53.7076Z" fill="#E2209E"/>
</g>
<g clip-path="url(#clip1_592_11434)">
<path d="M32.8273 44.6376H18.9826L16.1541 53.3434C16.0796 53.6769 15.7819 53.8991 15.447 53.8621H8.45016C8.04077 53.8621 7.92912 53.6398 8.04077 53.1953L20.0246 18.8534C20.1363 18.483 20.2479 18.0754 20.3968 17.6309C20.5457 16.8529 20.6201 16.0379 20.6201 15.2229C20.5829 15.0377 20.7318 14.8524 20.9179 14.8154H30.5571C30.8548 14.8154 31.0037 14.9265 31.0409 15.1118L44.6251 53.2693C44.7367 53.6769 44.6251 53.8621 44.2529 53.8621H36.4746C36.2141 53.8991 35.9535 53.7139 35.8791 53.4546L32.8273 44.6376ZM21.1412 37.1172H30.5943C30.371 36.3392 30.0732 35.4131 29.7383 34.4499C29.4033 33.4496 29.0684 32.3753 28.7334 31.2639C28.3613 30.1155 28.0263 29.0041 27.6541 27.8556C27.282 26.7072 26.947 25.6329 26.6493 24.5585C26.3515 23.5212 26.091 22.558 25.8305 21.6689H25.7561C25.4211 23.2619 25.0117 24.8549 24.4907 26.4479C23.9324 28.2261 23.3742 30.0784 22.7787 31.9307C22.2577 33.8201 21.6994 35.5613 21.1412 37.1172ZM52.9245 22.1394C51.6963 22.1765 50.5054 21.6949 49.6122 20.8428C48.7562 19.9166 48.3096 18.6941 48.3468 17.4346C48.3096 16.175 48.7934 14.9895 49.6866 14.1374C50.5798 13.2854 51.7708 12.8408 52.9989 12.8408C54.4504 12.8408 55.5669 13.2854 56.3857 14.1374C57.2044 15.0265 57.6511 16.212 57.6138 17.4346C57.6511 18.6941 57.2044 19.9166 56.3112 20.8428C55.4552 21.7319 54.1899 22.2135 52.9245 22.1394ZM48.7562 53.4546V24.929C48.7562 24.5585 48.9051 24.4104 49.24 24.4104H56.609C56.9439 24.4104 57.0928 24.5956 57.0928 24.929V53.4546C57.0928 53.8621 56.9439 54.0473 56.609 54.0473H49.3144C48.9423 54.0473 48.7562 53.825 48.7562 53.4546Z" fill="#FFE500"/>
</g>
<defs>
<clipPath id="clip0_592_11434">
<rect width="39.5246" height="42.0474" fill="white" transform="translate(8 12.2529)"/>
</clipPath>
<clipPath id="clip1_592_11434">
<rect width="11.7733" height="42.0474" fill="white" transform="translate(45.8427 12)"/>
</clipPath>
</defs>
</svg>
