<svg width="66" height="66" viewBox="0 0 66 66" fill="none" xmlns="http://www.w3.org/2000/svg">
<path d="M32.6588 61L12.4937 55.402L8 5H57.378L52.8795 55.3941L32.6588 61Z" fill="#07CBF5"/>
<path d="M49.0283 52.1852L52.8725 9.12109H32.689V56.7151L49.0283 52.1852Z" fill="#FFE500"/>
<path d="M18.3017 27.8145L18.8557 33.996H32.689V27.8145H18.3017Z" fill="black"/>
<path d="M17.1885 15.3027L17.7504 21.4844H32.689V15.3027H32.6676H17.1885Z" fill="black"/>
<path d="M32.689 43.8688L32.6619 43.876L25.7774 42.017L25.3373 37.0869H21.992H19.132L19.998 46.7929L32.6605 50.3081L32.689 50.3002V43.8688Z" fill="black"/>
<path d="M47.0366 27.8145L48.1526 15.3027H32.6676V21.4844H41.3781L40.8156 27.8145H32.6676V33.996H40.2796L39.562 42.0131L32.6676 43.8739V50.3051L45.3402 46.7929L45.4332 45.7485L46.8858 29.4744L47.0366 27.8145Z" fill="black"/>
</svg>
