<svg width="66" height="66" viewBox="0 0 66 66" fill="none" xmlns="http://www.w3.org/2000/svg">
<g clip-path="url(#clip0_592_11430)">
<path d="M32.6667 33.0003C32.6667 30.525 33.65 28.151 35.4003 26.4007C37.1507 24.6503 39.5246 23.667 42 23.667C44.4753 23.667 46.8493 24.6503 48.5997 26.4007C50.35 28.151 51.3333 30.525 51.3333 33.0003C51.3333 35.4757 50.35 37.8496 48.5997 39.6C46.8493 41.3503 44.4753 42.3337 42 42.3337C39.5246 42.3337 37.1507 41.3503 35.4003 39.6C33.65 37.8496 32.6667 35.4757 32.6667 33.0003Z" fill="#FFE500"/>
<path d="M14 51.6663C14 49.191 14.9833 46.817 16.7337 45.0667C18.484 43.3163 20.858 42.333 23.3333 42.333H32.6667V51.6663C32.6667 54.1417 31.6833 56.5157 29.933 58.266C28.1827 60.0163 25.8087 60.9997 23.3333 60.9997C20.858 60.9997 18.484 60.0163 16.7337 58.266C14.9833 56.5157 14 54.1417 14 51.6663V51.6663Z" fill="#E2209E"/>
<path d="M32.6667 5V23.6667H42C44.4753 23.6667 46.8493 22.6833 48.5997 20.933C50.35 19.1827 51.3333 16.8087 51.3333 14.3333C51.3333 11.858 50.35 9.48401 48.5997 7.73367C46.8493 5.98333 44.4753 5 42 5L32.6667 5Z" fill="#E2209E"/>
<path d="M14 33.0003C14 35.4757 14.9833 37.8496 16.7337 39.6C18.484 41.3503 20.858 42.3337 23.3333 42.3337H32.6667V23.667H23.3333C20.858 23.667 18.484 24.6503 16.7337 26.4007C14.9833 28.151 14 30.525 14 33.0003H14Z" fill="#BD2287"/>
<path d="M14 14.3333C14 16.8087 14.9833 19.1827 16.7337 20.933C18.484 22.6833 20.858 23.6667 23.3333 23.6667H32.6667V5H23.3333C20.858 5 18.484 5.98333 16.7337 7.73367C14.9833 9.48401 14 11.858 14 14.3333H14Z" fill="#991B6D"/>
</g>
<defs>
<clipPath id="clip0_592_11430">
<rect width="37.3333" height="56" fill="white" transform="translate(14 5)"/>
</clipPath>
</defs>
</svg>
