<svg width="66" height="66" viewBox="0 0 66 66" fill="none" xmlns="http://www.w3.org/2000/svg">
<path d="M57.378 5L52.8795 55.3941L32.6588 61L12.4937 55.402L8 5H57.378Z" fill="#07CBF5"/>
<path d="M32.6889 56.718L49.0282 52.1881L52.8725 9.12402H32.6889V56.718Z" fill="#FFE500"/>
<path d="M23.9441 21.4873H32.6889V15.3057H32.6675H17.1884L17.3364 16.9641L18.8557 33.9989H32.6889V27.8174H24.509L23.9441 21.4873Z" fill="black"/>
<path d="M25.3372 37.0859H21.9919H19.1319L19.9979 46.7919L32.6605 50.3071L32.6889 50.2993V43.8678L32.6618 43.875L25.7773 42.0161L25.3372 37.0859Z" fill="black"/>
<path d="M32.6676 33.997H40.2796L39.562 42.014L32.6676 43.8749V50.3061L45.3402 46.7939L45.4332 45.7495L46.8858 29.4754L47.0366 27.8154H45.3709H32.6676V33.997Z" fill="black"/>
<path d="M32.6676 21.4722V21.4873H47.5792H47.5991L47.7231 20.0979L48.0048 16.9641L48.1526 15.3057H32.6676V19.145V21.4722Z" fill="black"/>
</svg>
