<svg width="66" height="66" viewBox="0 0 66 66" fill="none" xmlns="http://www.w3.org/2000/svg">
<path d="M32.9518 14.1175C30.1794 16.0674 27.0372 18.2775 25.3536 21.9339C22.4293 28.313 31.3374 35.2713 31.7182 35.5643C31.8067 35.6324 31.9126 35.6664 32.0182 35.6664C32.1303 35.6664 32.2426 35.6281 32.3338 35.5517C32.5106 35.4038 32.5608 35.1525 32.4546 34.9479C32.4224 34.8858 29.2248 28.6749 29.3436 24.2191C29.3857 22.6672 31.5575 20.9067 33.8568 19.0428C35.9626 17.3356 38.3497 15.4008 39.7464 13.1373C42.8125 8.1549 39.4047 3.25575 39.3699 3.20676C39.2345 3.01668 38.9847 2.94789 38.771 3.04153C38.5576 3.13575 38.4394 3.36649 38.4881 3.59465C38.4951 3.62711 39.1577 6.86689 37.3137 10.2048C36.5541 11.5841 34.8848 12.758 32.9518 14.1175Z" fill="#FFE500"/>
<path d="M44.6323 16.3144C44.8279 16.1671 44.8853 15.8984 44.7671 15.6839C44.6486 15.4694 44.3908 15.3749 44.1618 15.4618C43.6908 15.6409 32.6286 19.905 32.6286 25.0572C32.6286 28.6088 34.1457 30.485 35.2535 31.8551C35.6881 32.3926 36.0632 32.8566 36.1868 33.2528C36.5349 34.3946 35.7103 36.4583 35.3636 37.1572C35.2636 37.358 35.3126 37.6016 35.4826 37.7483C35.5745 37.8276 35.6892 37.8679 35.8041 37.8679C35.9018 37.8679 36 37.8389 36.0849 37.7798C36.2751 37.6476 40.7334 34.4955 39.9338 30.6978C39.6359 29.2543 38.9265 28.1996 38.3006 27.2689C37.331 25.8269 36.6307 24.7853 37.6931 22.8615C38.9379 20.6176 44.5752 16.357 44.6323 16.3144Z" fill="#FFE500"/>
<path d="M15.837 37.9495C15.6474 38.5172 15.7369 39.0804 16.0956 39.5787C17.2948 41.2436 21.5425 42.1603 28.0568 42.1603C28.0571 42.1603 28.0574 42.1603 28.0576 42.1603C28.9403 42.1603 29.8721 42.1429 30.8266 42.1087C41.2417 41.7359 45.1047 38.4912 45.2641 38.3533C45.4377 38.2029 45.4842 37.9526 45.3762 37.7501C45.2682 37.5477 45.0353 37.446 44.8128 37.5073C41.1447 38.5088 34.2954 38.8643 29.5446 38.8643C24.2286 38.8643 21.5213 38.4814 20.8585 38.1986C21.1986 37.7316 23.2963 36.8977 25.8956 36.3864C26.144 36.3377 26.3148 36.1082 26.2902 35.8562C26.2656 35.6043 26.0539 35.4121 25.8007 35.4121C24.277 35.4121 16.6358 35.5345 15.837 37.9495Z" fill="#9364ED"/>
<path d="M50.688 34.6074C48.5398 34.6074 46.5027 35.6841 46.417 35.7297C46.2183 35.8361 46.1176 36.064 46.172 36.2829C46.2268 36.5014 46.4233 36.655 46.6486 36.6553C46.6942 36.6553 51.2309 36.6924 51.6418 39.2845C52.0058 41.5207 47.3493 45.1439 45.5243 46.3514C45.3272 46.4818 45.2507 46.7338 45.3422 46.9518C45.4202 47.1373 45.6008 47.2533 45.7955 47.2533C45.8295 47.2533 45.864 47.2498 45.8982 47.2425C46.3313 47.1498 56.4927 44.9106 55.4183 38.9944C54.7629 35.3686 52.484 34.6074 50.688 34.6074Z" fill="#9364ED"/>
<path d="M43.7195 45.6279C43.7548 45.4384 43.676 45.2456 43.5182 45.1349L41.0818 43.4283C40.963 43.3451 40.8128 43.3189 40.6734 43.3558C40.648 43.3623 38.1001 44.0321 34.4009 44.4429C32.9328 44.6075 31.2884 44.6945 29.6452 44.6945C25.947 44.6945 23.5289 44.2599 23.1768 43.9412C23.1301 43.8517 23.1449 43.811 23.1532 43.7884C23.2172 43.6105 23.5601 43.3991 23.7811 43.3154C24.0252 43.2251 24.1568 42.96 24.0809 42.7111C24.0052 42.4618 23.7484 42.3152 23.495 42.376C21.051 42.9658 19.8559 43.7906 19.9428 44.8274C20.0973 46.6656 24.355 47.6091 27.9544 47.8584C28.472 47.8938 29.0318 47.9118 29.6179 47.9118C29.6182 47.9118 29.6185 47.9118 29.6188 47.9118C35.6041 47.9118 43.2771 46.0338 43.3537 46.0147C43.5411 45.969 43.6839 45.8177 43.7195 45.6279Z" fill="#9364ED"/>
<path d="M25.3508 49.5725C25.5354 49.4525 25.6171 49.2243 25.5516 49.0142C25.4864 48.8041 25.2898 48.6661 25.0691 48.669C24.7415 48.6777 21.8641 48.8075 21.6626 50.6395C21.6017 51.187 21.7585 51.6873 22.1289 52.1262C23.1621 53.3505 25.9509 54.0783 30.6533 54.3508C31.2096 54.3842 31.7747 54.401 32.3331 54.401C38.3114 54.401 42.3378 52.5292 42.5064 52.4495C42.6699 52.3721 42.7777 52.2115 42.7873 52.031C42.7969 51.8505 42.7068 51.6793 42.5526 51.585L39.4735 49.7053C39.3666 49.6401 39.2387 49.6186 39.1169 49.6435C39.0974 49.6476 37.1424 50.0531 34.1919 50.4536C33.6336 50.5296 32.9345 50.5681 32.1142 50.5681C29.1669 50.5681 25.8887 50.0866 25.26 49.7713C25.2508 49.7124 25.2624 49.6377 25.3508 49.5725Z" fill="#9364ED"/>
<path d="M29.5468 60.0526C43.2407 60.041 50.5904 57.6057 52.0063 56.0732C52.5075 55.5311 52.5616 55.0178 52.5191 54.6826C52.4139 53.8576 51.6623 53.3525 51.5771 53.2976C51.3716 53.1655 51.0957 53.2 50.9354 53.3849C50.7755 53.5699 50.7717 53.8401 50.9322 54.0249C51.0186 54.136 51.0685 54.322 50.816 54.5748C50.25 55.1034 44.5412 56.708 35.0359 57.1902C33.7339 57.2578 32.3681 57.2922 30.977 57.2925C22.4665 57.2925 16.238 56.1267 15.4204 55.4475C15.7355 54.9946 17.9387 54.2712 20.2816 53.862C20.5456 53.816 20.724 53.5672 20.6831 53.3023C20.6422 53.0376 20.3981 52.8554 20.1313 52.8899C20.0652 52.899 19.8409 52.9123 19.5812 52.9283C15.7154 53.1643 11.2481 53.6903 11.015 55.6822C10.9442 56.2891 11.1245 56.8401 11.5512 57.3197C12.5953 58.4927 15.5961 60.0524 29.5464 60.0524C29.5466 60.0526 29.5466 60.0526 29.5468 60.0526Z" fill="#9364ED"/>
<path d="M54.6959 56.5055C54.5023 56.416 54.2736 56.4612 54.1292 56.6171C54.1091 56.6387 52.0503 58.7916 45.8599 60.0558C43.49 60.5307 39.0416 60.7715 32.6381 60.7715C26.2226 60.7715 20.118 60.5191 20.0572 60.5165C19.8022 60.5041 19.5841 60.6895 19.5494 60.9405C19.5146 61.1913 19.6763 61.4277 19.9225 61.4863C19.986 61.5013 26.3837 63.0002 35.131 63.0002C39.3265 63.0002 43.4091 62.6595 47.2656 61.9871C54.4564 60.7265 54.9598 57.1609 54.9777 57.0098C55.0028 56.7985 54.8891 56.595 54.6959 56.5055Z" fill="#9364ED"/>
</svg>
