<svg width="66" height="66" viewBox="0 0 66 66" fill="none" xmlns="http://www.w3.org/2000/svg">
<path d="M17.059 12.667H26.2697V38.4816C26.2697 50.1163 20.695 54.1766 11.7869 54.1766C9.60556 54.1766 6.81814 53.813 5 53.2071L6.0302 45.7536C7.30278 46.1777 8.93892 46.4807 10.7567 46.4807C14.635 46.4807 17.059 44.7233 17.059 38.4212V12.667Z" fill="#07CBF5"/>
<path d="M34.2669 44.0561C36.6908 45.3286 40.5691 46.6012 44.5079 46.6012C48.7498 46.6012 50.9919 44.844 50.9919 42.1171C50.9919 39.6326 49.0528 38.1178 44.1443 36.4209C37.3573 33.997 32.8732 30.2399 32.8732 24.2409C32.8732 17.2721 38.7512 12 48.3255 12C52.9917 12 56.3243 12.9092 58.7484 14.0604L56.6879 21.4533C55.1125 20.6657 52.143 19.5142 48.2046 19.5142C44.205 19.5142 42.2658 21.3927 42.2658 23.4531C42.2658 26.0588 44.5079 27.21 49.8407 29.2705C57.0516 31.9369 60.3844 35.6939 60.3844 41.5112C60.3844 48.3588 55.1731 54.1762 43.9626 54.1762C39.2964 54.1762 34.6908 52.9035 32.3885 51.631L34.2669 44.0561Z" fill="#0791AE"/>
</svg>
