<svg width="66" height="66" viewBox="0 0 66 66" fill="none" xmlns="http://www.w3.org/2000/svg">
<path d="M32.949 4.15918L34.5093 7.08989C34.8601 7.63072 35.2402 8.10942 35.6878 8.55524C37.0002 9.85127 38.2235 11.2345 39.3494 12.6955C41.9932 16.167 43.7765 20.0223 45.05 24.1918C45.8137 26.7388 46.2285 29.3516 46.2596 31.9936C46.3875 39.8922 43.6797 46.6745 38.2202 52.3112C37.3322 53.2051 36.3728 54.0251 35.3516 54.7632C34.8108 54.7632 34.555 54.3484 34.3321 53.9666C33.9262 53.2585 33.656 52.4808 33.5355 51.6735C33.3436 50.718 33.2176 49.7624 33.2797 48.7757V48.3299C33.2358 48.2349 32.7589 4.38392 32.949 4.15918Z" fill="#5E1DBB"/>
<path d="M32.949 4.06286C32.885 3.93496 32.8211 4.0318 32.7571 4.09392C32.7882 4.73341 32.5653 5.30348 32.2163 5.84796C31.8326 6.38879 31.3247 6.80354 30.8149 7.24936C27.9828 9.70136 25.7538 12.6631 23.9687 15.9757C21.5934 20.4339 20.3692 25.2118 20.0221 30.2419C19.8631 32.0562 20.5958 38.4585 21.1677 40.3057C22.728 45.2097 25.5308 49.3189 29.1613 52.8854C30.053 53.7442 31.0067 54.5408 31.9934 55.3064C32.2802 55.3064 32.3113 55.0506 32.3771 54.8606C32.5028 54.454 32.5987 54.0387 32.6639 53.6181L33.3034 48.842L32.949 4.06286Z" fill="#9364ED"/>
<path d="M34.5093 56.7038C34.5733 55.973 34.9241 55.3664 35.306 54.7616C34.9223 54.6026 34.6372 54.2865 34.4143 53.9339C34.2221 53.6 34.063 53.2481 33.9393 52.8833C33.4934 51.5458 33.3984 50.1426 33.2705 48.7759V47.9482C33.1116 48.0761 33.0787 49.1578 33.0787 49.3186C32.9857 50.7631 32.794 52.1995 32.505 53.6178C32.41 54.1915 32.346 54.7634 31.9934 55.2732C31.9934 55.3371 31.9934 55.4011 32.0244 55.4961C32.5982 57.1844 32.7553 58.9037 32.8521 60.6559V61.2954C32.8521 62.0591 32.8211 61.8983 33.4551 62.1541C33.7109 62.2491 33.9959 62.282 34.2517 62.472C34.4436 62.472 34.4746 62.3131 34.4746 62.1852L34.3796 61.1346V58.2039C34.3485 57.6923 34.4436 57.1844 34.5075 56.7056L34.5093 56.7038Z" fill="#FFE500"/>
</svg>
