<svg width="66" height="66" viewBox="0 0 66 66" fill="none" xmlns="http://www.w3.org/2000/svg">
<path d="M8.33802 6.01319C7.0041 5.99011 5.84309 6.49309 5.23706 7.96906C4.21768 10.4559 6.76037 12.8818 7.66941 14.1417C8.30673 15.0257 9.12191 16.0184 9.57808 17.0129C9.8778 17.6659 9.9305 18.3239 10.1874 19.0149C10.8181 20.7184 11.3665 22.5671 12.1833 24.142C12.5967 24.9386 13.0512 25.7813 13.5733 26.492C13.8927 26.9291 14.4411 27.122 14.5284 27.7965C13.9916 28.5485 13.9619 29.7111 13.6605 30.6627C12.3036 34.9471 12.8141 40.2738 14.7886 43.4451C15.3946 44.418 16.8224 46.5058 18.7838 45.7044C20.4998 45.0051 20.1177 42.8365 20.6085 40.9219C20.7188 40.4882 20.6496 40.1699 20.867 39.8796V39.967C21.3874 41.0109 21.9095 42.0515 22.4315 43.0954C23.5892 44.9606 25.6411 46.9132 27.3884 48.2292C28.2909 48.9119 29.0023 50.091 30.1683 50.4885V50.4011H30.081C29.8554 50.0482 29.5029 49.8997 29.2131 49.6161C28.533 48.9498 27.7754 48.1203 27.2139 47.3568C25.6313 45.2063 24.2348 42.853 22.9601 40.4024C22.3508 39.2315 21.8222 37.9419 21.3133 36.7513C21.1157 36.2928 21.119 35.5969 20.7073 35.3594C20.1457 36.2318 19.3157 36.9376 18.8826 37.9683C18.1876 39.6158 18.0987 41.6228 17.8418 43.7056C17.6887 43.76 17.7578 43.7254 17.6673 43.793C16.4585 43.5011 16.0336 42.2544 15.584 41.1841C14.4461 38.4795 14.2353 34.1242 15.2349 31.0106C15.4935 30.2059 16.6627 27.6679 16.1901 26.9225C15.9644 26.1804 15.2184 25.7532 14.8001 25.1859C14.283 24.4851 13.7676 23.5615 13.4102 22.7518C12.4798 20.6426 12.045 18.2744 11.0652 16.1388C10.5975 15.1197 9.80698 14.0873 9.15649 13.1819C8.43683 12.1776 7.62824 11.4388 7.06997 10.2251C6.87071 9.79299 6.60557 9.1053 6.8987 8.66334C6.99257 8.36485 7.12267 8.23786 7.41745 8.14057C7.92138 7.75137 9.32447 8.27085 9.84815 8.48853C11.2414 9.06738 12.4024 9.61818 13.5831 10.3999C14.1496 10.7759 14.7244 11.5031 15.4078 11.7043H16.1884C17.4103 11.9863 18.7805 11.7934 19.9234 12.1397C21.9424 12.7548 23.7522 13.7097 25.3958 14.7486C30.4021 17.9133 34.4928 22.4187 37.2924 27.7932C37.7436 28.659 37.9379 29.4836 38.3348 30.4021C39.1352 32.2524 40.1447 34.1555 40.9401 35.9646C41.7355 37.7704 42.5095 39.5927 43.6326 41.0951C44.2239 41.885 46.5047 42.3105 47.5405 42.7442C48.2668 43.0526 49.4574 43.3725 50.1458 43.7864C51.46 44.5813 52.7346 45.5263 53.9681 46.3953C54.584 46.8307 56.4795 47.7823 56.5733 48.5689C53.5185 48.4864 51.1866 48.7701 49.1923 49.6111C48.6258 49.8503 47.72 49.8585 47.6278 50.5709C47.9391 50.8975 47.9901 51.3856 48.2371 51.788C48.7131 52.5598 49.5151 53.5921 50.2331 54.1347C51.017 54.7267 51.8239 55.3616 52.6654 55.8745C54.1608 56.7865 55.8273 57.3076 57.2667 58.2212C58.1148 58.7605 58.9579 59.4366 59.7846 60.0452C60.1931 60.3453 60.4681 60.812 61 61V60.9159C60.72 60.5597 60.6509 60.0666 60.394 59.6955L59.2659 58.5659C58.1625 57.0982 56.7594 55.8102 55.2707 54.7399C54.0834 53.8857 51.4221 52.7346 50.9264 51.3493C50.8968 51.3196 50.8688 51.2916 50.8391 51.2619C51.6807 51.1663 52.6704 50.8628 53.4477 50.655C54.7536 50.3038 55.9179 50.3928 57.265 50.0449C57.8727 49.8717 58.482 49.6985 59.0897 49.5254V49.1774C58.4079 48.4765 57.9204 47.5514 57.1777 46.9181C55.2328 45.2525 53.1101 43.6034 50.9248 42.2198C49.7127 41.4529 48.2174 40.9582 46.9329 40.3084C46.5014 40.0907 45.7422 39.9753 45.4557 39.6108C44.7805 38.75 44.4116 37.6599 43.8912 36.6573C42.801 34.5546 41.7322 32.259 40.7672 30.0443C40.1085 28.537 39.6753 27.0478 38.8552 25.6955C34.9111 19.2046 30.6672 15.2846 24.0915 11.4339C22.6917 10.6143 21.0086 10.2943 19.2284 9.87215C18.2733 9.81443 17.3165 9.75506 16.3613 9.69734C15.7784 9.45327 15.1707 8.7392 14.6223 8.39288C13.2604 7.53204 10.5678 6.03793 8.34461 6M17.7496 15.4347C17.1123 15.4215 16.661 15.5056 16.1851 15.6095V15.6969H16.2724C16.5754 16.3219 17.1123 16.7243 17.4877 17.2635C17.7776 17.8721 18.0658 18.4789 18.3556 19.0875C18.3836 19.0594 18.4133 19.033 18.4429 19.0034C18.9814 18.6241 19.2301 18.0155 19.2268 17.0887C19.0111 16.8611 18.9781 16.5791 18.792 16.307C18.5434 15.9459 18.0641 15.7381 17.7512 15.4347H17.7496Z" fill="#5E1DBB"/>
<path d="M8.33802 6.01319C7.0041 5.99011 5.84309 6.49309 5.23706 7.96906C4.21768 10.4559 6.76037 12.8818 7.66941 14.1417C8.30673 15.0257 9.12191 16.0184 9.57808 17.0129C9.8778 17.6659 9.9305 18.3239 10.1874 19.0149C10.8181 20.7184 11.3665 22.5671 12.1833 24.142C12.5967 24.9386 13.0512 25.7813 13.5733 26.492C13.8927 26.9291 14.4411 27.122 14.5284 27.7965C13.9916 28.5485 13.9619 29.7111 13.6605 30.6627C12.3036 34.9471 12.8141 40.2738 14.7886 43.4451C15.3946 44.418 16.8224 46.5058 18.7838 45.7044C20.4998 45.0051 20.1177 42.8365 20.6085 40.9219C20.7188 40.4882 20.6496 40.1699 20.867 39.8796V39.967C21.3874 41.0109 21.9095 42.0515 22.4315 43.0954C23.5892 44.9606 25.6411 46.9132 27.3884 48.2292C28.2909 48.9119 29.0023 50.091 30.1683 50.4885V50.4011H30.081C29.8554 50.0482 29.5029 49.8997 29.2131 49.6161C28.533 48.9498 27.7754 48.1203 27.2139 47.3568C25.6313 45.2063 24.2348 42.853 22.9601 40.4024C22.3508 39.2315 21.8222 37.9419 21.3133 36.7513C21.1157 36.2928 21.119 35.5969 20.7073 35.3594C20.1457 36.2318 19.3157 36.9376 18.8826 37.9683C18.1876 39.6158 18.0987 41.6228 17.8418 43.7056C17.6887 43.76 17.7578 43.7254 17.6673 43.793C16.4585 43.5011 16.0336 42.2544 15.584 41.1841C14.4461 38.4795 14.2353 34.1242 15.2349 31.0106C15.4935 30.2059 16.6627 27.6679 16.1901 26.9225C15.9644 26.1804 15.2184 25.7532 14.8001 25.1859C14.283 24.4851 13.7676 23.5615 13.4102 22.7518C12.4798 20.6426 12.045 18.2744 11.0652 16.1388C10.5975 15.1197 9.80698 14.0873 9.15649 13.1819C8.43683 12.1776 7.62824 11.4388 7.06997 10.2251C6.87071 9.79299 6.60557 9.1053 6.8987 8.66334C6.99257 8.36485 7.12267 8.23786 7.41745 8.14057C7.92138 7.75137 9.32447 8.27085 9.84815 8.48853C11.2414 9.06738 12.4024 9.61818 13.5831 10.3999C14.1496 10.7759 14.7244 11.5031 15.4078 11.7043H16.1884C17.4103 11.9863 18.7805 11.7934 19.9234 12.1397C21.9424 12.7548 23.7522 13.7097 25.3958 14.7486C30.4021 17.9133 34.4928 22.4187 37.2924 27.7932C37.7436 28.659 37.9379 29.4836 38.3348 30.4021C39.1352 32.2524 40.1447 34.1555 40.9401 35.9646C41.7355 37.7704 42.5095 39.5927 43.6326 41.0951C44.2239 41.885 46.5047 42.3105 47.5405 42.7442C48.2668 43.0526 49.4574 43.3725 50.1458 43.7864C51.46 44.5813 52.7346 45.5263 53.9681 46.3953C54.584 46.8307 56.4795 47.7823 56.5733 48.5689C53.5185 48.4864 51.1866 48.7701 49.1923 49.6111C48.6258 49.8503 47.72 49.8585 47.6278 50.5709C47.9391 50.8975 47.9901 51.3856 48.2371 51.788C48.7131 52.5598 49.5151 53.5921 50.2331 54.1347C51.017 54.7267 51.8239 55.3616 52.6654 55.8745C54.1608 56.7865 55.8273 57.3076 57.2667 58.2212C58.1148 58.7605 58.9579 59.4366 59.7846 60.0452C60.1931 60.3453 60.4681 60.812 61 61V60.9159C60.72 60.5597 60.6509 60.0666 60.394 59.6955L59.2659 58.5659C58.1625 57.0982 56.7594 55.8102 55.2707 54.7399C54.0834 53.8857 51.4221 52.7346 50.9264 51.3493C50.8968 51.3196 50.8688 51.2916 50.8391 51.2619C51.6807 51.1663 52.6704 50.8628 53.4477 50.655C54.7536 50.3038 55.9179 50.3928 57.265 50.0449C57.8727 49.8717 58.482 49.6985 59.0897 49.5254V49.1774C58.4079 48.4765 57.9204 47.5514 57.1777 46.9181C55.2328 45.2525 53.1101 43.6034 50.9248 42.2198C49.7127 41.4529 48.2174 40.9582 46.9329 40.3084C46.5014 40.0907 45.7422 39.9753 45.4557 39.6108C44.7805 38.75 44.4116 37.6599 43.8912 36.6573C42.801 34.5546 41.7322 32.259 40.7672 30.0443C40.1085 28.537 39.6753 27.0478 38.8552 25.6955C34.9111 19.2046 30.6672 15.2846 24.0915 11.4339C22.6917 10.6143 21.0086 10.2943 19.2284 9.87215C18.2733 9.81443 17.3165 9.75506 16.3613 9.69734C15.7784 9.45327 15.1707 8.7392 14.6223 8.39288C13.2604 7.53204 10.5678 6.03793 8.34461 6M17.7496 15.4347C17.1123 15.4215 16.661 15.5056 16.1851 15.6095V15.6969H16.2724C16.5754 16.3219 17.1123 16.7243 17.4877 17.2635C17.7776 17.8721 18.0658 18.4789 18.3556 19.0875C18.3836 19.0594 18.4133 19.033 18.4429 19.0034C18.9814 18.6241 19.2301 18.0155 19.2268 17.0887C19.0111 16.8611 18.9781 16.5791 18.792 16.307C18.5434 15.9459 18.0641 15.7381 17.7512 15.4347H17.7496Z" stroke="#5E1DBB" stroke-linecap="square" stroke-linejoin="bevel"/>
<path d="M17.7495 15.434C17.1122 15.4208 16.661 15.5049 16.1851 15.6088V15.6962H16.2723C16.5754 16.3212 17.1122 16.7236 17.4877 17.2629C17.7775 17.8714 18.0657 18.4783 18.3556 19.0868C18.3836 19.0588 18.4132 19.0324 18.4428 19.0027C18.9814 18.6234 19.23 18.0149 19.2267 17.0881C19.011 16.8605 18.9781 16.5785 18.792 16.3064C18.5433 15.9452 18.0641 15.7374 17.7512 15.434H17.7495Z" fill="#FFE500" stroke="#FFE500" stroke-linecap="square" stroke-linejoin="bevel"/>
</svg>
