<svg width="65" height="66" viewBox="0 0 65 66" fill="none" xmlns="http://www.w3.org/2000/svg">
<path d="M32.8028 60.8961C32.0325 60.8961 31.3136 60.6907 30.646 60.3312L23.8163 56.2745C22.7892 55.7096 23.3027 55.5042 23.6109 55.4015C24.9973 54.9393 25.2541 54.8366 26.6919 54.015C26.846 53.9123 27.0514 53.9636 27.2055 54.0663L32.4433 57.1988C32.6487 57.3015 32.9055 57.3015 33.0595 57.1988L53.5488 45.3366C53.7542 45.2339 53.8569 45.0285 53.8569 44.7717V21.0987C53.8569 20.8419 53.7542 20.6365 53.5488 20.5338L33.0595 8.72298C32.8541 8.62028 32.5974 8.62028 32.4433 8.72298L11.9541 20.5338C11.7487 20.6365 11.646 20.8933 11.646 21.0987V44.7717C11.646 44.9771 11.7487 45.2339 11.9541 45.3366L17.5514 48.5717C20.5811 50.1123 22.4811 48.315 22.4811 46.5177V23.1528C22.4811 22.8446 22.7379 22.5365 23.0973 22.5365H25.7163C26.0244 22.5365 26.3325 22.7933 26.3325 23.1528V46.5177C26.3325 50.5744 24.1244 52.9366 20.273 52.9366C19.0919 52.9366 18.1676 52.9366 15.5487 51.6528L10.1568 48.5717C8.82162 47.8015 8 46.3636 8 44.8231V21.15C8 19.6095 8.82162 18.1717 10.1568 17.4014L30.646 5.53919C31.9298 4.82027 33.6757 4.82027 34.9595 5.53919L55.4488 17.4014C56.7839 18.1717 57.6055 19.6095 57.6055 21.15V44.8231C57.6055 46.3636 56.7839 47.8015 55.4488 48.5717L34.9595 60.4339C34.292 60.742 33.5217 60.8961 32.8028 60.8961ZM39.119 44.6177C30.1325 44.6177 28.2838 40.5096 28.2838 37.0177C28.2838 36.7095 28.5406 36.4014 28.9001 36.4014H31.5703C31.8784 36.4014 32.1352 36.6068 32.1352 36.9149C32.546 39.6366 33.7271 40.9717 39.1704 40.9717C43.4839 40.9717 45.3325 39.996 45.3325 37.6852C45.3325 36.3501 44.819 35.3744 38.092 34.7068C32.4947 34.142 29.0028 32.9095 29.0028 28.442C29.0028 24.2825 32.4947 21.8176 38.3487 21.8176C44.9217 21.8176 48.1569 24.0771 48.5677 29.0068C48.5677 29.1609 48.5163 29.3149 48.4136 29.469C48.3109 29.5717 48.1569 29.6744 48.0028 29.6744H45.3325C45.0758 29.6744 44.819 29.469 44.7677 29.2122C44.1514 26.3879 42.5596 25.4636 38.3487 25.4636C33.6244 25.4636 33.0595 27.1068 33.0595 28.3393C33.0595 29.8284 33.7271 30.2906 40.0947 31.1122C46.4109 31.9339 49.3893 33.1149 49.3893 37.5312C49.3379 42.0501 45.6406 44.6177 39.119 44.6177Z" fill="#5E1DBB"/>
<path fill-rule="evenodd" clip-rule="evenodd" d="M28.2838 37.0177C28.2838 40.5096 30.1325 44.6177 39.119 44.6177C45.6406 44.6177 49.3379 42.0501 49.3893 37.5312C49.3893 33.1149 46.4109 31.9339 40.0947 31.1122C33.7271 30.2906 33.0595 29.8284 33.0595 28.3393C33.0595 27.1068 33.6244 25.4636 38.3487 25.4636C42.5596 25.4636 44.1514 26.3879 44.7677 29.2122C44.819 29.469 45.0758 29.6744 45.3325 29.6744H48.0028C48.1569 29.6744 48.3109 29.5717 48.4136 29.469C48.5163 29.3149 48.5677 29.1609 48.5677 29.0068C48.1569 24.0771 44.9217 21.8176 38.3487 21.8176C32.4947 21.8176 29.0028 24.2825 29.0028 28.442C29.0028 32.9095 32.4947 34.142 38.092 34.7068C44.819 35.3744 45.3325 36.3501 45.3325 37.6852C45.3325 39.996 43.4839 40.9717 39.1704 40.9717C33.7271 40.9717 32.546 39.6366 32.1352 36.9149C32.1352 36.6068 31.8784 36.4014 31.5703 36.4014H28.9001C28.5406 36.4014 28.2838 36.7095 28.2838 37.0177Z" fill="#FFE500"/>
</svg>
