<svg width="66" height="66" viewBox="0 0 66 66" fill="none" xmlns="http://www.w3.org/2000/svg">
<path d="M65.9355 36.0213C65.5007 37.8348 64.8168 39.3489 63.8835 40.5648C62.9502 41.7806 61.7913 42.6978 60.4071 43.3172C59.0226 43.9358 57.2616 44.2454 55.1226 44.2454C52.5287 44.2454 50.4085 43.868 48.7639 43.114C47.1187 42.3597 45.6997 41.0346 44.5055 39.1353C43.3116 37.2372 42.7145 34.8067 42.7145 31.8446C42.7145 27.8962 43.7651 24.8612 45.8654 22.7405C47.9656 20.6196 50.9382 19.5587 54.7812 19.5587C57.7879 19.5587 60.1514 20.1672 61.8722 21.3826C63.5929 22.5987 64.8709 24.4663 65.7066 26.9842L59.1935 28.4333C58.9661 27.7064 58.7271 27.174 58.4773 26.8379C58.0645 26.2734 57.5596 25.8389 56.9629 25.5353C56.3652 25.2316 55.6983 25.0789 54.9602 25.0789C53.2877 25.0789 52.0071 25.7514 51.1167 27.096C50.4445 28.0936 50.1078 29.6606 50.1078 31.7962C50.1078 34.4421 50.5093 36.2557 51.3119 37.2373C52.1159 38.2182 53.2449 38.7081 54.6997 38.7081C56.1106 38.7081 57.1774 38.3126 57.8994 37.5197C58.621 36.7279 59.1446 35.5764 59.4705 34.068L65.9355 36.0213ZM14.3944 26.6401C14.6908 27.8349 14.8388 29.1804 14.8388 30.6761C14.8388 32.3858 14.6377 33.862 14.2346 35.1058C13.8315 36.3495 13.2868 37.3765 12.6023 38.187C11.9178 38.9987 11.1164 39.6007 10.198 39.9942C9.28035 40.3873 8.3111 40.5844 7.29158 40.5844C6.06775 40.5844 5.00156 40.3635 4.09342 39.9208C3.18489 39.4791 2.4322 38.8406 1.83498 38.0051C1.23724 37.1698 0.792902 36.1523 0.501188 34.9526C0.209473 33.7529 0.0644531 32.4005 0.0644531 30.8945C0.0644531 29.2043 0.263871 27.738 0.662191 26.4943C1.05987 25.2508 1.60192 24.2238 2.28654 23.4128C2.97103 22.6019 3.77038 21.9994 4.68329 21.606C5.59621 21.2125 6.56326 21.016 7.58278 21.016C8.80662 21.016 9.8728 21.2395 10.7815 21.6863C11.6895 22.1329 12.4449 22.7716 13.0469 23.6023C13.6492 24.4325 14.0985 25.4451 14.3944 26.6401ZM12.1435 30.8655C12.1435 29.7486 12.0588 28.726 11.8889 27.7984C11.7184 26.8711 11.4439 26.0717 11.0649 25.4017C10.6865 24.7313 10.198 24.2119 9.60094 23.8425C9.0032 23.4732 8.28223 23.2889 7.43686 23.2889C6.62153 23.2889 5.91925 23.4856 5.33169 23.879C4.74362 24.2726 4.26061 24.8068 3.88162 25.4816C3.50316 26.157 3.22124 26.9485 3.03677 27.8568C2.85231 28.765 2.76014 29.729 2.76014 30.7489C2.76014 31.876 2.84702 32.9031 3.02234 33.8311C3.197 34.7583 3.47157 35.555 3.84579 36.2204C4.21936 36.8855 4.70237 37.4027 5.29534 37.772C5.88766 38.1413 6.60168 38.3254 7.43686 38.3254C8.25271 38.3254 8.95705 38.1291 9.5495 37.7358C10.1423 37.3422 10.6303 36.8083 11.014 36.1327C11.3979 35.4575 11.682 34.6685 11.8663 33.7651C12.0508 32.8615 12.1435 31.8953 12.1435 30.8655ZM29.1425 32.7452C29.1425 33.9596 28.9746 35.045 28.6403 36.002C28.3047 36.9582 27.8287 37.77 27.2116 38.4346C26.5952 39.1005 25.8447 39.6101 24.9608 39.9646C24.0769 40.3193 23.0813 40.4963 21.9739 40.4963C21.1092 40.4963 20.2258 40.4137 19.322 40.2486C18.4188 40.0834 17.5252 39.8218 16.6412 39.4617V19.7336H19.1762V25.4017L19.0599 28.1117C19.7879 27.1307 20.5679 26.4383 21.3988 26.0352C22.2287 25.6324 23.1201 25.4308 24.0722 25.4308C24.9074 25.4308 25.6407 25.6053 26.2721 25.9553C26.9036 26.3048 27.4327 26.798 27.8605 27.434C28.2883 28.07 28.6088 28.8379 28.8221 29.7361C29.0354 30.635 29.1425 31.638 29.1425 32.7452ZM26.5485 32.8615C26.5485 32.0946 26.4933 31.39 26.3813 30.7488C26.2698 30.1076 26.0923 29.559 25.8496 29.1023C25.6067 28.6458 25.2958 28.2888 24.9168 28.0312C24.5383 27.7742 24.0865 27.6453 23.5623 27.6453C23.2417 27.6453 22.9163 27.6962 22.5861 27.7983C22.2553 27.9001 21.9133 28.07 21.5584 28.3081C21.204 28.5465 20.83 28.8619 20.4364 29.2553C20.0435 29.6489 19.6231 30.1369 19.1761 30.7198V37.8158C19.6715 38.01 20.1769 38.1632 20.6915 38.2749C21.2061 38.3861 21.6971 38.4421 22.163 38.4421C22.7462 38.4421 23.3021 38.3499 23.8312 38.1654C24.3602 37.9811 24.8272 37.6722 25.2303 37.2402C25.6334 36.8081 25.954 36.2345 26.1919 35.5205C26.4295 34.8067 26.5485 33.9204 26.5485 32.8615ZM29.6716 27.7909H36.8409V40.147C36.8409 41.5068 36.5247 42.5368 35.893 43.2357C35.2617 43.9352 34.3926 44.2854 33.2857 44.2854C32.9356 44.2854 32.5759 44.2635 32.2071 44.2194C31.8383 44.1758 31.471 44.1106 31.1065 44.0228C30.7425 43.9352 30.3882 43.8287 30.0435 43.7021C29.6983 43.5762 29.375 43.4353 29.0743 43.2799V45.6985C29.6281 45.9319 30.2472 46.1139 30.9323 46.2453C31.617 46.3763 32.3186 46.4414 33.0375 46.4414C34.0287 46.4414 34.9197 46.3011 35.7114 46.0192C36.5032 45.7371 37.1705 45.3242 37.7146 44.7808C38.2582 44.2361 38.6769 43.5688 38.968 42.7769C39.259 41.9853 39.405 41.0798 39.405 40.0598V25.693H29.6716V27.7909ZM39.296 20.1414C39.116 19.9576 38.9048 19.8138 38.6618 19.7117C38.4191 19.6099 38.1569 19.5586 37.8755 19.5586C37.5934 19.5586 37.3307 19.6098 37.0885 19.7117C36.8451 19.8138 36.634 19.9576 36.4544 20.1414C36.2747 20.3261 36.1338 20.5402 36.0315 20.7828C35.9302 21.0257 35.8786 21.2832 35.8786 21.555C35.8786 21.837 35.93 22.0968 36.0315 22.3347C36.1338 22.5727 36.2749 22.7842 36.4544 22.9684C36.634 23.1531 36.8451 23.2962 37.0885 23.3981C37.3309 23.5004 37.5936 23.5511 37.8755 23.5511C38.1569 23.5511 38.4191 23.5004 38.6618 23.3981C38.9048 23.2962 39.1158 23.1531 39.296 22.9684C39.4751 22.7842 39.6166 22.5728 39.7178 22.3347C39.8203 22.0968 39.8711 21.837 39.8711 21.555C39.8711 21.2832 39.8202 21.0257 39.7178 20.7828C39.6166 20.5401 39.475 20.326 39.296 20.1414Z" fill="#9364ED"/>
<path fill-rule="evenodd" clip-rule="evenodd" d="M65.9355 36.0213C65.5007 37.8348 64.8168 39.3489 63.8835 40.5648C62.9502 41.7806 61.7913 42.6978 60.4071 43.3172C59.0226 43.9358 57.2616 44.2454 55.1226 44.2454C52.5287 44.2454 50.4085 43.868 48.7639 43.114C47.1187 42.3597 45.6997 41.0346 44.5055 39.1353C43.3116 37.2372 42.7145 34.8067 42.7145 31.8446C42.7145 27.8962 43.7651 24.8612 45.8654 22.7405C47.9656 20.6196 50.9382 19.5587 54.7812 19.5587C57.7879 19.5587 60.1514 20.1672 61.8722 21.3826C63.5929 22.5987 64.8709 24.4663 65.7066 26.9842L59.1935 28.4333C58.9661 27.7064 58.7271 27.174 58.4773 26.8379C58.0645 26.2734 57.5596 25.8389 56.9629 25.5353C56.3652 25.2316 55.6983 25.0789 54.9602 25.0789C53.2877 25.0789 52.0071 25.7514 51.1167 27.096C50.4445 28.0936 50.1078 29.6606 50.1078 31.7962C50.1078 34.4421 50.5093 36.2557 51.3119 37.2373C52.1159 38.2182 53.2449 38.7081 54.6997 38.7081C56.1106 38.7081 57.1774 38.3126 57.8994 37.5197C58.621 36.7279 59.1446 35.5764 59.4705 34.068L65.9355 36.0213Z" fill="#FFE500"/>
</svg>
