<svg width="66" height="66" viewBox="0 0 66 66" fill="none" xmlns="http://www.w3.org/2000/svg">
<path d="M5 53.0409V12.667C5 12.3924 5.11771 12.2354 5.39236 12.2354C6.05937 12.2354 6.68715 12.2354 7.58958 12.1962C8.53124 12.1569 9.51214 12.1569 10.5715 12.1177C11.6309 12.0785 12.7687 12.0785 13.9851 12.0392C15.2014 12 16.3785 12 17.5555 12C20.7729 12 23.4409 12.3924 25.6382 13.2163C27.6 13.8833 29.4048 14.9819 30.8958 16.4337C32.1513 17.6892 33.1322 19.2194 33.76 20.9066C34.3486 22.5545 34.6625 24.2416 34.6625 26.0073C34.6625 29.3816 33.8777 32.1673 32.3083 34.3645C30.7388 36.5618 28.5416 38.2097 25.9913 39.1513C23.3232 40.1322 20.3805 40.4854 17.1632 40.4854C16.2215 40.4854 15.5937 40.4854 15.2014 40.4461C14.809 40.4069 14.2597 40.4069 13.5142 40.4069V53.0017C13.5535 53.2763 13.3573 53.5117 13.0826 53.551C13.0434 53.551 13.0042 53.551 12.9257 53.551H5.47083C5.15694 53.551 5 53.394 5 53.0409ZM13.5535 19.808V32.9913C14.1028 33.0305 14.6128 33.0698 15.0837 33.0698H17.1632C18.6934 33.0698 20.2236 32.8343 21.6753 32.3635C22.9309 32.0104 24.0295 31.2649 24.8927 30.284C25.7166 29.3031 26.109 27.9691 26.109 26.2427C26.1482 25.0264 25.8343 23.81 25.2066 22.7507C24.5395 21.7305 23.5979 20.9458 22.46 20.5142C21.0083 19.9257 19.4389 19.6903 17.8302 19.7295C16.81 19.7295 15.9076 19.7295 15.1621 19.7687C14.3774 19.7295 13.8281 19.7687 13.5535 19.808Z" fill="#E2209E"/>
<path d="M59.1456 30.5968C57.9685 29.9691 56.713 29.5375 55.3789 29.2628C53.9272 28.9489 52.4755 28.7527 50.9845 28.7527C50.1998 28.7135 49.3758 28.8312 48.6303 29.0274C48.1203 29.1451 47.6887 29.4198 47.414 29.8121C47.2178 30.126 47.1001 30.5184 47.1001 30.8715C47.1001 31.2246 47.2571 31.5777 47.4925 31.8916C47.8456 32.3232 48.3164 32.6763 48.8265 32.951C49.7289 33.4218 50.6706 33.8534 51.6123 34.2458C53.731 34.952 55.7713 35.9329 57.6546 37.11C58.9494 37.934 60.0088 39.0326 60.7543 40.3666C61.3821 41.6222 61.6959 42.9954 61.6567 44.4079C61.6959 46.252 61.1466 48.0961 60.1265 49.6263C59.0279 51.1958 57.4977 52.4121 55.7321 53.1183C53.8095 53.9423 51.4553 54.3739 48.6303 54.3739C46.8255 54.3739 45.0599 54.2169 43.2942 53.8638C41.921 53.6284 40.5477 53.1968 39.2922 52.6083C39.0175 52.4513 38.8213 52.1767 38.8606 51.8628V45.0357C38.8606 44.918 38.8998 44.7611 39.0175 44.6826C39.1352 44.6041 39.2529 44.6433 39.3706 44.7218C40.9008 45.6242 42.5095 46.252 44.2359 46.6444C45.7269 47.0367 47.2963 47.2329 48.8658 47.2329C50.3567 47.2329 51.4161 47.0367 52.1223 46.6836C52.7501 46.409 53.1817 45.742 53.1817 45.0357C53.1817 44.4864 52.8678 43.9763 52.2401 43.4663C51.6123 42.9562 50.3175 42.3677 48.3949 41.6222C46.3939 40.9159 44.5498 39.9743 42.8234 38.7972C41.6071 37.934 40.5869 36.7961 39.8415 35.4621C39.2137 34.2066 38.8998 32.8333 38.939 31.46C38.939 29.7729 39.4099 28.1642 40.2731 26.7125C41.254 25.143 42.7057 23.8875 44.3928 23.1028C46.2369 22.1611 48.5519 21.7295 51.3376 21.7295C52.9463 21.7295 54.5942 21.8472 56.2029 22.0826C57.38 22.2396 58.5178 22.5534 59.5772 22.985C59.7341 23.0243 59.8911 23.1812 59.9696 23.3382C60.0088 23.4951 60.048 23.6521 60.048 23.809V30.2045C60.048 30.3614 59.9696 30.5184 59.8519 30.5968C59.4987 30.6753 59.3025 30.6753 59.1456 30.5968Z" fill="#F7E439"/>
</svg>
