<svg width="66" height="66" viewBox="0 0 66 66" fill="none" xmlns="http://www.w3.org/2000/svg">
<path d="M33.0189 38.1396C35.7908 38.1396 38.0379 35.8698 38.0379 33.0698C38.0379 30.2698 35.7908 28 33.0189 28C30.2471 28 28 30.2698 28 33.0698C28 35.8698 30.2471 38.1396 33.0189 38.1396Z" fill="#FFE500"/>
<path d="M32.9309 43.14C47.8044 43.14 59.8617 38.4897 59.8617 32.7531C59.8617 27.0166 47.8044 22.3662 32.9309 22.3662C18.0574 22.3662 6 27.0166 6 32.7531C6 38.4897 18.0574 43.14 32.9309 43.14Z" stroke="#07CBF5" stroke-width="3"/>
<path d="M24.0258 37.9461C31.4626 50.9575 41.4782 59.1801 46.3963 56.3119C51.3144 53.4436 49.2727 40.5706 41.8359 27.5592C34.3992 14.5478 24.3836 6.32519 19.4654 9.19346C14.5473 12.0617 16.589 24.9347 24.0258 37.9461Z" stroke="#07CBF5" stroke-width="3"/>
<path d="M24.0258 27.559C16.5891 40.5704 14.5473 53.4434 19.4654 56.3117C24.3836 59.1799 34.3992 50.9573 41.836 37.9459C49.2727 24.9345 51.3145 12.0615 46.3963 9.19326C41.4782 6.32499 31.4626 14.5476 24.0258 27.559Z" stroke="#07CBF5" stroke-width="3"/>
</svg>
