<svg width="66" height="66" viewBox="0 0 66 66" fill="none" xmlns="http://www.w3.org/2000/svg">
<path d="M8.94351 22.6791L7 25.2951H16.5081L17.233 11.5635L8.94351 22.6791ZM47.6904 10.4395L34.1795 9L48.4362 24.4651L47.6904 10.4395ZM17.8423 28.5731L16.6656 26.2616H7.09461L30.723 53.7564L17.8423 28.5731ZM18.0524 25.2951H47.89L39.3275 15.9972L32.9819 9.10522L18.0524 25.2951ZM49.2873 26.2513L35.2196 53.7564L58.8375 26.2616H49.2873V26.2513ZM49.6971 12.8874L48.7094 11.5635L48.8039 13.3812L49.4449 25.2951H58.9321L49.6971 12.8874ZM17.9789 15.4614L17.4957 24.4546L31.7631 9L18.252 10.4395L17.9789 15.4614ZM48.2053 26.2513H17.7373L22.1919 34.9608L32.9817 56.0679L48.2053 26.2513Z" fill="#E2209E"/>
<path fill-rule="evenodd" clip-rule="evenodd" d="M47.89 25.2951H18.0524L32.9819 9.10522L39.3275 15.9972L47.89 25.2951Z" fill="#FFE500"/>
</svg>
