<svg width="65" height="65" viewBox="0 0 65 65" fill="none" xmlns="http://www.w3.org/2000/svg">
<path d="M54.4657 41.8124C54.5889 41.5559 54.5889 41.3113 54.7222 41.0564C57.7445 29.1899 50.5557 15.3119 38.1897 8C43.6117 15.3119 45.7565 24.0228 43.8665 31.8461C43.745 32.4789 43.4885 33.2349 43.2337 33.866C42.8911 33.6719 42.5502 33.4627 42.2229 33.2332C42.2229 33.2332 29.9868 25.6664 16.8648 12.4111C16.4868 12.0331 23.9321 23.0103 32.2548 31.7212C28.3449 29.4464 17.2428 21.5 10.2987 15.0672C11.0547 16.4459 12.1972 17.8347 13.3312 19.2252C19.1311 26.6688 26.708 35.756 35.7884 42.6899C29.354 46.61 20.3984 46.8564 11.3112 42.6899C9.04325 41.6892 7.14481 40.4219 5 38.9116C8.78844 44.8432 14.72 50.2651 21.7872 53.1676C30.2433 56.8312 38.8192 56.5764 44.9988 53.1676H45.1321C45.3768 53.0444 45.6333 52.9111 45.8881 52.6664C48.9121 51.146 54.8437 49.5125 58.1208 55.8204C59.0101 57.5872 60.6453 49.3876 54.4657 41.8124Z" fill="#9364ED"/>
</svg>
