<svg width="66" height="66" viewBox="0 0 66 66" fill="none" xmlns="http://www.w3.org/2000/svg">
<path d="M35.5379 16.5322L25.168 33.6424L36.2292 51.7896C36.2983 51.9279 36.3329 52.0662 36.2983 52.2044C36.2638 52.3427 36.1255 52.239 35.9181 52.2735H28.0025C27.4494 52.2735 27.0692 52.239 26.8272 51.8933C26.1013 50.4415 25.3409 49.0243 24.615 47.5726C23.8891 46.1553 23.0941 44.7036 22.2645 43.2172C21.4349 41.7309 20.6053 40.2445 19.7757 38.7236H19.7066C18.9807 40.21 18.1857 41.6963 17.3907 43.1827C16.5956 44.669 15.8006 46.1553 15.0402 47.6071C14.2451 49.0589 13.4501 50.5452 12.6551 51.9625C12.5168 52.3081 12.2403 52.3427 11.8601 52.3427H4.25552C4.11726 52.3427 4.01356 52.4118 4.01356 52.239C3.97899 52.1007 4.01356 51.9625 4.08269 51.8588L14.8328 34.23L4.35922 16.4976C4.25552 16.3593 4.22096 16.2211 4.29009 16.1519C4.35922 16.0482 4.49749 16.0137 4.63575 16.0137H12.4823C12.6551 16.0137 12.8279 16.0482 12.9662 16.0828C13.1045 16.1519 13.2082 16.2556 13.3119 16.3939C13.9686 17.8802 14.7291 19.3666 15.5241 20.8529C16.3537 22.3393 17.1487 23.7911 18.0128 25.2428C18.8424 26.6946 19.6029 28.1464 20.3288 29.6327H20.3979C21.1238 28.1118 21.8843 26.6255 22.6447 25.1737C23.4052 23.7219 24.2002 22.2701 24.9952 20.8184C25.7902 19.3666 26.5507 17.8802 27.3111 16.463C27.3457 16.3248 27.4148 16.1865 27.5185 16.1174C27.6568 16.0482 27.7951 16.0137 27.9679 16.0482H35.2613C35.4342 16.0137 35.607 16.1174 35.6416 16.2902C35.6761 16.3248 35.607 16.463 35.5379 16.5322Z" fill="#E2209E"/>
<path d="M51.5074 52.9984C48.9495 53.0329 46.3916 52.5145 44.0757 51.4429C41.898 50.4405 40.1006 48.7813 38.8562 46.7419C37.5773 44.6334 36.9551 42.0064 36.9551 38.8608C36.9205 36.3029 37.5773 33.7796 38.8562 31.5674C40.1697 29.3206 42.0709 27.454 44.3522 26.2096C46.7719 24.8616 49.6754 24.2048 53.0975 24.2048C53.2703 24.2048 53.5123 24.2048 53.8234 24.2394C54.1345 24.2739 54.4801 24.2739 54.8949 24.3085V13.3856C54.8949 13.1436 54.9986 13.0054 55.2406 13.0054H62.2575C62.4303 12.9708 62.5686 13.1091 62.6032 13.2473C62.6032 13.2819 62.6032 13.3165 62.6032 13.3165V46.2234C62.6032 46.8456 62.6377 47.5369 62.6723 48.2974C62.7414 49.0233 62.776 49.7146 62.8106 50.3022C62.8106 50.5442 62.7069 50.7516 62.4649 50.8553C60.6675 51.6157 58.7663 52.1688 56.8306 52.5145C55.0677 52.8256 53.3049 52.9984 51.5074 52.9984ZM54.8949 46.0852V30.8761C54.5838 30.8069 54.2727 30.7378 53.9616 30.7032C53.5814 30.6687 53.2012 30.6341 52.8209 30.6341C51.4729 30.6341 50.1248 30.9106 48.915 31.5328C47.7397 32.1204 46.7373 32.9846 45.9769 34.0907C45.2164 35.1968 44.8362 36.6832 44.8362 38.4806C44.8016 39.6904 45.009 40.9002 45.4238 42.0409C45.7695 42.9742 46.2879 43.8038 46.9793 44.4951C47.636 45.1173 48.4311 45.6012 49.3298 45.8778C50.2631 46.1889 51.2309 46.3271 52.1988 46.3271C52.7172 46.3271 53.2012 46.2926 53.6505 46.258C54.0999 46.2926 54.4801 46.2234 54.8949 46.0852Z" fill="#FFE500"/>
</svg>
