<svg width="236" height="81" viewBox="0 0 236 81" fill="none" xmlns="http://www.w3.org/2000/svg">
<path opacity="0.3" fill-rule="evenodd" clip-rule="evenodd" d="M29.6912 16.0973C27.7386 14.1447 24.5728 14.1447 22.6201 16.0973L15.4385 23.2789C21.9059 27.6931 30.4764 27.7282 36.9769 23.383L29.6912 16.0973ZM38.057 24.4631L44.1907 30.5968C43.3161 32.0836 42.2406 33.4848 40.9642 34.7612C38.9261 36.7993 36.5758 38.3264 34.0697 39.3426C33.2843 39.6611 32.4836 39.9294 31.6725 40.1475C32.4836 40.3656 33.2843 40.6339 34.0697 40.9523C36.5758 41.9686 38.9263 43.4957 40.9644 45.5339C42.244 46.8134 43.3215 48.2184 44.1971 49.7091L38.0677 55.8385C30.9495 50.9241 21.4343 50.9594 14.3508 55.9457L8.2784 49.8733C9.17085 48.3214 10.2803 46.8602 11.6066 45.5339C13.6447 43.4958 15.9951 41.9686 18.5012 40.9524C19.2866 40.6339 20.0872 40.3657 20.8984 40.1476C20.0872 39.9295 19.2866 39.6612 18.5012 39.3427C15.995 38.3265 13.6446 36.7993 11.6065 34.7612C10.2831 33.4379 9.17588 31.9805 8.28469 30.4327L14.3603 24.3571C21.4395 29.3331 30.9433 29.3689 38.057 24.4631ZM7.18896 31.5285L2.09679 36.6206C0.14417 38.5732 0.144168 41.7391 2.09679 43.6917L7.18251 48.7774C8.1028 47.2426 9.22408 45.7951 10.546 44.4732C12.3682 42.651 14.4254 41.2086 16.6194 40.1476C14.4254 39.0865 12.3681 37.6441 10.5458 35.8218C9.22698 34.503 8.10791 33.0592 7.18896 31.5285ZM15.4288 57.0237L22.6201 64.215C24.5728 66.1676 27.7386 66.1676 29.6912 64.215L36.9878 56.9184C30.4825 52.5647 21.9007 52.5995 15.4288 57.0237ZM45.2905 48.6157L50.2145 43.6917C52.1672 41.7391 52.1672 38.5732 50.2145 36.6206L45.2839 31.69C44.3837 33.1609 43.2972 34.5495 42.0249 35.8218C40.2027 37.6441 38.1455 39.0864 35.9514 40.1475C38.1455 41.2086 40.2028 42.651 42.0251 44.4732C43.3005 45.7486 44.3891 47.1409 45.2905 48.6157Z" fill="white"/>
<path fill-rule="evenodd" clip-rule="evenodd" d="M46.6562 24.0899L42.3743 20.4805C41.9356 21.0171 41.4655 21.5374 40.9642 22.0386C32.863 30.1412 19.7069 30.1405 11.6057 22.0393L6.07198 24.8208C6.92171 28.4634 8.76651 31.9208 11.6064 34.7606C14.2832 37.4375 17.4988 39.233 20.8983 40.147C17.4989 41.0611 14.2834 42.8565 11.6066 45.5333C8.57783 48.5621 6.68007 52.2937 5.91455 56.2041L10.1964 59.8135C10.6352 59.2769 11.1052 58.7566 11.6066 58.2554C19.7078 50.1527 32.8639 50.1534 40.9651 58.2546L46.4987 55.4732C45.649 51.8305 43.8042 48.3732 40.9643 45.5333C38.2875 42.8565 35.0719 41.061 31.6724 40.1469C35.0719 39.2329 38.2873 37.4374 40.9642 34.7606C43.9929 31.7319 45.8907 28.0002 46.6562 24.0899Z" fill="#FFE500"/>
<path d="M10.1919 59.813C8.56781 61.7997 5.3666 60.4705 5.64781 57.9206C5.71103 57.3453 5.79863 56.7727 5.91 56.2035L8.02466 58L10.1919 59.813Z" fill="#BDA41C"/>
<path d="M37.9562 48.8381C40.4574 51.3394 42.5425 53.8496 43.5245 57L46.5245 55.5C45.6537 51.8362 43.9811 48.5465 41.1144 45.6799C32.908 37.4735 19.7479 37.4117 11.6182 45.5414C11.0855 46.0741 10.5888 46.6293 10.1266 47.2033C18.2994 40.6143 30.2893 41.1713 37.9562 48.8381Z" fill="#D2B82F"/>
<path d="M46.914 57.9202C47.1952 60.47 43.994 61.7993 42.3706 59.8132C41.9319 59.2752 41.4618 58.755 40.9606 58.2537L43.5248 56.8996L46.4942 55.4723C46.6831 56.2805 46.823 57.0983 46.914 57.9202Z" fill="#BDA41C"/>
<path d="M14.7602 31.6023C12.2822 29.1244 10.5621 26.1764 9.59941 23.0453L6.06748 24.8207C6.91716 28.4633 8.762 31.9207 11.6019 34.7606C19.7316 42.8903 32.8299 42.8903 40.9596 34.7606C41.4924 34.2279 41.9894 33.673 42.4521 33.0995C34.2866 39.6959 22.3553 39.1975 14.7602 31.6023Z" fill="#D2B82F"/>
<path d="M41.2991 29.2621C37.2768 33.2844 31.943 35.4996 26.2805 35.4995C20.6179 35.4995 15.284 33.284 11.2614 29.2614C10.6676 28.6676 10.1038 28.0338 9.58574 27.3774C9.42136 27.1691 9.45735 26.8668 9.66515 26.7029C9.87342 26.5385 10.1754 26.5741 10.3397 26.7823C10.8346 27.4094 11.3732 28.015 11.9405 28.5823C15.7817 32.4235 20.8744 34.539 26.2804 34.5391C31.6864 34.5391 36.7788 32.4239 40.6197 28.583C41.0104 28.1923 41.3916 27.7785 41.7526 27.3532C41.9244 27.1512 42.2274 27.1262 42.4296 27.2978C42.6319 27.4695 42.6567 27.7725 42.485 27.9748C42.1072 28.4198 41.7082 28.853 41.2991 29.2621Z" fill="#74640E"/>
<path d="M42.3696 20.48C43.9937 18.4933 47.1949 19.8225 46.9137 22.3724C46.8505 22.9477 46.7629 23.5203 46.6515 24.0895L44.5246 22.3725L42.3696 20.48Z" fill="#BDA41C"/>
<path d="M5.64749 22.3728C5.36632 19.823 8.56753 18.4937 10.1909 20.4797C10.6297 21.0177 11.0997 21.538 11.601 22.0393L10.0244 23.0005L6.06729 24.8207C5.87838 24.0124 5.73849 23.1946 5.64749 22.3728Z" fill="#BDA41C"/>
<g clip-path="url(#clip0_1333_1111)">
<path d="M11.0427 51.1774C15.065 47.155 20.3988 44.9399 26.0613 44.9399C31.7239 44.94 37.0578 47.1554 41.0804 51.178C41.6741 51.7718 42.238 52.4057 42.7561 53.0621C42.9204 53.2704 42.8844 53.5726 42.6767 53.7366C42.4684 53.901 42.1664 53.8654 42.0021 53.6572C41.5072 53.0301 40.9686 52.4245 40.4013 51.8572C36.5601 48.016 31.4674 45.9005 26.0614 45.9004C20.6554 45.9003 15.563 48.0156 11.7221 51.8564C11.3314 52.2472 10.9502 52.6609 10.5892 53.0863C10.4174 53.2882 10.1144 53.3133 9.91218 53.1416C9.70994 52.97 9.68512 52.6669 9.85683 52.4646C10.2346 52.0196 10.6336 51.5864 11.0427 51.1774Z" fill="#74640E"/>
</g>
<path d="M68.2256 27.176C68.2256 26.9474 68.2764 26.7695 68.378 26.6425C68.4924 26.5027 68.6575 26.4329 68.8735 26.4329H74.9329C75.9238 26.4329 76.832 26.598 77.6578 26.9283C78.4835 27.2586 79.1885 27.7223 79.7728 28.3193C80.3699 28.9037 80.8272 29.6023 81.1448 30.4153C81.4751 31.2157 81.6402 32.0922 81.6402 33.0449V34.9314C81.6402 35.4649 81.5513 35.973 81.3735 36.4557C81.1956 36.9258 80.9669 37.3513 80.6875 37.7324C80.4207 38.1008 80.1222 38.4057 79.7919 38.6471C79.4616 38.8884 79.144 39.0409 78.8392 39.1044C79.1059 39.1806 79.4235 39.333 79.7919 39.5617C80.1603 39.7904 80.516 40.1079 80.859 40.5144C81.202 40.9209 81.4878 41.4291 81.7164 42.0388C81.9578 42.6359 82.0785 43.3473 82.0785 44.173V46.5358C82.0785 47.4631 81.8943 48.3142 81.5259 49.0891C81.1702 49.8513 80.6875 50.5119 80.0777 51.0708C79.468 51.6171 78.7693 52.0426 77.9817 52.3475C77.1941 52.6524 76.3747 52.8048 75.5236 52.8048H68.8735C68.4415 52.8048 68.2256 52.5635 68.2256 52.0808V27.176ZM72.9321 41.3338V48.2126H74.9138C75.2568 48.2126 75.5554 48.1491 75.8094 48.0221C76.0635 47.895 76.2794 47.7299 76.4573 47.5266C76.6351 47.3107 76.7685 47.0757 76.8574 46.8216C76.9464 46.5548 76.9908 46.2944 76.9908 46.0404V43.7157C76.9908 43.3092 76.9273 42.9598 76.8003 42.6676C76.686 42.3628 76.5272 42.115 76.3239 41.9245C76.1334 41.7212 75.9047 41.5752 75.6379 41.4862C75.3712 41.3846 75.098 41.3338 74.8186 41.3338H72.9321ZM72.9321 31.0632V37.237H74.609C74.8122 37.237 75.0409 37.2116 75.2949 37.1608C75.5617 37.0973 75.8031 36.9893 76.019 36.8368C76.2477 36.6844 76.4382 36.4748 76.5907 36.208C76.7431 35.9413 76.8193 35.6046 76.8193 35.1981V33.3307C76.8193 32.5304 76.6161 31.9524 76.2096 31.5968C75.8031 31.2411 75.2886 31.0632 74.6661 31.0632H72.9321Z" fill="white"/>
<path d="M98.1562 52.8048C97.9657 52.8048 97.8132 52.7286 97.6989 52.5762C97.5973 52.4237 97.5465 52.2459 97.5465 52.0426V46.5167H93.4878V52.0617C93.4878 52.2777 93.4497 52.4555 93.3734 52.5952C93.2972 52.735 93.1448 52.8048 92.9161 52.8048H88.8956C88.7558 52.8048 88.6351 52.735 88.5335 52.5952C88.4446 52.4428 88.4001 52.2649 88.4001 52.0617V32.6257C88.4001 31.7111 88.5907 30.8536 88.9718 30.0533C89.3529 29.253 89.8674 28.5543 90.5152 27.9573C91.1758 27.3475 91.9316 26.8711 92.7827 26.5282C93.6466 26.1852 94.5549 26.0137 95.5076 26.0137C96.4603 26.0137 97.3686 26.1852 98.2324 26.5282C99.0963 26.8711 99.8521 27.3475 100.5 27.9573C101.148 28.5543 101.662 29.253 102.043 30.0533C102.437 30.8536 102.634 31.7111 102.634 32.6257V52.0426C102.634 52.2332 102.583 52.411 102.482 52.5762C102.393 52.7286 102.24 52.8048 102.024 52.8048H98.1562ZM93.4878 42.0769H97.5465V32.9115C97.5465 32.6067 97.502 32.3208 97.4131 32.0541C97.3242 31.7746 97.1908 31.5332 97.0129 31.33C96.8478 31.114 96.6382 30.9425 96.3841 30.8155C96.1301 30.6885 95.8442 30.625 95.5267 30.625C95.1964 30.625 94.9042 30.6885 94.6501 30.8155C94.4088 30.9425 94.1992 31.114 94.0213 31.33C93.8435 31.5332 93.7101 31.7746 93.6212 32.0541C93.5322 32.3208 93.4878 32.6067 93.4878 32.9115V42.0769Z" fill="white"/>
<path d="M114.825 52.0617C114.825 52.2777 114.78 52.4555 114.691 52.5952C114.615 52.735 114.469 52.8048 114.253 52.8048H110.232C110.093 52.8048 109.972 52.735 109.87 52.5952C109.781 52.4428 109.737 52.2649 109.737 52.0617V32.6257C109.737 31.7111 109.928 30.8536 110.309 30.0533C110.69 29.253 111.204 28.5543 111.852 27.9573C112.513 27.3475 113.269 26.8711 114.12 26.5282C114.983 26.1852 115.892 26.0137 116.844 26.0137C117.797 26.0137 118.706 26.1852 119.569 26.5282C120.433 26.8711 121.189 27.3475 121.837 27.9573C122.485 28.5543 122.999 29.253 123.38 30.0533C123.774 30.8536 123.971 31.7111 123.971 32.6257V52.0426C123.971 52.2332 123.92 52.411 123.819 52.5762C123.73 52.7286 123.577 52.8048 123.361 52.8048H119.493C119.303 52.8048 119.15 52.7286 119.036 52.5762C118.934 52.4237 118.883 52.2459 118.883 52.0426V32.9115C118.883 32.6067 118.839 32.3208 118.75 32.0541C118.661 31.7746 118.528 31.5332 118.35 31.33C118.185 31.114 117.975 30.9425 117.721 30.8155C117.467 30.6885 117.181 30.625 116.864 30.625C116.533 30.625 116.241 30.6885 115.987 30.8155C115.746 30.9425 115.536 31.114 115.358 31.33C115.18 31.5332 115.047 31.7746 114.958 32.0541C114.869 32.3208 114.825 32.6067 114.825 32.9115V52.0617Z" fill="white"/>
<path d="M140.83 52.8048C140.639 52.8048 140.487 52.7286 140.373 52.5762C140.271 52.4237 140.22 52.2459 140.22 52.0426V46.5167H136.162V52.0617C136.162 52.2777 136.123 52.4555 136.047 52.5952C135.971 52.735 135.819 52.8048 135.59 52.8048H131.569C131.43 52.8048 131.309 52.735 131.207 52.5952C131.118 52.4428 131.074 52.2649 131.074 52.0617V32.6257C131.074 31.7111 131.264 30.8536 131.646 30.0533C132.027 29.253 132.541 28.5543 133.189 27.9573C133.85 27.3475 134.605 26.8711 135.457 26.5282C136.32 26.1852 137.229 26.0137 138.181 26.0137C139.134 26.0137 140.042 26.1852 140.906 26.5282C141.77 26.8711 142.526 27.3475 143.174 27.9573C143.822 28.5543 144.336 29.253 144.717 30.0533C145.111 30.8536 145.308 31.7111 145.308 32.6257V52.0426C145.308 52.2332 145.257 52.411 145.155 52.5762C145.067 52.7286 144.914 52.8048 144.698 52.8048H140.83ZM136.162 42.0769H140.22V32.9115C140.22 32.6067 140.176 32.3208 140.087 32.0541C139.998 31.7746 139.865 31.5332 139.687 31.33C139.522 31.114 139.312 30.9425 139.058 30.8155C138.804 30.6885 138.518 30.625 138.2 30.625C137.87 30.625 137.578 30.6885 137.324 30.8155C137.083 30.9425 136.873 31.114 136.695 31.33C136.517 31.5332 136.384 31.7746 136.295 32.0541C136.206 32.3208 136.162 32.6067 136.162 32.9115V42.0769Z" fill="white"/>
<path d="M157.498 52.0617C157.498 52.2777 157.454 52.4555 157.365 52.5952C157.289 52.735 157.143 52.8048 156.927 52.8048H152.906C152.766 52.8048 152.646 52.735 152.544 52.5952C152.455 52.4428 152.411 52.2649 152.411 52.0617V32.6257C152.411 31.7111 152.601 30.8536 152.982 30.0533C153.364 29.253 153.878 28.5543 154.526 27.9573C155.186 27.3475 155.942 26.8711 156.793 26.5282C157.657 26.1852 158.566 26.0137 159.518 26.0137C160.471 26.0137 161.379 26.1852 162.243 26.5282C163.107 26.8711 163.863 27.3475 164.511 27.9573C165.159 28.5543 165.673 29.253 166.054 30.0533C166.448 30.8536 166.645 31.7111 166.645 32.6257V52.0426C166.645 52.2332 166.594 52.411 166.492 52.5762C166.403 52.7286 166.251 52.8048 166.035 52.8048H162.167C161.976 52.8048 161.824 52.7286 161.71 52.5762C161.608 52.4237 161.557 52.2459 161.557 52.0426V32.9115C161.557 32.6067 161.513 32.3208 161.424 32.0541C161.335 31.7746 161.201 31.5332 161.024 31.33C160.858 31.114 160.649 30.9425 160.395 30.8155C160.141 30.6885 159.855 30.625 159.537 30.625C159.207 30.625 158.915 30.6885 158.661 30.8155C158.419 30.9425 158.21 31.114 158.032 31.33C157.854 31.5332 157.721 31.7746 157.632 32.0541C157.543 32.3208 157.498 32.6067 157.498 32.9115V52.0617Z" fill="white"/>
<path d="M171.846 49.0126C171.846 48.7713 171.903 48.5934 172.018 48.4791C172.132 48.3648 172.259 48.3076 172.399 48.3076H175.924C176.165 48.3076 176.324 48.3902 176.4 48.5553C176.477 48.7205 176.515 48.8729 176.515 49.0126V52.1376C176.515 52.3917 176.438 52.5696 176.286 52.6712C176.134 52.7601 176.013 52.8046 175.924 52.8046H172.418C172.329 52.8046 172.208 52.7601 172.056 52.6712C171.916 52.5823 171.846 52.4044 171.846 52.1376V49.0126Z" fill="white"/>
<path d="M181.64 27.1758C181.64 26.9471 181.697 26.7693 181.812 26.6422C181.926 26.5025 182.085 26.4326 182.288 26.4326H188.9C189.891 26.4453 190.806 26.5978 191.644 26.8899C192.495 27.1821 193.232 27.614 193.854 28.1857C194.477 28.7573 194.966 29.4623 195.322 30.3008C195.677 31.1392 195.855 32.1046 195.855 33.1971V46.0401C195.855 47.1326 195.677 48.098 195.322 48.9364C194.966 49.7748 194.477 50.4799 193.854 51.0515C193.232 51.6232 192.495 52.0551 191.644 52.3473C190.806 52.6394 189.904 52.7919 188.938 52.8046H182.288C181.856 52.8046 181.64 52.5632 181.64 52.0805V27.1758ZM186.709 31.063V48.2123H188.69C189.008 48.1996 189.294 48.1361 189.548 48.0218C189.815 47.8948 190.037 47.7296 190.215 47.5264C190.393 47.3104 190.532 47.069 190.634 46.8023C190.736 46.5228 190.786 46.2179 190.786 45.8876V33.4067C190.786 32.6064 190.583 32.0157 190.177 31.6346C189.77 31.2535 189.243 31.063 188.595 31.063H186.709Z" fill="#FFE500"/>
<path d="M202.863 27.1758C202.863 26.9471 202.92 26.7693 203.034 26.6422C203.149 26.5025 203.307 26.4326 203.511 26.4326H214.905C215.261 26.4326 215.439 26.6676 215.439 27.1376V30.377C215.439 30.8343 215.261 31.063 214.905 31.063H207.931V37.1796H213.495C213.66 37.1796 213.8 37.2304 213.915 37.332C214.042 37.4336 214.105 37.6051 214.105 37.8465V41.1049C214.105 41.3335 214.048 41.4987 213.934 41.6003C213.819 41.7019 213.673 41.7527 213.495 41.7527H207.931V48.2123H215.001C215.153 48.2123 215.28 48.2695 215.382 48.3838C215.496 48.4855 215.553 48.6443 215.553 48.8602V52.1376C215.553 52.3663 215.496 52.5378 215.382 52.6521C215.28 52.7538 215.153 52.8046 215.001 52.8046H203.511C203.079 52.8046 202.863 52.5632 202.863 52.0805V27.1758Z" fill="#FFE500"/>
<path d="M230.564 52.1376C230.45 52.5823 230.208 52.8046 229.84 52.8046H226.81C226.429 52.8046 226.181 52.5823 226.067 52.1376L220.77 27.1758C220.719 26.9471 220.719 26.7693 220.77 26.6422C220.833 26.5025 220.954 26.4326 221.132 26.4326H224.962C225.152 26.4326 225.317 26.4834 225.457 26.5851C225.61 26.6867 225.699 26.8455 225.724 27.0614L228.125 42.3625L228.315 44.5919L228.525 42.3625L230.907 27.0614C230.932 26.8455 231.021 26.6867 231.174 26.5851C231.326 26.4834 231.491 26.4326 231.669 26.4326H235.499C235.677 26.4326 235.791 26.4961 235.842 26.6232C235.906 26.7502 235.912 26.9217 235.861 27.1376L230.564 52.1376Z" fill="#FFE500"/>
<defs>
<clipPath id="clip0_1333_1111">
<rect width="34.7001" height="34.7001" fill="white" transform="translate(50.5977 55.5371) rotate(135)"/>
</clipPath>
</defs>
</svg>
