<svg width="80" height="78" viewBox="0 0 80 78" fill="none" xmlns="http://www.w3.org/2000/svg">
<g clip-path="url(#clip0_508_9769)">
<path d="M16.1006 26.3875C14.4999 22.7116 8.58129 23.7439 7.69638 27.8615C7.49633 28.7905 7.33749 29.7233 7.21916 30.6587L12.8441 33.285L16.1006 26.3875Z" fill="#BDA41C"/>
<path d="M74.9645 41.596C76.7662 37.6656 72.2481 34.5024 68.5556 37.0963C67.5569 37.7993 66.5166 38.4639 65.4354 39.0881L67.6579 43.8657L72.9906 45.3194C73.7244 44.1067 74.3832 42.8627 74.9645 41.596Z" fill="#BDA41C"/>
<path d="M16.1006 26.3879L7.21916 30.6589C6.40702 37.0847 7.53466 43.6054 10.8762 49.3932C19.8457 64.9288 41.1974 69.2883 58.7326 59.1644C64.858 55.6279 69.6866 50.7858 72.9907 45.32L65.4356 39.0887C47.9619 49.1771 26.5157 44.7995 17.5784 29.3162C17.0253 28.3583 16.5331 27.3808 16.1006 26.3879Z" fill="#FFE500"/>
<path d="M55.2479 53.129C60.5926 50.0433 64.9496 45.9635 68.1684 41.3427L72.9905 45.32C69.6865 50.7857 64.8578 55.6279 58.7324 59.1644C41.1972 69.2883 19.8455 64.9288 10.876 49.3932C10.2883 48.3752 9.77046 47.3341 9.31824 46.2751C19.1538 59.4028 38.8657 62.5873 55.2479 53.129Z" fill="#D2B82F"/>
<path d="M13.2187 40.6043C17.6565 48.2908 25.1842 53.5619 34.4148 55.4464C43.6454 57.331 53.5073 55.6101 62.1838 50.6007C63.4645 49.8613 64.7175 49.0486 65.9079 48.1851C66.2856 47.9112 66.3861 47.4222 66.1338 47.0942C65.8809 46.7655 65.3699 46.7212 64.9924 46.995C63.8552 47.82 62.6582 48.5964 61.4345 49.3029C53.1494 54.0863 43.7333 55.7299 34.9208 53.9308C26.1085 52.1316 18.9216 47.0985 14.684 39.7588C14.253 39.0122 13.8496 38.2323 13.4851 37.4409C13.3115 37.065 12.8308 36.9246 12.4107 37.1282C11.9906 37.3318 11.7905 37.8018 11.9638 38.1782C12.3451 39.0062 12.7674 39.8226 13.2187 40.6043Z" fill="#74640E"/>
</g>
<defs>
<clipPath id="clip0_508_9769">
<rect width="54.1422" height="61.111" fill="white" transform="matrix(-0.5 -0.866025 -0.866025 0.5 79.9948 46.8887)"/>
</clipPath>
</defs>
</svg>
