<svg width="78" height="80" viewBox="0 0 78 80" fill="none" xmlns="http://www.w3.org/2000/svg">
<g clip-path="url(#clip0_558_9900)">
<path d="M11.8597 41.2637C8.6355 38.8806 4.02598 42.7339 5.31845 46.7423C5.60968 47.6469 5.93851 48.5341 6.30372 49.4033L12.4882 48.8653L11.8597 41.2637Z" fill="#BDA41C"/>
<path d="M70.4417 25.0029C70.0367 20.6983 64.5424 20.2179 62.6415 24.3105C62.1281 25.4187 61.5595 26.5144 60.9353 27.5956L65.2488 30.6218L70.5939 29.2144C70.623 27.7973 70.5716 26.3905 70.4417 25.0029Z" fill="#BDA41C"/>
<path d="M11.8597 41.2637L6.30363 49.4032C8.81319 55.3742 13.0501 60.4575 18.8379 63.7991C34.3735 72.7685 55.0443 65.8681 65.1683 48.3329C68.7048 42.2075 70.4654 35.5999 70.594 29.2143L60.9354 27.5954C50.847 45.0691 30.0852 52.0011 14.6036 43.0607C13.6457 42.5078 12.7306 41.9073 11.8597 41.2637Z" fill="#FFE500"/>
<path d="M59.1328 44.8494C62.2186 39.5047 63.9519 33.793 64.4292 28.1819L70.5939 29.2152C70.4654 35.6008 68.7047 42.2085 65.1682 48.3339C55.0442 65.8691 34.3734 72.7695 18.8378 63.8C17.8198 63.2123 16.8508 62.5696 15.9296 61.8786C31.0113 68.3297 49.6745 61.2316 59.1328 44.8494Z" fill="#D2B82F"/>
<path d="M16.472 55.0164C24.1585 59.4542 33.3131 60.2552 42.2494 57.272C51.1856 54.2888 58.8658 47.8675 63.8751 39.191C64.6146 37.9103 65.2934 36.58 65.8925 35.237C66.0826 34.8109 65.9252 34.3372 65.5427 34.1793C65.1593 34.0211 64.6946 34.2382 64.5047 34.6641C63.9323 35.9471 63.2839 37.2181 62.5774 38.4417C57.794 46.7269 50.4611 52.8583 41.9298 55.7064C33.3985 58.5544 24.6579 57.7891 17.3182 53.5515C16.5716 53.1204 15.8323 52.6468 15.1209 52.1436C14.7827 51.9049 14.2961 52.0237 14.0341 52.41C13.7721 52.7964 13.8338 53.3035 14.1721 53.5428C14.9163 54.0692 15.6902 54.5651 16.472 55.0164Z" fill="#74640E"/>
</g>
<defs>
<clipPath id="clip0_558_9900">
<rect width="54.1422" height="61.111" fill="white" transform="matrix(-0.866025 -0.5 -0.5 0.866025 77.4441 27.0713)"/>
</clipPath>
</defs>
</svg>
